%TF.GenerationSoftware,KiCad,Pcbnew,6.0.11+dfsg-1~bpo11+1*%
%TF.CreationDate,2023-12-01T17:46:12+08:00*%
%TF.ProjectId,MiniAttenuMix v0.3 - Main,4d696e69-4174-4746-956e-754d69782076,v0.3*%
%TF.SameCoordinates,Original*%
%TF.FileFunction,Legend,Top*%
%TF.FilePolarity,Positive*%
%FSLAX46Y46*%
G04 Gerber Fmt 4.6, Leading zero omitted, Abs format (unit mm)*
G04 Created by KiCad (PCBNEW 6.0.11+dfsg-1~bpo11+1) date 2023-12-01 17:46:12*
%MOMM*%
%LPD*%
G01*
G04 APERTURE LIST*
%ADD10C,0.150000*%
%ADD11C,0.120000*%
G04 APERTURE END LIST*
D10*
%TO.C,RV4*%
X154379761Y-90377380D02*
X154046428Y-89901190D01*
X153808333Y-90377380D02*
X153808333Y-89377380D01*
X154189285Y-89377380D01*
X154284523Y-89425000D01*
X154332142Y-89472619D01*
X154379761Y-89567857D01*
X154379761Y-89710714D01*
X154332142Y-89805952D01*
X154284523Y-89853571D01*
X154189285Y-89901190D01*
X153808333Y-89901190D01*
X154665476Y-89377380D02*
X154998809Y-90377380D01*
X155332142Y-89377380D01*
X156094047Y-89710714D02*
X156094047Y-90377380D01*
X155855952Y-89329761D02*
X155617857Y-90044047D01*
X156236904Y-90044047D01*
%TO.C,OUT_INV1*%
X151952380Y-134502380D02*
X152142857Y-134502380D01*
X152238095Y-134550000D01*
X152333333Y-134645238D01*
X152380952Y-134835714D01*
X152380952Y-135169047D01*
X152333333Y-135359523D01*
X152238095Y-135454761D01*
X152142857Y-135502380D01*
X151952380Y-135502380D01*
X151857142Y-135454761D01*
X151761904Y-135359523D01*
X151714285Y-135169047D01*
X151714285Y-134835714D01*
X151761904Y-134645238D01*
X151857142Y-134550000D01*
X151952380Y-134502380D01*
X152809523Y-134502380D02*
X152809523Y-135311904D01*
X152857142Y-135407142D01*
X152904761Y-135454761D01*
X153000000Y-135502380D01*
X153190476Y-135502380D01*
X153285714Y-135454761D01*
X153333333Y-135407142D01*
X153380952Y-135311904D01*
X153380952Y-134502380D01*
X153714285Y-134502380D02*
X154285714Y-134502380D01*
X154000000Y-135502380D02*
X154000000Y-134502380D01*
X154380952Y-135597619D02*
X155142857Y-135597619D01*
X155380952Y-135502380D02*
X155380952Y-134502380D01*
X155857142Y-135502380D02*
X155857142Y-134502380D01*
X156428571Y-135502380D01*
X156428571Y-134502380D01*
X156761904Y-134502380D02*
X157095238Y-135502380D01*
X157428571Y-134502380D01*
X158285714Y-135502380D02*
X157714285Y-135502380D01*
X158000000Y-135502380D02*
X158000000Y-134502380D01*
X157904761Y-134645238D01*
X157809523Y-134740476D01*
X157714285Y-134788095D01*
%TO.C,D1*%
X147111904Y-113052380D02*
X147111904Y-112052380D01*
X147350000Y-112052380D01*
X147492857Y-112100000D01*
X147588095Y-112195238D01*
X147635714Y-112290476D01*
X147683333Y-112480952D01*
X147683333Y-112623809D01*
X147635714Y-112814285D01*
X147588095Y-112909523D01*
X147492857Y-113004761D01*
X147350000Y-113052380D01*
X147111904Y-113052380D01*
X148635714Y-113052380D02*
X148064285Y-113052380D01*
X148350000Y-113052380D02*
X148350000Y-112052380D01*
X148254761Y-112195238D01*
X148159523Y-112290476D01*
X148064285Y-112338095D01*
%TO.C,IN2*%
X140200000Y-55552380D02*
X140200000Y-54552380D01*
X140676190Y-55552380D02*
X140676190Y-54552380D01*
X141247619Y-55552380D01*
X141247619Y-54552380D01*
X141676190Y-54647619D02*
X141723809Y-54600000D01*
X141819047Y-54552380D01*
X142057142Y-54552380D01*
X142152380Y-54600000D01*
X142200000Y-54647619D01*
X142247619Y-54742857D01*
X142247619Y-54838095D01*
X142200000Y-54980952D01*
X141628571Y-55552380D01*
X142247619Y-55552380D01*
%TO.C,C1*%
X142233333Y-117957142D02*
X142185714Y-118004761D01*
X142042857Y-118052380D01*
X141947619Y-118052380D01*
X141804761Y-118004761D01*
X141709523Y-117909523D01*
X141661904Y-117814285D01*
X141614285Y-117623809D01*
X141614285Y-117480952D01*
X141661904Y-117290476D01*
X141709523Y-117195238D01*
X141804761Y-117100000D01*
X141947619Y-117052380D01*
X142042857Y-117052380D01*
X142185714Y-117100000D01*
X142233333Y-117147619D01*
X143185714Y-118052380D02*
X142614285Y-118052380D01*
X142900000Y-118052380D02*
X142900000Y-117052380D01*
X142804761Y-117195238D01*
X142709523Y-117290476D01*
X142614285Y-117338095D01*
%TO.C,RV1*%
X154579761Y-52877380D02*
X154246428Y-52401190D01*
X154008333Y-52877380D02*
X154008333Y-51877380D01*
X154389285Y-51877380D01*
X154484523Y-51925000D01*
X154532142Y-51972619D01*
X154579761Y-52067857D01*
X154579761Y-52210714D01*
X154532142Y-52305952D01*
X154484523Y-52353571D01*
X154389285Y-52401190D01*
X154008333Y-52401190D01*
X154865476Y-51877380D02*
X155198809Y-52877380D01*
X155532142Y-51877380D01*
X156389285Y-52877380D02*
X155817857Y-52877380D01*
X156103571Y-52877380D02*
X156103571Y-51877380D01*
X156008333Y-52020238D01*
X155913095Y-52115476D01*
X155817857Y-52163095D01*
%TO.C,RV3*%
X154029761Y-72777380D02*
X153696428Y-72301190D01*
X153458333Y-72777380D02*
X153458333Y-71777380D01*
X153839285Y-71777380D01*
X153934523Y-71825000D01*
X153982142Y-71872619D01*
X154029761Y-71967857D01*
X154029761Y-72110714D01*
X153982142Y-72205952D01*
X153934523Y-72253571D01*
X153839285Y-72301190D01*
X153458333Y-72301190D01*
X154315476Y-71777380D02*
X154648809Y-72777380D01*
X154982142Y-71777380D01*
X155220238Y-71777380D02*
X155839285Y-71777380D01*
X155505952Y-72158333D01*
X155648809Y-72158333D01*
X155744047Y-72205952D01*
X155791666Y-72253571D01*
X155839285Y-72348809D01*
X155839285Y-72586904D01*
X155791666Y-72682142D01*
X155744047Y-72729761D01*
X155648809Y-72777380D01*
X155363095Y-72777380D01*
X155267857Y-72729761D01*
X155220238Y-72682142D01*
%TO.C,C2*%
X150937142Y-129466666D02*
X150984761Y-129514285D01*
X151032380Y-129657142D01*
X151032380Y-129752380D01*
X150984761Y-129895238D01*
X150889523Y-129990476D01*
X150794285Y-130038095D01*
X150603809Y-130085714D01*
X150460952Y-130085714D01*
X150270476Y-130038095D01*
X150175238Y-129990476D01*
X150080000Y-129895238D01*
X150032380Y-129752380D01*
X150032380Y-129657142D01*
X150080000Y-129514285D01*
X150127619Y-129466666D01*
X150127619Y-129085714D02*
X150080000Y-129038095D01*
X150032380Y-128942857D01*
X150032380Y-128704761D01*
X150080000Y-128609523D01*
X150127619Y-128561904D01*
X150222857Y-128514285D01*
X150318095Y-128514285D01*
X150460952Y-128561904D01*
X151032380Y-129133333D01*
X151032380Y-128514285D01*
%TO.C,RV2*%
X154504761Y-55277380D02*
X154171428Y-54801190D01*
X153933333Y-55277380D02*
X153933333Y-54277380D01*
X154314285Y-54277380D01*
X154409523Y-54325000D01*
X154457142Y-54372619D01*
X154504761Y-54467857D01*
X154504761Y-54610714D01*
X154457142Y-54705952D01*
X154409523Y-54753571D01*
X154314285Y-54801190D01*
X153933333Y-54801190D01*
X154790476Y-54277380D02*
X155123809Y-55277380D01*
X155457142Y-54277380D01*
X155742857Y-54372619D02*
X155790476Y-54325000D01*
X155885714Y-54277380D01*
X156123809Y-54277380D01*
X156219047Y-54325000D01*
X156266666Y-54372619D01*
X156314285Y-54467857D01*
X156314285Y-54563095D01*
X156266666Y-54705952D01*
X155695238Y-55277380D01*
X156314285Y-55277380D01*
%TO.C,OUT1*%
X143523809Y-134502380D02*
X143714285Y-134502380D01*
X143809523Y-134550000D01*
X143904761Y-134645238D01*
X143952380Y-134835714D01*
X143952380Y-135169047D01*
X143904761Y-135359523D01*
X143809523Y-135454761D01*
X143714285Y-135502380D01*
X143523809Y-135502380D01*
X143428571Y-135454761D01*
X143333333Y-135359523D01*
X143285714Y-135169047D01*
X143285714Y-134835714D01*
X143333333Y-134645238D01*
X143428571Y-134550000D01*
X143523809Y-134502380D01*
X144380952Y-134502380D02*
X144380952Y-135311904D01*
X144428571Y-135407142D01*
X144476190Y-135454761D01*
X144571428Y-135502380D01*
X144761904Y-135502380D01*
X144857142Y-135454761D01*
X144904761Y-135407142D01*
X144952380Y-135311904D01*
X144952380Y-134502380D01*
X145285714Y-134502380D02*
X145857142Y-134502380D01*
X145571428Y-135502380D02*
X145571428Y-134502380D01*
X146714285Y-135502380D02*
X146142857Y-135502380D01*
X146428571Y-135502380D02*
X146428571Y-134502380D01*
X146333333Y-134645238D01*
X146238095Y-134740476D01*
X146142857Y-134788095D01*
%TO.C,IN3*%
X140200000Y-69952380D02*
X140200000Y-68952380D01*
X140676190Y-69952380D02*
X140676190Y-68952380D01*
X141247619Y-69952380D01*
X141247619Y-68952380D01*
X141628571Y-68952380D02*
X142247619Y-68952380D01*
X141914285Y-69333333D01*
X142057142Y-69333333D01*
X142152380Y-69380952D01*
X142200000Y-69428571D01*
X142247619Y-69523809D01*
X142247619Y-69761904D01*
X142200000Y-69857142D01*
X142152380Y-69904761D01*
X142057142Y-69952380D01*
X141771428Y-69952380D01*
X141676190Y-69904761D01*
X141628571Y-69857142D01*
%TO.C,IN4*%
X140200000Y-84352380D02*
X140200000Y-83352380D01*
X140676190Y-84352380D02*
X140676190Y-83352380D01*
X141247619Y-84352380D01*
X141247619Y-83352380D01*
X142152380Y-83685714D02*
X142152380Y-84352380D01*
X141914285Y-83304761D02*
X141676190Y-84019047D01*
X142295238Y-84019047D01*
%TO.C,IN1*%
X140100000Y-41052380D02*
X140100000Y-40052380D01*
X140576190Y-41052380D02*
X140576190Y-40052380D01*
X141147619Y-41052380D01*
X141147619Y-40052380D01*
X142147619Y-41052380D02*
X141576190Y-41052380D01*
X141861904Y-41052380D02*
X141861904Y-40052380D01*
X141766666Y-40195238D01*
X141671428Y-40290476D01*
X141576190Y-40338095D01*
%TO.C,RV5*%
X154504761Y-107577380D02*
X154171428Y-107101190D01*
X153933333Y-107577380D02*
X153933333Y-106577380D01*
X154314285Y-106577380D01*
X154409523Y-106625000D01*
X154457142Y-106672619D01*
X154504761Y-106767857D01*
X154504761Y-106910714D01*
X154457142Y-107005952D01*
X154409523Y-107053571D01*
X154314285Y-107101190D01*
X153933333Y-107101190D01*
X154790476Y-106577380D02*
X155123809Y-107577380D01*
X155457142Y-106577380D01*
X156266666Y-106577380D02*
X155790476Y-106577380D01*
X155742857Y-107053571D01*
X155790476Y-107005952D01*
X155885714Y-106958333D01*
X156123809Y-106958333D01*
X156219047Y-107005952D01*
X156266666Y-107053571D01*
X156314285Y-107148809D01*
X156314285Y-107386904D01*
X156266666Y-107482142D01*
X156219047Y-107529761D01*
X156123809Y-107577380D01*
X155885714Y-107577380D01*
X155790476Y-107529761D01*
X155742857Y-107482142D01*
%TO.C,IN5*%
X140200000Y-98852380D02*
X140200000Y-97852380D01*
X140676190Y-98852380D02*
X140676190Y-97852380D01*
X141247619Y-98852380D01*
X141247619Y-97852380D01*
X142200000Y-97852380D02*
X141723809Y-97852380D01*
X141676190Y-98328571D01*
X141723809Y-98280952D01*
X141819047Y-98233333D01*
X142057142Y-98233333D01*
X142152380Y-98280952D01*
X142200000Y-98328571D01*
X142247619Y-98423809D01*
X142247619Y-98661904D01*
X142200000Y-98757142D01*
X142152380Y-98804761D01*
X142057142Y-98852380D01*
X141819047Y-98852380D01*
X141723809Y-98804761D01*
X141676190Y-98757142D01*
D11*
%TO.C,RV4*%
X154310000Y-102245000D02*
X153780000Y-102245000D01*
X159970000Y-93715000D02*
X159970000Y-90655000D01*
X156760000Y-102245000D02*
X155930000Y-102245000D01*
X159970000Y-102245000D02*
X158480000Y-102245000D01*
X150230000Y-93715000D02*
X150230000Y-90655000D01*
X159970000Y-90655000D02*
X150230000Y-90655000D01*
X150220000Y-102245000D02*
X150220000Y-97525000D01*
X151410000Y-102245000D02*
X150230000Y-102245000D01*
X159970000Y-102245000D02*
X159970000Y-97525000D01*
%TO.C,OUT_INV1*%
X153940000Y-136550000D02*
X154800000Y-136550000D01*
X153940000Y-136550000D02*
X153940000Y-137350000D01*
X150500000Y-139530000D02*
X150500000Y-150030000D01*
X154650000Y-139530000D02*
X150500000Y-139530000D01*
X154500000Y-150030000D02*
X150500000Y-150030000D01*
X159500000Y-150030000D02*
X155500000Y-150030000D01*
X159500000Y-139530000D02*
X159500000Y-150030000D01*
X159500000Y-139530000D02*
X155350000Y-139530000D01*
X156800000Y-144030000D02*
G75*
G03*
X156800000Y-144030000I-1800000J0D01*
G01*
%TO.C,D1*%
X146065000Y-111520000D02*
X146065000Y-111364000D01*
X146065000Y-113836000D02*
X146065000Y-113680000D01*
X143463870Y-113679837D02*
G75*
G03*
X145545961Y-113680000I1041130J1079837D01*
G01*
X146065000Y-111364484D02*
G75*
G03*
X142832665Y-111521392I-1560000J-1235516D01*
G01*
X142832665Y-113678608D02*
G75*
G03*
X146065000Y-113835516I1672335J1078608D01*
G01*
X145545961Y-111520000D02*
G75*
G03*
X143463870Y-111520163I-1040961J-1080000D01*
G01*
%TO.C,IN2*%
X143540000Y-52870000D02*
X143540000Y-53670000D01*
X144100000Y-66350000D02*
X140100000Y-66350000D01*
X143540000Y-52870000D02*
X144400000Y-52870000D01*
X140100000Y-55850000D02*
X140100000Y-66350000D01*
X149100000Y-66350000D02*
X145100000Y-66350000D01*
X144250000Y-55850000D02*
X140100000Y-55850000D01*
X149100000Y-55850000D02*
X144950000Y-55850000D01*
X149100000Y-55850000D02*
X149100000Y-66350000D01*
X146400000Y-60350000D02*
G75*
G03*
X146400000Y-60350000I-1800000J0D01*
G01*
%TO.C,C1*%
X145511252Y-118285000D02*
X144988748Y-118285000D01*
X145511252Y-116815000D02*
X144988748Y-116815000D01*
%TO.C,RV1*%
X159970000Y-49745000D02*
X158480000Y-49745000D01*
X159970000Y-49745000D02*
X159970000Y-45025000D01*
X156760000Y-49745000D02*
X155930000Y-49745000D01*
X159970000Y-41215000D02*
X159970000Y-38155000D01*
X151410000Y-49745000D02*
X150230000Y-49745000D01*
X154310000Y-49745000D02*
X153780000Y-49745000D01*
X159970000Y-38155000D02*
X150230000Y-38155000D01*
X150230000Y-41215000D02*
X150230000Y-38155000D01*
X150220000Y-49745000D02*
X150220000Y-45025000D01*
%TO.C,RV3*%
X150230000Y-76115000D02*
X150230000Y-73055000D01*
X159970000Y-73055000D02*
X150230000Y-73055000D01*
X154310000Y-84645000D02*
X153780000Y-84645000D01*
X156760000Y-84645000D02*
X155930000Y-84645000D01*
X150220000Y-84645000D02*
X150220000Y-79925000D01*
X159970000Y-84645000D02*
X159970000Y-79925000D01*
X151410000Y-84645000D02*
X150230000Y-84645000D01*
X159970000Y-84645000D02*
X158480000Y-84645000D01*
X159970000Y-76115000D02*
X159970000Y-73055000D01*
%TO.C,C2*%
X148165000Y-129038748D02*
X148165000Y-129561252D01*
X149635000Y-129038748D02*
X149635000Y-129561252D01*
%TO.C,RV2*%
X159970000Y-58662800D02*
X159970000Y-55602800D01*
X159970000Y-55602800D02*
X150230000Y-55602800D01*
X159970000Y-67192800D02*
X159970000Y-62472800D01*
X150220000Y-67192800D02*
X150220000Y-62472800D01*
X151410000Y-67192800D02*
X150230000Y-67192800D01*
X159970000Y-67192800D02*
X158480000Y-67192800D01*
X154310000Y-67192800D02*
X153780000Y-67192800D01*
X150230000Y-58662800D02*
X150230000Y-55602800D01*
X156760000Y-67192800D02*
X155930000Y-67192800D01*
%TO.C,OUT1*%
X143940000Y-136550000D02*
X144800000Y-136550000D01*
X144500000Y-150030000D02*
X140500000Y-150030000D01*
X149500000Y-150030000D02*
X145500000Y-150030000D01*
X149500000Y-139530000D02*
X149500000Y-150030000D01*
X149500000Y-139530000D02*
X145350000Y-139530000D01*
X143940000Y-136550000D02*
X143940000Y-137350000D01*
X144650000Y-139530000D02*
X140500000Y-139530000D01*
X140500000Y-139530000D02*
X140500000Y-150030000D01*
X146800000Y-144030000D02*
G75*
G03*
X146800000Y-144030000I-1800000J0D01*
G01*
%TO.C,IN3*%
X143540000Y-67300000D02*
X143540000Y-68100000D01*
X140100000Y-70280000D02*
X140100000Y-80780000D01*
X149100000Y-70280000D02*
X144950000Y-70280000D01*
X144250000Y-70280000D02*
X140100000Y-70280000D01*
X149100000Y-70280000D02*
X149100000Y-80780000D01*
X144100000Y-80780000D02*
X140100000Y-80780000D01*
X149100000Y-80780000D02*
X145100000Y-80780000D01*
X143540000Y-67300000D02*
X144400000Y-67300000D01*
X146400000Y-74780000D02*
G75*
G03*
X146400000Y-74780000I-1800000J0D01*
G01*
%TO.C,IN4*%
X140100000Y-84700000D02*
X140100000Y-95200000D01*
X143540000Y-81720000D02*
X144400000Y-81720000D01*
X149100000Y-95200000D02*
X145100000Y-95200000D01*
X144100000Y-95200000D02*
X140100000Y-95200000D01*
X149100000Y-84700000D02*
X149100000Y-95200000D01*
X149100000Y-84700000D02*
X144950000Y-84700000D01*
X144250000Y-84700000D02*
X140100000Y-84700000D01*
X143540000Y-81720000D02*
X143540000Y-82520000D01*
X146400000Y-89200000D02*
G75*
G03*
X146400000Y-89200000I-1800000J0D01*
G01*
%TO.C,IN1*%
X140100000Y-41400000D02*
X140100000Y-51900000D01*
X143540000Y-38420000D02*
X143540000Y-39220000D01*
X149100000Y-51900000D02*
X145100000Y-51900000D01*
X149100000Y-41400000D02*
X149100000Y-51900000D01*
X143540000Y-38420000D02*
X144400000Y-38420000D01*
X144100000Y-51900000D02*
X140100000Y-51900000D01*
X149100000Y-41400000D02*
X144950000Y-41400000D01*
X144250000Y-41400000D02*
X140100000Y-41400000D01*
X146400000Y-45900000D02*
G75*
G03*
X146400000Y-45900000I-1800000J0D01*
G01*
%TO.C,RV5*%
X150230000Y-111115000D02*
X150230000Y-108055000D01*
X154310000Y-119645000D02*
X153780000Y-119645000D01*
X159970000Y-119645000D02*
X158480000Y-119645000D01*
X159970000Y-111115000D02*
X159970000Y-108055000D01*
X151410000Y-119645000D02*
X150230000Y-119645000D01*
X150220000Y-119645000D02*
X150220000Y-114925000D01*
X159970000Y-119645000D02*
X159970000Y-114925000D01*
X156760000Y-119645000D02*
X155930000Y-119645000D01*
X159970000Y-108055000D02*
X150230000Y-108055000D01*
%TO.C,IN5*%
X149100000Y-99150000D02*
X144950000Y-99150000D01*
X144100000Y-109650000D02*
X140100000Y-109650000D01*
X143540000Y-96170000D02*
X144400000Y-96170000D01*
X144250000Y-99150000D02*
X140100000Y-99150000D01*
X149100000Y-109650000D02*
X145100000Y-109650000D01*
X143540000Y-96170000D02*
X143540000Y-96970000D01*
X140100000Y-99150000D02*
X140100000Y-109650000D01*
X149100000Y-99150000D02*
X149100000Y-109650000D01*
X146400000Y-103650000D02*
G75*
G03*
X146400000Y-103650000I-1800000J0D01*
G01*
%TD*%
M02*
