%TF.GenerationSoftware,KiCad,Pcbnew,6.0.11+dfsg-1~bpo11+1*%
%TF.CreationDate,2023-12-01T17:46:12+08:00*%
%TF.ProjectId,MiniAttenuMix v0.3 - Main,4d696e69-4174-4746-956e-754d69782076,v0.3*%
%TF.SameCoordinates,Original*%
%TF.FileFunction,Soldermask,Bot*%
%TF.FilePolarity,Negative*%
%FSLAX46Y46*%
G04 Gerber Fmt 4.6, Leading zero omitted, Abs format (unit mm)*
G04 Created by KiCad (PCBNEW 6.0.11+dfsg-1~bpo11+1) date 2023-12-01 17:46:12*
%MOMM*%
%LPD*%
G01*
G04 APERTURE LIST*
G04 Aperture macros list*
%AMRoundRect*
0 Rectangle with rounded corners*
0 $1 Rounding radius*
0 $2 $3 $4 $5 $6 $7 $8 $9 X,Y pos of 4 corners*
0 Add a 4 corners polygon primitive as box body*
4,1,4,$2,$3,$4,$5,$6,$7,$8,$9,$2,$3,0*
0 Add four circle primitives for the rounded corners*
1,1,$1+$1,$2,$3*
1,1,$1+$1,$4,$5*
1,1,$1+$1,$6,$7*
1,1,$1+$1,$8,$9*
0 Add four rect primitives between the rounded corners*
20,1,$1+$1,$2,$3,$4,$5,0*
20,1,$1+$1,$4,$5,$6,$7,0*
20,1,$1+$1,$6,$7,$8,$9,0*
20,1,$1+$1,$8,$9,$2,$3,0*%
G04 Aperture macros list end*
%ADD10O,2.720000X3.240000*%
%ADD11R,1.800000X1.800000*%
%ADD12C,1.800000*%
%ADD13R,1.930000X1.830000*%
%ADD14C,2.130000*%
%ADD15RoundRect,0.237500X0.250000X0.237500X-0.250000X0.237500X-0.250000X-0.237500X0.250000X-0.237500X0*%
%ADD16RoundRect,0.150000X-0.150000X0.825000X-0.150000X-0.825000X0.150000X-0.825000X0.150000X0.825000X0*%
%ADD17RoundRect,0.237500X-0.250000X-0.237500X0.250000X-0.237500X0.250000X0.237500X-0.250000X0.237500X0*%
%ADD18RoundRect,0.237500X-0.237500X0.250000X-0.237500X-0.250000X0.237500X-0.250000X0.237500X0.250000X0*%
%ADD19RoundRect,0.250000X-0.600000X-0.600000X0.600000X-0.600000X0.600000X0.600000X-0.600000X0.600000X0*%
%ADD20C,1.700000*%
%ADD21RoundRect,0.237500X0.237500X-0.250000X0.237500X0.250000X-0.237500X0.250000X-0.237500X-0.250000X0*%
G04 APERTURE END LIST*
D10*
%TO.C,RV4*%
X159900000Y-95625000D03*
X150300000Y-95625000D03*
D11*
X152600000Y-103125000D03*
D12*
X155100000Y-103125000D03*
X157600000Y-103125000D03*
%TD*%
D13*
%TO.C,OUT_INV1*%
X155000000Y-137550000D03*
D14*
X155000000Y-148950000D03*
X155000000Y-140650000D03*
%TD*%
D11*
%TO.C,D1*%
X145775000Y-112600000D03*
D12*
X143235000Y-112600000D03*
%TD*%
D13*
%TO.C,IN2*%
X144600000Y-53870000D03*
D14*
X144600000Y-65270000D03*
X144600000Y-56970000D03*
%TD*%
D10*
%TO.C,RV1*%
X159900000Y-43125000D03*
X150300000Y-43125000D03*
D11*
X152600000Y-50625000D03*
D12*
X155100000Y-50625000D03*
X157600000Y-50625000D03*
%TD*%
D10*
%TO.C,RV3*%
X159900000Y-78025000D03*
X150300000Y-78025000D03*
D11*
X152600000Y-85525000D03*
D12*
X155100000Y-85525000D03*
X157600000Y-85525000D03*
%TD*%
D10*
%TO.C,RV2*%
X159900000Y-60572800D03*
X150300000Y-60572800D03*
D11*
X152600000Y-68072800D03*
D12*
X155100000Y-68072800D03*
X157600000Y-68072800D03*
%TD*%
D13*
%TO.C,OUT1*%
X145000000Y-137550000D03*
D14*
X145000000Y-148950000D03*
X145000000Y-140650000D03*
%TD*%
D13*
%TO.C,IN3*%
X144600000Y-68300000D03*
D14*
X144600000Y-79700000D03*
X144600000Y-71400000D03*
%TD*%
D13*
%TO.C,IN4*%
X144600000Y-82720000D03*
D14*
X144600000Y-94120000D03*
X144600000Y-85820000D03*
%TD*%
D13*
%TO.C,IN1*%
X144600000Y-39420000D03*
D14*
X144600000Y-50820000D03*
X144600000Y-42520000D03*
%TD*%
D10*
%TO.C,RV5*%
X159900000Y-113025000D03*
X150300000Y-113025000D03*
D11*
X152600000Y-120525000D03*
D12*
X155100000Y-120525000D03*
X157600000Y-120525000D03*
%TD*%
D13*
%TO.C,IN5*%
X144600000Y-97170000D03*
D14*
X144600000Y-108570000D03*
X144600000Y-100270000D03*
%TD*%
D15*
%TO.C,R16*%
X152602500Y-124500000D03*
X150777500Y-124500000D03*
%TD*%
D16*
%TO.C,U1*%
X152890000Y-56774076D03*
X154160000Y-56774076D03*
X155430000Y-56774076D03*
X156700000Y-56774076D03*
X156700000Y-61724076D03*
X155430000Y-61724076D03*
X154160000Y-61724076D03*
X152890000Y-61724076D03*
%TD*%
D15*
%TO.C,R18*%
X152602500Y-133600000D03*
X150777500Y-133600000D03*
%TD*%
D17*
%TO.C,R1*%
X152832500Y-53149076D03*
X154657500Y-53149076D03*
%TD*%
D18*
%TO.C,R11*%
X149400000Y-106587500D03*
X149400000Y-108412500D03*
%TD*%
D15*
%TO.C,R9*%
X155172400Y-98327600D03*
X153347400Y-98327600D03*
%TD*%
D17*
%TO.C,R4*%
X153372400Y-99902600D03*
X155197400Y-99902600D03*
%TD*%
D19*
%TO.C,J1*%
X143697500Y-130330000D03*
D20*
X146237500Y-130330000D03*
X143697500Y-127790000D03*
X146237500Y-127790000D03*
X143697500Y-125250000D03*
X146237500Y-125250000D03*
X143697500Y-122710000D03*
X146237500Y-122710000D03*
X143697500Y-120170000D03*
X146237500Y-120170000D03*
%TD*%
D17*
%TO.C,R17*%
X150777500Y-135200000D03*
X152602500Y-135200000D03*
%TD*%
%TO.C,R22*%
X157097500Y-133590000D03*
X158922500Y-133590000D03*
%TD*%
D15*
%TO.C,R7*%
X155457500Y-63774076D03*
X153632500Y-63774076D03*
%TD*%
D18*
%TO.C,R13*%
X152600000Y-106587500D03*
X152600000Y-108412500D03*
%TD*%
D17*
%TO.C,R3*%
X152587500Y-87652600D03*
X154412500Y-87652600D03*
%TD*%
%TO.C,R10*%
X156877500Y-124300000D03*
X158702500Y-124300000D03*
%TD*%
D18*
%TO.C,R21*%
X149300000Y-140287500D03*
X149300000Y-142112500D03*
%TD*%
D15*
%TO.C,R6*%
X154657500Y-54749076D03*
X152832500Y-54749076D03*
%TD*%
D18*
%TO.C,R12*%
X151000000Y-106587500D03*
X151000000Y-108412500D03*
%TD*%
D15*
%TO.C,R8*%
X154382400Y-89177600D03*
X152557400Y-89177600D03*
%TD*%
D18*
%TO.C,R14*%
X154200000Y-106587500D03*
X154200000Y-108412500D03*
%TD*%
D21*
%TO.C,R19*%
X147828000Y-112926500D03*
X147828000Y-111101500D03*
%TD*%
D16*
%TO.C,U2*%
X152614900Y-91202600D03*
X153884900Y-91202600D03*
X155154900Y-91202600D03*
X156424900Y-91202600D03*
X156424900Y-96152600D03*
X155154900Y-96152600D03*
X153884900Y-96152600D03*
X152614900Y-96152600D03*
%TD*%
D18*
%TO.C,R20*%
X158000000Y-137087500D03*
X158000000Y-138912500D03*
%TD*%
D16*
%TO.C,U3*%
X150780000Y-126550000D03*
X152050000Y-126550000D03*
X153320000Y-126550000D03*
X154590000Y-126550000D03*
X155860000Y-126550000D03*
X157130000Y-126550000D03*
X158400000Y-126550000D03*
X158400000Y-131500000D03*
X157130000Y-131500000D03*
X155860000Y-131500000D03*
X154590000Y-131500000D03*
X153320000Y-131500000D03*
X152050000Y-131500000D03*
X150780000Y-131500000D03*
%TD*%
D18*
%TO.C,R15*%
X147800000Y-106587500D03*
X147800000Y-108412500D03*
%TD*%
D17*
%TO.C,R2*%
X153632500Y-65349076D03*
X155457500Y-65349076D03*
%TD*%
%TO.C,R5*%
X155087500Y-122700000D03*
X156912500Y-122700000D03*
%TD*%
M02*
