%TF.GenerationSoftware,KiCad,Pcbnew,6.0.11+dfsg-1~bpo11+1*%
%TF.CreationDate,2023-12-01T17:46:12+08:00*%
%TF.ProjectId,MiniAttenuMix v0.3 - Main,4d696e69-4174-4746-956e-754d69782076,v0.3*%
%TF.SameCoordinates,Original*%
%TF.FileFunction,Copper,L1,Top*%
%TF.FilePolarity,Positive*%
%FSLAX46Y46*%
G04 Gerber Fmt 4.6, Leading zero omitted, Abs format (unit mm)*
G04 Created by KiCad (PCBNEW 6.0.11+dfsg-1~bpo11+1) date 2023-12-01 17:46:12*
%MOMM*%
%LPD*%
G01*
G04 APERTURE LIST*
G04 Aperture macros list*
%AMRoundRect*
0 Rectangle with rounded corners*
0 $1 Rounding radius*
0 $2 $3 $4 $5 $6 $7 $8 $9 X,Y pos of 4 corners*
0 Add a 4 corners polygon primitive as box body*
4,1,4,$2,$3,$4,$5,$6,$7,$8,$9,$2,$3,0*
0 Add four circle primitives for the rounded corners*
1,1,$1+$1,$2,$3*
1,1,$1+$1,$4,$5*
1,1,$1+$1,$6,$7*
1,1,$1+$1,$8,$9*
0 Add four rect primitives between the rounded corners*
20,1,$1+$1,$2,$3,$4,$5,0*
20,1,$1+$1,$4,$5,$6,$7,0*
20,1,$1+$1,$6,$7,$8,$9,0*
20,1,$1+$1,$8,$9,$2,$3,0*%
G04 Aperture macros list end*
%TA.AperFunction,ComponentPad*%
%ADD10O,2.720000X3.240000*%
%TD*%
%TA.AperFunction,ComponentPad*%
%ADD11R,1.800000X1.800000*%
%TD*%
%TA.AperFunction,ComponentPad*%
%ADD12C,1.800000*%
%TD*%
%TA.AperFunction,ComponentPad*%
%ADD13R,1.930000X1.830000*%
%TD*%
%TA.AperFunction,ComponentPad*%
%ADD14C,2.130000*%
%TD*%
%TA.AperFunction,SMDPad,CuDef*%
%ADD15RoundRect,0.250000X0.337500X0.475000X-0.337500X0.475000X-0.337500X-0.475000X0.337500X-0.475000X0*%
%TD*%
%TA.AperFunction,SMDPad,CuDef*%
%ADD16RoundRect,0.250000X-0.475000X0.337500X-0.475000X-0.337500X0.475000X-0.337500X0.475000X0.337500X0*%
%TD*%
%TA.AperFunction,ComponentPad*%
%ADD17RoundRect,0.250000X-0.600000X-0.600000X0.600000X-0.600000X0.600000X0.600000X-0.600000X0.600000X0*%
%TD*%
%TA.AperFunction,ComponentPad*%
%ADD18C,1.700000*%
%TD*%
%TA.AperFunction,ViaPad*%
%ADD19C,1.600000*%
%TD*%
%TA.AperFunction,ViaPad*%
%ADD20C,0.800000*%
%TD*%
%TA.AperFunction,Conductor*%
%ADD21C,0.500000*%
%TD*%
%TA.AperFunction,Conductor*%
%ADD22C,0.250000*%
%TD*%
G04 APERTURE END LIST*
D10*
%TO.P,RV4,*%
%TO.N,*%
X159900000Y-95625000D03*
X150300000Y-95625000D03*
D11*
%TO.P,RV4,1,1*%
%TO.N,Net-(IN4-PadT)*%
X152600000Y-103125000D03*
D12*
%TO.P,RV4,2,2*%
%TO.N,Net-(RV4-Pad2)*%
X155100000Y-103125000D03*
%TO.P,RV4,3,3*%
%TO.N,GND*%
X157600000Y-103125000D03*
%TD*%
D13*
%TO.P,OUT_INV1,S*%
%TO.N,GND*%
X155000000Y-137550000D03*
D14*
%TO.P,OUT_INV1,T*%
%TO.N,Net-(OUT_INV1-PadT)*%
X155000000Y-148950000D03*
%TO.P,OUT_INV1,TN*%
%TO.N,unconnected-(OUT_INV1-PadTN)*%
X155000000Y-140650000D03*
%TD*%
D11*
%TO.P,D1,1,KA*%
%TO.N,Net-(D1-Pad1)*%
X145775000Y-112600000D03*
D12*
%TO.P,D1,2,AK*%
%TO.N,Net-(D1-Pad2)*%
X143235000Y-112600000D03*
%TD*%
D13*
%TO.P,IN2,S*%
%TO.N,GND*%
X144600000Y-53870000D03*
D14*
%TO.P,IN2,T*%
%TO.N,Net-(IN2-PadT)*%
X144600000Y-65270000D03*
%TO.P,IN2,TN*%
%TO.N,GND*%
X144600000Y-56970000D03*
%TD*%
D15*
%TO.P,C1,1*%
%TO.N,POS_12V*%
X146287500Y-117550000D03*
%TO.P,C1,2*%
%TO.N,GND*%
X144212500Y-117550000D03*
%TD*%
D10*
%TO.P,RV1,*%
%TO.N,*%
X159900000Y-43125000D03*
X150300000Y-43125000D03*
D11*
%TO.P,RV1,1,1*%
%TO.N,Net-(IN1-PadT)*%
X152600000Y-50625000D03*
D12*
%TO.P,RV1,2,2*%
%TO.N,Net-(RV1-Pad2)*%
X155100000Y-50625000D03*
%TO.P,RV1,3,3*%
%TO.N,GND*%
X157600000Y-50625000D03*
%TD*%
D10*
%TO.P,RV3,*%
%TO.N,*%
X159900000Y-78025000D03*
X150300000Y-78025000D03*
D11*
%TO.P,RV3,1,1*%
%TO.N,Net-(IN3-PadT)*%
X152600000Y-85525000D03*
D12*
%TO.P,RV3,2,2*%
%TO.N,Net-(RV3-Pad2)*%
X155100000Y-85525000D03*
%TO.P,RV3,3,3*%
%TO.N,GND*%
X157600000Y-85525000D03*
%TD*%
D16*
%TO.P,C2,1*%
%TO.N,GND*%
X148900000Y-128262500D03*
%TO.P,C2,2*%
%TO.N,NEG_12V*%
X148900000Y-130337500D03*
%TD*%
D10*
%TO.P,RV2,*%
%TO.N,*%
X159900000Y-60572800D03*
X150300000Y-60572800D03*
D11*
%TO.P,RV2,1,1*%
%TO.N,Net-(IN2-PadT)*%
X152600000Y-68072800D03*
D12*
%TO.P,RV2,2,2*%
%TO.N,Net-(RV2-Pad2)*%
X155100000Y-68072800D03*
%TO.P,RV2,3,3*%
%TO.N,GND*%
X157600000Y-68072800D03*
%TD*%
D13*
%TO.P,OUT1,S*%
%TO.N,GND*%
X145000000Y-137550000D03*
D14*
%TO.P,OUT1,T*%
%TO.N,Net-(OUT1-PadT)*%
X145000000Y-148950000D03*
%TO.P,OUT1,TN*%
%TO.N,unconnected-(OUT1-PadTN)*%
X145000000Y-140650000D03*
%TD*%
D13*
%TO.P,IN3,S*%
%TO.N,GND*%
X144600000Y-68300000D03*
D14*
%TO.P,IN3,T*%
%TO.N,Net-(IN3-PadT)*%
X144600000Y-79700000D03*
%TO.P,IN3,TN*%
%TO.N,GND*%
X144600000Y-71400000D03*
%TD*%
D13*
%TO.P,IN4,S*%
%TO.N,GND*%
X144600000Y-82720000D03*
D14*
%TO.P,IN4,T*%
%TO.N,Net-(IN4-PadT)*%
X144600000Y-94120000D03*
%TO.P,IN4,TN*%
%TO.N,GND*%
X144600000Y-85820000D03*
%TD*%
D13*
%TO.P,IN1,S*%
%TO.N,GND*%
X144600000Y-39420000D03*
D14*
%TO.P,IN1,T*%
%TO.N,Net-(IN1-PadT)*%
X144600000Y-50820000D03*
%TO.P,IN1,TN*%
%TO.N,POS_12V*%
X144600000Y-42520000D03*
%TD*%
D10*
%TO.P,RV5,*%
%TO.N,*%
X159900000Y-113025000D03*
X150300000Y-113025000D03*
D11*
%TO.P,RV5,1,1*%
%TO.N,Net-(IN5-PadT)*%
X152600000Y-120525000D03*
D12*
%TO.P,RV5,2,2*%
%TO.N,Net-(RV5-Pad2)*%
X155100000Y-120525000D03*
%TO.P,RV5,3,3*%
%TO.N,GND*%
X157600000Y-120525000D03*
%TD*%
D13*
%TO.P,IN5,S*%
%TO.N,GND*%
X144600000Y-97170000D03*
D14*
%TO.P,IN5,T*%
%TO.N,Net-(IN5-PadT)*%
X144600000Y-108570000D03*
%TO.P,IN5,TN*%
%TO.N,GND*%
X144600000Y-100270000D03*
%TD*%
D17*
%TO.P,J1,1,Pin_1*%
%TO.N,NEG_12V*%
X143697500Y-130330000D03*
D18*
%TO.P,J1,2,Pin_2*%
X146237500Y-130330000D03*
%TO.P,J1,3,Pin_3*%
%TO.N,GND*%
X143697500Y-127790000D03*
%TO.P,J1,4,Pin_4*%
X146237500Y-127790000D03*
%TO.P,J1,5,Pin_5*%
X143697500Y-125250000D03*
%TO.P,J1,6,Pin_6*%
X146237500Y-125250000D03*
%TO.P,J1,7,Pin_7*%
X143697500Y-122710000D03*
%TO.P,J1,8,Pin_8*%
X146237500Y-122710000D03*
%TO.P,J1,9,Pin_9*%
%TO.N,POS_12V*%
X143697500Y-120170000D03*
%TO.P,J1,10,Pin_10*%
X146237500Y-120170000D03*
%TD*%
D19*
%TO.N,POS_12V*%
X153454900Y-93700000D03*
X153700000Y-59150000D03*
D20*
X151983069Y-128515500D03*
%TO.N,GND*%
X153325000Y-125950000D03*
X153300000Y-127375000D03*
D19*
X142625000Y-115725000D03*
D20*
X153290000Y-130800000D03*
D19*
X144525000Y-115700000D03*
D20*
X158496000Y-135000000D03*
X153290000Y-132400000D03*
X157480000Y-135000000D03*
X159512000Y-135000000D03*
X153325000Y-126625000D03*
X153290000Y-131600000D03*
D19*
%TO.N,NEG_12V*%
X154554000Y-133990000D03*
X158147792Y-56747792D03*
X156800000Y-93800000D03*
D20*
%TO.N,Net-(D1-Pad2)*%
X156464000Y-129032000D03*
%TO.N,Net-(RV5-Pad2)*%
X155600000Y-124026000D03*
%TO.N,Net-(R19-Pad1)*%
X157226000Y-128270000D03*
X147828000Y-114554000D03*
%TD*%
D21*
%TO.N,POS_12V*%
X143600000Y-63300000D02*
X150816791Y-63300000D01*
X141000000Y-117472500D02*
X141000000Y-95450000D01*
X153700000Y-60416791D02*
X153700000Y-59150000D01*
X141000000Y-93500000D02*
X141000000Y-94400000D01*
X151983069Y-125915569D02*
X151983069Y-128515500D01*
X141000000Y-95450000D02*
X141000000Y-46120000D01*
X151254900Y-91500000D02*
X143000000Y-91500000D01*
X141000000Y-95450000D02*
X141000000Y-94400000D01*
X146287500Y-117550000D02*
X146287500Y-120120000D01*
X143697500Y-120170000D02*
X146237500Y-120170000D01*
X141000000Y-65500000D02*
X141000000Y-46120000D01*
X141000000Y-94400000D02*
X141000000Y-66000000D01*
X146237500Y-120170000D02*
X151983069Y-125915569D01*
X141000000Y-66000000D02*
X141000000Y-65500000D01*
X141000000Y-66000000D02*
X141000000Y-65900000D01*
X146237500Y-120170000D02*
G75*
G03*
X146287500Y-120120000I0J50000D01*
G01*
X141000000Y-93500000D02*
G75*
G02*
X143000000Y-91500000I2000000J0D01*
G01*
X144600000Y-42520000D02*
G75*
G03*
X141000000Y-46120000I0J-3600000D01*
G01*
X151254900Y-91500000D02*
G75*
G02*
X153454900Y-93700000I0J-2200000D01*
G01*
X141000000Y-117472500D02*
G75*
G03*
X143697500Y-120170000I2697500J0D01*
G01*
X143600000Y-63300000D02*
G75*
G03*
X141000000Y-65900000I0J-2600000D01*
G01*
X153700000Y-60416791D02*
G75*
G02*
X150816791Y-63300000I-2883200J-9D01*
G01*
%TO.N,NEG_12V*%
X154554000Y-133990000D02*
X154590000Y-133990000D01*
X159300000Y-67000000D02*
X159300000Y-72402944D01*
X156700000Y-58195584D02*
X156700000Y-64400000D01*
X159300000Y-85597056D02*
X159300000Y-87785787D01*
X158310051Y-109389950D02*
X158200000Y-109500000D01*
X148900000Y-130337500D02*
X143705000Y-130337500D01*
X157900000Y-117300000D02*
X158692893Y-118092893D01*
X152552500Y-133990000D02*
X154554000Y-133990000D01*
X159400000Y-119800000D02*
X159300000Y-129280000D01*
X157200000Y-77472792D02*
X157200000Y-80527208D01*
X156800000Y-93821320D02*
X156800000Y-97700000D01*
X158200000Y-109500000D02*
X157860661Y-109839339D01*
X156800000Y-112400000D02*
X156800000Y-114644366D01*
X157719239Y-99919239D02*
X158805025Y-101005026D01*
X159300000Y-102200000D02*
X159300000Y-107000000D01*
X159300018Y-85597056D02*
G75*
G03*
X158100000Y-82700000I-4097118J-44D01*
G01*
X157199997Y-77472792D02*
G75*
G02*
X158100000Y-75300000I3072803J-8D01*
G01*
X158300004Y-90200004D02*
G75*
G03*
X159300000Y-87785787I-2414204J2414204D01*
G01*
X154590000Y-133990000D02*
G75*
G03*
X159300000Y-129280000I0J4710000D01*
G01*
X158310051Y-109389950D02*
G75*
G03*
X159300000Y-107000000I-2389951J2389950D01*
G01*
X158100002Y-82699998D02*
G75*
G02*
X157200000Y-80527208I2172798J2172798D01*
G01*
X157600000Y-65300000D02*
G75*
G02*
X156700000Y-64400000I0J900000D01*
G01*
X152552500Y-133990000D02*
G75*
G02*
X148900000Y-130337500I0J3652500D01*
G01*
X156699992Y-58195584D02*
G75*
G02*
X158147792Y-56747792I1447808J-16D01*
G01*
X156800009Y-93821320D02*
G75*
G02*
X158300000Y-90200000I5121291J20D01*
G01*
X159300000Y-67000000D02*
G75*
G03*
X157600000Y-65300000I-1700000J0D01*
G01*
X157899990Y-117300010D02*
G75*
G02*
X156800000Y-114644366I2655610J2655610D01*
G01*
X159299984Y-102200000D02*
G75*
G03*
X158805025Y-101005026I-1689984J0D01*
G01*
X143697500Y-130330000D02*
G75*
G03*
X143705000Y-130337500I7500J0D01*
G01*
X158099987Y-75299987D02*
G75*
G03*
X159300000Y-72402944I-2897087J2897087D01*
G01*
X156799995Y-112400000D02*
G75*
G02*
X157860662Y-109839340I3621305J0D01*
G01*
X159400003Y-119800000D02*
G75*
G03*
X158692892Y-118092894I-2414203J0D01*
G01*
X157719234Y-99919244D02*
G75*
G02*
X156800000Y-97700000I2219266J2219244D01*
G01*
D22*
%TO.N,Net-(D1-Pad2)*%
X146987437Y-116200000D02*
X146835000Y-116200000D01*
X146835000Y-116200000D02*
X143235000Y-112600000D01*
X156464000Y-129032000D02*
X156464000Y-127762000D01*
X149860000Y-121158000D02*
X149860000Y-119072563D01*
X149860000Y-119072563D02*
X146987437Y-116200000D01*
X156464000Y-127762000D02*
X149860000Y-121158000D01*
%TO.N,Net-(IN2-PadT)*%
X149797200Y-65270000D02*
X144600000Y-65270000D01*
X149797200Y-65270000D02*
G75*
G02*
X152600000Y-68072800I0J-2802800D01*
G01*
%TO.N,Net-(IN3-PadT)*%
X148312957Y-81237957D02*
X152600000Y-85525000D01*
X148312954Y-81237960D02*
G75*
G03*
X144600000Y-79700000I-3712954J-3712940D01*
G01*
%TO.N,Net-(IN4-PadT)*%
X151889358Y-101409357D02*
X144600000Y-94120000D01*
X151889361Y-101409354D02*
G75*
G02*
X152600000Y-103125000I-1715661J-1715646D01*
G01*
%TO.N,Net-(IN5-PadT)*%
X144600000Y-108570000D02*
X149063215Y-108570000D01*
X152600000Y-112106785D02*
X152600000Y-120525000D01*
X152600000Y-112106785D02*
G75*
G03*
X149063215Y-108570000I-3536800J-15D01*
G01*
%TO.N,Net-(RV5-Pad2)*%
X155597709Y-121597934D02*
X155597709Y-124023709D01*
X155597709Y-124023709D02*
X155600000Y-124026000D01*
X155597700Y-121597935D02*
G75*
G03*
X155100000Y-120525000I-1725200J-148365D01*
G01*
%TO.N,Net-(R19-Pad1)*%
X150368000Y-120904000D02*
X150368000Y-117094000D01*
X157226000Y-127762000D02*
X150368000Y-120904000D01*
X150368000Y-117094000D02*
X147828000Y-114554000D01*
X157226000Y-128270000D02*
X157226000Y-127762000D01*
%TD*%
%TA.AperFunction,Conductor*%
%TO.N,GND*%
G36*
X143069121Y-38528502D02*
G01*
X143115614Y-38582158D01*
X143127000Y-38634500D01*
X143127000Y-39147885D01*
X143131475Y-39163124D01*
X143132865Y-39164329D01*
X143140548Y-39166000D01*
X146054884Y-39166000D01*
X146070123Y-39161525D01*
X146071328Y-39160135D01*
X146072999Y-39152452D01*
X146072999Y-38634500D01*
X146093001Y-38566379D01*
X146146657Y-38519886D01*
X146198999Y-38508500D01*
X159365500Y-38508500D01*
X159433621Y-38528502D01*
X159480114Y-38582158D01*
X159491500Y-38634500D01*
X159491500Y-40942359D01*
X159471498Y-41010480D01*
X159417842Y-41056973D01*
X159395450Y-41064747D01*
X159324168Y-41082190D01*
X159319933Y-41083905D01*
X159319931Y-41083906D01*
X159077069Y-41182275D01*
X159072840Y-41183988D01*
X158838839Y-41321001D01*
X158627068Y-41490359D01*
X158623947Y-41493700D01*
X158499224Y-41627215D01*
X158441963Y-41688512D01*
X158287402Y-41911312D01*
X158285374Y-41915388D01*
X158285373Y-41915390D01*
X158203252Y-42080460D01*
X158166621Y-42154090D01*
X158082153Y-42411760D01*
X158081373Y-42416251D01*
X158081373Y-42416252D01*
X158042527Y-42639982D01*
X158035765Y-42678925D01*
X158035574Y-42682762D01*
X158031631Y-42761977D01*
X158031500Y-42764600D01*
X158031500Y-43453884D01*
X158031665Y-43456152D01*
X158031665Y-43456164D01*
X158038043Y-43544064D01*
X158046125Y-43655451D01*
X158047109Y-43659906D01*
X158047109Y-43659909D01*
X158099770Y-43898426D01*
X158104585Y-43920237D01*
X158200655Y-44173810D01*
X158332324Y-44410859D01*
X158335096Y-44414491D01*
X158487683Y-44614427D01*
X158496833Y-44626417D01*
X158690736Y-44815970D01*
X158694428Y-44818657D01*
X158694430Y-44818659D01*
X158795789Y-44892436D01*
X158909972Y-44975547D01*
X159149947Y-45101804D01*
X159154248Y-45103323D01*
X159154253Y-45103325D01*
X159405634Y-45192096D01*
X159405046Y-45193761D01*
X159459157Y-45227117D01*
X159489859Y-45291132D01*
X159491500Y-45311404D01*
X159491500Y-55985885D01*
X159471498Y-56054006D01*
X159417842Y-56100499D01*
X159347568Y-56110603D01*
X159282988Y-56081109D01*
X159262287Y-56058156D01*
X159157149Y-55908003D01*
X159157147Y-55908000D01*
X159153990Y-55903492D01*
X158992092Y-55741594D01*
X158987584Y-55738437D01*
X158987581Y-55738435D01*
X158904363Y-55680165D01*
X158804541Y-55610269D01*
X158799559Y-55607946D01*
X158799554Y-55607943D01*
X158602017Y-55515831D01*
X158602016Y-55515831D01*
X158597035Y-55513508D01*
X158591727Y-55512086D01*
X158591725Y-55512085D01*
X158381194Y-55455673D01*
X158381192Y-55455673D01*
X158375879Y-55454249D01*
X158147792Y-55434294D01*
X157919705Y-55454249D01*
X157914392Y-55455673D01*
X157914390Y-55455673D01*
X157703859Y-55512085D01*
X157703857Y-55512086D01*
X157698549Y-55513508D01*
X157693568Y-55515831D01*
X157693567Y-55515831D01*
X157496030Y-55607943D01*
X157496025Y-55607946D01*
X157491043Y-55610269D01*
X157391221Y-55680165D01*
X157308003Y-55738435D01*
X157308000Y-55738437D01*
X157303492Y-55741594D01*
X157141594Y-55903492D01*
X157010269Y-56091043D01*
X157007946Y-56096025D01*
X157007943Y-56096030D01*
X157001148Y-56110603D01*
X156913508Y-56298549D01*
X156912086Y-56303857D01*
X156912085Y-56303859D01*
X156903616Y-56335467D01*
X156866665Y-56396090D01*
X156859618Y-56402039D01*
X156682076Y-56541133D01*
X156493341Y-56729867D01*
X156490999Y-56732857D01*
X156490994Y-56732862D01*
X156331074Y-56936984D01*
X156328731Y-56939975D01*
X156190646Y-57168392D01*
X156189090Y-57171850D01*
X156189086Y-57171857D01*
X156171065Y-57211898D01*
X156081101Y-57411787D01*
X156079972Y-57415411D01*
X156079969Y-57415418D01*
X156028979Y-57579048D01*
X156001692Y-57666613D01*
X156001007Y-57670351D01*
X156001005Y-57670359D01*
X155972643Y-57825119D01*
X155953577Y-57929151D01*
X155953348Y-57932937D01*
X155953347Y-57932945D01*
X155950375Y-57982076D01*
X155945583Y-58061290D01*
X155943825Y-58090346D01*
X155943044Y-58097712D01*
X155942192Y-58101194D01*
X155941500Y-58112348D01*
X155941500Y-58124966D01*
X155941270Y-58132579D01*
X155940371Y-58147431D01*
X155939375Y-58157349D01*
X155938371Y-58164500D01*
X155936999Y-58174263D01*
X155936701Y-58195576D01*
X155937143Y-58199517D01*
X155940715Y-58231367D01*
X155941500Y-58245410D01*
X155941500Y-64344017D01*
X155940506Y-64359809D01*
X155936775Y-64389343D01*
X155937462Y-64396353D01*
X155937411Y-64400000D01*
X155937264Y-64400000D01*
X155937387Y-64401721D01*
X155937387Y-64401726D01*
X155952748Y-64616498D01*
X155954188Y-64636632D01*
X156004616Y-64868447D01*
X156006183Y-64872649D01*
X156006185Y-64872655D01*
X156048707Y-64986658D01*
X156087522Y-65090725D01*
X156089673Y-65094665D01*
X156089677Y-65094673D01*
X156160885Y-65225080D01*
X156201217Y-65298943D01*
X156203918Y-65302551D01*
X156340690Y-65485258D01*
X156340696Y-65485265D01*
X156343388Y-65488861D01*
X156511139Y-65656612D01*
X156514735Y-65659304D01*
X156514742Y-65659310D01*
X156680950Y-65783731D01*
X156701057Y-65798783D01*
X156705011Y-65800942D01*
X156905327Y-65910323D01*
X156905335Y-65910327D01*
X156909275Y-65912478D01*
X156913487Y-65914049D01*
X157127345Y-65993815D01*
X157127351Y-65993817D01*
X157131553Y-65995384D01*
X157135939Y-65996338D01*
X157135942Y-65996339D01*
X157200242Y-66010326D01*
X157363368Y-66045812D01*
X157367854Y-66046133D01*
X157367855Y-66046133D01*
X157548465Y-66059050D01*
X157557013Y-66059955D01*
X157574777Y-66062452D01*
X157574786Y-66062453D01*
X157578687Y-66063001D01*
X157588675Y-66063141D01*
X157589343Y-66063225D01*
X157590012Y-66063159D01*
X157600000Y-66063299D01*
X157603937Y-66062857D01*
X157603946Y-66062857D01*
X157611539Y-66062005D01*
X157636565Y-66061699D01*
X157730828Y-66069946D01*
X157752505Y-66071843D01*
X157774132Y-66075656D01*
X157911363Y-66112426D01*
X157932003Y-66119938D01*
X158060763Y-66179980D01*
X158079783Y-66190962D01*
X158196156Y-66272447D01*
X158212981Y-66286565D01*
X158313435Y-66387019D01*
X158327553Y-66403844D01*
X158409038Y-66520217D01*
X158420020Y-66539237D01*
X158480062Y-66667997D01*
X158487574Y-66688638D01*
X158494503Y-66714499D01*
X158492812Y-66785475D01*
X158453017Y-66844270D01*
X158387753Y-66872217D01*
X158311902Y-66857416D01*
X158183683Y-66786635D01*
X158174272Y-66782406D01*
X157965772Y-66708572D01*
X157955809Y-66705940D01*
X157738047Y-66667150D01*
X157727796Y-66666181D01*
X157506616Y-66663479D01*
X157496332Y-66664199D01*
X157277693Y-66697655D01*
X157267666Y-66700044D01*
X157057426Y-66768761D01*
X157047916Y-66772758D01*
X156851725Y-66874889D01*
X156843007Y-66880378D01*
X156813961Y-66902186D01*
X156805508Y-66913511D01*
X156812252Y-66925841D01*
X157870115Y-67983705D01*
X157904141Y-68046017D01*
X157899076Y-68116833D01*
X157870115Y-68161895D01*
X157600000Y-68432010D01*
X156810184Y-69221827D01*
X156803424Y-69234207D01*
X156808705Y-69241261D01*
X156985080Y-69344327D01*
X156994363Y-69348774D01*
X157201003Y-69427683D01*
X157210901Y-69430559D01*
X157427653Y-69474657D01*
X157437883Y-69475876D01*
X157658914Y-69483982D01*
X157669223Y-69483514D01*
X157888623Y-69455408D01*
X157898688Y-69453268D01*
X158110557Y-69389705D01*
X158120152Y-69385944D01*
X158318778Y-69288638D01*
X158327642Y-69283355D01*
X158342332Y-69272877D01*
X158409405Y-69249603D01*
X158478414Y-69266287D01*
X158527448Y-69317631D01*
X158541500Y-69375456D01*
X158541500Y-72346954D01*
X158540506Y-72362748D01*
X158536775Y-72392279D01*
X158537463Y-72399294D01*
X158539367Y-72418722D01*
X158539816Y-72437197D01*
X158528498Y-72667558D01*
X158525725Y-72723987D01*
X158524513Y-72736289D01*
X158499962Y-72901793D01*
X158478253Y-73048129D01*
X158475841Y-73060257D01*
X158399237Y-73366066D01*
X158395647Y-73377898D01*
X158289441Y-73674719D01*
X158284709Y-73686142D01*
X158149922Y-73971122D01*
X158144100Y-73982016D01*
X157982011Y-74252442D01*
X157975160Y-74262695D01*
X157878134Y-74393519D01*
X157787357Y-74515917D01*
X157779513Y-74525475D01*
X157598172Y-74725555D01*
X157580639Y-74741568D01*
X157578715Y-74743018D01*
X157578707Y-74743025D01*
X157575547Y-74745406D01*
X157568383Y-74752373D01*
X157567854Y-74752783D01*
X157567429Y-74753300D01*
X157560266Y-74760266D01*
X157557808Y-74763345D01*
X157557801Y-74763353D01*
X157552413Y-74770104D01*
X157546842Y-74776617D01*
X157335056Y-75007739D01*
X157333390Y-75009911D01*
X157333386Y-75009915D01*
X157233745Y-75139771D01*
X157131392Y-75273160D01*
X156951635Y-75555321D01*
X156950366Y-75557759D01*
X156799754Y-75847081D01*
X156797154Y-75852075D01*
X156669125Y-76161164D01*
X156668299Y-76163784D01*
X156668296Y-76163792D01*
X156569349Y-76477611D01*
X156568522Y-76480235D01*
X156496110Y-76806860D01*
X156452441Y-77138553D01*
X156448264Y-77234223D01*
X156439843Y-77427071D01*
X156438737Y-77439109D01*
X156436999Y-77451477D01*
X156436701Y-77472790D01*
X156437143Y-77476728D01*
X156440715Y-77508576D01*
X156441500Y-77522621D01*
X156441500Y-80465059D01*
X156440274Y-80482592D01*
X156439279Y-80489675D01*
X156437894Y-80499531D01*
X156436999Y-80505897D01*
X156436701Y-80527210D01*
X156437143Y-80531151D01*
X156437143Y-80531152D01*
X156438104Y-80539721D01*
X156438769Y-80548266D01*
X156452444Y-80861447D01*
X156496113Y-81193140D01*
X156568524Y-81519765D01*
X156569353Y-81522394D01*
X156643793Y-81758483D01*
X156669128Y-81838835D01*
X156797157Y-82147924D01*
X156798426Y-82150362D01*
X156798428Y-82150366D01*
X156815510Y-82183180D01*
X156951638Y-82444678D01*
X157131394Y-82726839D01*
X157133058Y-82729007D01*
X157133066Y-82729019D01*
X157323255Y-82976876D01*
X157335059Y-82992259D01*
X157336917Y-82994287D01*
X157336924Y-82994295D01*
X157395369Y-83058076D01*
X157530122Y-83205134D01*
X157537841Y-83214415D01*
X157545406Y-83224453D01*
X157552373Y-83231617D01*
X157552783Y-83232146D01*
X157553300Y-83232571D01*
X157560266Y-83239734D01*
X157563362Y-83242206D01*
X157563367Y-83242210D01*
X157575725Y-83252075D01*
X157590478Y-83265931D01*
X157779532Y-83474519D01*
X157787375Y-83484077D01*
X157975172Y-83737291D01*
X157982028Y-83747552D01*
X158093177Y-83932990D01*
X158120708Y-83978923D01*
X158138573Y-84047635D01*
X158116453Y-84115098D01*
X158061371Y-84159892D01*
X157990816Y-84167797D01*
X157970575Y-84162473D01*
X157965773Y-84160772D01*
X157955809Y-84158140D01*
X157738047Y-84119350D01*
X157727796Y-84118381D01*
X157506616Y-84115679D01*
X157496332Y-84116399D01*
X157277693Y-84149855D01*
X157267666Y-84152244D01*
X157057426Y-84220961D01*
X157047916Y-84224958D01*
X156851725Y-84327089D01*
X156843007Y-84332578D01*
X156813961Y-84354386D01*
X156805508Y-84365711D01*
X156812252Y-84378041D01*
X157870115Y-85435905D01*
X157904141Y-85498217D01*
X157899076Y-85569033D01*
X157870115Y-85614095D01*
X157600000Y-85884210D01*
X156810184Y-86674027D01*
X156803424Y-86686407D01*
X156808705Y-86693461D01*
X156985080Y-86796527D01*
X156994363Y-86800974D01*
X157201003Y-86879883D01*
X157210901Y-86882759D01*
X157427653Y-86926857D01*
X157437883Y-86928076D01*
X157658914Y-86936182D01*
X157669223Y-86935714D01*
X157888623Y-86907608D01*
X157898688Y-86905468D01*
X158110557Y-86841905D01*
X158120152Y-86838144D01*
X158318778Y-86740838D01*
X158327642Y-86735555D01*
X158342332Y-86725077D01*
X158409405Y-86701803D01*
X158478414Y-86718487D01*
X158527448Y-86769831D01*
X158541500Y-86827656D01*
X158541500Y-87729799D01*
X158540507Y-87745590D01*
X158536775Y-87775133D01*
X158537462Y-87782140D01*
X158537462Y-87782145D01*
X158539212Y-87799990D01*
X158539615Y-87819349D01*
X158525199Y-88076071D01*
X158523617Y-88090112D01*
X158476104Y-88369764D01*
X158472960Y-88383540D01*
X158394431Y-88656119D01*
X158389764Y-88669456D01*
X158281211Y-88931528D01*
X158275083Y-88944252D01*
X158137871Y-89192520D01*
X158130354Y-89204483D01*
X157966208Y-89435827D01*
X157957399Y-89446874D01*
X157797356Y-89625961D01*
X157781667Y-89640389D01*
X157781716Y-89640446D01*
X157780091Y-89641839D01*
X157779228Y-89642632D01*
X157775547Y-89645406D01*
X157768383Y-89652373D01*
X157767854Y-89652783D01*
X157767429Y-89653300D01*
X157760266Y-89660266D01*
X157754623Y-89667334D01*
X157748382Y-89674571D01*
X157474816Y-89968402D01*
X157473417Y-89970138D01*
X157473411Y-89970145D01*
X157268580Y-90224325D01*
X157211281Y-90295429D01*
X157210009Y-90297260D01*
X157210006Y-90297265D01*
X157088314Y-90472536D01*
X156971748Y-90640423D01*
X156757437Y-91001627D01*
X156741039Y-91034387D01*
X156605424Y-91305311D01*
X156569439Y-91377199D01*
X156408714Y-91765225D01*
X156408003Y-91767362D01*
X156407999Y-91767372D01*
X156339682Y-91972636D01*
X156276081Y-92163729D01*
X156275527Y-92165901D01*
X156275524Y-92165910D01*
X156261295Y-92221659D01*
X156172214Y-92570680D01*
X156171813Y-92572902D01*
X156171812Y-92572907D01*
X156166660Y-92601464D01*
X156134881Y-92664951D01*
X156114936Y-92682304D01*
X156093212Y-92697515D01*
X155960211Y-92790643D01*
X155960208Y-92790645D01*
X155955700Y-92793802D01*
X155793802Y-92955700D01*
X155662477Y-93143251D01*
X155660154Y-93148233D01*
X155660151Y-93148238D01*
X155612346Y-93250757D01*
X155565716Y-93350757D01*
X155564294Y-93356065D01*
X155564293Y-93356067D01*
X155509073Y-93562151D01*
X155506457Y-93571913D01*
X155486502Y-93800000D01*
X155506457Y-94028087D01*
X155565716Y-94249243D01*
X155568039Y-94254224D01*
X155568039Y-94254225D01*
X155660151Y-94451762D01*
X155660154Y-94451767D01*
X155662477Y-94456749D01*
X155665634Y-94461257D01*
X155771909Y-94613033D01*
X155793802Y-94644300D01*
X155955700Y-94806198D01*
X155987771Y-94828655D01*
X156032099Y-94884110D01*
X156041500Y-94931867D01*
X156041500Y-97644017D01*
X156040506Y-97659809D01*
X156036775Y-97689343D01*
X156037463Y-97696355D01*
X156037461Y-97696468D01*
X156037909Y-97702796D01*
X156052630Y-98039967D01*
X156097047Y-98377347D01*
X156170699Y-98709573D01*
X156171527Y-98712198D01*
X156171528Y-98712203D01*
X156259313Y-98990621D01*
X156273026Y-99034114D01*
X156403249Y-99348503D01*
X156560377Y-99650345D01*
X156743214Y-99937345D01*
X156950369Y-100207317D01*
X156952220Y-100209337D01*
X157149814Y-100424975D01*
X157157542Y-100434267D01*
X157162253Y-100440519D01*
X157162263Y-100440530D01*
X157164643Y-100443689D01*
X157179502Y-100458970D01*
X157182604Y-100461447D01*
X157182607Y-100461449D01*
X157207647Y-100481438D01*
X157218134Y-100490814D01*
X158229091Y-101501773D01*
X158239556Y-101513644D01*
X158257796Y-101537160D01*
X158273635Y-101550171D01*
X158289467Y-101565703D01*
X158357157Y-101644962D01*
X158368776Y-101660954D01*
X158378956Y-101677566D01*
X158397495Y-101746100D01*
X158376039Y-101813777D01*
X158321400Y-101859110D01*
X158250926Y-101867707D01*
X158210632Y-101853711D01*
X158183684Y-101838835D01*
X158174272Y-101834606D01*
X157965772Y-101760772D01*
X157955809Y-101758140D01*
X157738047Y-101719350D01*
X157727796Y-101718381D01*
X157506616Y-101715679D01*
X157496332Y-101716399D01*
X157277693Y-101749855D01*
X157267666Y-101752244D01*
X157057426Y-101820961D01*
X157047916Y-101824958D01*
X156851725Y-101927089D01*
X156843007Y-101932578D01*
X156813961Y-101954386D01*
X156805508Y-101965711D01*
X156812252Y-101978041D01*
X157870115Y-103035905D01*
X157904141Y-103098217D01*
X157899076Y-103169033D01*
X157870115Y-103214095D01*
X157600000Y-103484210D01*
X156810184Y-104274027D01*
X156803424Y-104286407D01*
X156808705Y-104293461D01*
X156985080Y-104396527D01*
X156994363Y-104400974D01*
X157201003Y-104479883D01*
X157210901Y-104482759D01*
X157427653Y-104526857D01*
X157437883Y-104528076D01*
X157658914Y-104536182D01*
X157669223Y-104535714D01*
X157888623Y-104507608D01*
X157898688Y-104505468D01*
X158110557Y-104441905D01*
X158120152Y-104438144D01*
X158318778Y-104340838D01*
X158327642Y-104335555D01*
X158342332Y-104325077D01*
X158409405Y-104301803D01*
X158478414Y-104318487D01*
X158527448Y-104369831D01*
X158541500Y-104427656D01*
X158541500Y-106944017D01*
X158540506Y-106959809D01*
X158536775Y-106989343D01*
X158537463Y-106996357D01*
X158539212Y-107014200D01*
X158539615Y-107033560D01*
X158525414Y-107286439D01*
X158523832Y-107300480D01*
X158476961Y-107576340D01*
X158473817Y-107590115D01*
X158396354Y-107858995D01*
X158391687Y-107872332D01*
X158366830Y-107932343D01*
X158301217Y-108090749D01*
X158284608Y-108130846D01*
X158278477Y-108143576D01*
X158143128Y-108388472D01*
X158135616Y-108400429D01*
X157973681Y-108628655D01*
X157964883Y-108639687D01*
X157876286Y-108738827D01*
X157803561Y-108820205D01*
X157786841Y-108835801D01*
X157783469Y-108838417D01*
X157777905Y-108842733D01*
X157773439Y-108848170D01*
X157773434Y-108848175D01*
X157751082Y-108875388D01*
X157742811Y-108884510D01*
X157722524Y-108904796D01*
X157722523Y-108904797D01*
X157722523Y-108904796D01*
X157368273Y-109259046D01*
X157355007Y-109270579D01*
X157336211Y-109284743D01*
X157333378Y-109287498D01*
X157324099Y-109296521D01*
X157320929Y-109299603D01*
X157317845Y-109303466D01*
X157312295Y-109309952D01*
X157124484Y-109514910D01*
X157062989Y-109582020D01*
X156953924Y-109724156D01*
X156831836Y-109883262D01*
X156831828Y-109883274D01*
X156830164Y-109885442D01*
X156828691Y-109887754D01*
X156828689Y-109887757D01*
X156753984Y-110005020D01*
X156624670Y-110208000D01*
X156448071Y-110547241D01*
X156301711Y-110900583D01*
X156300885Y-110903203D01*
X156300882Y-110903211D01*
X156190035Y-111254771D01*
X156186704Y-111265337D01*
X156186109Y-111268021D01*
X156112872Y-111598371D01*
X156103925Y-111638726D01*
X156103566Y-111641456D01*
X156103564Y-111641465D01*
X156090705Y-111739141D01*
X156054005Y-112017909D01*
X156053885Y-112020658D01*
X156053884Y-112020669D01*
X156038547Y-112371934D01*
X156037806Y-112380669D01*
X156037849Y-112380843D01*
X156036775Y-112389343D01*
X156037448Y-112396211D01*
X156037448Y-112396212D01*
X156037475Y-112396486D01*
X156037461Y-112396487D01*
X156037454Y-112396961D01*
X156037322Y-112400000D01*
X156037412Y-112400000D01*
X156037411Y-112400041D01*
X156037820Y-112400001D01*
X156040899Y-112431403D01*
X156041500Y-112443698D01*
X156041500Y-114582208D01*
X156040274Y-114599744D01*
X156036999Y-114623046D01*
X156036701Y-114644359D01*
X156037142Y-114648292D01*
X156037195Y-114649378D01*
X156037703Y-114655918D01*
X156052803Y-115001804D01*
X156054390Y-115038168D01*
X156061984Y-115095852D01*
X156105024Y-115422794D01*
X156105838Y-115428981D01*
X156191153Y-115813822D01*
X156309684Y-116189763D01*
X156460530Y-116553942D01*
X156642543Y-116903589D01*
X156854337Y-117236041D01*
X156856006Y-117238216D01*
X157077058Y-117526297D01*
X157094301Y-117548769D01*
X157096152Y-117550789D01*
X157334307Y-117810690D01*
X157342031Y-117819976D01*
X157343011Y-117821276D01*
X157343020Y-117821286D01*
X157345406Y-117824453D01*
X157360266Y-117839734D01*
X157363363Y-117842206D01*
X157388411Y-117862202D01*
X157398897Y-117871578D01*
X158116962Y-118589643D01*
X158127426Y-118601511D01*
X158145678Y-118625041D01*
X158151122Y-118629512D01*
X158151126Y-118629517D01*
X158163455Y-118639644D01*
X158178208Y-118653928D01*
X158229346Y-118712239D01*
X158293907Y-118785856D01*
X158303941Y-118798932D01*
X158415089Y-118965276D01*
X158423330Y-118979549D01*
X158511111Y-119157550D01*
X158523301Y-119227493D01*
X158495742Y-119292922D01*
X158437184Y-119333066D01*
X158366219Y-119335178D01*
X158337211Y-119323588D01*
X158183673Y-119238830D01*
X158174272Y-119234606D01*
X157965772Y-119160772D01*
X157955809Y-119158140D01*
X157738047Y-119119350D01*
X157727796Y-119118381D01*
X157506616Y-119115679D01*
X157496332Y-119116399D01*
X157277693Y-119149855D01*
X157267666Y-119152244D01*
X157057426Y-119220961D01*
X157047916Y-119224958D01*
X156851725Y-119327089D01*
X156843007Y-119332578D01*
X156813961Y-119354386D01*
X156805508Y-119365711D01*
X156812252Y-119378041D01*
X157870115Y-120435905D01*
X157904141Y-120498217D01*
X157899076Y-120569033D01*
X157870115Y-120614095D01*
X157600000Y-120884210D01*
X156810184Y-121674027D01*
X156803424Y-121686407D01*
X156808705Y-121693461D01*
X156985080Y-121796527D01*
X156994363Y-121800974D01*
X157201003Y-121879883D01*
X157210901Y-121882759D01*
X157427653Y-121926857D01*
X157437883Y-121928076D01*
X157658914Y-121936182D01*
X157669223Y-121935714D01*
X157888623Y-121907608D01*
X157898688Y-121905468D01*
X158110557Y-121841905D01*
X158120152Y-121838144D01*
X158318778Y-121740838D01*
X158327636Y-121735559D01*
X158421489Y-121668614D01*
X158488563Y-121645341D01*
X158557571Y-121662024D01*
X158606605Y-121713368D01*
X158620650Y-121772519D01*
X158542292Y-129200938D01*
X158542084Y-129220671D01*
X158541098Y-129235125D01*
X158536775Y-129269343D01*
X158537463Y-129276358D01*
X158539434Y-129296466D01*
X158539901Y-129314579D01*
X158524913Y-129638780D01*
X158523839Y-129650368D01*
X158519761Y-129679600D01*
X158475022Y-130000322D01*
X158472883Y-130011762D01*
X158391988Y-130355709D01*
X158388803Y-130366903D01*
X158276515Y-130701922D01*
X158272311Y-130712774D01*
X158129589Y-131036010D01*
X158124401Y-131046428D01*
X157952471Y-131355102D01*
X157946346Y-131364996D01*
X157942114Y-131371173D01*
X157746657Y-131656505D01*
X157739643Y-131665793D01*
X157513910Y-131937633D01*
X157506069Y-131946233D01*
X157256233Y-132196069D01*
X157247633Y-132203910D01*
X156975793Y-132429643D01*
X156966505Y-132436657D01*
X156674997Y-132636345D01*
X156665104Y-132642470D01*
X156603145Y-132676981D01*
X156356428Y-132814401D01*
X156346010Y-132819589D01*
X156022774Y-132962311D01*
X156011922Y-132966515D01*
X155844413Y-133022659D01*
X155676894Y-133078806D01*
X155665712Y-133081987D01*
X155630649Y-133090234D01*
X155597024Y-133098142D01*
X155526133Y-133094268D01*
X155479082Y-133064584D01*
X155398300Y-132983802D01*
X155393792Y-132980645D01*
X155393789Y-132980643D01*
X155315611Y-132925902D01*
X155210749Y-132852477D01*
X155205767Y-132850154D01*
X155205762Y-132850151D01*
X155008225Y-132758039D01*
X155008224Y-132758039D01*
X155003243Y-132755716D01*
X154997935Y-132754294D01*
X154997933Y-132754293D01*
X154787402Y-132697881D01*
X154787400Y-132697881D01*
X154782087Y-132696457D01*
X154554000Y-132676502D01*
X154325913Y-132696457D01*
X154320600Y-132697881D01*
X154320598Y-132697881D01*
X154110067Y-132754293D01*
X154110065Y-132754294D01*
X154104757Y-132755716D01*
X154099776Y-132758039D01*
X154099775Y-132758039D01*
X153902238Y-132850151D01*
X153902233Y-132850154D01*
X153897251Y-132852477D01*
X153792389Y-132925902D01*
X153714211Y-132980643D01*
X153714208Y-132980645D01*
X153709700Y-132983802D01*
X153547802Y-133145700D01*
X153525345Y-133177771D01*
X153469890Y-133222099D01*
X153422133Y-133231500D01*
X152608483Y-133231500D01*
X152592691Y-133230506D01*
X152589952Y-133230160D01*
X152563157Y-133226775D01*
X152550444Y-133228022D01*
X152538300Y-133229212D01*
X152518940Y-133229615D01*
X152336410Y-133219365D01*
X152235536Y-133213700D01*
X152221504Y-133212119D01*
X152068499Y-133186122D01*
X151915500Y-133160126D01*
X151901725Y-133156982D01*
X151603470Y-133071056D01*
X151590133Y-133066389D01*
X151398182Y-132986881D01*
X151303373Y-132947610D01*
X151290650Y-132941483D01*
X151018989Y-132791341D01*
X151007025Y-132783823D01*
X150753896Y-132604217D01*
X150742850Y-132595408D01*
X150511410Y-132388582D01*
X150501418Y-132378590D01*
X150294592Y-132147150D01*
X150285783Y-132136104D01*
X150106177Y-131882975D01*
X150098659Y-131871011D01*
X149999224Y-131691097D01*
X149948517Y-131599350D01*
X149942388Y-131586623D01*
X149931087Y-131559338D01*
X149855621Y-131377147D01*
X149848032Y-131306557D01*
X149882857Y-131239911D01*
X149969134Y-131153484D01*
X149969138Y-131153479D01*
X149974305Y-131148303D01*
X150037102Y-131046428D01*
X150063275Y-131003968D01*
X150063276Y-131003966D01*
X150067115Y-130997738D01*
X150122797Y-130829861D01*
X150133500Y-130725400D01*
X150133500Y-129949600D01*
X150132556Y-129940500D01*
X150123238Y-129850692D01*
X150123237Y-129850688D01*
X150122526Y-129843834D01*
X150116511Y-129825803D01*
X150068868Y-129683002D01*
X150066550Y-129676054D01*
X149973478Y-129525652D01*
X149848303Y-129400695D01*
X149843765Y-129397898D01*
X149803176Y-129340647D01*
X149799946Y-129269724D01*
X149835572Y-129208313D01*
X149844068Y-129200938D01*
X149854207Y-129192902D01*
X149968739Y-129078171D01*
X149977751Y-129066760D01*
X150062816Y-128928757D01*
X150068963Y-128915576D01*
X150120138Y-128761290D01*
X150123005Y-128747914D01*
X150132672Y-128653562D01*
X150133000Y-128647146D01*
X150133000Y-128534615D01*
X150128525Y-128519376D01*
X150127135Y-128518171D01*
X150119452Y-128516500D01*
X148772000Y-128516500D01*
X148703879Y-128496498D01*
X148657386Y-128442842D01*
X148646000Y-128390500D01*
X148646000Y-127990385D01*
X149154000Y-127990385D01*
X149158475Y-128005624D01*
X149159865Y-128006829D01*
X149167548Y-128008500D01*
X150114884Y-128008500D01*
X150130123Y-128004025D01*
X150131328Y-128002635D01*
X150132999Y-127994952D01*
X150132999Y-127877905D01*
X150132662Y-127871386D01*
X150122743Y-127775794D01*
X150119851Y-127762400D01*
X150068412Y-127608216D01*
X150062239Y-127595038D01*
X149976937Y-127457193D01*
X149967901Y-127445792D01*
X149853171Y-127331261D01*
X149841760Y-127322249D01*
X149703757Y-127237184D01*
X149690576Y-127231037D01*
X149536290Y-127179862D01*
X149522914Y-127176995D01*
X149428562Y-127167328D01*
X149422145Y-127167000D01*
X149172115Y-127167000D01*
X149156876Y-127171475D01*
X149155671Y-127172865D01*
X149154000Y-127180548D01*
X149154000Y-127990385D01*
X148646000Y-127990385D01*
X148646000Y-127185116D01*
X148641525Y-127169877D01*
X148640135Y-127168672D01*
X148632452Y-127167001D01*
X148377905Y-127167001D01*
X148371386Y-127167338D01*
X148275794Y-127177257D01*
X148262400Y-127180149D01*
X148108216Y-127231588D01*
X148095038Y-127237761D01*
X147957193Y-127323063D01*
X147945792Y-127332099D01*
X147831261Y-127446829D01*
X147822249Y-127458240D01*
X147788675Y-127512707D01*
X147735902Y-127560200D01*
X147665831Y-127571624D01*
X147600707Y-127543350D01*
X147561208Y-127484356D01*
X147559211Y-127477287D01*
X147528714Y-127355875D01*
X147525394Y-127346124D01*
X147440472Y-127150814D01*
X147435605Y-127141739D01*
X147370563Y-127041197D01*
X147359877Y-127031995D01*
X147350312Y-127036398D01*
X146609522Y-127777188D01*
X146601908Y-127791132D01*
X146602039Y-127792965D01*
X146606290Y-127799580D01*
X147347974Y-128541264D01*
X147359984Y-128547823D01*
X147371723Y-128538855D01*
X147402504Y-128496019D01*
X147407812Y-128487184D01*
X147428044Y-128446249D01*
X147476158Y-128394043D01*
X147544860Y-128376136D01*
X147612336Y-128398215D01*
X147657164Y-128453269D01*
X147667001Y-128502077D01*
X147667001Y-128647095D01*
X147667338Y-128653614D01*
X147677257Y-128749206D01*
X147680149Y-128762600D01*
X147731588Y-128916784D01*
X147737761Y-128929962D01*
X147823063Y-129067807D01*
X147832099Y-129079208D01*
X147946828Y-129193738D01*
X147955762Y-129200794D01*
X147996823Y-129258712D01*
X148000053Y-129329635D01*
X147964426Y-129391046D01*
X147956593Y-129397846D01*
X147950652Y-129401522D01*
X147945479Y-129406704D01*
X147937987Y-129414209D01*
X147825695Y-129526697D01*
X147822739Y-129531493D01*
X147765386Y-129572155D01*
X147724422Y-129579000D01*
X147438291Y-129579000D01*
X147370170Y-129558998D01*
X147332499Y-129521441D01*
X147320318Y-129502612D01*
X147317514Y-129498277D01*
X147167170Y-129333051D01*
X147163119Y-129329852D01*
X147163115Y-129329848D01*
X146995914Y-129197800D01*
X146995910Y-129197798D01*
X146991859Y-129194598D01*
X146982543Y-129189455D01*
X146950069Y-129171529D01*
X146900098Y-129121097D01*
X146885326Y-129051654D01*
X146910442Y-128985248D01*
X146937793Y-128958642D01*
X146986747Y-128923723D01*
X146995148Y-128913023D01*
X146988160Y-128899870D01*
X146250312Y-128162022D01*
X146236368Y-128154408D01*
X146234535Y-128154539D01*
X146227920Y-128158790D01*
X145484237Y-128902473D01*
X145477477Y-128914853D01*
X145482758Y-128921907D01*
X145529469Y-128949203D01*
X145578193Y-129000841D01*
X145591264Y-129070624D01*
X145564533Y-129136396D01*
X145524084Y-129169752D01*
X145511107Y-129176507D01*
X145506974Y-129179610D01*
X145506971Y-129179612D01*
X145337815Y-129306618D01*
X145332465Y-129310635D01*
X145241281Y-129406054D01*
X145198527Y-129450793D01*
X145137003Y-129486223D01*
X145066090Y-129482766D01*
X145008304Y-129441520D01*
X144993333Y-129417194D01*
X144991365Y-129412994D01*
X144989050Y-129406054D01*
X144895978Y-129255652D01*
X144770803Y-129130695D01*
X144677784Y-129073357D01*
X144626468Y-129041725D01*
X144626466Y-129041724D01*
X144620238Y-129037885D01*
X144566474Y-129020052D01*
X144545140Y-129012976D01*
X144486780Y-128972545D01*
X144476229Y-128947146D01*
X144473924Y-128948370D01*
X144448160Y-128899870D01*
X143710312Y-128162022D01*
X143696368Y-128154408D01*
X143694535Y-128154539D01*
X143687920Y-128158790D01*
X142944237Y-128902473D01*
X142921485Y-128944139D01*
X142919277Y-128954287D01*
X142869074Y-129004488D01*
X142848567Y-129013424D01*
X142773554Y-129038450D01*
X142623152Y-129131522D01*
X142617979Y-129136704D01*
X142561879Y-129192902D01*
X142498195Y-129256697D01*
X142494355Y-129262927D01*
X142494354Y-129262928D01*
X142409966Y-129399831D01*
X142405385Y-129407262D01*
X142383867Y-129472138D01*
X142355057Y-129558998D01*
X142349703Y-129575139D01*
X142339000Y-129679600D01*
X142339000Y-130980400D01*
X142349974Y-131086166D01*
X142352155Y-131092702D01*
X142352155Y-131092704D01*
X142396228Y-131224806D01*
X142405950Y-131253946D01*
X142499022Y-131404348D01*
X142624197Y-131529305D01*
X142630427Y-131533145D01*
X142630428Y-131533146D01*
X142767590Y-131617694D01*
X142774762Y-131622115D01*
X142828871Y-131640062D01*
X142936111Y-131675632D01*
X142936113Y-131675632D01*
X142942639Y-131677797D01*
X142949475Y-131678497D01*
X142949478Y-131678498D01*
X142988872Y-131682534D01*
X143047100Y-131688500D01*
X144347900Y-131688500D01*
X144351146Y-131688163D01*
X144351150Y-131688163D01*
X144446808Y-131678238D01*
X144446812Y-131678237D01*
X144453666Y-131677526D01*
X144460202Y-131675345D01*
X144460204Y-131675345D01*
X144592306Y-131631272D01*
X144621446Y-131621550D01*
X144771848Y-131528478D01*
X144896805Y-131403303D01*
X144989615Y-131252738D01*
X144991918Y-131245795D01*
X144994263Y-131240766D01*
X145041180Y-131187481D01*
X145109458Y-131168021D01*
X145177418Y-131188564D01*
X145203694Y-131211520D01*
X145261408Y-131278146D01*
X145283750Y-131303938D01*
X145455626Y-131446632D01*
X145648500Y-131559338D01*
X145857192Y-131639030D01*
X145862260Y-131640061D01*
X145862263Y-131640062D01*
X145966706Y-131661311D01*
X146076097Y-131683567D01*
X146081272Y-131683757D01*
X146081274Y-131683757D01*
X146294173Y-131691564D01*
X146294177Y-131691564D01*
X146299337Y-131691753D01*
X146304457Y-131691097D01*
X146304459Y-131691097D01*
X146515788Y-131664025D01*
X146515789Y-131664025D01*
X146520916Y-131663368D01*
X146525866Y-131661883D01*
X146729929Y-131600661D01*
X146729934Y-131600659D01*
X146734884Y-131599174D01*
X146935494Y-131500896D01*
X147117360Y-131371173D01*
X147128375Y-131360197D01*
X147219756Y-131269134D01*
X147275596Y-131213489D01*
X147278612Y-131209292D01*
X147322314Y-131148474D01*
X147378309Y-131104826D01*
X147424637Y-131096000D01*
X147724410Y-131096000D01*
X147792531Y-131116002D01*
X147822914Y-131143518D01*
X147826522Y-131149348D01*
X147951697Y-131274305D01*
X148102262Y-131367115D01*
X148181201Y-131393298D01*
X148210069Y-131402873D01*
X148268428Y-131443304D01*
X148293054Y-131493617D01*
X148305355Y-131545917D01*
X148434971Y-131932639D01*
X148599717Y-132305752D01*
X148601139Y-132308305D01*
X148601141Y-132308309D01*
X148645853Y-132388582D01*
X148798186Y-132662073D01*
X149028686Y-132998561D01*
X149087259Y-133069098D01*
X149222116Y-133231500D01*
X149289249Y-133312346D01*
X149577654Y-133600751D01*
X149891439Y-133861314D01*
X150227927Y-134091814D01*
X150584248Y-134290283D01*
X150957361Y-134455029D01*
X151344083Y-134584645D01*
X151346916Y-134585311D01*
X151346922Y-134585313D01*
X151513336Y-134624453D01*
X151741115Y-134678026D01*
X151744000Y-134678428D01*
X151744003Y-134678429D01*
X152008727Y-134715356D01*
X152145069Y-134734375D01*
X152147953Y-134734508D01*
X152147960Y-134734509D01*
X152364582Y-134744524D01*
X152517102Y-134751575D01*
X152523322Y-134752156D01*
X152523323Y-134752147D01*
X152527273Y-134752451D01*
X152531187Y-134753001D01*
X152539752Y-134753121D01*
X152548539Y-134753244D01*
X152548545Y-134753244D01*
X152552500Y-134753299D01*
X152588287Y-134749285D01*
X152602331Y-134748500D01*
X153422133Y-134748500D01*
X153490254Y-134768502D01*
X153525345Y-134802228D01*
X153547802Y-134834300D01*
X153709700Y-134996198D01*
X153714208Y-134999355D01*
X153714211Y-134999357D01*
X153792389Y-135054098D01*
X153897251Y-135127523D01*
X153902233Y-135129846D01*
X153902238Y-135129849D01*
X154099775Y-135221961D01*
X154104757Y-135224284D01*
X154110065Y-135225706D01*
X154110067Y-135225707D01*
X154320598Y-135282119D01*
X154320600Y-135282119D01*
X154325913Y-135283543D01*
X154554000Y-135303498D01*
X154782087Y-135283543D01*
X154787400Y-135282119D01*
X154787402Y-135282119D01*
X154997933Y-135225707D01*
X154997935Y-135225706D01*
X155003243Y-135224284D01*
X155008225Y-135221961D01*
X155205762Y-135129849D01*
X155205767Y-135129846D01*
X155210749Y-135127523D01*
X155315611Y-135054098D01*
X155393789Y-134999357D01*
X155393792Y-134999355D01*
X155398300Y-134996198D01*
X155560198Y-134834300D01*
X155671392Y-134675499D01*
X155726848Y-134631172D01*
X155748744Y-134624454D01*
X155933585Y-134585697D01*
X156367137Y-134456623D01*
X156788549Y-134292188D01*
X157194943Y-134093514D01*
X157197178Y-134092182D01*
X157197184Y-134092179D01*
X157581309Y-133863290D01*
X157583543Y-133861959D01*
X157951694Y-133599104D01*
X158296881Y-133306746D01*
X158616746Y-132986881D01*
X158909104Y-132641694D01*
X159171959Y-132273543D01*
X159257259Y-132130391D01*
X159309312Y-132082110D01*
X159379204Y-132069635D01*
X159444745Y-132096928D01*
X159485127Y-132155322D01*
X159491500Y-132194888D01*
X159491500Y-149565500D01*
X159471498Y-149633621D01*
X159417842Y-149680114D01*
X159365500Y-149691500D01*
X156584577Y-149691500D01*
X156516456Y-149671498D01*
X156469963Y-149617842D01*
X156459859Y-149547568D01*
X156468166Y-149517287D01*
X156501115Y-149437742D01*
X156521501Y-149352830D01*
X156557779Y-149201724D01*
X156557780Y-149201718D01*
X156558934Y-149196911D01*
X156578366Y-148950000D01*
X156558934Y-148703089D01*
X156557780Y-148698282D01*
X156557779Y-148698276D01*
X156502270Y-148467070D01*
X156501115Y-148462258D01*
X156406334Y-148233437D01*
X156276925Y-148022260D01*
X156116073Y-147833927D01*
X155927740Y-147673075D01*
X155716563Y-147543666D01*
X155711993Y-147541773D01*
X155711989Y-147541771D01*
X155492315Y-147450779D01*
X155492313Y-147450778D01*
X155487742Y-147448885D01*
X155402830Y-147428499D01*
X155251724Y-147392221D01*
X155251718Y-147392220D01*
X155246911Y-147391066D01*
X155000000Y-147371634D01*
X154753089Y-147391066D01*
X154748282Y-147392220D01*
X154748276Y-147392221D01*
X154597170Y-147428499D01*
X154512258Y-147448885D01*
X154507687Y-147450778D01*
X154507685Y-147450779D01*
X154288011Y-147541771D01*
X154288007Y-147541773D01*
X154283437Y-147543666D01*
X154072260Y-147673075D01*
X153883927Y-147833927D01*
X153723075Y-148022260D01*
X153593666Y-148233437D01*
X153498885Y-148462258D01*
X153497730Y-148467070D01*
X153442221Y-148698276D01*
X153442220Y-148698282D01*
X153441066Y-148703089D01*
X153421634Y-148950000D01*
X153441066Y-149196911D01*
X153442220Y-149201718D01*
X153442221Y-149201724D01*
X153478499Y-149352830D01*
X153498885Y-149437742D01*
X153531832Y-149517284D01*
X153539421Y-149587871D01*
X153507642Y-149651358D01*
X153446584Y-149687586D01*
X153415423Y-149691500D01*
X146584577Y-149691500D01*
X146516456Y-149671498D01*
X146469963Y-149617842D01*
X146459859Y-149547568D01*
X146468166Y-149517287D01*
X146501115Y-149437742D01*
X146521501Y-149352830D01*
X146557779Y-149201724D01*
X146557780Y-149201718D01*
X146558934Y-149196911D01*
X146578366Y-148950000D01*
X146558934Y-148703089D01*
X146557780Y-148698282D01*
X146557779Y-148698276D01*
X146502270Y-148467070D01*
X146501115Y-148462258D01*
X146406334Y-148233437D01*
X146276925Y-148022260D01*
X146116073Y-147833927D01*
X145927740Y-147673075D01*
X145716563Y-147543666D01*
X145711993Y-147541773D01*
X145711989Y-147541771D01*
X145492315Y-147450779D01*
X145492313Y-147450778D01*
X145487742Y-147448885D01*
X145402830Y-147428499D01*
X145251724Y-147392221D01*
X145251718Y-147392220D01*
X145246911Y-147391066D01*
X145000000Y-147371634D01*
X144753089Y-147391066D01*
X144748282Y-147392220D01*
X144748276Y-147392221D01*
X144597170Y-147428499D01*
X144512258Y-147448885D01*
X144507687Y-147450778D01*
X144507685Y-147450779D01*
X144288011Y-147541771D01*
X144288007Y-147541773D01*
X144283437Y-147543666D01*
X144072260Y-147673075D01*
X143883927Y-147833927D01*
X143723075Y-148022260D01*
X143593666Y-148233437D01*
X143498885Y-148462258D01*
X143497730Y-148467070D01*
X143442221Y-148698276D01*
X143442220Y-148698282D01*
X143441066Y-148703089D01*
X143421634Y-148950000D01*
X143441066Y-149196911D01*
X143442220Y-149201718D01*
X143442221Y-149201724D01*
X143478499Y-149352830D01*
X143498885Y-149437742D01*
X143531832Y-149517284D01*
X143539421Y-149587871D01*
X143507642Y-149651358D01*
X143446584Y-149687586D01*
X143415423Y-149691500D01*
X140633935Y-149691500D01*
X140565814Y-149671498D01*
X140519321Y-149617842D01*
X140507935Y-149565612D01*
X140499989Y-140650000D01*
X143421634Y-140650000D01*
X143441066Y-140896911D01*
X143442220Y-140901718D01*
X143442221Y-140901724D01*
X143478499Y-141052830D01*
X143498885Y-141137742D01*
X143593666Y-141366563D01*
X143723075Y-141577740D01*
X143883927Y-141766073D01*
X144072260Y-141926925D01*
X144283437Y-142056334D01*
X144288007Y-142058227D01*
X144288011Y-142058229D01*
X144507685Y-142149221D01*
X144512258Y-142151115D01*
X144597170Y-142171501D01*
X144748276Y-142207779D01*
X144748282Y-142207780D01*
X144753089Y-142208934D01*
X145000000Y-142228366D01*
X145246911Y-142208934D01*
X145251718Y-142207780D01*
X145251724Y-142207779D01*
X145402830Y-142171501D01*
X145487742Y-142151115D01*
X145492315Y-142149221D01*
X145711989Y-142058229D01*
X145711993Y-142058227D01*
X145716563Y-142056334D01*
X145927740Y-141926925D01*
X146116073Y-141766073D01*
X146276925Y-141577740D01*
X146406334Y-141366563D01*
X146501115Y-141137742D01*
X146521501Y-141052830D01*
X146557779Y-140901724D01*
X146557780Y-140901718D01*
X146558934Y-140896911D01*
X146578366Y-140650000D01*
X153421634Y-140650000D01*
X153441066Y-140896911D01*
X153442220Y-140901718D01*
X153442221Y-140901724D01*
X153478499Y-141052830D01*
X153498885Y-141137742D01*
X153593666Y-141366563D01*
X153723075Y-141577740D01*
X153883927Y-141766073D01*
X154072260Y-141926925D01*
X154283437Y-142056334D01*
X154288007Y-142058227D01*
X154288011Y-142058229D01*
X154507685Y-142149221D01*
X154512258Y-142151115D01*
X154597170Y-142171501D01*
X154748276Y-142207779D01*
X154748282Y-142207780D01*
X154753089Y-142208934D01*
X155000000Y-142228366D01*
X155246911Y-142208934D01*
X155251718Y-142207780D01*
X155251724Y-142207779D01*
X155402830Y-142171501D01*
X155487742Y-142151115D01*
X155492315Y-142149221D01*
X155711989Y-142058229D01*
X155711993Y-142058227D01*
X155716563Y-142056334D01*
X155927740Y-141926925D01*
X156116073Y-141766073D01*
X156276925Y-141577740D01*
X156406334Y-141366563D01*
X156501115Y-141137742D01*
X156521501Y-141052830D01*
X156557779Y-140901724D01*
X156557780Y-140901718D01*
X156558934Y-140896911D01*
X156578366Y-140650000D01*
X156558934Y-140403089D01*
X156557780Y-140398282D01*
X156557779Y-140398276D01*
X156502270Y-140167070D01*
X156501115Y-140162258D01*
X156406334Y-139933437D01*
X156276925Y-139722260D01*
X156116073Y-139533927D01*
X155927740Y-139373075D01*
X155716563Y-139243666D01*
X155648342Y-139215408D01*
X155593062Y-139170859D01*
X155570641Y-139103496D01*
X155588199Y-139034705D01*
X155640162Y-138986326D01*
X155696561Y-138972999D01*
X156009669Y-138972999D01*
X156016490Y-138972629D01*
X156067352Y-138967105D01*
X156082604Y-138963479D01*
X156203054Y-138918324D01*
X156218649Y-138909786D01*
X156320724Y-138833285D01*
X156333285Y-138820724D01*
X156409786Y-138718649D01*
X156418324Y-138703054D01*
X156463478Y-138582606D01*
X156467105Y-138567351D01*
X156472631Y-138516486D01*
X156473000Y-138509672D01*
X156473000Y-137822115D01*
X156468525Y-137806876D01*
X156467135Y-137805671D01*
X156459452Y-137804000D01*
X153545116Y-137804000D01*
X153529877Y-137808475D01*
X153528672Y-137809865D01*
X153527001Y-137817548D01*
X153527001Y-138509669D01*
X153527371Y-138516490D01*
X153532895Y-138567352D01*
X153536521Y-138582604D01*
X153581676Y-138703054D01*
X153590214Y-138718649D01*
X153666715Y-138820724D01*
X153679276Y-138833285D01*
X153781351Y-138909786D01*
X153796946Y-138918324D01*
X153917394Y-138963478D01*
X153932649Y-138967105D01*
X153983514Y-138972631D01*
X153990328Y-138973000D01*
X154303438Y-138973000D01*
X154371559Y-138993002D01*
X154418052Y-139046658D01*
X154428156Y-139116932D01*
X154398662Y-139181512D01*
X154351657Y-139215408D01*
X154323360Y-139227129D01*
X154288011Y-139241771D01*
X154288007Y-139241773D01*
X154283437Y-139243666D01*
X154072260Y-139373075D01*
X153883927Y-139533927D01*
X153723075Y-139722260D01*
X153593666Y-139933437D01*
X153498885Y-140162258D01*
X153497730Y-140167070D01*
X153442221Y-140398276D01*
X153442220Y-140398282D01*
X153441066Y-140403089D01*
X153421634Y-140650000D01*
X146578366Y-140650000D01*
X146558934Y-140403089D01*
X146557780Y-140398282D01*
X146557779Y-140398276D01*
X146502270Y-140167070D01*
X146501115Y-140162258D01*
X146406334Y-139933437D01*
X146276925Y-139722260D01*
X146116073Y-139533927D01*
X145927740Y-139373075D01*
X145716563Y-139243666D01*
X145648342Y-139215408D01*
X145593062Y-139170859D01*
X145570641Y-139103496D01*
X145588199Y-139034705D01*
X145640162Y-138986326D01*
X145696561Y-138972999D01*
X146009669Y-138972999D01*
X146016490Y-138972629D01*
X146067352Y-138967105D01*
X146082604Y-138963479D01*
X146203054Y-138918324D01*
X146218649Y-138909786D01*
X146320724Y-138833285D01*
X146333285Y-138820724D01*
X146409786Y-138718649D01*
X146418324Y-138703054D01*
X146463478Y-138582606D01*
X146467105Y-138567351D01*
X146472631Y-138516486D01*
X146473000Y-138509672D01*
X146473000Y-137822115D01*
X146468525Y-137806876D01*
X146467135Y-137805671D01*
X146459452Y-137804000D01*
X143545116Y-137804000D01*
X143529877Y-137808475D01*
X143528672Y-137809865D01*
X143527001Y-137817548D01*
X143527001Y-138509669D01*
X143527371Y-138516490D01*
X143532895Y-138567352D01*
X143536521Y-138582604D01*
X143581676Y-138703054D01*
X143590214Y-138718649D01*
X143666715Y-138820724D01*
X143679276Y-138833285D01*
X143781351Y-138909786D01*
X143796946Y-138918324D01*
X143917394Y-138963478D01*
X143932649Y-138967105D01*
X143983514Y-138972631D01*
X143990328Y-138973000D01*
X144303438Y-138973000D01*
X144371559Y-138993002D01*
X144418052Y-139046658D01*
X144428156Y-139116932D01*
X144398662Y-139181512D01*
X144351657Y-139215408D01*
X144323360Y-139227129D01*
X144288011Y-139241771D01*
X144288007Y-139241773D01*
X144283437Y-139243666D01*
X144072260Y-139373075D01*
X143883927Y-139533927D01*
X143723075Y-139722260D01*
X143593666Y-139933437D01*
X143498885Y-140162258D01*
X143497730Y-140167070D01*
X143442221Y-140398276D01*
X143442220Y-140398282D01*
X143441066Y-140403089D01*
X143421634Y-140650000D01*
X140499989Y-140650000D01*
X140496984Y-137277885D01*
X143527000Y-137277885D01*
X143531475Y-137293124D01*
X143532865Y-137294329D01*
X143540548Y-137296000D01*
X144727885Y-137296000D01*
X144743124Y-137291525D01*
X144744329Y-137290135D01*
X144746000Y-137282452D01*
X144746000Y-137277885D01*
X145254000Y-137277885D01*
X145258475Y-137293124D01*
X145259865Y-137294329D01*
X145267548Y-137296000D01*
X146454884Y-137296000D01*
X146470123Y-137291525D01*
X146471328Y-137290135D01*
X146472999Y-137282452D01*
X146472999Y-137277885D01*
X153527000Y-137277885D01*
X153531475Y-137293124D01*
X153532865Y-137294329D01*
X153540548Y-137296000D01*
X154727885Y-137296000D01*
X154743124Y-137291525D01*
X154744329Y-137290135D01*
X154746000Y-137282452D01*
X154746000Y-137277885D01*
X155254000Y-137277885D01*
X155258475Y-137293124D01*
X155259865Y-137294329D01*
X155267548Y-137296000D01*
X156454884Y-137296000D01*
X156470123Y-137291525D01*
X156471328Y-137290135D01*
X156472999Y-137282452D01*
X156472999Y-136590331D01*
X156472629Y-136583510D01*
X156467105Y-136532648D01*
X156463479Y-136517396D01*
X156418324Y-136396946D01*
X156409786Y-136381351D01*
X156333285Y-136279276D01*
X156320724Y-136266715D01*
X156218649Y-136190214D01*
X156203054Y-136181676D01*
X156082606Y-136136522D01*
X156067351Y-136132895D01*
X156016486Y-136127369D01*
X156009672Y-136127000D01*
X155272115Y-136127000D01*
X155256876Y-136131475D01*
X155255671Y-136132865D01*
X155254000Y-136140548D01*
X155254000Y-137277885D01*
X154746000Y-137277885D01*
X154746000Y-136145116D01*
X154741525Y-136129877D01*
X154740135Y-136128672D01*
X154732452Y-136127001D01*
X153990331Y-136127001D01*
X153983510Y-136127371D01*
X153932648Y-136132895D01*
X153917396Y-136136521D01*
X153796946Y-136181676D01*
X153781351Y-136190214D01*
X153679276Y-136266715D01*
X153666715Y-136279276D01*
X153590214Y-136381351D01*
X153581676Y-136396946D01*
X153536522Y-136517394D01*
X153532895Y-136532649D01*
X153527369Y-136583514D01*
X153527000Y-136590328D01*
X153527000Y-137277885D01*
X146472999Y-137277885D01*
X146472999Y-136590331D01*
X146472629Y-136583510D01*
X146467105Y-136532648D01*
X146463479Y-136517396D01*
X146418324Y-136396946D01*
X146409786Y-136381351D01*
X146333285Y-136279276D01*
X146320724Y-136266715D01*
X146218649Y-136190214D01*
X146203054Y-136181676D01*
X146082606Y-136136522D01*
X146067351Y-136132895D01*
X146016486Y-136127369D01*
X146009672Y-136127000D01*
X145272115Y-136127000D01*
X145256876Y-136131475D01*
X145255671Y-136132865D01*
X145254000Y-136140548D01*
X145254000Y-137277885D01*
X144746000Y-137277885D01*
X144746000Y-136145116D01*
X144741525Y-136129877D01*
X144740135Y-136128672D01*
X144732452Y-136127001D01*
X143990331Y-136127001D01*
X143983510Y-136127371D01*
X143932648Y-136132895D01*
X143917396Y-136136521D01*
X143796946Y-136181676D01*
X143781351Y-136190214D01*
X143679276Y-136266715D01*
X143666715Y-136279276D01*
X143590214Y-136381351D01*
X143581676Y-136396946D01*
X143536522Y-136517394D01*
X143532895Y-136532649D01*
X143527369Y-136583514D01*
X143527000Y-136590328D01*
X143527000Y-137277885D01*
X140496984Y-137277885D01*
X140488503Y-127761863D01*
X142335550Y-127761863D01*
X142347809Y-127974477D01*
X142349245Y-127984697D01*
X142396065Y-128192446D01*
X142399145Y-128202275D01*
X142479270Y-128399603D01*
X142483913Y-128408794D01*
X142563960Y-128539420D01*
X142574416Y-128548880D01*
X142583194Y-128545096D01*
X143325478Y-127802812D01*
X143331856Y-127791132D01*
X144061908Y-127791132D01*
X144062039Y-127792965D01*
X144066290Y-127799580D01*
X144807974Y-128541264D01*
X144819984Y-128547823D01*
X144831723Y-128538855D01*
X144865522Y-128491819D01*
X144866649Y-128492629D01*
X144914159Y-128448881D01*
X144984096Y-128436661D01*
X145049538Y-128464191D01*
X145077370Y-128496029D01*
X145103959Y-128539419D01*
X145114416Y-128548880D01*
X145123194Y-128545096D01*
X145865478Y-127802812D01*
X145873092Y-127788868D01*
X145872961Y-127787035D01*
X145868710Y-127780420D01*
X145127349Y-127039059D01*
X145115813Y-127032759D01*
X145103528Y-127042384D01*
X145070692Y-127090520D01*
X145015781Y-127135523D01*
X144945256Y-127143694D01*
X144881509Y-127112440D01*
X144860811Y-127087955D01*
X144830562Y-127041197D01*
X144819877Y-127031995D01*
X144810312Y-127036398D01*
X144069522Y-127777188D01*
X144061908Y-127791132D01*
X143331856Y-127791132D01*
X143333092Y-127788868D01*
X143332961Y-127787035D01*
X143328710Y-127780420D01*
X142587349Y-127039059D01*
X142575813Y-127032759D01*
X142563531Y-127042382D01*
X142515589Y-127112662D01*
X142510504Y-127121613D01*
X142420838Y-127314783D01*
X142417275Y-127324470D01*
X142360364Y-127529681D01*
X142358433Y-127539800D01*
X142335802Y-127751574D01*
X142335550Y-127761863D01*
X140488503Y-127761863D01*
X140487267Y-126374853D01*
X142937477Y-126374853D01*
X142942758Y-126381907D01*
X142989979Y-126409501D01*
X143038703Y-126461139D01*
X143051774Y-126530922D01*
X143025043Y-126596694D01*
X142984587Y-126630053D01*
X142975966Y-126634541D01*
X142967234Y-126640039D01*
X142947177Y-126655099D01*
X142938723Y-126666427D01*
X142945468Y-126678758D01*
X143684688Y-127417978D01*
X143698632Y-127425592D01*
X143700465Y-127425461D01*
X143707080Y-127421210D01*
X144450889Y-126677401D01*
X144457910Y-126664544D01*
X144451111Y-126655213D01*
X144447059Y-126652521D01*
X144409616Y-126631852D01*
X144359645Y-126581420D01*
X144344873Y-126511977D01*
X144369989Y-126445572D01*
X144397340Y-126418965D01*
X144446747Y-126383723D01*
X144453711Y-126374853D01*
X145477477Y-126374853D01*
X145482758Y-126381907D01*
X145529979Y-126409501D01*
X145578703Y-126461139D01*
X145591774Y-126530922D01*
X145565043Y-126596694D01*
X145524587Y-126630053D01*
X145515966Y-126634541D01*
X145507234Y-126640039D01*
X145487177Y-126655099D01*
X145478723Y-126666427D01*
X145485468Y-126678758D01*
X146224688Y-127417978D01*
X146238632Y-127425592D01*
X146240465Y-127425461D01*
X146247080Y-127421210D01*
X146990889Y-126677401D01*
X146997910Y-126664544D01*
X146991111Y-126655213D01*
X146987059Y-126652521D01*
X146949616Y-126631852D01*
X146899645Y-126581420D01*
X146884873Y-126511977D01*
X146909989Y-126445572D01*
X146937340Y-126418965D01*
X146986747Y-126383723D01*
X146995148Y-126373023D01*
X146988160Y-126359870D01*
X146250312Y-125622022D01*
X146236368Y-125614408D01*
X146234535Y-125614539D01*
X146227920Y-125618790D01*
X145484237Y-126362473D01*
X145477477Y-126374853D01*
X144453711Y-126374853D01*
X144455148Y-126373023D01*
X144448160Y-126359870D01*
X143710312Y-125622022D01*
X143696368Y-125614408D01*
X143694535Y-125614539D01*
X143687920Y-125618790D01*
X142944237Y-126362473D01*
X142937477Y-126374853D01*
X140487267Y-126374853D01*
X140486239Y-125221863D01*
X142335550Y-125221863D01*
X142347809Y-125434477D01*
X142349245Y-125444697D01*
X142396065Y-125652446D01*
X142399145Y-125662275D01*
X142479270Y-125859603D01*
X142483913Y-125868794D01*
X142563960Y-125999420D01*
X142574416Y-126008880D01*
X142583194Y-126005096D01*
X143325478Y-125262812D01*
X143331856Y-125251132D01*
X144061908Y-125251132D01*
X144062039Y-125252965D01*
X144066290Y-125259580D01*
X144807974Y-126001264D01*
X144819984Y-126007823D01*
X144831723Y-125998855D01*
X144865522Y-125951819D01*
X144866649Y-125952629D01*
X144914159Y-125908881D01*
X144984096Y-125896661D01*
X145049538Y-125924191D01*
X145077370Y-125956029D01*
X145103959Y-125999419D01*
X145114416Y-126008880D01*
X145123194Y-126005096D01*
X145865478Y-125262812D01*
X145871856Y-125251132D01*
X146601908Y-125251132D01*
X146602039Y-125252965D01*
X146606290Y-125259580D01*
X147347974Y-126001264D01*
X147359984Y-126007823D01*
X147371723Y-125998855D01*
X147402504Y-125956019D01*
X147407815Y-125947180D01*
X147502170Y-125756267D01*
X147505969Y-125746672D01*
X147567876Y-125542915D01*
X147570055Y-125532834D01*
X147598090Y-125319887D01*
X147598609Y-125313212D01*
X147600072Y-125253364D01*
X147599878Y-125246646D01*
X147582281Y-125032604D01*
X147580596Y-125022424D01*
X147528714Y-124815875D01*
X147525394Y-124806124D01*
X147440472Y-124610814D01*
X147435605Y-124601739D01*
X147370563Y-124501197D01*
X147359877Y-124491995D01*
X147350312Y-124496398D01*
X146609522Y-125237188D01*
X146601908Y-125251132D01*
X145871856Y-125251132D01*
X145873092Y-125248868D01*
X145872961Y-125247035D01*
X145868710Y-125240420D01*
X145127349Y-124499059D01*
X145115813Y-124492759D01*
X145103528Y-124502384D01*
X145070692Y-124550520D01*
X145015781Y-124595523D01*
X144945256Y-124603694D01*
X144881509Y-124572440D01*
X144860811Y-124547955D01*
X144830562Y-124501197D01*
X144819877Y-124491995D01*
X144810312Y-124496398D01*
X144069522Y-125237188D01*
X144061908Y-125251132D01*
X143331856Y-125251132D01*
X143333092Y-125248868D01*
X143332961Y-125247035D01*
X143328710Y-125240420D01*
X142587349Y-124499059D01*
X142575813Y-124492759D01*
X142563531Y-124502382D01*
X142515589Y-124572662D01*
X142510504Y-124581613D01*
X142420838Y-124774783D01*
X142417275Y-124784470D01*
X142360364Y-124989681D01*
X142358433Y-124999800D01*
X142335802Y-125211574D01*
X142335550Y-125221863D01*
X140486239Y-125221863D01*
X140485003Y-123834853D01*
X142937477Y-123834853D01*
X142942758Y-123841907D01*
X142989979Y-123869501D01*
X143038703Y-123921139D01*
X143051774Y-123990922D01*
X143025043Y-124056694D01*
X142984587Y-124090053D01*
X142975966Y-124094541D01*
X142967234Y-124100039D01*
X142947177Y-124115099D01*
X142938723Y-124126427D01*
X142945468Y-124138758D01*
X143684688Y-124877978D01*
X143698632Y-124885592D01*
X143700465Y-124885461D01*
X143707080Y-124881210D01*
X144450889Y-124137401D01*
X144457910Y-124124544D01*
X144451111Y-124115213D01*
X144447059Y-124112521D01*
X144409616Y-124091852D01*
X144359645Y-124041420D01*
X144344873Y-123971977D01*
X144369989Y-123905572D01*
X144397340Y-123878965D01*
X144446747Y-123843723D01*
X144453711Y-123834853D01*
X145477477Y-123834853D01*
X145482758Y-123841907D01*
X145529979Y-123869501D01*
X145578703Y-123921139D01*
X145591774Y-123990922D01*
X145565043Y-124056694D01*
X145524587Y-124090053D01*
X145515966Y-124094541D01*
X145507234Y-124100039D01*
X145487177Y-124115099D01*
X145478723Y-124126427D01*
X145485468Y-124138758D01*
X146224688Y-124877978D01*
X146238632Y-124885592D01*
X146240465Y-124885461D01*
X146247080Y-124881210D01*
X146990889Y-124137401D01*
X146997910Y-124124544D01*
X146991111Y-124115213D01*
X146987059Y-124112521D01*
X146949616Y-124091852D01*
X146899645Y-124041420D01*
X146884873Y-123971977D01*
X146909989Y-123905572D01*
X146937340Y-123878965D01*
X146986747Y-123843723D01*
X146995148Y-123833023D01*
X146988160Y-123819870D01*
X146250312Y-123082022D01*
X146236368Y-123074408D01*
X146234535Y-123074539D01*
X146227920Y-123078790D01*
X145484237Y-123822473D01*
X145477477Y-123834853D01*
X144453711Y-123834853D01*
X144455148Y-123833023D01*
X144448160Y-123819870D01*
X143710312Y-123082022D01*
X143696368Y-123074408D01*
X143694535Y-123074539D01*
X143687920Y-123078790D01*
X142944237Y-123822473D01*
X142937477Y-123834853D01*
X140485003Y-123834853D01*
X140483975Y-122681863D01*
X142335550Y-122681863D01*
X142347809Y-122894477D01*
X142349245Y-122904697D01*
X142396065Y-123112446D01*
X142399145Y-123122275D01*
X142479270Y-123319603D01*
X142483913Y-123328794D01*
X142563960Y-123459420D01*
X142574416Y-123468880D01*
X142583194Y-123465096D01*
X143325478Y-122722812D01*
X143331856Y-122711132D01*
X144061908Y-122711132D01*
X144062039Y-122712965D01*
X144066290Y-122719580D01*
X144807974Y-123461264D01*
X144819984Y-123467823D01*
X144831723Y-123458855D01*
X144865522Y-123411819D01*
X144866649Y-123412629D01*
X144914159Y-123368881D01*
X144984096Y-123356661D01*
X145049538Y-123384191D01*
X145077370Y-123416029D01*
X145103959Y-123459419D01*
X145114416Y-123468880D01*
X145123194Y-123465096D01*
X145865478Y-122722812D01*
X145873092Y-122708868D01*
X145872961Y-122707035D01*
X145868710Y-122700420D01*
X145127349Y-121959059D01*
X145115813Y-121952759D01*
X145103528Y-121962384D01*
X145070692Y-122010520D01*
X145015781Y-122055523D01*
X144945256Y-122063694D01*
X144881509Y-122032440D01*
X144860811Y-122007955D01*
X144830562Y-121961197D01*
X144819877Y-121951995D01*
X144810312Y-121956398D01*
X144069522Y-122697188D01*
X144061908Y-122711132D01*
X143331856Y-122711132D01*
X143333092Y-122708868D01*
X143332961Y-122707035D01*
X143328710Y-122700420D01*
X142587349Y-121959059D01*
X142575813Y-121952759D01*
X142563531Y-121962382D01*
X142515589Y-122032662D01*
X142510504Y-122041613D01*
X142420838Y-122234783D01*
X142417275Y-122244470D01*
X142360364Y-122449681D01*
X142358433Y-122459800D01*
X142335802Y-122671574D01*
X142335550Y-122681863D01*
X140483975Y-122681863D01*
X140480946Y-119283813D01*
X140500887Y-119215675D01*
X140554502Y-119169134D01*
X140624767Y-119158968D01*
X140689374Y-119188403D01*
X140715018Y-119218921D01*
X140759372Y-119292922D01*
X140818886Y-119392216D01*
X140818892Y-119392225D01*
X140820475Y-119394866D01*
X140822318Y-119397351D01*
X141019089Y-119662665D01*
X141022754Y-119667607D01*
X141250792Y-119919208D01*
X141502393Y-120147246D01*
X141504879Y-120149090D01*
X141504883Y-120149093D01*
X141772649Y-120347682D01*
X141775134Y-120349525D01*
X141777775Y-120351108D01*
X141777784Y-120351114D01*
X142045291Y-120511451D01*
X142066388Y-120524096D01*
X142373351Y-120669278D01*
X142376259Y-120670318D01*
X142376265Y-120670321D01*
X142391145Y-120675645D01*
X142448546Y-120717427D01*
X142465440Y-120746875D01*
X142478819Y-120779823D01*
X142478823Y-120779831D01*
X142480766Y-120784616D01*
X142597487Y-120975088D01*
X142743750Y-121143938D01*
X142813513Y-121201856D01*
X142904433Y-121277339D01*
X142915626Y-121286632D01*
X142968524Y-121317543D01*
X142989455Y-121329774D01*
X143038179Y-121381412D01*
X143051250Y-121451195D01*
X143024519Y-121516967D01*
X142984062Y-121550327D01*
X142975960Y-121554544D01*
X142967234Y-121560039D01*
X142947177Y-121575099D01*
X142938723Y-121586427D01*
X142945468Y-121598758D01*
X143684688Y-122337978D01*
X143698632Y-122345592D01*
X143700465Y-122345461D01*
X143707080Y-122341210D01*
X144450889Y-121597401D01*
X144457910Y-121584544D01*
X144451111Y-121575213D01*
X144447059Y-121572521D01*
X144410102Y-121552120D01*
X144360131Y-121501687D01*
X144345359Y-121432245D01*
X144370475Y-121365839D01*
X144397827Y-121339232D01*
X144457455Y-121296700D01*
X144577360Y-121211173D01*
X144594702Y-121193892D01*
X144683066Y-121105836D01*
X144735596Y-121053489D01*
X144787703Y-120980974D01*
X144843698Y-120937326D01*
X144890026Y-120928500D01*
X145039991Y-120928500D01*
X145108112Y-120948502D01*
X145136902Y-120975595D01*
X145137487Y-120975088D01*
X145283750Y-121143938D01*
X145353513Y-121201856D01*
X145444433Y-121277339D01*
X145455626Y-121286632D01*
X145508524Y-121317543D01*
X145529455Y-121329774D01*
X145578179Y-121381412D01*
X145591250Y-121451195D01*
X145564519Y-121516967D01*
X145524062Y-121550327D01*
X145515960Y-121554544D01*
X145507234Y-121560039D01*
X145487177Y-121575099D01*
X145478723Y-121586427D01*
X145485468Y-121598758D01*
X147347974Y-123461264D01*
X147359984Y-123467823D01*
X147371723Y-123458855D01*
X147402504Y-123416019D01*
X147407815Y-123407180D01*
X147502170Y-123216267D01*
X147505969Y-123206672D01*
X147567876Y-123002915D01*
X147570055Y-122992834D01*
X147585287Y-122877134D01*
X147614009Y-122812207D01*
X147673274Y-122773115D01*
X147744266Y-122772270D01*
X147799304Y-122804485D01*
X151187664Y-126192845D01*
X151221690Y-126255157D01*
X151224569Y-126281940D01*
X151224569Y-127978501D01*
X151207688Y-128041500D01*
X151148542Y-128143944D01*
X151089527Y-128325572D01*
X151088837Y-128332133D01*
X151088837Y-128332135D01*
X151071611Y-128496029D01*
X151069565Y-128515500D01*
X151070255Y-128522065D01*
X151085460Y-128666729D01*
X151089527Y-128705428D01*
X151148542Y-128887056D01*
X151151845Y-128892778D01*
X151151846Y-128892779D01*
X151168663Y-128921907D01*
X151244029Y-129052444D01*
X151248447Y-129057351D01*
X151248448Y-129057352D01*
X151319897Y-129136704D01*
X151371816Y-129194366D01*
X151526317Y-129306618D01*
X151532345Y-129309302D01*
X151532347Y-129309303D01*
X151694750Y-129381609D01*
X151700781Y-129384294D01*
X151779527Y-129401032D01*
X151881125Y-129422628D01*
X151881130Y-129422628D01*
X151887582Y-129424000D01*
X152078556Y-129424000D01*
X152085008Y-129422628D01*
X152085013Y-129422628D01*
X152186611Y-129401032D01*
X152265357Y-129384294D01*
X152271388Y-129381609D01*
X152433791Y-129309303D01*
X152433793Y-129309302D01*
X152439821Y-129306618D01*
X152594322Y-129194366D01*
X152646241Y-129136704D01*
X152717690Y-129057352D01*
X152717691Y-129057351D01*
X152722109Y-129052444D01*
X152797475Y-128921907D01*
X152814292Y-128892779D01*
X152814293Y-128892778D01*
X152817596Y-128887056D01*
X152876611Y-128705428D01*
X152880679Y-128666729D01*
X152895883Y-128522065D01*
X152896573Y-128515500D01*
X152894527Y-128496029D01*
X152877301Y-128332135D01*
X152877301Y-128332133D01*
X152876611Y-128325572D01*
X152817596Y-128143944D01*
X152758450Y-128041500D01*
X152741569Y-127978501D01*
X152741569Y-125982639D01*
X152743002Y-125963689D01*
X152745168Y-125949454D01*
X152745168Y-125949450D01*
X152746268Y-125942220D01*
X152741984Y-125889551D01*
X152741569Y-125879336D01*
X152741569Y-125871276D01*
X152738278Y-125843049D01*
X152737847Y-125838690D01*
X152732523Y-125773231D01*
X152732522Y-125773228D01*
X152731929Y-125765933D01*
X152729673Y-125758969D01*
X152728486Y-125753030D01*
X152727099Y-125747159D01*
X152726251Y-125739888D01*
X152723755Y-125733012D01*
X152723753Y-125733003D01*
X152701344Y-125671271D01*
X152699934Y-125667167D01*
X152677421Y-125597670D01*
X152673625Y-125591415D01*
X152671126Y-125585956D01*
X152668398Y-125580508D01*
X152665902Y-125573632D01*
X152625874Y-125512579D01*
X152623550Y-125508896D01*
X152588569Y-125451249D01*
X152588568Y-125451248D01*
X152585664Y-125446462D01*
X152578267Y-125438086D01*
X152578294Y-125438062D01*
X152575639Y-125435068D01*
X152572937Y-125431837D01*
X152568925Y-125425717D01*
X152512686Y-125372441D01*
X152510244Y-125370063D01*
X147617109Y-120476928D01*
X147583083Y-120414616D01*
X147581282Y-120371389D01*
X147599029Y-120236590D01*
X147600656Y-120170000D01*
X147582352Y-119947361D01*
X147527931Y-119730702D01*
X147438854Y-119525840D01*
X147364884Y-119411500D01*
X147320322Y-119342617D01*
X147320318Y-119342612D01*
X147317514Y-119338277D01*
X147167170Y-119173051D01*
X147163125Y-119169857D01*
X147163116Y-119169848D01*
X147093908Y-119115191D01*
X147052845Y-119057274D01*
X147046000Y-119016309D01*
X147046000Y-118725590D01*
X147066002Y-118657469D01*
X147093518Y-118627086D01*
X147099348Y-118623478D01*
X147224305Y-118498303D01*
X147317115Y-118347738D01*
X147372797Y-118179861D01*
X147383500Y-118075400D01*
X147383500Y-117796157D01*
X147403502Y-117728036D01*
X147457158Y-117681543D01*
X147527432Y-117671439D01*
X147592012Y-117700933D01*
X147598595Y-117707062D01*
X149189595Y-119298062D01*
X149223621Y-119360374D01*
X149226500Y-119387157D01*
X149226500Y-121079233D01*
X149225973Y-121090416D01*
X149224298Y-121097909D01*
X149224547Y-121105835D01*
X149224547Y-121105836D01*
X149226438Y-121165986D01*
X149226500Y-121169945D01*
X149226500Y-121197856D01*
X149226997Y-121201790D01*
X149226997Y-121201791D01*
X149227005Y-121201856D01*
X149227938Y-121213693D01*
X149229327Y-121257889D01*
X149234978Y-121277339D01*
X149238987Y-121296700D01*
X149241526Y-121316797D01*
X149244445Y-121324168D01*
X149244445Y-121324170D01*
X149257804Y-121357912D01*
X149261649Y-121369142D01*
X149273982Y-121411593D01*
X149278015Y-121418412D01*
X149278017Y-121418417D01*
X149284293Y-121429028D01*
X149292988Y-121446776D01*
X149300448Y-121465617D01*
X149305110Y-121472033D01*
X149305110Y-121472034D01*
X149326436Y-121501387D01*
X149332952Y-121511307D01*
X149349461Y-121539221D01*
X149355458Y-121549362D01*
X149369779Y-121563683D01*
X149382619Y-121578716D01*
X149394528Y-121595107D01*
X149428605Y-121623298D01*
X149437384Y-121631288D01*
X155793595Y-127987499D01*
X155827621Y-128049811D01*
X155830500Y-128076594D01*
X155830500Y-128329476D01*
X155810498Y-128397597D01*
X155798142Y-128413779D01*
X155724960Y-128495056D01*
X155698282Y-128541264D01*
X155637151Y-128647146D01*
X155629473Y-128660444D01*
X155570458Y-128842072D01*
X155569768Y-128848633D01*
X155569768Y-128848635D01*
X155558664Y-128954287D01*
X155550496Y-129032000D01*
X155551186Y-129038565D01*
X155567586Y-129194598D01*
X155570458Y-129221928D01*
X155629473Y-129403556D01*
X155632776Y-129409278D01*
X155632777Y-129409279D01*
X155656745Y-129450793D01*
X155724960Y-129568944D01*
X155729378Y-129573851D01*
X155729379Y-129573852D01*
X155827658Y-129683002D01*
X155852747Y-129710866D01*
X156007248Y-129823118D01*
X156013276Y-129825802D01*
X156013278Y-129825803D01*
X156175681Y-129898109D01*
X156181712Y-129900794D01*
X156275112Y-129920647D01*
X156362056Y-129939128D01*
X156362061Y-129939128D01*
X156368513Y-129940500D01*
X156559487Y-129940500D01*
X156565939Y-129939128D01*
X156565944Y-129939128D01*
X156652888Y-129920647D01*
X156746288Y-129900794D01*
X156752319Y-129898109D01*
X156914722Y-129825803D01*
X156914724Y-129825802D01*
X156920752Y-129823118D01*
X157075253Y-129710866D01*
X157100342Y-129683002D01*
X157198621Y-129573852D01*
X157198622Y-129573851D01*
X157203040Y-129568944D01*
X157271255Y-129450793D01*
X157295223Y-129409279D01*
X157295224Y-129409278D01*
X157298527Y-129403556D01*
X157352895Y-129236231D01*
X157392968Y-129177626D01*
X157446529Y-129151922D01*
X157508288Y-129138794D01*
X157514319Y-129136109D01*
X157676722Y-129063803D01*
X157676724Y-129063802D01*
X157682752Y-129061118D01*
X157708645Y-129042306D01*
X157748397Y-129013424D01*
X157837253Y-128948866D01*
X157866140Y-128916784D01*
X157960621Y-128811852D01*
X157960622Y-128811851D01*
X157965040Y-128806944D01*
X158060527Y-128641556D01*
X158119542Y-128459928D01*
X158121988Y-128436661D01*
X158138814Y-128276565D01*
X158139504Y-128270000D01*
X158128155Y-128162022D01*
X158120232Y-128086635D01*
X158120232Y-128086633D01*
X158119542Y-128080072D01*
X158060527Y-127898444D01*
X157965040Y-127733056D01*
X157856782Y-127612823D01*
X157833267Y-127574898D01*
X157828200Y-127562099D01*
X157824356Y-127550872D01*
X157821139Y-127539800D01*
X157812019Y-127508407D01*
X157801705Y-127490966D01*
X157793008Y-127473213D01*
X157788472Y-127461758D01*
X157785552Y-127454383D01*
X157764539Y-127425461D01*
X157759563Y-127418612D01*
X157753047Y-127408692D01*
X157734578Y-127377463D01*
X157730542Y-127370638D01*
X157716221Y-127356317D01*
X157703380Y-127341283D01*
X157696131Y-127331306D01*
X157691472Y-127324893D01*
X157657395Y-127296702D01*
X157648616Y-127288712D01*
X155509500Y-125149595D01*
X155475474Y-125087283D01*
X155480539Y-125016467D01*
X155523086Y-124959632D01*
X155589606Y-124934821D01*
X155598595Y-124934500D01*
X155695487Y-124934500D01*
X155701939Y-124933128D01*
X155701944Y-124933128D01*
X155788888Y-124914647D01*
X155882288Y-124894794D01*
X155888319Y-124892109D01*
X156050722Y-124819803D01*
X156050724Y-124819802D01*
X156056752Y-124817118D01*
X156211253Y-124704866D01*
X156309706Y-124595523D01*
X156334621Y-124567852D01*
X156334622Y-124567851D01*
X156339040Y-124562944D01*
X156434527Y-124397556D01*
X156493542Y-124215928D01*
X156500702Y-124147810D01*
X156512814Y-124032565D01*
X156513504Y-124026000D01*
X156498050Y-123878965D01*
X156494232Y-123842635D01*
X156494232Y-123842633D01*
X156493542Y-123836072D01*
X156434527Y-123654444D01*
X156339040Y-123489056D01*
X156317467Y-123465096D01*
X156263573Y-123405241D01*
X156232855Y-123341234D01*
X156231209Y-123320931D01*
X156231209Y-121619598D01*
X156231404Y-121612598D01*
X156234292Y-121560705D01*
X156234292Y-121560699D01*
X156234521Y-121556582D01*
X156234185Y-121552120D01*
X156233825Y-121547363D01*
X156233515Y-121543255D01*
X156232175Y-121536850D01*
X156230807Y-121529113D01*
X156218328Y-121442975D01*
X156228356Y-121372691D01*
X156240700Y-121351388D01*
X156250711Y-121337455D01*
X156306704Y-121293805D01*
X156377407Y-121287356D01*
X156437572Y-121317543D01*
X156440555Y-121320242D01*
X156449330Y-121316459D01*
X157227979Y-120537811D01*
X157235592Y-120523868D01*
X157235461Y-120522034D01*
X157231210Y-120515420D01*
X156453862Y-119738073D01*
X156442331Y-119731776D01*
X156432877Y-119739183D01*
X156366918Y-119765450D01*
X156297229Y-119751887D01*
X156249377Y-119708440D01*
X156222571Y-119667004D01*
X156219764Y-119662665D01*
X156063887Y-119491358D01*
X156059836Y-119488159D01*
X156059832Y-119488155D01*
X155886177Y-119351011D01*
X155886172Y-119351008D01*
X155882123Y-119347810D01*
X155877607Y-119345317D01*
X155877604Y-119345315D01*
X155683879Y-119238373D01*
X155683875Y-119238371D01*
X155679355Y-119235876D01*
X155674486Y-119234152D01*
X155674482Y-119234150D01*
X155465903Y-119160288D01*
X155465899Y-119160287D01*
X155461028Y-119158562D01*
X155455935Y-119157655D01*
X155455932Y-119157654D01*
X155238095Y-119118851D01*
X155238089Y-119118850D01*
X155233006Y-119117945D01*
X155160096Y-119117054D01*
X155006581Y-119115179D01*
X155006579Y-119115179D01*
X155001411Y-119115116D01*
X154772464Y-119150150D01*
X154552314Y-119222106D01*
X154547726Y-119224494D01*
X154547722Y-119224496D01*
X154357368Y-119323588D01*
X154346872Y-119329052D01*
X154342739Y-119332155D01*
X154342736Y-119332157D01*
X154161655Y-119468117D01*
X154160976Y-119467213D01*
X154101730Y-119495131D01*
X154031341Y-119485869D01*
X153977132Y-119440022D01*
X153964325Y-119414866D01*
X153953768Y-119386705D01*
X153953767Y-119386703D01*
X153950615Y-119378295D01*
X153863261Y-119261739D01*
X153746705Y-119174385D01*
X153610316Y-119123255D01*
X153548134Y-119116500D01*
X153359500Y-119116500D01*
X153291379Y-119096498D01*
X153244886Y-119042842D01*
X153233500Y-118990500D01*
X153233500Y-112160778D01*
X153234757Y-112143025D01*
X153237432Y-112124230D01*
X153237432Y-112124227D01*
X153238013Y-112120146D01*
X153238153Y-112106782D01*
X153237908Y-112104754D01*
X153238056Y-112104124D01*
X153237833Y-112104134D01*
X153220279Y-111724479D01*
X153220278Y-111724473D01*
X153220145Y-111721587D01*
X153219204Y-111714837D01*
X153167272Y-111342565D01*
X153167271Y-111342562D01*
X153166869Y-111339677D01*
X153106328Y-111082275D01*
X153079251Y-110967152D01*
X153079249Y-110967147D01*
X153078583Y-110964313D01*
X152956040Y-110598696D01*
X152800284Y-110245945D01*
X152777857Y-110205680D01*
X152614067Y-109911623D01*
X152612645Y-109909070D01*
X152394725Y-109590946D01*
X152392877Y-109588720D01*
X152392869Y-109588710D01*
X152150237Y-109296521D01*
X152150234Y-109296518D01*
X152148380Y-109294285D01*
X151875715Y-109021620D01*
X151873479Y-109019763D01*
X151581290Y-108777131D01*
X151581280Y-108777123D01*
X151579054Y-108775275D01*
X151260930Y-108557355D01*
X150968854Y-108394669D01*
X150926612Y-108371140D01*
X150926608Y-108371138D01*
X150924055Y-108369716D01*
X150571304Y-108213960D01*
X150205687Y-108091417D01*
X150202853Y-108090751D01*
X150202848Y-108090749D01*
X150036624Y-108051653D01*
X149830323Y-108003131D01*
X149827438Y-108002729D01*
X149827435Y-108002728D01*
X149451282Y-107950255D01*
X149451277Y-107950255D01*
X149448413Y-107949855D01*
X149445529Y-107949722D01*
X149445522Y-107949721D01*
X149250963Y-107940726D01*
X149089595Y-107933264D01*
X149084782Y-107932811D01*
X149084777Y-107932881D01*
X149080668Y-107932569D01*
X149076582Y-107931987D01*
X149069900Y-107931917D01*
X149067343Y-107931890D01*
X149067340Y-107931890D01*
X149063218Y-107931847D01*
X149059125Y-107932342D01*
X149059112Y-107932343D01*
X149032303Y-107935587D01*
X149017166Y-107936500D01*
X146124930Y-107936500D01*
X146056809Y-107916498D01*
X146011277Y-107862011D01*
X146010475Y-107862420D01*
X146008688Y-107858912D01*
X146008518Y-107858709D01*
X146008231Y-107858015D01*
X146008227Y-107858007D01*
X146006334Y-107853437D01*
X145876925Y-107642260D01*
X145716073Y-107453927D01*
X145527740Y-107293075D01*
X145316563Y-107163666D01*
X145311993Y-107161773D01*
X145311989Y-107161771D01*
X145092315Y-107070779D01*
X145092313Y-107070778D01*
X145087742Y-107068885D01*
X145002830Y-107048499D01*
X144851724Y-107012221D01*
X144851718Y-107012220D01*
X144846911Y-107011066D01*
X144600000Y-106991634D01*
X144353089Y-107011066D01*
X144348282Y-107012220D01*
X144348276Y-107012221D01*
X144197170Y-107048499D01*
X144112258Y-107068885D01*
X144107687Y-107070778D01*
X144107685Y-107070779D01*
X143888011Y-107161771D01*
X143888007Y-107161773D01*
X143883437Y-107163666D01*
X143672260Y-107293075D01*
X143483927Y-107453927D01*
X143323075Y-107642260D01*
X143193666Y-107853437D01*
X143191773Y-107858007D01*
X143191771Y-107858011D01*
X143131383Y-108003800D01*
X143098885Y-108082258D01*
X143096686Y-108091417D01*
X143042221Y-108318276D01*
X143042220Y-108318282D01*
X143041066Y-108323089D01*
X143021634Y-108570000D01*
X143041066Y-108816911D01*
X143042220Y-108821718D01*
X143042221Y-108821724D01*
X143062166Y-108904797D01*
X143098885Y-109057742D01*
X143100778Y-109062313D01*
X143100779Y-109062315D01*
X143191770Y-109281985D01*
X143193666Y-109286563D01*
X143323075Y-109497740D01*
X143483927Y-109686073D01*
X143672260Y-109846925D01*
X143883437Y-109976334D01*
X143888007Y-109978227D01*
X143888011Y-109978229D01*
X144107685Y-110069221D01*
X144112258Y-110071115D01*
X144197170Y-110091501D01*
X144348276Y-110127779D01*
X144348282Y-110127780D01*
X144353089Y-110128934D01*
X144600000Y-110148366D01*
X144846911Y-110128934D01*
X144851718Y-110127780D01*
X144851724Y-110127779D01*
X145002830Y-110091501D01*
X145087742Y-110071115D01*
X145092315Y-110069221D01*
X145311989Y-109978229D01*
X145311993Y-109978227D01*
X145316563Y-109976334D01*
X145527740Y-109846925D01*
X145716073Y-109686073D01*
X145876925Y-109497740D01*
X146006334Y-109286563D01*
X146008229Y-109281989D01*
X146008231Y-109281985D01*
X146008518Y-109281291D01*
X146008698Y-109281067D01*
X146010475Y-109277580D01*
X146011207Y-109277953D01*
X146053062Y-109226006D01*
X146124930Y-109203500D01*
X149013195Y-109203500D01*
X149029642Y-109204578D01*
X149048999Y-109207127D01*
X149049002Y-109207127D01*
X149056529Y-109208118D01*
X149076083Y-109205959D01*
X149096977Y-109205396D01*
X149381217Y-109221360D01*
X149395248Y-109222941D01*
X149516954Y-109243620D01*
X149702283Y-109275110D01*
X149716054Y-109278253D01*
X150015315Y-109364469D01*
X150028638Y-109369132D01*
X150316366Y-109488313D01*
X150329088Y-109494440D01*
X150601664Y-109645088D01*
X150613620Y-109652601D01*
X150867610Y-109832818D01*
X150878657Y-109841627D01*
X151110867Y-110049142D01*
X151120858Y-110059133D01*
X151328373Y-110291343D01*
X151337182Y-110302390D01*
X151517399Y-110556380D01*
X151524912Y-110568336D01*
X151661134Y-110814809D01*
X151675558Y-110840907D01*
X151681687Y-110853634D01*
X151724492Y-110956973D01*
X151800868Y-111141361D01*
X151805534Y-111154696D01*
X151860049Y-111343919D01*
X151861485Y-111348905D01*
X151861124Y-111419901D01*
X151822436Y-111479431D01*
X151757706Y-111508594D01*
X151687484Y-111498132D01*
X151652333Y-111473889D01*
X151509264Y-111334030D01*
X151480885Y-111313373D01*
X151293721Y-111177141D01*
X151290028Y-111174453D01*
X151050053Y-111048196D01*
X151045752Y-111046677D01*
X151045747Y-111046675D01*
X150867998Y-110983906D01*
X150794366Y-110957904D01*
X150696347Y-110938585D01*
X150532794Y-110906348D01*
X150532788Y-110906347D01*
X150528322Y-110905467D01*
X150523768Y-110905240D01*
X150523766Y-110905240D01*
X150262064Y-110892211D01*
X150262058Y-110892211D01*
X150257495Y-110891984D01*
X149987559Y-110917738D01*
X149983130Y-110918822D01*
X149983123Y-110918823D01*
X149853069Y-110950648D01*
X149724168Y-110982190D01*
X149719933Y-110983905D01*
X149719931Y-110983906D01*
X149555577Y-111050476D01*
X149472840Y-111083988D01*
X149238839Y-111221001D01*
X149027068Y-111390359D01*
X149023947Y-111393700D01*
X148855827Y-111573671D01*
X148841963Y-111588512D01*
X148687402Y-111811312D01*
X148685374Y-111815388D01*
X148685373Y-111815390D01*
X148585984Y-112015170D01*
X148566621Y-112054090D01*
X148482153Y-112311760D01*
X148481373Y-112316251D01*
X148481373Y-112316252D01*
X148456041Y-112462151D01*
X148435765Y-112578925D01*
X148431500Y-112664600D01*
X148431500Y-113353884D01*
X148431665Y-113356152D01*
X148431665Y-113356164D01*
X148437046Y-113430318D01*
X148446125Y-113555451D01*
X148447109Y-113559906D01*
X148447109Y-113559909D01*
X148460726Y-113621586D01*
X148455880Y-113692417D01*
X148413509Y-113749384D01*
X148347066Y-113774401D01*
X148285851Y-113760413D01*
X148284752Y-113762882D01*
X148116319Y-113687891D01*
X148116318Y-113687891D01*
X148110288Y-113685206D01*
X148016888Y-113665353D01*
X147929944Y-113646872D01*
X147929939Y-113646872D01*
X147923487Y-113645500D01*
X147732513Y-113645500D01*
X147726061Y-113646872D01*
X147726056Y-113646872D01*
X147639112Y-113665353D01*
X147545712Y-113685206D01*
X147539682Y-113687891D01*
X147539681Y-113687891D01*
X147377278Y-113760197D01*
X147377276Y-113760198D01*
X147371248Y-113762882D01*
X147365905Y-113766764D01*
X147364571Y-113767733D01*
X147363669Y-113768055D01*
X147360189Y-113770064D01*
X147359822Y-113769428D01*
X147297704Y-113791592D01*
X147228552Y-113775513D01*
X147179071Y-113724600D01*
X147164971Y-113655017D01*
X147172526Y-113621570D01*
X147173972Y-113617714D01*
X147173973Y-113617711D01*
X147176745Y-113610316D01*
X147183500Y-113548134D01*
X147183500Y-111651866D01*
X147176745Y-111589684D01*
X147125615Y-111453295D01*
X147038261Y-111336739D01*
X146921705Y-111249385D01*
X146785316Y-111198255D01*
X146723134Y-111191500D01*
X144826866Y-111191500D01*
X144764684Y-111198255D01*
X144628295Y-111249385D01*
X144511739Y-111336739D01*
X144424385Y-111453295D01*
X144421233Y-111461703D01*
X144421232Y-111461705D01*
X144400538Y-111516906D01*
X144357897Y-111573671D01*
X144291335Y-111598371D01*
X144221986Y-111583164D01*
X144199167Y-111566666D01*
X144198887Y-111566358D01*
X144165527Y-111540012D01*
X144021177Y-111426011D01*
X144021172Y-111426008D01*
X144017123Y-111422810D01*
X144012607Y-111420317D01*
X144012604Y-111420315D01*
X143818879Y-111313373D01*
X143818875Y-111313371D01*
X143814355Y-111310876D01*
X143809486Y-111309152D01*
X143809482Y-111309150D01*
X143600903Y-111235288D01*
X143600899Y-111235287D01*
X143596028Y-111233562D01*
X143590935Y-111232655D01*
X143590932Y-111232654D01*
X143373095Y-111193851D01*
X143373089Y-111193850D01*
X143368006Y-111192945D01*
X143295096Y-111192054D01*
X143141581Y-111190179D01*
X143141579Y-111190179D01*
X143136411Y-111190116D01*
X142907464Y-111225150D01*
X142687314Y-111297106D01*
X142682726Y-111299494D01*
X142682722Y-111299496D01*
X142508176Y-111390359D01*
X142481872Y-111404052D01*
X142477739Y-111407155D01*
X142477736Y-111407157D01*
X142300790Y-111540012D01*
X142296655Y-111543117D01*
X142293083Y-111546855D01*
X142202672Y-111641465D01*
X142136639Y-111710564D01*
X142133725Y-111714836D01*
X142133724Y-111714837D01*
X142127147Y-111724479D01*
X142006119Y-111901899D01*
X142003944Y-111906585D01*
X142003937Y-111906597D01*
X141998787Y-111917692D01*
X141951963Y-111971059D01*
X141883719Y-111990639D01*
X141815724Y-111970215D01*
X141769564Y-111916272D01*
X141758500Y-111864641D01*
X141758500Y-101549938D01*
X143684892Y-101549938D01*
X143690619Y-101557588D01*
X143879445Y-101673301D01*
X143888239Y-101677782D01*
X144107840Y-101768744D01*
X144117225Y-101771793D01*
X144348355Y-101827283D01*
X144358102Y-101828826D01*
X144595070Y-101847476D01*
X144604930Y-101847476D01*
X144841898Y-101828826D01*
X144851645Y-101827283D01*
X145082775Y-101771793D01*
X145092160Y-101768744D01*
X145311761Y-101677782D01*
X145320555Y-101673301D01*
X145505715Y-101559835D01*
X145515175Y-101549379D01*
X145511391Y-101540601D01*
X144612812Y-100642022D01*
X144598868Y-100634408D01*
X144597035Y-100634539D01*
X144590420Y-100638790D01*
X143691652Y-101537558D01*
X143684892Y-101549938D01*
X141758500Y-101549938D01*
X141758500Y-100274930D01*
X143022524Y-100274930D01*
X143041174Y-100511898D01*
X143042717Y-100521645D01*
X143098207Y-100752775D01*
X143101256Y-100762160D01*
X143192218Y-100981761D01*
X143196699Y-100990555D01*
X143310165Y-101175715D01*
X143320621Y-101185175D01*
X143329399Y-101181391D01*
X144227978Y-100282812D01*
X144234356Y-100271132D01*
X144964408Y-100271132D01*
X144964539Y-100272965D01*
X144968790Y-100279580D01*
X145867558Y-101178348D01*
X145879938Y-101185108D01*
X145887588Y-101179381D01*
X146003301Y-100990555D01*
X146007782Y-100981761D01*
X146098744Y-100762160D01*
X146101793Y-100752775D01*
X146157283Y-100521645D01*
X146158826Y-100511898D01*
X146177476Y-100274930D01*
X146177476Y-100265070D01*
X146158826Y-100028102D01*
X146157283Y-100018355D01*
X146101793Y-99787225D01*
X146098744Y-99777840D01*
X146007782Y-99558239D01*
X146003301Y-99549445D01*
X145889835Y-99364285D01*
X145879379Y-99354825D01*
X145870601Y-99358609D01*
X144972022Y-100257188D01*
X144964408Y-100271132D01*
X144234356Y-100271132D01*
X144235592Y-100268868D01*
X144235461Y-100267035D01*
X144231210Y-100260420D01*
X143332442Y-99361652D01*
X143320062Y-99354892D01*
X143312412Y-99360619D01*
X143196699Y-99549445D01*
X143192218Y-99558239D01*
X143101256Y-99777840D01*
X143098207Y-99787225D01*
X143042717Y-100018355D01*
X143041174Y-100028102D01*
X143022524Y-100265070D01*
X143022524Y-100274930D01*
X141758500Y-100274930D01*
X141758500Y-98129669D01*
X143127001Y-98129669D01*
X143127371Y-98136490D01*
X143132895Y-98187352D01*
X143136521Y-98202604D01*
X143181676Y-98323054D01*
X143190214Y-98338649D01*
X143266715Y-98440724D01*
X143279276Y-98453285D01*
X143381351Y-98529786D01*
X143396946Y-98538324D01*
X143517394Y-98583478D01*
X143532649Y-98587105D01*
X143583514Y-98592631D01*
X143590328Y-98593000D01*
X143904745Y-98593000D01*
X143972866Y-98613002D01*
X144019359Y-98666658D01*
X144029463Y-98736932D01*
X143999969Y-98801512D01*
X143952963Y-98835409D01*
X143888239Y-98862218D01*
X143879445Y-98866699D01*
X143694285Y-98980165D01*
X143684825Y-98990621D01*
X143688609Y-98999399D01*
X144587188Y-99897978D01*
X144601132Y-99905592D01*
X144602965Y-99905461D01*
X144609580Y-99901210D01*
X145508348Y-99002442D01*
X145515108Y-98990062D01*
X145509381Y-98982412D01*
X145320555Y-98866699D01*
X145311765Y-98862220D01*
X145247035Y-98835408D01*
X145191755Y-98790859D01*
X145169334Y-98723496D01*
X145186893Y-98654704D01*
X145238855Y-98606326D01*
X145295254Y-98592999D01*
X145609669Y-98592999D01*
X145616490Y-98592629D01*
X145667352Y-98587105D01*
X145682604Y-98583479D01*
X145803054Y-98538324D01*
X145818649Y-98529786D01*
X145920724Y-98453285D01*
X145933285Y-98440724D01*
X146009786Y-98338649D01*
X146018324Y-98323054D01*
X146063478Y-98202606D01*
X146067105Y-98187351D01*
X146072631Y-98136486D01*
X146073000Y-98129672D01*
X146073000Y-97442115D01*
X146068525Y-97426876D01*
X146067135Y-97425671D01*
X146059452Y-97424000D01*
X143145116Y-97424000D01*
X143129877Y-97428475D01*
X143128672Y-97429865D01*
X143127001Y-97437548D01*
X143127001Y-98129669D01*
X141758500Y-98129669D01*
X141758500Y-94120000D01*
X143021634Y-94120000D01*
X143041066Y-94366911D01*
X143042220Y-94371718D01*
X143042221Y-94371724D01*
X143078499Y-94522830D01*
X143098885Y-94607742D01*
X143100778Y-94612313D01*
X143100779Y-94612315D01*
X143190390Y-94828653D01*
X143193666Y-94836563D01*
X143323075Y-95047740D01*
X143483927Y-95236073D01*
X143672260Y-95396925D01*
X143862605Y-95513568D01*
X143910236Y-95566216D01*
X143921843Y-95636257D01*
X143893740Y-95701455D01*
X143834850Y-95741109D01*
X143796770Y-95747001D01*
X143590331Y-95747001D01*
X143583510Y-95747371D01*
X143532648Y-95752895D01*
X143517396Y-95756521D01*
X143396946Y-95801676D01*
X143381351Y-95810214D01*
X143279276Y-95886715D01*
X143266715Y-95899276D01*
X143190214Y-96001351D01*
X143181676Y-96016946D01*
X143136522Y-96137394D01*
X143132895Y-96152649D01*
X143127369Y-96203514D01*
X143127000Y-96210328D01*
X143127000Y-96897885D01*
X143131475Y-96913124D01*
X143132865Y-96914329D01*
X143140548Y-96916000D01*
X146054884Y-96916000D01*
X146070123Y-96911525D01*
X146071328Y-96910135D01*
X146072999Y-96902452D01*
X146072999Y-96793093D01*
X146093001Y-96724972D01*
X146146657Y-96678479D01*
X146216931Y-96668375D01*
X146281511Y-96697869D01*
X146288094Y-96703998D01*
X151306231Y-101722134D01*
X151340257Y-101784446D01*
X151335192Y-101855261D01*
X151317966Y-101886788D01*
X151249385Y-101978295D01*
X151198255Y-102114684D01*
X151191500Y-102176866D01*
X151191500Y-104073134D01*
X151198255Y-104135316D01*
X151249385Y-104271705D01*
X151336739Y-104388261D01*
X151453295Y-104475615D01*
X151589684Y-104526745D01*
X151651866Y-104533500D01*
X153548134Y-104533500D01*
X153610316Y-104526745D01*
X153746705Y-104475615D01*
X153863261Y-104388261D01*
X153950615Y-104271705D01*
X153965686Y-104231504D01*
X154008328Y-104174739D01*
X154074890Y-104150040D01*
X154144239Y-104165248D01*
X154164150Y-104178788D01*
X154289349Y-104282730D01*
X154489322Y-104399584D01*
X154705694Y-104482209D01*
X154710760Y-104483240D01*
X154710761Y-104483240D01*
X154763846Y-104494040D01*
X154932656Y-104528385D01*
X155062089Y-104533131D01*
X155158949Y-104536683D01*
X155158953Y-104536683D01*
X155164113Y-104536872D01*
X155169233Y-104536216D01*
X155169235Y-104536216D01*
X155243166Y-104526745D01*
X155393847Y-104507442D01*
X155398795Y-104505957D01*
X155398802Y-104505956D01*
X155610747Y-104442369D01*
X155615690Y-104440886D01*
X155697161Y-104400974D01*
X155819049Y-104341262D01*
X155819052Y-104341260D01*
X155823684Y-104338991D01*
X156012243Y-104204494D01*
X156176303Y-104041005D01*
X156250714Y-103937451D01*
X156306709Y-103893803D01*
X156377412Y-103887357D01*
X156437572Y-103917543D01*
X156440555Y-103920242D01*
X156449330Y-103916459D01*
X157227979Y-103137811D01*
X157235592Y-103123868D01*
X157235461Y-103122034D01*
X157231210Y-103115420D01*
X156453862Y-102338073D01*
X156442331Y-102331776D01*
X156432877Y-102339183D01*
X156366918Y-102365450D01*
X156297229Y-102351887D01*
X156249377Y-102308440D01*
X156222571Y-102267004D01*
X156219764Y-102262665D01*
X156063887Y-102091358D01*
X156059836Y-102088159D01*
X156059832Y-102088155D01*
X155886177Y-101951011D01*
X155886172Y-101951008D01*
X155882123Y-101947810D01*
X155877607Y-101945317D01*
X155877604Y-101945315D01*
X155683879Y-101838373D01*
X155683875Y-101838371D01*
X155679355Y-101835876D01*
X155674486Y-101834152D01*
X155674482Y-101834150D01*
X155465903Y-101760288D01*
X155465899Y-101760287D01*
X155461028Y-101758562D01*
X155455935Y-101757655D01*
X155455932Y-101757654D01*
X155238095Y-101718851D01*
X155238089Y-101718850D01*
X155233006Y-101717945D01*
X155160096Y-101717054D01*
X155006581Y-101715179D01*
X155006579Y-101715179D01*
X155001411Y-101715116D01*
X154772464Y-101750150D01*
X154552314Y-101822106D01*
X154547726Y-101824494D01*
X154547722Y-101824496D01*
X154351461Y-101926663D01*
X154346872Y-101929052D01*
X154342739Y-101932155D01*
X154342736Y-101932157D01*
X154161655Y-102068117D01*
X154160976Y-102067213D01*
X154101730Y-102095131D01*
X154031341Y-102085869D01*
X153977132Y-102040022D01*
X153964325Y-102014866D01*
X153953768Y-101986705D01*
X153953767Y-101986703D01*
X153950615Y-101978295D01*
X153863261Y-101861739D01*
X153746705Y-101774385D01*
X153610316Y-101723255D01*
X153548134Y-101716500D01*
X152968184Y-101716500D01*
X152900063Y-101696498D01*
X152860110Y-101655277D01*
X152853928Y-101644962D01*
X152720904Y-101423024D01*
X152544504Y-101185175D01*
X152543664Y-101184042D01*
X152543661Y-101184038D01*
X152541817Y-101181552D01*
X152394504Y-101019015D01*
X152395690Y-101017940D01*
X152394711Y-101017183D01*
X152393900Y-101017994D01*
X152392660Y-101016754D01*
X152390681Y-101014676D01*
X152390629Y-101014723D01*
X152390469Y-101014563D01*
X152389683Y-101013628D01*
X152388476Y-101012360D01*
X152388463Y-101012350D01*
X152387093Y-101010838D01*
X152387088Y-101010832D01*
X152363466Y-100984770D01*
X152356065Y-100975805D01*
X152352436Y-100970972D01*
X152349953Y-100967665D01*
X152340602Y-100958117D01*
X152316103Y-100938907D01*
X152304755Y-100928849D01*
X147329789Y-95953884D01*
X148431500Y-95953884D01*
X148431665Y-95956152D01*
X148431665Y-95956164D01*
X148439725Y-96067238D01*
X148446125Y-96155451D01*
X148447109Y-96159906D01*
X148447109Y-96159909D01*
X148486482Y-96338240D01*
X148504585Y-96420237D01*
X148600655Y-96673810D01*
X148732324Y-96910859D01*
X148896833Y-97126417D01*
X149090736Y-97315970D01*
X149094428Y-97318657D01*
X149094430Y-97318659D01*
X149242102Y-97426146D01*
X149309972Y-97475547D01*
X149549947Y-97601804D01*
X149554248Y-97603323D01*
X149554253Y-97603325D01*
X149669485Y-97644017D01*
X149805634Y-97692096D01*
X149903653Y-97711415D01*
X150067206Y-97743652D01*
X150067212Y-97743653D01*
X150071678Y-97744533D01*
X150076232Y-97744760D01*
X150076234Y-97744760D01*
X150337936Y-97757789D01*
X150337942Y-97757789D01*
X150342505Y-97758016D01*
X150612441Y-97732262D01*
X150616870Y-97731178D01*
X150616877Y-97731177D01*
X150746931Y-97699352D01*
X150875832Y-97667810D01*
X150884711Y-97664214D01*
X151122931Y-97567725D01*
X151122932Y-97567725D01*
X151127160Y-97566012D01*
X151338761Y-97442115D01*
X151357216Y-97431309D01*
X151357217Y-97431308D01*
X151361161Y-97428999D01*
X151572932Y-97259641D01*
X151694399Y-97129612D01*
X151754921Y-97064824D01*
X151754923Y-97064821D01*
X151758037Y-97061488D01*
X151912598Y-96838688D01*
X151914627Y-96834610D01*
X152031346Y-96599997D01*
X152031347Y-96599994D01*
X152033379Y-96595910D01*
X152117847Y-96338240D01*
X152118627Y-96333748D01*
X152163579Y-96074856D01*
X152163580Y-96074848D01*
X152164235Y-96071075D01*
X152168500Y-95985400D01*
X152168500Y-95296116D01*
X152166328Y-95266170D01*
X152154205Y-95099100D01*
X152153875Y-95094549D01*
X152152891Y-95090091D01*
X152096400Y-94834223D01*
X152096399Y-94834219D01*
X152095415Y-94829763D01*
X152025150Y-94644300D01*
X152000963Y-94580460D01*
X152000962Y-94580457D01*
X151999345Y-94576190D01*
X151867676Y-94339141D01*
X151703167Y-94123583D01*
X151509264Y-93934030D01*
X151493571Y-93922607D01*
X151293721Y-93777141D01*
X151290028Y-93774453D01*
X151050053Y-93648196D01*
X151045752Y-93646677D01*
X151045747Y-93646675D01*
X150867998Y-93583906D01*
X150794366Y-93557904D01*
X150696347Y-93538585D01*
X150532794Y-93506348D01*
X150532788Y-93506347D01*
X150528322Y-93505467D01*
X150523768Y-93505240D01*
X150523766Y-93505240D01*
X150262064Y-93492211D01*
X150262058Y-93492211D01*
X150257495Y-93491984D01*
X149987559Y-93517738D01*
X149983130Y-93518822D01*
X149983123Y-93518823D01*
X149853069Y-93550648D01*
X149724168Y-93582190D01*
X149719933Y-93583905D01*
X149719931Y-93583906D01*
X149477069Y-93682275D01*
X149472840Y-93683988D01*
X149238839Y-93821001D01*
X149027068Y-93990359D01*
X149023947Y-93993700D01*
X148883607Y-94143933D01*
X148841963Y-94188512D01*
X148687402Y-94411312D01*
X148685374Y-94415388D01*
X148685373Y-94415390D01*
X148569553Y-94648197D01*
X148566621Y-94654090D01*
X148482153Y-94911760D01*
X148481373Y-94916251D01*
X148481373Y-94916252D01*
X148458543Y-95047740D01*
X148435765Y-95178925D01*
X148431500Y-95264600D01*
X148431500Y-95953884D01*
X147329789Y-95953884D01*
X146126242Y-94750337D01*
X146092216Y-94688025D01*
X146098543Y-94617303D01*
X146097691Y-94617026D01*
X146098901Y-94613302D01*
X146098925Y-94613033D01*
X146099219Y-94612323D01*
X146099225Y-94612306D01*
X146101115Y-94607742D01*
X146147295Y-94415390D01*
X146157779Y-94371724D01*
X146157780Y-94371718D01*
X146158934Y-94366911D01*
X146178366Y-94120000D01*
X146158934Y-93873089D01*
X146157780Y-93868282D01*
X146157779Y-93868276D01*
X146102270Y-93637070D01*
X146101115Y-93632258D01*
X146099221Y-93627685D01*
X146008229Y-93408011D01*
X146008227Y-93408007D01*
X146006334Y-93403437D01*
X145876925Y-93192260D01*
X145716073Y-93003927D01*
X145527740Y-92843075D01*
X145316563Y-92713666D01*
X145311993Y-92711773D01*
X145311989Y-92711771D01*
X145092315Y-92620779D01*
X145092313Y-92620778D01*
X145087742Y-92618885D01*
X145002830Y-92598499D01*
X144851724Y-92562221D01*
X144851718Y-92562220D01*
X144846911Y-92561066D01*
X144600000Y-92541634D01*
X144353089Y-92561066D01*
X144348282Y-92562220D01*
X144348276Y-92562221D01*
X144197170Y-92598499D01*
X144112258Y-92618885D01*
X144107687Y-92620778D01*
X144107685Y-92620779D01*
X143888011Y-92711771D01*
X143888007Y-92711773D01*
X143883437Y-92713666D01*
X143672260Y-92843075D01*
X143483927Y-93003927D01*
X143323075Y-93192260D01*
X143193666Y-93403437D01*
X143191773Y-93408007D01*
X143191771Y-93408011D01*
X143100779Y-93627685D01*
X143098885Y-93632258D01*
X143097730Y-93637070D01*
X143042221Y-93868276D01*
X143042220Y-93868282D01*
X143041066Y-93873089D01*
X143021634Y-94120000D01*
X141758500Y-94120000D01*
X141758500Y-93562151D01*
X141759726Y-93544615D01*
X141762452Y-93525221D01*
X141762452Y-93525218D01*
X141763001Y-93521313D01*
X141763116Y-93513070D01*
X141763244Y-93503962D01*
X141763244Y-93503956D01*
X141763299Y-93500000D01*
X141761819Y-93486804D01*
X141761422Y-93462875D01*
X141773007Y-93315672D01*
X141776100Y-93296145D01*
X141801040Y-93192260D01*
X141816949Y-93125995D01*
X141823058Y-93107192D01*
X141847478Y-93048238D01*
X141890022Y-92945528D01*
X141898992Y-92927923D01*
X141990426Y-92778716D01*
X142002046Y-92762723D01*
X142041737Y-92716252D01*
X142115689Y-92629665D01*
X142129667Y-92615687D01*
X142179756Y-92572907D01*
X142262727Y-92502043D01*
X142278716Y-92490426D01*
X142427923Y-92398992D01*
X142445528Y-92390022D01*
X142607197Y-92323056D01*
X142625995Y-92316949D01*
X142711071Y-92296524D01*
X142796145Y-92276100D01*
X142815672Y-92273007D01*
X142957519Y-92261843D01*
X142975310Y-92262263D01*
X142975310Y-92262243D01*
X142982350Y-92262341D01*
X142989343Y-92263225D01*
X143031401Y-92259101D01*
X143043698Y-92258500D01*
X151198917Y-92258500D01*
X151214710Y-92259494D01*
X151244243Y-92263225D01*
X151264644Y-92261225D01*
X151286814Y-92261012D01*
X151465635Y-92275085D01*
X151470514Y-92275469D01*
X151490042Y-92278562D01*
X151546380Y-92292087D01*
X151690712Y-92326739D01*
X151709506Y-92332845D01*
X151900170Y-92411821D01*
X151917775Y-92420791D01*
X152093741Y-92528623D01*
X152109730Y-92540240D01*
X152266654Y-92674266D01*
X152280633Y-92688245D01*
X152374057Y-92797630D01*
X152403088Y-92862420D01*
X152392483Y-92932620D01*
X152381459Y-92951731D01*
X152320537Y-93038737D01*
X152320533Y-93038743D01*
X152317377Y-93043251D01*
X152315054Y-93048233D01*
X152315051Y-93048238D01*
X152268421Y-93148238D01*
X152220616Y-93250757D01*
X152219194Y-93256065D01*
X152219193Y-93256067D01*
X152169276Y-93442359D01*
X152161357Y-93471913D01*
X152141402Y-93700000D01*
X152161357Y-93928087D01*
X152162781Y-93933400D01*
X152162781Y-93933402D01*
X152214714Y-94127215D01*
X152220616Y-94149243D01*
X152222939Y-94154224D01*
X152222939Y-94154225D01*
X152315051Y-94351762D01*
X152315054Y-94351767D01*
X152317377Y-94356749D01*
X152448702Y-94544300D01*
X152610600Y-94706198D01*
X152615108Y-94709355D01*
X152615111Y-94709357D01*
X152673637Y-94750337D01*
X152798151Y-94837523D01*
X152803133Y-94839846D01*
X152803138Y-94839849D01*
X153000675Y-94931961D01*
X153005657Y-94934284D01*
X153010965Y-94935706D01*
X153010967Y-94935707D01*
X153221498Y-94992119D01*
X153221500Y-94992119D01*
X153226813Y-94993543D01*
X153454900Y-95013498D01*
X153682987Y-94993543D01*
X153688300Y-94992119D01*
X153688302Y-94992119D01*
X153898833Y-94935707D01*
X153898835Y-94935706D01*
X153904143Y-94934284D01*
X153909125Y-94931961D01*
X154106662Y-94839849D01*
X154106667Y-94839846D01*
X154111649Y-94837523D01*
X154236163Y-94750337D01*
X154294689Y-94709357D01*
X154294692Y-94709355D01*
X154299200Y-94706198D01*
X154461098Y-94544300D01*
X154592423Y-94356749D01*
X154594746Y-94351767D01*
X154594749Y-94351762D01*
X154686861Y-94154225D01*
X154686861Y-94154224D01*
X154689184Y-94149243D01*
X154695087Y-94127215D01*
X154747019Y-93933402D01*
X154747019Y-93933400D01*
X154748443Y-93928087D01*
X154768398Y-93700000D01*
X154748443Y-93471913D01*
X154740524Y-93442359D01*
X154690607Y-93256067D01*
X154690606Y-93256065D01*
X154689184Y-93250757D01*
X154641379Y-93148238D01*
X154594749Y-93048238D01*
X154594746Y-93048233D01*
X154592423Y-93043251D01*
X154474841Y-92875327D01*
X154464257Y-92860211D01*
X154464255Y-92860208D01*
X154461098Y-92855700D01*
X154299200Y-92693802D01*
X154294692Y-92690645D01*
X154294689Y-92690643D01*
X154190558Y-92617730D01*
X154111649Y-92562477D01*
X154106667Y-92560154D01*
X154106662Y-92560151D01*
X153998893Y-92509898D01*
X153945608Y-92462981D01*
X153939876Y-92452906D01*
X153822050Y-92221659D01*
X153822046Y-92221652D01*
X153820552Y-92218720D01*
X153667212Y-91982598D01*
X153653456Y-91961415D01*
X153651661Y-91958651D01*
X153456511Y-91717660D01*
X153237240Y-91498389D01*
X152996249Y-91303239D01*
X152736180Y-91134348D01*
X152459882Y-90993567D01*
X152199321Y-90893547D01*
X152173471Y-90883624D01*
X152173469Y-90883623D01*
X152170381Y-90882438D01*
X151870851Y-90802179D01*
X151564572Y-90753669D01*
X151449289Y-90747627D01*
X151352389Y-90742548D01*
X151349577Y-90742262D01*
X151349290Y-90742192D01*
X151343536Y-90741835D01*
X151340075Y-90741620D01*
X151340065Y-90741620D01*
X151338136Y-90741500D01*
X151335670Y-90741500D01*
X151329076Y-90741327D01*
X151299381Y-90739771D01*
X151288450Y-90738719D01*
X151276213Y-90736999D01*
X151267245Y-90736874D01*
X151258861Y-90736756D01*
X151258855Y-90736756D01*
X151254900Y-90736701D01*
X151219114Y-90740715D01*
X151205069Y-90741500D01*
X143062151Y-90741500D01*
X143044618Y-90740274D01*
X143033545Y-90738718D01*
X143025221Y-90737548D01*
X143025218Y-90737548D01*
X143021313Y-90736999D01*
X143013267Y-90736886D01*
X143003964Y-90736756D01*
X143003957Y-90736756D01*
X143000000Y-90736701D01*
X142996063Y-90737143D01*
X142996053Y-90737143D01*
X142995396Y-90737217D01*
X142988421Y-90737804D01*
X142954055Y-90739734D01*
X142690659Y-90754526D01*
X142661955Y-90759403D01*
X142388679Y-90805834D01*
X142388672Y-90805836D01*
X142385209Y-90806424D01*
X142087490Y-90892196D01*
X141932717Y-90956305D01*
X141862129Y-90963894D01*
X141798642Y-90932115D01*
X141762414Y-90871057D01*
X141758500Y-90839896D01*
X141758500Y-87099938D01*
X143684892Y-87099938D01*
X143690619Y-87107588D01*
X143879445Y-87223301D01*
X143888239Y-87227782D01*
X144107840Y-87318744D01*
X144117225Y-87321793D01*
X144348355Y-87377283D01*
X144358102Y-87378826D01*
X144595070Y-87397476D01*
X144604930Y-87397476D01*
X144841898Y-87378826D01*
X144851645Y-87377283D01*
X145082775Y-87321793D01*
X145092160Y-87318744D01*
X145311761Y-87227782D01*
X145320555Y-87223301D01*
X145505715Y-87109835D01*
X145515175Y-87099379D01*
X145511391Y-87090601D01*
X144612812Y-86192022D01*
X144598868Y-86184408D01*
X144597035Y-86184539D01*
X144590420Y-86188790D01*
X143691652Y-87087558D01*
X143684892Y-87099938D01*
X141758500Y-87099938D01*
X141758500Y-85824930D01*
X143022524Y-85824930D01*
X143041174Y-86061898D01*
X143042717Y-86071645D01*
X143098207Y-86302775D01*
X143101256Y-86312160D01*
X143192218Y-86531761D01*
X143196699Y-86540555D01*
X143310165Y-86725715D01*
X143320621Y-86735175D01*
X143329399Y-86731391D01*
X144227978Y-85832812D01*
X144234356Y-85821132D01*
X144964408Y-85821132D01*
X144964539Y-85822965D01*
X144968790Y-85829580D01*
X145867558Y-86728348D01*
X145879938Y-86735108D01*
X145887588Y-86729381D01*
X146003301Y-86540555D01*
X146007782Y-86531761D01*
X146098744Y-86312160D01*
X146101793Y-86302775D01*
X146157283Y-86071645D01*
X146158826Y-86061898D01*
X146177476Y-85824930D01*
X146177476Y-85815070D01*
X146158826Y-85578102D01*
X146157283Y-85568355D01*
X146101793Y-85337225D01*
X146098744Y-85327840D01*
X146007782Y-85108239D01*
X146003301Y-85099445D01*
X145889835Y-84914285D01*
X145879379Y-84904825D01*
X145870601Y-84908609D01*
X144972022Y-85807188D01*
X144964408Y-85821132D01*
X144234356Y-85821132D01*
X144235592Y-85818868D01*
X144235461Y-85817035D01*
X144231210Y-85810420D01*
X143332442Y-84911652D01*
X143320062Y-84904892D01*
X143312412Y-84910619D01*
X143196699Y-85099445D01*
X143192218Y-85108239D01*
X143101256Y-85327840D01*
X143098207Y-85337225D01*
X143042717Y-85568355D01*
X143041174Y-85578102D01*
X143022524Y-85815070D01*
X143022524Y-85824930D01*
X141758500Y-85824930D01*
X141758500Y-83679669D01*
X143127001Y-83679669D01*
X143127371Y-83686490D01*
X143132895Y-83737352D01*
X143136521Y-83752604D01*
X143181676Y-83873054D01*
X143190214Y-83888649D01*
X143266715Y-83990724D01*
X143279276Y-84003285D01*
X143381351Y-84079786D01*
X143396946Y-84088324D01*
X143517394Y-84133478D01*
X143532649Y-84137105D01*
X143583514Y-84142631D01*
X143590328Y-84143000D01*
X143904745Y-84143000D01*
X143972866Y-84163002D01*
X144019359Y-84216658D01*
X144029463Y-84286932D01*
X143999969Y-84351512D01*
X143952963Y-84385409D01*
X143888239Y-84412218D01*
X143879445Y-84416699D01*
X143694285Y-84530165D01*
X143684825Y-84540621D01*
X143688609Y-84549399D01*
X144587188Y-85447978D01*
X144601132Y-85455592D01*
X144602965Y-85455461D01*
X144609580Y-85451210D01*
X145508348Y-84552442D01*
X145515108Y-84540062D01*
X145509381Y-84532412D01*
X145320555Y-84416699D01*
X145311765Y-84412220D01*
X145247035Y-84385408D01*
X145191755Y-84340859D01*
X145169334Y-84273496D01*
X145186893Y-84204704D01*
X145238855Y-84156326D01*
X145295254Y-84142999D01*
X145609669Y-84142999D01*
X145616490Y-84142629D01*
X145667352Y-84137105D01*
X145682604Y-84133479D01*
X145803054Y-84088324D01*
X145818649Y-84079786D01*
X145920724Y-84003285D01*
X145933285Y-83990724D01*
X146009786Y-83888649D01*
X146018324Y-83873054D01*
X146063478Y-83752606D01*
X146067105Y-83737351D01*
X146072631Y-83686486D01*
X146073000Y-83679672D01*
X146073000Y-82992115D01*
X146068525Y-82976876D01*
X146067135Y-82975671D01*
X146059452Y-82974000D01*
X143145116Y-82974000D01*
X143129877Y-82978475D01*
X143128672Y-82979865D01*
X143127001Y-82987548D01*
X143127001Y-83679669D01*
X141758500Y-83679669D01*
X141758500Y-79700000D01*
X143021634Y-79700000D01*
X143041066Y-79946911D01*
X143042220Y-79951718D01*
X143042221Y-79951724D01*
X143070352Y-80068896D01*
X143098885Y-80187742D01*
X143193666Y-80416563D01*
X143323075Y-80627740D01*
X143483927Y-80816073D01*
X143672260Y-80976925D01*
X143789857Y-81048988D01*
X143813649Y-81063568D01*
X143861280Y-81116216D01*
X143872887Y-81186257D01*
X143844784Y-81251455D01*
X143785894Y-81291109D01*
X143747814Y-81297001D01*
X143590331Y-81297001D01*
X143583510Y-81297371D01*
X143532648Y-81302895D01*
X143517396Y-81306521D01*
X143396946Y-81351676D01*
X143381351Y-81360214D01*
X143279276Y-81436715D01*
X143266715Y-81449276D01*
X143190214Y-81551351D01*
X143181676Y-81566946D01*
X143136522Y-81687394D01*
X143132895Y-81702649D01*
X143127369Y-81753514D01*
X143127000Y-81760328D01*
X143127000Y-82447885D01*
X143131475Y-82463124D01*
X143132865Y-82464329D01*
X143140548Y-82466000D01*
X146054884Y-82466000D01*
X146070123Y-82461525D01*
X146071328Y-82460135D01*
X146072999Y-82452452D01*
X146072999Y-81760331D01*
X146072629Y-81753510D01*
X146067105Y-81702648D01*
X146063479Y-81687396D01*
X146018324Y-81566946D01*
X146009786Y-81551351D01*
X145933285Y-81449276D01*
X145920724Y-81436715D01*
X145818649Y-81360214D01*
X145803054Y-81351676D01*
X145682606Y-81306522D01*
X145667351Y-81302895D01*
X145616486Y-81297369D01*
X145609672Y-81297000D01*
X145452188Y-81297000D01*
X145384067Y-81276998D01*
X145337574Y-81223342D01*
X145327470Y-81153068D01*
X145356964Y-81088488D01*
X145386353Y-81063567D01*
X145441462Y-81029796D01*
X145527740Y-80976925D01*
X145716073Y-80816073D01*
X145876925Y-80627740D01*
X145882543Y-80618572D01*
X145935187Y-80570939D01*
X146005228Y-80559329D01*
X146027866Y-80564235D01*
X146174004Y-80610312D01*
X146184318Y-80614065D01*
X146546328Y-80764014D01*
X146556276Y-80768653D01*
X146653531Y-80819281D01*
X146903827Y-80949578D01*
X146913346Y-80955074D01*
X147243800Y-81165597D01*
X147252804Y-81171902D01*
X147498217Y-81360214D01*
X147563641Y-81410416D01*
X147572062Y-81417481D01*
X147833749Y-81657274D01*
X147848587Y-81673467D01*
X147857013Y-81684448D01*
X147862937Y-81689194D01*
X147862939Y-81689196D01*
X147884451Y-81706430D01*
X147894765Y-81715669D01*
X151154595Y-84975499D01*
X151188621Y-85037811D01*
X151191500Y-85064594D01*
X151191500Y-86473134D01*
X151198255Y-86535316D01*
X151249385Y-86671705D01*
X151336739Y-86788261D01*
X151453295Y-86875615D01*
X151589684Y-86926745D01*
X151651866Y-86933500D01*
X153548134Y-86933500D01*
X153610316Y-86926745D01*
X153746705Y-86875615D01*
X153863261Y-86788261D01*
X153950615Y-86671705D01*
X153965686Y-86631504D01*
X154008328Y-86574739D01*
X154074890Y-86550040D01*
X154144239Y-86565248D01*
X154164150Y-86578788D01*
X154289349Y-86682730D01*
X154489322Y-86799584D01*
X154705694Y-86882209D01*
X154710760Y-86883240D01*
X154710761Y-86883240D01*
X154763846Y-86894040D01*
X154932656Y-86928385D01*
X155062089Y-86933131D01*
X155158949Y-86936683D01*
X155158953Y-86936683D01*
X155164113Y-86936872D01*
X155169233Y-86936216D01*
X155169235Y-86936216D01*
X155243166Y-86926745D01*
X155393847Y-86907442D01*
X155398795Y-86905957D01*
X155398802Y-86905956D01*
X155610747Y-86842369D01*
X155615690Y-86840886D01*
X155697161Y-86800974D01*
X155819049Y-86741262D01*
X155819052Y-86741260D01*
X155823684Y-86738991D01*
X156012243Y-86604494D01*
X156176303Y-86441005D01*
X156250714Y-86337451D01*
X156306709Y-86293803D01*
X156377412Y-86287357D01*
X156437572Y-86317543D01*
X156440555Y-86320242D01*
X156449330Y-86316459D01*
X157227979Y-85537811D01*
X157235592Y-85523868D01*
X157235461Y-85522034D01*
X157231210Y-85515420D01*
X156453862Y-84738073D01*
X156442331Y-84731776D01*
X156432877Y-84739183D01*
X156366918Y-84765450D01*
X156297229Y-84751887D01*
X156249377Y-84708440D01*
X156222571Y-84667004D01*
X156219764Y-84662665D01*
X156063887Y-84491358D01*
X156059836Y-84488159D01*
X156059832Y-84488155D01*
X155886177Y-84351011D01*
X155886172Y-84351008D01*
X155882123Y-84347810D01*
X155877607Y-84345317D01*
X155877604Y-84345315D01*
X155683879Y-84238373D01*
X155683875Y-84238371D01*
X155679355Y-84235876D01*
X155674486Y-84234152D01*
X155674482Y-84234150D01*
X155465903Y-84160288D01*
X155465899Y-84160287D01*
X155461028Y-84158562D01*
X155455935Y-84157655D01*
X155455932Y-84157654D01*
X155238095Y-84118851D01*
X155238089Y-84118850D01*
X155233006Y-84117945D01*
X155160096Y-84117054D01*
X155006581Y-84115179D01*
X155006579Y-84115179D01*
X155001411Y-84115116D01*
X154772464Y-84150150D01*
X154552314Y-84222106D01*
X154547726Y-84224494D01*
X154547722Y-84224496D01*
X154453594Y-84273496D01*
X154346872Y-84329052D01*
X154342739Y-84332155D01*
X154342736Y-84332157D01*
X154161655Y-84468117D01*
X154160976Y-84467213D01*
X154101730Y-84495131D01*
X154031341Y-84485869D01*
X153977132Y-84440022D01*
X153964325Y-84414866D01*
X153953768Y-84386705D01*
X153953767Y-84386704D01*
X153950615Y-84378295D01*
X153863261Y-84261739D01*
X153746705Y-84174385D01*
X153610316Y-84123255D01*
X153548134Y-84116500D01*
X152139595Y-84116500D01*
X152071474Y-84096498D01*
X152050500Y-84079595D01*
X148799092Y-80828187D01*
X148787426Y-80814744D01*
X148776029Y-80799564D01*
X148776026Y-80799561D01*
X148773551Y-80796264D01*
X148764200Y-80786716D01*
X148759993Y-80783418D01*
X148751878Y-80776480D01*
X148740747Y-80766116D01*
X148531113Y-80570939D01*
X148457572Y-80502469D01*
X148457563Y-80502462D01*
X148455927Y-80500938D01*
X148128645Y-80237197D01*
X148057417Y-80187742D01*
X147785230Y-79998759D01*
X147785228Y-79998758D01*
X147783382Y-79997476D01*
X147724872Y-79962760D01*
X147423831Y-79784143D01*
X147423820Y-79784137D01*
X147421897Y-79782996D01*
X147046032Y-79594851D01*
X147043971Y-79593997D01*
X147043966Y-79593995D01*
X146659773Y-79434856D01*
X146659763Y-79434852D01*
X146657703Y-79433999D01*
X146258888Y-79301261D01*
X146256723Y-79300708D01*
X146256708Y-79300704D01*
X146184800Y-79282351D01*
X146123741Y-79246124D01*
X146099551Y-79208483D01*
X146099221Y-79207685D01*
X146016276Y-79007439D01*
X146008229Y-78988011D01*
X146008227Y-78988007D01*
X146006334Y-78983437D01*
X145876925Y-78772260D01*
X145716073Y-78583927D01*
X145527740Y-78423075D01*
X145414830Y-78353884D01*
X148431500Y-78353884D01*
X148431665Y-78356152D01*
X148431665Y-78356164D01*
X148436333Y-78420493D01*
X148446125Y-78555451D01*
X148447109Y-78559906D01*
X148447109Y-78559909D01*
X148493993Y-78772260D01*
X148504585Y-78820237D01*
X148506203Y-78824507D01*
X148582856Y-79026829D01*
X148600655Y-79073810D01*
X148732324Y-79310859D01*
X148896833Y-79526417D01*
X149090736Y-79715970D01*
X149309972Y-79875547D01*
X149549947Y-80001804D01*
X149554248Y-80003323D01*
X149554253Y-80003325D01*
X149687087Y-80050233D01*
X149805634Y-80092096D01*
X149903653Y-80111415D01*
X150067206Y-80143652D01*
X150067212Y-80143653D01*
X150071678Y-80144533D01*
X150076232Y-80144760D01*
X150076234Y-80144760D01*
X150337936Y-80157789D01*
X150337942Y-80157789D01*
X150342505Y-80158016D01*
X150612441Y-80132262D01*
X150616870Y-80131178D01*
X150616877Y-80131177D01*
X150776584Y-80092096D01*
X150875832Y-80067810D01*
X150908501Y-80054578D01*
X151122931Y-79967725D01*
X151122932Y-79967725D01*
X151127160Y-79966012D01*
X151361161Y-79828999D01*
X151572932Y-79659641D01*
X151694399Y-79529612D01*
X151754921Y-79464824D01*
X151754923Y-79464821D01*
X151758037Y-79461488D01*
X151912598Y-79238688D01*
X151928022Y-79207685D01*
X152031346Y-78999997D01*
X152031347Y-78999994D01*
X152033379Y-78995910D01*
X152117847Y-78738240D01*
X152118627Y-78733748D01*
X152163579Y-78474856D01*
X152163580Y-78474848D01*
X152164235Y-78471075D01*
X152166465Y-78426286D01*
X152168422Y-78386971D01*
X152168422Y-78386963D01*
X152168500Y-78385400D01*
X152168500Y-77696116D01*
X152166328Y-77666170D01*
X152155912Y-77522621D01*
X152153875Y-77494549D01*
X152151425Y-77483451D01*
X152096400Y-77234223D01*
X152096399Y-77234219D01*
X152095415Y-77229763D01*
X151999345Y-76976190D01*
X151867676Y-76739141D01*
X151755580Y-76592260D01*
X151705939Y-76527215D01*
X151705938Y-76527214D01*
X151703167Y-76523583D01*
X151640647Y-76462465D01*
X151512531Y-76337224D01*
X151509264Y-76334030D01*
X151290028Y-76174453D01*
X151050053Y-76048196D01*
X151045752Y-76046677D01*
X151045747Y-76046675D01*
X150867998Y-75983906D01*
X150794366Y-75957904D01*
X150696347Y-75938585D01*
X150532794Y-75906348D01*
X150532788Y-75906347D01*
X150528322Y-75905467D01*
X150523768Y-75905240D01*
X150523766Y-75905240D01*
X150262064Y-75892211D01*
X150262058Y-75892211D01*
X150257495Y-75891984D01*
X149987559Y-75917738D01*
X149983130Y-75918822D01*
X149983123Y-75918823D01*
X149853069Y-75950648D01*
X149724168Y-75982190D01*
X149719933Y-75983905D01*
X149719931Y-75983906D01*
X149477069Y-76082275D01*
X149472840Y-76083988D01*
X149238839Y-76221001D01*
X149027068Y-76390359D01*
X149023947Y-76393700D01*
X148899224Y-76527215D01*
X148841963Y-76588512D01*
X148687402Y-76811312D01*
X148685374Y-76815388D01*
X148685373Y-76815390D01*
X148603252Y-76980460D01*
X148566621Y-77054090D01*
X148482153Y-77311760D01*
X148481373Y-77316251D01*
X148481373Y-77316252D01*
X148447980Y-77508576D01*
X148435765Y-77578925D01*
X148431500Y-77664600D01*
X148431500Y-78353884D01*
X145414830Y-78353884D01*
X145316563Y-78293666D01*
X145311993Y-78291773D01*
X145311989Y-78291771D01*
X145092315Y-78200779D01*
X145092313Y-78200778D01*
X145087742Y-78198885D01*
X145002830Y-78178499D01*
X144851724Y-78142221D01*
X144851718Y-78142220D01*
X144846911Y-78141066D01*
X144600000Y-78121634D01*
X144353089Y-78141066D01*
X144348282Y-78142220D01*
X144348276Y-78142221D01*
X144197170Y-78178499D01*
X144112258Y-78198885D01*
X144107687Y-78200778D01*
X144107685Y-78200779D01*
X143888011Y-78291771D01*
X143888007Y-78291773D01*
X143883437Y-78293666D01*
X143672260Y-78423075D01*
X143483927Y-78583927D01*
X143323075Y-78772260D01*
X143193666Y-78983437D01*
X143191773Y-78988007D01*
X143191771Y-78988011D01*
X143183724Y-79007439D01*
X143098885Y-79212258D01*
X143086421Y-79264173D01*
X143042221Y-79448276D01*
X143042220Y-79448282D01*
X143041066Y-79453089D01*
X143021634Y-79700000D01*
X141758500Y-79700000D01*
X141758500Y-72679938D01*
X143684892Y-72679938D01*
X143690619Y-72687588D01*
X143879445Y-72803301D01*
X143888239Y-72807782D01*
X144107840Y-72898744D01*
X144117225Y-72901793D01*
X144348355Y-72957283D01*
X144358102Y-72958826D01*
X144595070Y-72977476D01*
X144604930Y-72977476D01*
X144841898Y-72958826D01*
X144851645Y-72957283D01*
X145082775Y-72901793D01*
X145092160Y-72898744D01*
X145311761Y-72807782D01*
X145320555Y-72803301D01*
X145505715Y-72689835D01*
X145515175Y-72679379D01*
X145511391Y-72670601D01*
X144612812Y-71772022D01*
X144598868Y-71764408D01*
X144597035Y-71764539D01*
X144590420Y-71768790D01*
X143691652Y-72667558D01*
X143684892Y-72679938D01*
X141758500Y-72679938D01*
X141758500Y-71404930D01*
X143022524Y-71404930D01*
X143041174Y-71641898D01*
X143042717Y-71651645D01*
X143098207Y-71882775D01*
X143101256Y-71892160D01*
X143192218Y-72111761D01*
X143196699Y-72120555D01*
X143310165Y-72305715D01*
X143320621Y-72315175D01*
X143329399Y-72311391D01*
X144227978Y-71412812D01*
X144234356Y-71401132D01*
X144964408Y-71401132D01*
X144964539Y-71402965D01*
X144968790Y-71409580D01*
X145867558Y-72308348D01*
X145879938Y-72315108D01*
X145887588Y-72309381D01*
X146003301Y-72120555D01*
X146007782Y-72111761D01*
X146098744Y-71892160D01*
X146101793Y-71882775D01*
X146157283Y-71651645D01*
X146158826Y-71641898D01*
X146177476Y-71404930D01*
X146177476Y-71395070D01*
X146158826Y-71158102D01*
X146157283Y-71148355D01*
X146101793Y-70917225D01*
X146098744Y-70907840D01*
X146007782Y-70688239D01*
X146003301Y-70679445D01*
X145889835Y-70494285D01*
X145879379Y-70484825D01*
X145870601Y-70488609D01*
X144972022Y-71387188D01*
X144964408Y-71401132D01*
X144234356Y-71401132D01*
X144235592Y-71398868D01*
X144235461Y-71397035D01*
X144231210Y-71390420D01*
X143332442Y-70491652D01*
X143320062Y-70484892D01*
X143312412Y-70490619D01*
X143196699Y-70679445D01*
X143192218Y-70688239D01*
X143101256Y-70907840D01*
X143098207Y-70917225D01*
X143042717Y-71148355D01*
X143041174Y-71158102D01*
X143022524Y-71395070D01*
X143022524Y-71404930D01*
X141758500Y-71404930D01*
X141758500Y-69259669D01*
X143127001Y-69259669D01*
X143127371Y-69266490D01*
X143132895Y-69317352D01*
X143136521Y-69332604D01*
X143181676Y-69453054D01*
X143190214Y-69468649D01*
X143266715Y-69570724D01*
X143279276Y-69583285D01*
X143381351Y-69659786D01*
X143396946Y-69668324D01*
X143517394Y-69713478D01*
X143532649Y-69717105D01*
X143583514Y-69722631D01*
X143590328Y-69723000D01*
X143904745Y-69723000D01*
X143972866Y-69743002D01*
X144019359Y-69796658D01*
X144029463Y-69866932D01*
X143999969Y-69931512D01*
X143952963Y-69965409D01*
X143888239Y-69992218D01*
X143879445Y-69996699D01*
X143694285Y-70110165D01*
X143684825Y-70120621D01*
X143688609Y-70129399D01*
X144587188Y-71027978D01*
X144601132Y-71035592D01*
X144602965Y-71035461D01*
X144609580Y-71031210D01*
X145508348Y-70132442D01*
X145515108Y-70120062D01*
X145509381Y-70112412D01*
X145320555Y-69996699D01*
X145311765Y-69992220D01*
X145247035Y-69965408D01*
X145191755Y-69920859D01*
X145169334Y-69853496D01*
X145186893Y-69784704D01*
X145238855Y-69736326D01*
X145295254Y-69722999D01*
X145609669Y-69722999D01*
X145616490Y-69722629D01*
X145667352Y-69717105D01*
X145682604Y-69713479D01*
X145803054Y-69668324D01*
X145818649Y-69659786D01*
X145920724Y-69583285D01*
X145933285Y-69570724D01*
X146009786Y-69468649D01*
X146018324Y-69453054D01*
X146063478Y-69332606D01*
X146067105Y-69317351D01*
X146072631Y-69266486D01*
X146073000Y-69259672D01*
X146073000Y-68572115D01*
X146068525Y-68556876D01*
X146067135Y-68555671D01*
X146059452Y-68554000D01*
X143145116Y-68554000D01*
X143129877Y-68558475D01*
X143128672Y-68559865D01*
X143127001Y-68567548D01*
X143127001Y-69259669D01*
X141758500Y-69259669D01*
X141758500Y-65962151D01*
X141759726Y-65944615D01*
X141762452Y-65925221D01*
X141762452Y-65925218D01*
X141763001Y-65921313D01*
X141763155Y-65910323D01*
X141763244Y-65903961D01*
X141763244Y-65903955D01*
X141763299Y-65900000D01*
X141761517Y-65884113D01*
X141761002Y-65861827D01*
X141773714Y-65667880D01*
X141775865Y-65651539D01*
X141819638Y-65431481D01*
X141823904Y-65415562D01*
X141896021Y-65203110D01*
X141902328Y-65187883D01*
X142001561Y-64986658D01*
X142009802Y-64972384D01*
X142134450Y-64785836D01*
X142144483Y-64772761D01*
X142292418Y-64604073D01*
X142304073Y-64592418D01*
X142472761Y-64444483D01*
X142485836Y-64434450D01*
X142672384Y-64309802D01*
X142686658Y-64301561D01*
X142887883Y-64202328D01*
X142903110Y-64196021D01*
X143115562Y-64123904D01*
X143131481Y-64119638D01*
X143201522Y-64105705D01*
X143234965Y-64099053D01*
X143305678Y-64105381D01*
X143361745Y-64148935D01*
X143385365Y-64215887D01*
X143369039Y-64284981D01*
X143355358Y-64304462D01*
X143323075Y-64342260D01*
X143193666Y-64553437D01*
X143191773Y-64558007D01*
X143191771Y-64558011D01*
X143133283Y-64699213D01*
X143098885Y-64782258D01*
X143089560Y-64821098D01*
X143042221Y-65018276D01*
X143042220Y-65018282D01*
X143041066Y-65023089D01*
X143021634Y-65270000D01*
X143041066Y-65516911D01*
X143042220Y-65521718D01*
X143042221Y-65521724D01*
X143070132Y-65637978D01*
X143098885Y-65757742D01*
X143100778Y-65762313D01*
X143100779Y-65762315D01*
X143191770Y-65981985D01*
X143193666Y-65986563D01*
X143323075Y-66197740D01*
X143483927Y-66386073D01*
X143487683Y-66389281D01*
X143504734Y-66403844D01*
X143672260Y-66546925D01*
X143746097Y-66592172D01*
X143829967Y-66643568D01*
X143877598Y-66696216D01*
X143889205Y-66766257D01*
X143861102Y-66831455D01*
X143802212Y-66871109D01*
X143764132Y-66877001D01*
X143590331Y-66877001D01*
X143583510Y-66877371D01*
X143532648Y-66882895D01*
X143517396Y-66886521D01*
X143396946Y-66931676D01*
X143381351Y-66940214D01*
X143279276Y-67016715D01*
X143266715Y-67029276D01*
X143190214Y-67131351D01*
X143181676Y-67146946D01*
X143136522Y-67267394D01*
X143132895Y-67282649D01*
X143127369Y-67333514D01*
X143127000Y-67340328D01*
X143127000Y-68027885D01*
X143131475Y-68043124D01*
X143132865Y-68044329D01*
X143140548Y-68046000D01*
X146054884Y-68046000D01*
X146070123Y-68041525D01*
X146071328Y-68040135D01*
X146072999Y-68032452D01*
X146072999Y-67340331D01*
X146072629Y-67333510D01*
X146067105Y-67282648D01*
X146063479Y-67267396D01*
X146018324Y-67146946D01*
X146009786Y-67131351D01*
X145933285Y-67029276D01*
X145920724Y-67016715D01*
X145818649Y-66940214D01*
X145803054Y-66931676D01*
X145682606Y-66886522D01*
X145667351Y-66882895D01*
X145616486Y-66877369D01*
X145609672Y-66877000D01*
X145435869Y-66877000D01*
X145367748Y-66856998D01*
X145321255Y-66803342D01*
X145311151Y-66733068D01*
X145340645Y-66668488D01*
X145370034Y-66643567D01*
X145453903Y-66592172D01*
X145527740Y-66546925D01*
X145695266Y-66403844D01*
X145712317Y-66389281D01*
X145716073Y-66386073D01*
X145876925Y-66197740D01*
X146006334Y-65986563D01*
X146008229Y-65981989D01*
X146008231Y-65981985D01*
X146008518Y-65981291D01*
X146008698Y-65981067D01*
X146010475Y-65977580D01*
X146011207Y-65977953D01*
X146053062Y-65926006D01*
X146124930Y-65903500D01*
X149747182Y-65903500D01*
X149763628Y-65904578D01*
X149782986Y-65907127D01*
X149782990Y-65907127D01*
X149790517Y-65908118D01*
X149802956Y-65906744D01*
X149809212Y-65906054D01*
X149830648Y-65905523D01*
X150051073Y-65918857D01*
X150066177Y-65920691D01*
X150308849Y-65965162D01*
X150323622Y-65968803D01*
X150559175Y-66042204D01*
X150573393Y-66047596D01*
X150798381Y-66148855D01*
X150811837Y-66155917D01*
X151004601Y-66272447D01*
X151022979Y-66283557D01*
X151035501Y-66292200D01*
X151229718Y-66444360D01*
X151241106Y-66454450D01*
X151382282Y-66595626D01*
X151416308Y-66657938D01*
X151411243Y-66728753D01*
X151368752Y-66785546D01*
X151336739Y-66809539D01*
X151249385Y-66926095D01*
X151198255Y-67062484D01*
X151191500Y-67124666D01*
X151191500Y-69020934D01*
X151198255Y-69083116D01*
X151249385Y-69219505D01*
X151336739Y-69336061D01*
X151453295Y-69423415D01*
X151589684Y-69474545D01*
X151651866Y-69481300D01*
X153548134Y-69481300D01*
X153610316Y-69474545D01*
X153746705Y-69423415D01*
X153863261Y-69336061D01*
X153950615Y-69219505D01*
X153965686Y-69179304D01*
X154008328Y-69122539D01*
X154074890Y-69097840D01*
X154144239Y-69113048D01*
X154164150Y-69126588D01*
X154289349Y-69230530D01*
X154489322Y-69347384D01*
X154705694Y-69430009D01*
X154710760Y-69431040D01*
X154710761Y-69431040D01*
X154763846Y-69441840D01*
X154932656Y-69476185D01*
X155062089Y-69480931D01*
X155158949Y-69484483D01*
X155158953Y-69484483D01*
X155164113Y-69484672D01*
X155169233Y-69484016D01*
X155169235Y-69484016D01*
X155243166Y-69474545D01*
X155393847Y-69455242D01*
X155398795Y-69453757D01*
X155398802Y-69453756D01*
X155610747Y-69390169D01*
X155615690Y-69388686D01*
X155697161Y-69348774D01*
X155819049Y-69289062D01*
X155819052Y-69289060D01*
X155823684Y-69286791D01*
X156012243Y-69152294D01*
X156176303Y-68988805D01*
X156250714Y-68885251D01*
X156306709Y-68841603D01*
X156377412Y-68835157D01*
X156437572Y-68865343D01*
X156440555Y-68868042D01*
X156449330Y-68864259D01*
X157227979Y-68085611D01*
X157235592Y-68071668D01*
X157235461Y-68069834D01*
X157231210Y-68063220D01*
X156453862Y-67285873D01*
X156442331Y-67279576D01*
X156432877Y-67286983D01*
X156366918Y-67313250D01*
X156297229Y-67299687D01*
X156249377Y-67256240D01*
X156222571Y-67214804D01*
X156219764Y-67210465D01*
X156063887Y-67039158D01*
X156059836Y-67035959D01*
X156059832Y-67035955D01*
X155886177Y-66898811D01*
X155886172Y-66898808D01*
X155882123Y-66895610D01*
X155877607Y-66893117D01*
X155877604Y-66893115D01*
X155683879Y-66786173D01*
X155683875Y-66786171D01*
X155679355Y-66783676D01*
X155674486Y-66781952D01*
X155674482Y-66781950D01*
X155465903Y-66708088D01*
X155465899Y-66708087D01*
X155461028Y-66706362D01*
X155455935Y-66705455D01*
X155455932Y-66705454D01*
X155238095Y-66666651D01*
X155238089Y-66666650D01*
X155233006Y-66665745D01*
X155160096Y-66664854D01*
X155006581Y-66662979D01*
X155006579Y-66662979D01*
X155001411Y-66662916D01*
X154772464Y-66697950D01*
X154552314Y-66769906D01*
X154547726Y-66772294D01*
X154547722Y-66772296D01*
X154401593Y-66848366D01*
X154346872Y-66876852D01*
X154342739Y-66879955D01*
X154342736Y-66879957D01*
X154161655Y-67015917D01*
X154160976Y-67015013D01*
X154101730Y-67042931D01*
X154031341Y-67033669D01*
X153977132Y-66987822D01*
X153964325Y-66962666D01*
X153953768Y-66934505D01*
X153953767Y-66934503D01*
X153950615Y-66926095D01*
X153863261Y-66809539D01*
X153746705Y-66722185D01*
X153610316Y-66671055D01*
X153548134Y-66664300D01*
X153012080Y-66664300D01*
X152943959Y-66644298D01*
X152898177Y-66592172D01*
X152832717Y-66453768D01*
X152832715Y-66453765D01*
X152831401Y-66450986D01*
X152797733Y-66394815D01*
X152659414Y-66164042D01*
X152659408Y-66164033D01*
X152657825Y-66161392D01*
X152584995Y-66063192D01*
X152458543Y-65892691D01*
X152458540Y-65892688D01*
X152456699Y-65890205D01*
X152229961Y-65640039D01*
X151979795Y-65413301D01*
X151917006Y-65366733D01*
X151711093Y-65214018D01*
X151708608Y-65212175D01*
X151705967Y-65210592D01*
X151705958Y-65210586D01*
X151421655Y-65040182D01*
X151421656Y-65040182D01*
X151419014Y-65038599D01*
X151376045Y-65018276D01*
X151116593Y-64895564D01*
X151116584Y-64895560D01*
X151113801Y-64894244D01*
X150909372Y-64821098D01*
X150798816Y-64781540D01*
X150798807Y-64781537D01*
X150795908Y-64780500D01*
X150792918Y-64779751D01*
X150792908Y-64779748D01*
X150471391Y-64699213D01*
X150471392Y-64699213D01*
X150468397Y-64698463D01*
X150134422Y-64648923D01*
X150131336Y-64648771D01*
X150131332Y-64648771D01*
X149827378Y-64633838D01*
X149815824Y-64632736D01*
X149810564Y-64631987D01*
X149803521Y-64631913D01*
X149801320Y-64631890D01*
X149801318Y-64631890D01*
X149797200Y-64631847D01*
X149793110Y-64632342D01*
X149793109Y-64632342D01*
X149791242Y-64632568D01*
X149766293Y-64635587D01*
X149751158Y-64636500D01*
X146124930Y-64636500D01*
X146056809Y-64616498D01*
X146011277Y-64562011D01*
X146010475Y-64562420D01*
X146008688Y-64558912D01*
X146008518Y-64558709D01*
X146008231Y-64558015D01*
X146008227Y-64558007D01*
X146006334Y-64553437D01*
X145876925Y-64342260D01*
X145812075Y-64266330D01*
X145783044Y-64201541D01*
X145793649Y-64131341D01*
X145840523Y-64078019D01*
X145907886Y-64058500D01*
X150754637Y-64058500D01*
X150772173Y-64059726D01*
X150791567Y-64062452D01*
X150791573Y-64062452D01*
X150795476Y-64063001D01*
X150803304Y-64063110D01*
X150812825Y-64063244D01*
X150812832Y-64063244D01*
X150816789Y-64063299D01*
X150820738Y-64062856D01*
X150822130Y-64062788D01*
X150827184Y-64062382D01*
X151171081Y-64045488D01*
X151171086Y-64045487D01*
X151174170Y-64045336D01*
X151528109Y-63992835D01*
X151561070Y-63984579D01*
X151872198Y-63906647D01*
X151872208Y-63906644D01*
X151875198Y-63905895D01*
X151878097Y-63904858D01*
X151878106Y-63904855D01*
X152043646Y-63845624D01*
X152212094Y-63785352D01*
X152535552Y-63632368D01*
X152559110Y-63618248D01*
X152839808Y-63450005D01*
X152839817Y-63449999D01*
X152842458Y-63448416D01*
X153129855Y-63235268D01*
X153394976Y-62994976D01*
X153635268Y-62729855D01*
X153689435Y-62656820D01*
X153846573Y-62444943D01*
X153848416Y-62442458D01*
X153849999Y-62439817D01*
X153850005Y-62439808D01*
X154030785Y-62138193D01*
X154032368Y-62135552D01*
X154045857Y-62107033D01*
X154137636Y-61912981D01*
X154185352Y-61812094D01*
X154281381Y-61543710D01*
X154304855Y-61478106D01*
X154304858Y-61478097D01*
X154305895Y-61475198D01*
X154306644Y-61472208D01*
X154306647Y-61472198D01*
X154392085Y-61131103D01*
X154392835Y-61128109D01*
X154445336Y-60774170D01*
X154448871Y-60702222D01*
X154460944Y-60456448D01*
X154462018Y-60445098D01*
X154462451Y-60442019D01*
X154462451Y-60442013D01*
X154463001Y-60438102D01*
X154463299Y-60416789D01*
X154459285Y-60381004D01*
X154458500Y-60366959D01*
X154458500Y-60281867D01*
X154478502Y-60213746D01*
X154512228Y-60178655D01*
X154544300Y-60156198D01*
X154706198Y-59994300D01*
X154837523Y-59806749D01*
X154839846Y-59801767D01*
X154839849Y-59801762D01*
X154931961Y-59604225D01*
X154931961Y-59604224D01*
X154934284Y-59599243D01*
X154993543Y-59378087D01*
X155013498Y-59150000D01*
X154993543Y-58921913D01*
X154953281Y-58771654D01*
X154935707Y-58706067D01*
X154935706Y-58706065D01*
X154934284Y-58700757D01*
X154903199Y-58634095D01*
X154839849Y-58498238D01*
X154839846Y-58498233D01*
X154837523Y-58493251D01*
X154706198Y-58305700D01*
X154544300Y-58143802D01*
X154539792Y-58140645D01*
X154539789Y-58140643D01*
X154425777Y-58060811D01*
X154356749Y-58012477D01*
X154351767Y-58010154D01*
X154351762Y-58010151D01*
X154154225Y-57918039D01*
X154154224Y-57918039D01*
X154149243Y-57915716D01*
X154143935Y-57914294D01*
X154143933Y-57914293D01*
X153933402Y-57857881D01*
X153933400Y-57857881D01*
X153928087Y-57856457D01*
X153700000Y-57836502D01*
X153471913Y-57856457D01*
X153466600Y-57857881D01*
X153466598Y-57857881D01*
X153256067Y-57914293D01*
X153256065Y-57914294D01*
X153250757Y-57915716D01*
X153245776Y-57918039D01*
X153245775Y-57918039D01*
X153048238Y-58010151D01*
X153048233Y-58010154D01*
X153043251Y-58012477D01*
X152974223Y-58060811D01*
X152860211Y-58140643D01*
X152860208Y-58140645D01*
X152855700Y-58143802D01*
X152693802Y-58305700D01*
X152562477Y-58493251D01*
X152560154Y-58498233D01*
X152560151Y-58498238D01*
X152496801Y-58634095D01*
X152465716Y-58700757D01*
X152464294Y-58706065D01*
X152464293Y-58706067D01*
X152446719Y-58771654D01*
X152406457Y-58921913D01*
X152386502Y-59150000D01*
X152406457Y-59378087D01*
X152465716Y-59599243D01*
X152468039Y-59604224D01*
X152468039Y-59604225D01*
X152560151Y-59801762D01*
X152560154Y-59801767D01*
X152562477Y-59806749D01*
X152693802Y-59994300D01*
X152855700Y-60156198D01*
X152887771Y-60178655D01*
X152932099Y-60234110D01*
X152941500Y-60281867D01*
X152941500Y-60360802D01*
X152940507Y-60376593D01*
X152936775Y-60406136D01*
X152939021Y-60429041D01*
X152939352Y-60449569D01*
X152923864Y-60685881D01*
X152921713Y-60702222D01*
X152870715Y-60958611D01*
X152866451Y-60974524D01*
X152821241Y-61107709D01*
X152782423Y-61222063D01*
X152776116Y-61237289D01*
X152660496Y-61471744D01*
X152652260Y-61486010D01*
X152507025Y-61703371D01*
X152496999Y-61716438D01*
X152324635Y-61912981D01*
X152312981Y-61924635D01*
X152116438Y-62096999D01*
X152103371Y-62107025D01*
X151886010Y-62252260D01*
X151871745Y-62260495D01*
X151844567Y-62273898D01*
X151774625Y-62286089D01*
X151709195Y-62258530D01*
X151669052Y-62199973D01*
X151666939Y-62129008D01*
X151696761Y-62074883D01*
X151758037Y-62009288D01*
X151912598Y-61786488D01*
X151950534Y-61710235D01*
X152031346Y-61547797D01*
X152031347Y-61547794D01*
X152033379Y-61543710D01*
X152117847Y-61286040D01*
X152126312Y-61237289D01*
X152163579Y-61022656D01*
X152163580Y-61022648D01*
X152164235Y-61018875D01*
X152164616Y-61011229D01*
X152168422Y-60934771D01*
X152168422Y-60934763D01*
X152168500Y-60933200D01*
X152168500Y-60243916D01*
X152166328Y-60213970D01*
X152154205Y-60046900D01*
X152153875Y-60042349D01*
X152142271Y-59989789D01*
X152096400Y-59782023D01*
X152096399Y-59782019D01*
X152095415Y-59777563D01*
X151999345Y-59523990D01*
X151867676Y-59286941D01*
X151703167Y-59071383D01*
X151509264Y-58881830D01*
X151290028Y-58722253D01*
X151050053Y-58595996D01*
X151045752Y-58594477D01*
X151045747Y-58594475D01*
X150867998Y-58531706D01*
X150794366Y-58505704D01*
X150696347Y-58486385D01*
X150532794Y-58454148D01*
X150532788Y-58454147D01*
X150528322Y-58453267D01*
X150523768Y-58453040D01*
X150523766Y-58453040D01*
X150262064Y-58440011D01*
X150262058Y-58440011D01*
X150257495Y-58439784D01*
X149987559Y-58465538D01*
X149983130Y-58466622D01*
X149983123Y-58466623D01*
X149874306Y-58493251D01*
X149724168Y-58529990D01*
X149719933Y-58531705D01*
X149719931Y-58531706D01*
X149477069Y-58630075D01*
X149472840Y-58631788D01*
X149238839Y-58768801D01*
X149235272Y-58771654D01*
X149047383Y-58921913D01*
X149027068Y-58938159D01*
X149023947Y-58941500D01*
X148899224Y-59075015D01*
X148841963Y-59136312D01*
X148687402Y-59359112D01*
X148685374Y-59363188D01*
X148685373Y-59363190D01*
X148570580Y-59593933D01*
X148566621Y-59601890D01*
X148482153Y-59859560D01*
X148435765Y-60126725D01*
X148431500Y-60212400D01*
X148431500Y-60901684D01*
X148431665Y-60903952D01*
X148431665Y-60903964D01*
X148439725Y-61015038D01*
X148446125Y-61103251D01*
X148447109Y-61107706D01*
X148447109Y-61107709D01*
X148486482Y-61286040D01*
X148504585Y-61368037D01*
X148600655Y-61621610D01*
X148732324Y-61858659D01*
X148896833Y-62074217D01*
X148900099Y-62077410D01*
X148900101Y-62077412D01*
X148962277Y-62138193D01*
X149090736Y-62263770D01*
X149094428Y-62266457D01*
X149094430Y-62266459D01*
X149159235Y-62313629D01*
X149202540Y-62369889D01*
X149208553Y-62440630D01*
X149175367Y-62503393D01*
X149113516Y-62538250D01*
X149085085Y-62541500D01*
X143662151Y-62541500D01*
X143644618Y-62540274D01*
X143630215Y-62538250D01*
X143625221Y-62537548D01*
X143625218Y-62537548D01*
X143621313Y-62536999D01*
X143612853Y-62536881D01*
X143603960Y-62536756D01*
X143603954Y-62536756D01*
X143600000Y-62536701D01*
X143596821Y-62537058D01*
X143248459Y-62555314D01*
X143245219Y-62555827D01*
X143245211Y-62555828D01*
X143085409Y-62581139D01*
X142900770Y-62610383D01*
X142560742Y-62701493D01*
X142557654Y-62702678D01*
X142557652Y-62702679D01*
X142480873Y-62732152D01*
X142232100Y-62827647D01*
X141968387Y-62962016D01*
X141941703Y-62975612D01*
X141871926Y-62988716D01*
X141806142Y-62962016D01*
X141765235Y-62903988D01*
X141758500Y-62863345D01*
X141758500Y-58249938D01*
X143684892Y-58249938D01*
X143690619Y-58257588D01*
X143879445Y-58373301D01*
X143888239Y-58377782D01*
X144107840Y-58468744D01*
X144117225Y-58471793D01*
X144348355Y-58527283D01*
X144358102Y-58528826D01*
X144595070Y-58547476D01*
X144604930Y-58547476D01*
X144841898Y-58528826D01*
X144851645Y-58527283D01*
X145082775Y-58471793D01*
X145092160Y-58468744D01*
X145311761Y-58377782D01*
X145320555Y-58373301D01*
X145505715Y-58259835D01*
X145515175Y-58249379D01*
X145511391Y-58240601D01*
X144612812Y-57342022D01*
X144598868Y-57334408D01*
X144597035Y-57334539D01*
X144590420Y-57338790D01*
X143691652Y-58237558D01*
X143684892Y-58249938D01*
X141758500Y-58249938D01*
X141758500Y-56974930D01*
X143022524Y-56974930D01*
X143041174Y-57211898D01*
X143042717Y-57221645D01*
X143098207Y-57452775D01*
X143101256Y-57462160D01*
X143192218Y-57681761D01*
X143196699Y-57690555D01*
X143310165Y-57875715D01*
X143320621Y-57885175D01*
X143329399Y-57881391D01*
X144227978Y-56982812D01*
X144234356Y-56971132D01*
X144964408Y-56971132D01*
X144964539Y-56972965D01*
X144968790Y-56979580D01*
X145867558Y-57878348D01*
X145879938Y-57885108D01*
X145887588Y-57879381D01*
X146003301Y-57690555D01*
X146007782Y-57681761D01*
X146098744Y-57462160D01*
X146101793Y-57452775D01*
X146157283Y-57221645D01*
X146158826Y-57211898D01*
X146177476Y-56974930D01*
X146177476Y-56965070D01*
X146158826Y-56728102D01*
X146157283Y-56718355D01*
X146101793Y-56487225D01*
X146098744Y-56477840D01*
X146007782Y-56258239D01*
X146003301Y-56249445D01*
X145889835Y-56064285D01*
X145879379Y-56054825D01*
X145870601Y-56058609D01*
X144972022Y-56957188D01*
X144964408Y-56971132D01*
X144234356Y-56971132D01*
X144235592Y-56968868D01*
X144235461Y-56967035D01*
X144231210Y-56960420D01*
X143332442Y-56061652D01*
X143320062Y-56054892D01*
X143312412Y-56060619D01*
X143196699Y-56249445D01*
X143192218Y-56258239D01*
X143101256Y-56477840D01*
X143098207Y-56487225D01*
X143042717Y-56718355D01*
X143041174Y-56728102D01*
X143022524Y-56965070D01*
X143022524Y-56974930D01*
X141758500Y-56974930D01*
X141758500Y-54829669D01*
X143127001Y-54829669D01*
X143127371Y-54836490D01*
X143132895Y-54887352D01*
X143136521Y-54902604D01*
X143181676Y-55023054D01*
X143190214Y-55038649D01*
X143266715Y-55140724D01*
X143279276Y-55153285D01*
X143381351Y-55229786D01*
X143396946Y-55238324D01*
X143517394Y-55283478D01*
X143532649Y-55287105D01*
X143583514Y-55292631D01*
X143590328Y-55293000D01*
X143904745Y-55293000D01*
X143972866Y-55313002D01*
X144019359Y-55366658D01*
X144029463Y-55436932D01*
X143999969Y-55501512D01*
X143952963Y-55535409D01*
X143888239Y-55562218D01*
X143879445Y-55566699D01*
X143694285Y-55680165D01*
X143684825Y-55690621D01*
X143688609Y-55699399D01*
X144587188Y-56597978D01*
X144601132Y-56605592D01*
X144602965Y-56605461D01*
X144609580Y-56601210D01*
X145508348Y-55702442D01*
X145515108Y-55690062D01*
X145509381Y-55682412D01*
X145320555Y-55566699D01*
X145311765Y-55562220D01*
X145247035Y-55535408D01*
X145191755Y-55490859D01*
X145169334Y-55423496D01*
X145186893Y-55354704D01*
X145238855Y-55306326D01*
X145295254Y-55292999D01*
X145609669Y-55292999D01*
X145616490Y-55292629D01*
X145667352Y-55287105D01*
X145682604Y-55283479D01*
X145803054Y-55238324D01*
X145818649Y-55229786D01*
X145920724Y-55153285D01*
X145933285Y-55140724D01*
X146009786Y-55038649D01*
X146018324Y-55023054D01*
X146063478Y-54902606D01*
X146067105Y-54887351D01*
X146072631Y-54836486D01*
X146073000Y-54829672D01*
X146073000Y-54142115D01*
X146068525Y-54126876D01*
X146067135Y-54125671D01*
X146059452Y-54124000D01*
X143145116Y-54124000D01*
X143129877Y-54128475D01*
X143128672Y-54129865D01*
X143127001Y-54137548D01*
X143127001Y-54829669D01*
X141758500Y-54829669D01*
X141758500Y-50820000D01*
X143021634Y-50820000D01*
X143041066Y-51066911D01*
X143042220Y-51071718D01*
X143042221Y-51071724D01*
X143058647Y-51140142D01*
X143098885Y-51307742D01*
X143100778Y-51312313D01*
X143100779Y-51312315D01*
X143185267Y-51516285D01*
X143193666Y-51536563D01*
X143323075Y-51747740D01*
X143483927Y-51936073D01*
X143672260Y-52096925D01*
X143862603Y-52213567D01*
X143862605Y-52213568D01*
X143910236Y-52266216D01*
X143921843Y-52336257D01*
X143893740Y-52401455D01*
X143834850Y-52441109D01*
X143796770Y-52447001D01*
X143590331Y-52447001D01*
X143583510Y-52447371D01*
X143532648Y-52452895D01*
X143517396Y-52456521D01*
X143396946Y-52501676D01*
X143381351Y-52510214D01*
X143279276Y-52586715D01*
X143266715Y-52599276D01*
X143190214Y-52701351D01*
X143181676Y-52716946D01*
X143136522Y-52837394D01*
X143132895Y-52852649D01*
X143127369Y-52903514D01*
X143127000Y-52910328D01*
X143127000Y-53597885D01*
X143131475Y-53613124D01*
X143132865Y-53614329D01*
X143140548Y-53616000D01*
X146054884Y-53616000D01*
X146070123Y-53611525D01*
X146071328Y-53610135D01*
X146072999Y-53602452D01*
X146072999Y-52910331D01*
X146072629Y-52903510D01*
X146067105Y-52852648D01*
X146063479Y-52837396D01*
X146018324Y-52716946D01*
X146009786Y-52701351D01*
X145933285Y-52599276D01*
X145920724Y-52586715D01*
X145818649Y-52510214D01*
X145803054Y-52501676D01*
X145682606Y-52456522D01*
X145667351Y-52452895D01*
X145616486Y-52447369D01*
X145609672Y-52447000D01*
X145403232Y-52447000D01*
X145335111Y-52426998D01*
X145288618Y-52373342D01*
X145278514Y-52303068D01*
X145308008Y-52238488D01*
X145337397Y-52213567D01*
X145361215Y-52198971D01*
X145527740Y-52096925D01*
X145716073Y-51936073D01*
X145876925Y-51747740D01*
X145983923Y-51573134D01*
X151191500Y-51573134D01*
X151198255Y-51635316D01*
X151249385Y-51771705D01*
X151336739Y-51888261D01*
X151453295Y-51975615D01*
X151589684Y-52026745D01*
X151651866Y-52033500D01*
X153548134Y-52033500D01*
X153610316Y-52026745D01*
X153746705Y-51975615D01*
X153863261Y-51888261D01*
X153950615Y-51771705D01*
X153965686Y-51731504D01*
X154008328Y-51674739D01*
X154074890Y-51650040D01*
X154144239Y-51665248D01*
X154164150Y-51678788D01*
X154289349Y-51782730D01*
X154489322Y-51899584D01*
X154705694Y-51982209D01*
X154710760Y-51983240D01*
X154710761Y-51983240D01*
X154763846Y-51994040D01*
X154932656Y-52028385D01*
X155062089Y-52033131D01*
X155158949Y-52036683D01*
X155158953Y-52036683D01*
X155164113Y-52036872D01*
X155169233Y-52036216D01*
X155169235Y-52036216D01*
X155243166Y-52026745D01*
X155393847Y-52007442D01*
X155398795Y-52005957D01*
X155398802Y-52005956D01*
X155610747Y-51942369D01*
X155615690Y-51940886D01*
X155697161Y-51900974D01*
X155819049Y-51841262D01*
X155819052Y-51841260D01*
X155823684Y-51838991D01*
X155897406Y-51786406D01*
X156803423Y-51786406D01*
X156808704Y-51793461D01*
X156985080Y-51896527D01*
X156994363Y-51900974D01*
X157201003Y-51979883D01*
X157210901Y-51982759D01*
X157427653Y-52026857D01*
X157437883Y-52028076D01*
X157658914Y-52036182D01*
X157669223Y-52035714D01*
X157888623Y-52007608D01*
X157898688Y-52005468D01*
X158110557Y-51941905D01*
X158120152Y-51938144D01*
X158318778Y-51840838D01*
X158327636Y-51835559D01*
X158385097Y-51794572D01*
X158393497Y-51783874D01*
X158386510Y-51770721D01*
X157612811Y-50997021D01*
X157598868Y-50989408D01*
X157597034Y-50989539D01*
X157590420Y-50993790D01*
X156810180Y-51774031D01*
X156803423Y-51786406D01*
X155897406Y-51786406D01*
X156012243Y-51704494D01*
X156176303Y-51541005D01*
X156250714Y-51437451D01*
X156306709Y-51393803D01*
X156377412Y-51387357D01*
X156437572Y-51417543D01*
X156440555Y-51420242D01*
X156449330Y-51416459D01*
X157227979Y-50637811D01*
X157234356Y-50626132D01*
X157964408Y-50626132D01*
X157964539Y-50627966D01*
X157968790Y-50634580D01*
X158746307Y-51412096D01*
X158758313Y-51418652D01*
X158770052Y-51409684D01*
X158808010Y-51356859D01*
X158813321Y-51348020D01*
X158911318Y-51149737D01*
X158915117Y-51140142D01*
X158979415Y-50928517D01*
X158981594Y-50918436D01*
X159010702Y-50697338D01*
X159011221Y-50690663D01*
X159012744Y-50628364D01*
X159012550Y-50621646D01*
X158994279Y-50399400D01*
X158992596Y-50389238D01*
X158938710Y-50174708D01*
X158935389Y-50164953D01*
X158847193Y-49962118D01*
X158842315Y-49953020D01*
X158769224Y-49840038D01*
X158758538Y-49830835D01*
X158748973Y-49835238D01*
X157972021Y-50612189D01*
X157964408Y-50626132D01*
X157234356Y-50626132D01*
X157235592Y-50623868D01*
X157235461Y-50622034D01*
X157231210Y-50615420D01*
X156453862Y-49838073D01*
X156442331Y-49831776D01*
X156432877Y-49839183D01*
X156366918Y-49865450D01*
X156297229Y-49851887D01*
X156249377Y-49808440D01*
X156222571Y-49767004D01*
X156219764Y-49762665D01*
X156063887Y-49591358D01*
X156059836Y-49588159D01*
X156059832Y-49588155D01*
X155904790Y-49465711D01*
X156805508Y-49465711D01*
X156812251Y-49478040D01*
X157587189Y-50252979D01*
X157601132Y-50260592D01*
X157602966Y-50260461D01*
X157609580Y-50256210D01*
X158388994Y-49476795D01*
X158396011Y-49463944D01*
X158388237Y-49453274D01*
X158385902Y-49451430D01*
X158377320Y-49445729D01*
X158183678Y-49338833D01*
X158174272Y-49334606D01*
X157965772Y-49260772D01*
X157955809Y-49258140D01*
X157738047Y-49219350D01*
X157727796Y-49218381D01*
X157506616Y-49215679D01*
X157496332Y-49216399D01*
X157277693Y-49249855D01*
X157267666Y-49252244D01*
X157057426Y-49320961D01*
X157047916Y-49324958D01*
X156851725Y-49427089D01*
X156843007Y-49432578D01*
X156813961Y-49454386D01*
X156805508Y-49465711D01*
X155904790Y-49465711D01*
X155886177Y-49451011D01*
X155886172Y-49451008D01*
X155882123Y-49447810D01*
X155877607Y-49445317D01*
X155877604Y-49445315D01*
X155683879Y-49338373D01*
X155683875Y-49338371D01*
X155679355Y-49335876D01*
X155674486Y-49334152D01*
X155674482Y-49334150D01*
X155465903Y-49260288D01*
X155465899Y-49260287D01*
X155461028Y-49258562D01*
X155455935Y-49257655D01*
X155455932Y-49257654D01*
X155238095Y-49218851D01*
X155238089Y-49218850D01*
X155233006Y-49217945D01*
X155160096Y-49217054D01*
X155006581Y-49215179D01*
X155006579Y-49215179D01*
X155001411Y-49215116D01*
X154772464Y-49250150D01*
X154552314Y-49322106D01*
X154547726Y-49324494D01*
X154547722Y-49324496D01*
X154351461Y-49426663D01*
X154346872Y-49429052D01*
X154342739Y-49432155D01*
X154342736Y-49432157D01*
X154161655Y-49568117D01*
X154160976Y-49567213D01*
X154101730Y-49595131D01*
X154031341Y-49585869D01*
X153977132Y-49540022D01*
X153964325Y-49514866D01*
X153953768Y-49486705D01*
X153953767Y-49486703D01*
X153950615Y-49478295D01*
X153863261Y-49361739D01*
X153746705Y-49274385D01*
X153610316Y-49223255D01*
X153548134Y-49216500D01*
X151651866Y-49216500D01*
X151589684Y-49223255D01*
X151453295Y-49274385D01*
X151336739Y-49361739D01*
X151249385Y-49478295D01*
X151198255Y-49614684D01*
X151191500Y-49676866D01*
X151191500Y-51573134D01*
X145983923Y-51573134D01*
X146006334Y-51536563D01*
X146014734Y-51516285D01*
X146099221Y-51312315D01*
X146099222Y-51312313D01*
X146101115Y-51307742D01*
X146141353Y-51140142D01*
X146157779Y-51071724D01*
X146157780Y-51071718D01*
X146158934Y-51066911D01*
X146178366Y-50820000D01*
X146158934Y-50573089D01*
X146157780Y-50568282D01*
X146157779Y-50568276D01*
X146121501Y-50417170D01*
X146101115Y-50332258D01*
X146069615Y-50256210D01*
X146008229Y-50108011D01*
X146008227Y-50108007D01*
X146006334Y-50103437D01*
X145876925Y-49892260D01*
X145716073Y-49703927D01*
X145527740Y-49543075D01*
X145316563Y-49413666D01*
X145311993Y-49411773D01*
X145311989Y-49411771D01*
X145092315Y-49320779D01*
X145092313Y-49320778D01*
X145087742Y-49318885D01*
X145002830Y-49298499D01*
X144851724Y-49262221D01*
X144851718Y-49262220D01*
X144846911Y-49261066D01*
X144600000Y-49241634D01*
X144353089Y-49261066D01*
X144348282Y-49262220D01*
X144348276Y-49262221D01*
X144197170Y-49298499D01*
X144112258Y-49318885D01*
X144107687Y-49320778D01*
X144107685Y-49320779D01*
X143888011Y-49411771D01*
X143888007Y-49411773D01*
X143883437Y-49413666D01*
X143672260Y-49543075D01*
X143483927Y-49703927D01*
X143323075Y-49892260D01*
X143193666Y-50103437D01*
X143191773Y-50108007D01*
X143191771Y-50108011D01*
X143130385Y-50256210D01*
X143098885Y-50332258D01*
X143078499Y-50417170D01*
X143042221Y-50568276D01*
X143042220Y-50568282D01*
X143041066Y-50573089D01*
X143021634Y-50820000D01*
X141758500Y-50820000D01*
X141758500Y-46182151D01*
X141759726Y-46164615D01*
X141762452Y-46145221D01*
X141762452Y-46145218D01*
X141763001Y-46141313D01*
X141763299Y-46120000D01*
X141761282Y-46102017D01*
X141760695Y-46080910D01*
X141775970Y-45808918D01*
X141777552Y-45794877D01*
X141828556Y-45494686D01*
X141831700Y-45480911D01*
X141914907Y-45192096D01*
X141915999Y-45188307D01*
X141920665Y-45174971D01*
X141923182Y-45168896D01*
X142037191Y-44893652D01*
X142043320Y-44880925D01*
X142190613Y-44614419D01*
X142198126Y-44602463D01*
X142374334Y-44354123D01*
X142383143Y-44343077D01*
X142586041Y-44116033D01*
X142596033Y-44106041D01*
X142823077Y-43903143D01*
X142834123Y-43894334D01*
X143082463Y-43718126D01*
X143094428Y-43710608D01*
X143312287Y-43590202D01*
X143381583Y-43574757D01*
X143448229Y-43599228D01*
X143469043Y-43618646D01*
X143483927Y-43636073D01*
X143487689Y-43639286D01*
X143487691Y-43639288D01*
X143511835Y-43659909D01*
X143672260Y-43796925D01*
X143883437Y-43926334D01*
X143888007Y-43928227D01*
X143888011Y-43928229D01*
X144107685Y-44019221D01*
X144112258Y-44021115D01*
X144197170Y-44041501D01*
X144348276Y-44077779D01*
X144348282Y-44077780D01*
X144353089Y-44078934D01*
X144600000Y-44098366D01*
X144846911Y-44078934D01*
X144851718Y-44077780D01*
X144851724Y-44077779D01*
X145002830Y-44041501D01*
X145087742Y-44021115D01*
X145092315Y-44019221D01*
X145311989Y-43928229D01*
X145311993Y-43928227D01*
X145316563Y-43926334D01*
X145527740Y-43796925D01*
X145716073Y-43636073D01*
X145871678Y-43453884D01*
X148431500Y-43453884D01*
X148431665Y-43456152D01*
X148431665Y-43456164D01*
X148438043Y-43544064D01*
X148446125Y-43655451D01*
X148447109Y-43659906D01*
X148447109Y-43659909D01*
X148499770Y-43898426D01*
X148504585Y-43920237D01*
X148600655Y-44173810D01*
X148732324Y-44410859D01*
X148735096Y-44414491D01*
X148887683Y-44614427D01*
X148896833Y-44626417D01*
X149090736Y-44815970D01*
X149094428Y-44818657D01*
X149094430Y-44818659D01*
X149195789Y-44892436D01*
X149309972Y-44975547D01*
X149549947Y-45101804D01*
X149554248Y-45103323D01*
X149554253Y-45103325D01*
X149687087Y-45150233D01*
X149805634Y-45192096D01*
X149903653Y-45211415D01*
X150067206Y-45243652D01*
X150067212Y-45243653D01*
X150071678Y-45244533D01*
X150076232Y-45244760D01*
X150076234Y-45244760D01*
X150337936Y-45257789D01*
X150337942Y-45257789D01*
X150342505Y-45258016D01*
X150612441Y-45232262D01*
X150616870Y-45231178D01*
X150616877Y-45231177D01*
X150776584Y-45192096D01*
X150875832Y-45167810D01*
X150908501Y-45154578D01*
X151122931Y-45067725D01*
X151122932Y-45067725D01*
X151127160Y-45066012D01*
X151361161Y-44928999D01*
X151572932Y-44759641D01*
X151694399Y-44629612D01*
X151754921Y-44564824D01*
X151754923Y-44564821D01*
X151758037Y-44561488D01*
X151912598Y-44338688D01*
X151948610Y-44266302D01*
X152031346Y-44099997D01*
X152031347Y-44099994D01*
X152033379Y-44095910D01*
X152117847Y-43838240D01*
X152125578Y-43793714D01*
X152163579Y-43574856D01*
X152163580Y-43574848D01*
X152164235Y-43571075D01*
X152168500Y-43485400D01*
X152168500Y-42796116D01*
X152166731Y-42771724D01*
X152154205Y-42599100D01*
X152153875Y-42594549D01*
X152152891Y-42590091D01*
X152096400Y-42334223D01*
X152096399Y-42334219D01*
X152095415Y-42329763D01*
X151999345Y-42076190D01*
X151867676Y-41839141D01*
X151703167Y-41623583D01*
X151509264Y-41434030D01*
X151463500Y-41400719D01*
X151293721Y-41277141D01*
X151290028Y-41274453D01*
X151050053Y-41148196D01*
X151045752Y-41146677D01*
X151045747Y-41146675D01*
X150867998Y-41083906D01*
X150794366Y-41057904D01*
X150696347Y-41038585D01*
X150532794Y-41006348D01*
X150532788Y-41006347D01*
X150528322Y-41005467D01*
X150523768Y-41005240D01*
X150523766Y-41005240D01*
X150262064Y-40992211D01*
X150262058Y-40992211D01*
X150257495Y-40991984D01*
X149987559Y-41017738D01*
X149983130Y-41018822D01*
X149983123Y-41018823D01*
X149853069Y-41050648D01*
X149724168Y-41082190D01*
X149719933Y-41083905D01*
X149719931Y-41083906D01*
X149477069Y-41182275D01*
X149472840Y-41183988D01*
X149238839Y-41321001D01*
X149027068Y-41490359D01*
X149023947Y-41493700D01*
X148899224Y-41627215D01*
X148841963Y-41688512D01*
X148687402Y-41911312D01*
X148685374Y-41915388D01*
X148685373Y-41915390D01*
X148603252Y-42080460D01*
X148566621Y-42154090D01*
X148482153Y-42411760D01*
X148481373Y-42416251D01*
X148481373Y-42416252D01*
X148442527Y-42639982D01*
X148435765Y-42678925D01*
X148435574Y-42682762D01*
X148431631Y-42761977D01*
X148431500Y-42764600D01*
X148431500Y-43453884D01*
X145871678Y-43453884D01*
X145876925Y-43447740D01*
X146006334Y-43236563D01*
X146101115Y-43007742D01*
X146128487Y-42893732D01*
X146157779Y-42771724D01*
X146157780Y-42771718D01*
X146158934Y-42766911D01*
X146178366Y-42520000D01*
X146158934Y-42273089D01*
X146157780Y-42268282D01*
X146157779Y-42268276D01*
X146102270Y-42037070D01*
X146101115Y-42032258D01*
X146052707Y-41915390D01*
X146008229Y-41808011D01*
X146008227Y-41808007D01*
X146006334Y-41803437D01*
X145876925Y-41592260D01*
X145716073Y-41403927D01*
X145527740Y-41243075D01*
X145316563Y-41113666D01*
X145248342Y-41085408D01*
X145193062Y-41040859D01*
X145170641Y-40973496D01*
X145188199Y-40904705D01*
X145240162Y-40856326D01*
X145296561Y-40842999D01*
X145609669Y-40842999D01*
X145616490Y-40842629D01*
X145667352Y-40837105D01*
X145682604Y-40833479D01*
X145803054Y-40788324D01*
X145818649Y-40779786D01*
X145920724Y-40703285D01*
X145933285Y-40690724D01*
X146009786Y-40588649D01*
X146018324Y-40573054D01*
X146063478Y-40452606D01*
X146067105Y-40437351D01*
X146072631Y-40386486D01*
X146073000Y-40379672D01*
X146073000Y-39692115D01*
X146068525Y-39676876D01*
X146067135Y-39675671D01*
X146059452Y-39674000D01*
X143145116Y-39674000D01*
X143129877Y-39678475D01*
X143128672Y-39679865D01*
X143127001Y-39687548D01*
X143127001Y-40379669D01*
X143127371Y-40386490D01*
X143132895Y-40437352D01*
X143136521Y-40452604D01*
X143181676Y-40573054D01*
X143190214Y-40588649D01*
X143266715Y-40690724D01*
X143279276Y-40703285D01*
X143381351Y-40779786D01*
X143396946Y-40788324D01*
X143517394Y-40833478D01*
X143532649Y-40837105D01*
X143583514Y-40842631D01*
X143590328Y-40843000D01*
X143903438Y-40843000D01*
X143971559Y-40863002D01*
X144018052Y-40916658D01*
X144028156Y-40986932D01*
X143998662Y-41051512D01*
X143951657Y-41085408D01*
X143923360Y-41097129D01*
X143888011Y-41111771D01*
X143888007Y-41111773D01*
X143883437Y-41113666D01*
X143672260Y-41243075D01*
X143483927Y-41403927D01*
X143323075Y-41592260D01*
X143193666Y-41803437D01*
X143191771Y-41808012D01*
X143123696Y-41972358D01*
X143079147Y-42027639D01*
X143047332Y-42043606D01*
X143023846Y-42051478D01*
X143021191Y-42052650D01*
X143021184Y-42052653D01*
X142958208Y-42080460D01*
X142655174Y-42214263D01*
X142652621Y-42215685D01*
X142652617Y-42215687D01*
X142447811Y-42329763D01*
X142303094Y-42410370D01*
X141970611Y-42638126D01*
X141968385Y-42639974D01*
X141968375Y-42639982D01*
X141783097Y-42793836D01*
X141660561Y-42895589D01*
X141375589Y-43180561D01*
X141373735Y-43182794D01*
X141373732Y-43182797D01*
X141119982Y-43488375D01*
X141119974Y-43488385D01*
X141118126Y-43490611D01*
X140890370Y-43823094D01*
X140888948Y-43825647D01*
X140730144Y-44110756D01*
X140694263Y-44175174D01*
X140693083Y-44177847D01*
X140655301Y-44263414D01*
X140609488Y-44317651D01*
X140541624Y-44338510D01*
X140473257Y-44319368D01*
X140426092Y-44266302D01*
X140414037Y-44212632D01*
X140413865Y-44019221D01*
X140409065Y-38634611D01*
X140429006Y-38566474D01*
X140482621Y-38519933D01*
X140535065Y-38508500D01*
X143001000Y-38508500D01*
X143069121Y-38528502D01*
G37*
%TD.AperFunction*%
%TA.AperFunction,Conductor*%
G36*
X141967012Y-113237954D02*
G01*
X141991933Y-113267343D01*
X142094501Y-113434719D01*
X142246147Y-113609784D01*
X142424349Y-113757730D01*
X142624322Y-113874584D01*
X142840694Y-113957209D01*
X142845760Y-113958240D01*
X142845761Y-113958240D01*
X142850401Y-113959184D01*
X143067656Y-114003385D01*
X143197089Y-114008131D01*
X143293949Y-114011683D01*
X143293953Y-114011683D01*
X143299113Y-114011872D01*
X143304233Y-114011216D01*
X143304235Y-114011216D01*
X143523719Y-113983099D01*
X143523720Y-113983099D01*
X143528847Y-113982442D01*
X143533798Y-113980957D01*
X143533801Y-113980956D01*
X143604985Y-113959600D01*
X143675980Y-113959184D01*
X143730287Y-113991191D01*
X145855304Y-116116209D01*
X145889330Y-116178521D01*
X145884265Y-116249337D01*
X145841718Y-116306172D01*
X145795319Y-116327320D01*
X145793834Y-116327474D01*
X145626054Y-116383450D01*
X145475652Y-116476522D01*
X145350695Y-116601697D01*
X145347898Y-116606235D01*
X145290647Y-116646824D01*
X145219724Y-116650054D01*
X145158313Y-116614428D01*
X145150938Y-116605932D01*
X145142902Y-116595793D01*
X145028171Y-116481261D01*
X145016760Y-116472249D01*
X144878757Y-116387184D01*
X144865576Y-116381037D01*
X144711290Y-116329862D01*
X144697914Y-116326995D01*
X144603562Y-116317328D01*
X144597145Y-116317000D01*
X144484615Y-116317000D01*
X144469376Y-116321475D01*
X144468171Y-116322865D01*
X144466500Y-116330548D01*
X144466500Y-117678000D01*
X144446498Y-117746121D01*
X144392842Y-117792614D01*
X144340500Y-117804000D01*
X143135116Y-117804000D01*
X143119877Y-117808475D01*
X143118672Y-117809865D01*
X143117001Y-117817548D01*
X143117001Y-118072095D01*
X143117338Y-118078614D01*
X143127257Y-118174206D01*
X143130149Y-118187600D01*
X143181588Y-118341784D01*
X143187761Y-118354962D01*
X143273063Y-118492807D01*
X143282099Y-118504208D01*
X143396829Y-118618739D01*
X143409652Y-118628866D01*
X143450715Y-118686783D01*
X143453947Y-118757706D01*
X143418321Y-118819118D01*
X143370705Y-118847513D01*
X143169256Y-118913357D01*
X143117856Y-118940114D01*
X142992509Y-119005366D01*
X142971107Y-119016507D01*
X142966974Y-119019610D01*
X142966971Y-119019612D01*
X142832751Y-119120387D01*
X142766266Y-119145293D01*
X142696870Y-119130300D01*
X142687096Y-119124392D01*
X142685395Y-119123255D01*
X142523978Y-119015399D01*
X142510902Y-119005366D01*
X142332622Y-118849019D01*
X142320981Y-118837378D01*
X142164634Y-118659098D01*
X142154601Y-118646023D01*
X142022865Y-118448866D01*
X142014624Y-118434592D01*
X141909750Y-118221928D01*
X141903443Y-118206701D01*
X141827226Y-117982173D01*
X141822960Y-117966254D01*
X141776699Y-117733687D01*
X141774548Y-117717346D01*
X141761732Y-117521816D01*
X141762478Y-117501706D01*
X141762147Y-117501680D01*
X141762452Y-117497723D01*
X141763001Y-117493813D01*
X141763299Y-117472500D01*
X141759285Y-117436713D01*
X141758500Y-117422669D01*
X141758500Y-117277885D01*
X143117000Y-117277885D01*
X143121475Y-117293124D01*
X143122865Y-117294329D01*
X143130548Y-117296000D01*
X143940385Y-117296000D01*
X143955624Y-117291525D01*
X143956829Y-117290135D01*
X143958500Y-117282452D01*
X143958500Y-116335116D01*
X143954025Y-116319877D01*
X143952635Y-116318672D01*
X143944952Y-116317001D01*
X143827905Y-116317001D01*
X143821386Y-116317338D01*
X143725794Y-116327257D01*
X143712400Y-116330149D01*
X143558216Y-116381588D01*
X143545038Y-116387761D01*
X143407193Y-116473063D01*
X143395792Y-116482099D01*
X143281261Y-116596829D01*
X143272249Y-116608240D01*
X143187184Y-116746243D01*
X143181037Y-116759424D01*
X143129862Y-116913710D01*
X143126995Y-116927086D01*
X143117328Y-117021438D01*
X143117000Y-117027855D01*
X143117000Y-117277885D01*
X141758500Y-117277885D01*
X141758500Y-113333178D01*
X141778502Y-113265057D01*
X141832158Y-113218564D01*
X141902432Y-113208460D01*
X141967012Y-113237954D01*
G37*
%TD.AperFunction*%
%TD*%
M02*
