%TF.GenerationSoftware,KiCad,Pcbnew,6.0.11+dfsg-1~bpo11+1*%
%TF.CreationDate,2023-12-01T17:46:37+08:00*%
%TF.ProjectId,MiniAttenuMix v0.3 - Front,4d696e69-4174-4746-956e-754d69782076,v0.3*%
%TF.SameCoordinates,Original*%
%TF.FileFunction,AssemblyDrawing,Top*%
%FSLAX46Y46*%
G04 Gerber Fmt 4.6, Leading zero omitted, Abs format (unit mm)*
G04 Created by KiCad (PCBNEW 6.0.11+dfsg-1~bpo11+1) date 2023-12-01 17:46:37*
%MOMM*%
%LPD*%
G01*
G04 APERTURE LIST*
%ADD10C,0.100000*%
%ADD11C,0.150000*%
%ADD12C,0.120000*%
G04 APERTURE END LIST*
D10*
X110000000Y-30000000D02*
X130000000Y-30000000D01*
X130000000Y-30000000D02*
X130000000Y-158500000D01*
X130000000Y-158500000D02*
X110000000Y-158500000D01*
X110000000Y-158500000D02*
X110000000Y-30000000D01*
D11*
%TO.C,REF\u002A\u002A*%
X113366666Y-69252380D02*
X113033333Y-68776190D01*
X112795238Y-69252380D02*
X112795238Y-68252380D01*
X113176190Y-68252380D01*
X113271428Y-68300000D01*
X113319047Y-68347619D01*
X113366666Y-68442857D01*
X113366666Y-68585714D01*
X113319047Y-68680952D01*
X113271428Y-68728571D01*
X113176190Y-68776190D01*
X112795238Y-68776190D01*
X113795238Y-68728571D02*
X114128571Y-68728571D01*
X114271428Y-69252380D02*
X113795238Y-69252380D01*
X113795238Y-68252380D01*
X114271428Y-68252380D01*
X115033333Y-68728571D02*
X114700000Y-68728571D01*
X114700000Y-69252380D02*
X114700000Y-68252380D01*
X115176190Y-68252380D01*
X115700000Y-68252380D02*
X115700000Y-68490476D01*
X115461904Y-68395238D02*
X115700000Y-68490476D01*
X115938095Y-68395238D01*
X115557142Y-68680952D02*
X115700000Y-68490476D01*
X115842857Y-68680952D01*
X116461904Y-68252380D02*
X116461904Y-68490476D01*
X116223809Y-68395238D02*
X116461904Y-68490476D01*
X116700000Y-68395238D01*
X116319047Y-68680952D02*
X116461904Y-68490476D01*
X116604761Y-68680952D01*
X104200000Y-82752380D02*
X104200000Y-81752380D01*
X104580952Y-81752380D01*
X104676190Y-81800000D01*
X104723809Y-81847619D01*
X104771428Y-81942857D01*
X104771428Y-82085714D01*
X104723809Y-82180952D01*
X104676190Y-82228571D01*
X104580952Y-82276190D01*
X104200000Y-82276190D01*
X105628571Y-82752380D02*
X105628571Y-82228571D01*
X105580952Y-82133333D01*
X105485714Y-82085714D01*
X105295238Y-82085714D01*
X105200000Y-82133333D01*
X105628571Y-82704761D02*
X105533333Y-82752380D01*
X105295238Y-82752380D01*
X105200000Y-82704761D01*
X105152380Y-82609523D01*
X105152380Y-82514285D01*
X105200000Y-82419047D01*
X105295238Y-82371428D01*
X105533333Y-82371428D01*
X105628571Y-82323809D01*
X106104761Y-82085714D02*
X106104761Y-82752380D01*
X106104761Y-82180952D02*
X106152380Y-82133333D01*
X106247619Y-82085714D01*
X106390476Y-82085714D01*
X106485714Y-82133333D01*
X106533333Y-82228571D01*
X106533333Y-82752380D01*
X107390476Y-82704761D02*
X107295238Y-82752380D01*
X107104761Y-82752380D01*
X107009523Y-82704761D01*
X106961904Y-82609523D01*
X106961904Y-82228571D01*
X107009523Y-82133333D01*
X107104761Y-82085714D01*
X107295238Y-82085714D01*
X107390476Y-82133333D01*
X107438095Y-82228571D01*
X107438095Y-82323809D01*
X106961904Y-82419047D01*
X108009523Y-82752380D02*
X107914285Y-82704761D01*
X107866666Y-82609523D01*
X107866666Y-81752380D01*
X108390476Y-82752380D02*
X108390476Y-81752380D01*
X108390476Y-82228571D02*
X108961904Y-82228571D01*
X108961904Y-82752380D02*
X108961904Y-81752380D01*
X109580952Y-82752380D02*
X109485714Y-82704761D01*
X109438095Y-82657142D01*
X109390476Y-82561904D01*
X109390476Y-82276190D01*
X109438095Y-82180952D01*
X109485714Y-82133333D01*
X109580952Y-82085714D01*
X109723809Y-82085714D01*
X109819047Y-82133333D01*
X109866666Y-82180952D01*
X109914285Y-82276190D01*
X109914285Y-82561904D01*
X109866666Y-82657142D01*
X109819047Y-82704761D01*
X109723809Y-82752380D01*
X109580952Y-82752380D01*
X110485714Y-82752380D02*
X110390476Y-82704761D01*
X110342857Y-82609523D01*
X110342857Y-81752380D01*
X111247619Y-82704761D02*
X111152380Y-82752380D01*
X110961904Y-82752380D01*
X110866666Y-82704761D01*
X110819047Y-82609523D01*
X110819047Y-82228571D01*
X110866666Y-82133333D01*
X110961904Y-82085714D01*
X111152380Y-82085714D01*
X111247619Y-82133333D01*
X111295238Y-82228571D01*
X111295238Y-82323809D01*
X110819047Y-82419047D01*
X111485714Y-82847619D02*
X112247619Y-82847619D01*
X112438095Y-82466666D02*
X112914285Y-82466666D01*
X112342857Y-82752380D02*
X112676190Y-81752380D01*
X113009523Y-82752380D01*
X113771428Y-82085714D02*
X113771428Y-82752380D01*
X113342857Y-82085714D02*
X113342857Y-82609523D01*
X113390476Y-82704761D01*
X113485714Y-82752380D01*
X113628571Y-82752380D01*
X113723809Y-82704761D01*
X113771428Y-82657142D01*
X114676190Y-82752380D02*
X114676190Y-81752380D01*
X114676190Y-82704761D02*
X114580952Y-82752380D01*
X114390476Y-82752380D01*
X114295238Y-82704761D01*
X114247619Y-82657142D01*
X114200000Y-82561904D01*
X114200000Y-82276190D01*
X114247619Y-82180952D01*
X114295238Y-82133333D01*
X114390476Y-82085714D01*
X114580952Y-82085714D01*
X114676190Y-82133333D01*
X115152380Y-82752380D02*
X115152380Y-82085714D01*
X115152380Y-81752380D02*
X115104761Y-81800000D01*
X115152380Y-81847619D01*
X115200000Y-81800000D01*
X115152380Y-81752380D01*
X115152380Y-81847619D01*
X115771428Y-82752380D02*
X115676190Y-82704761D01*
X115628571Y-82657142D01*
X115580952Y-82561904D01*
X115580952Y-82276190D01*
X115628571Y-82180952D01*
X115676190Y-82133333D01*
X115771428Y-82085714D01*
X115914285Y-82085714D01*
X116009523Y-82133333D01*
X116057142Y-82180952D01*
X116104761Y-82276190D01*
X116104761Y-82561904D01*
X116057142Y-82657142D01*
X116009523Y-82704761D01*
X115914285Y-82752380D01*
X115771428Y-82752380D01*
X116819047Y-81752380D02*
X116819047Y-82466666D01*
X116771428Y-82609523D01*
X116676190Y-82704761D01*
X116533333Y-82752380D01*
X116438095Y-82752380D01*
X117723809Y-82752380D02*
X117723809Y-82228571D01*
X117676190Y-82133333D01*
X117580952Y-82085714D01*
X117390476Y-82085714D01*
X117295238Y-82133333D01*
X117723809Y-82704761D02*
X117628571Y-82752380D01*
X117390476Y-82752380D01*
X117295238Y-82704761D01*
X117247619Y-82609523D01*
X117247619Y-82514285D01*
X117295238Y-82419047D01*
X117390476Y-82371428D01*
X117628571Y-82371428D01*
X117723809Y-82323809D01*
X118628571Y-82704761D02*
X118533333Y-82752380D01*
X118342857Y-82752380D01*
X118247619Y-82704761D01*
X118200000Y-82657142D01*
X118152380Y-82561904D01*
X118152380Y-82276190D01*
X118200000Y-82180952D01*
X118247619Y-82133333D01*
X118342857Y-82085714D01*
X118533333Y-82085714D01*
X118628571Y-82133333D01*
X119057142Y-82752380D02*
X119057142Y-81752380D01*
X119152380Y-82371428D02*
X119438095Y-82752380D01*
X119438095Y-82085714D02*
X119057142Y-82466666D01*
X119628571Y-82847619D02*
X120390476Y-82847619D01*
X120533333Y-81752380D02*
X121152380Y-81752380D01*
X120819047Y-82133333D01*
X120961904Y-82133333D01*
X121057142Y-82180952D01*
X121104761Y-82228571D01*
X121152380Y-82323809D01*
X121152380Y-82561904D01*
X121104761Y-82657142D01*
X121057142Y-82704761D01*
X120961904Y-82752380D01*
X120676190Y-82752380D01*
X120580952Y-82704761D01*
X120533333Y-82657142D01*
X121580952Y-82657142D02*
X121628571Y-82704761D01*
X121580952Y-82752380D01*
X121533333Y-82704761D01*
X121580952Y-82657142D01*
X121580952Y-82752380D01*
X122533333Y-81752380D02*
X122057142Y-81752380D01*
X122009523Y-82228571D01*
X122057142Y-82180952D01*
X122152380Y-82133333D01*
X122390476Y-82133333D01*
X122485714Y-82180952D01*
X122533333Y-82228571D01*
X122580952Y-82323809D01*
X122580952Y-82561904D01*
X122533333Y-82657142D01*
X122485714Y-82704761D01*
X122390476Y-82752380D01*
X122152380Y-82752380D01*
X122057142Y-82704761D01*
X122009523Y-82657142D01*
X123009523Y-82752380D02*
X123009523Y-82085714D01*
X123009523Y-82180952D02*
X123057142Y-82133333D01*
X123152380Y-82085714D01*
X123295238Y-82085714D01*
X123390476Y-82133333D01*
X123438095Y-82228571D01*
X123438095Y-82752380D01*
X123438095Y-82228571D02*
X123485714Y-82133333D01*
X123580952Y-82085714D01*
X123723809Y-82085714D01*
X123819047Y-82133333D01*
X123866666Y-82228571D01*
X123866666Y-82752380D01*
X124342857Y-82752380D02*
X124342857Y-82085714D01*
X124342857Y-82180952D02*
X124390476Y-82133333D01*
X124485714Y-82085714D01*
X124628571Y-82085714D01*
X124723809Y-82133333D01*
X124771428Y-82228571D01*
X124771428Y-82752380D01*
X124771428Y-82228571D02*
X124819047Y-82133333D01*
X124914285Y-82085714D01*
X125057142Y-82085714D01*
X125152380Y-82133333D01*
X125200000Y-82228571D01*
X125200000Y-82752380D01*
X113666666Y-138452380D02*
X113333333Y-137976190D01*
X113095238Y-138452380D02*
X113095238Y-137452380D01*
X113476190Y-137452380D01*
X113571428Y-137500000D01*
X113619047Y-137547619D01*
X113666666Y-137642857D01*
X113666666Y-137785714D01*
X113619047Y-137880952D01*
X113571428Y-137928571D01*
X113476190Y-137976190D01*
X113095238Y-137976190D01*
X114095238Y-137928571D02*
X114428571Y-137928571D01*
X114571428Y-138452380D02*
X114095238Y-138452380D01*
X114095238Y-137452380D01*
X114571428Y-137452380D01*
X115333333Y-137928571D02*
X115000000Y-137928571D01*
X115000000Y-138452380D02*
X115000000Y-137452380D01*
X115476190Y-137452380D01*
X116000000Y-137452380D02*
X116000000Y-137690476D01*
X115761904Y-137595238D02*
X116000000Y-137690476D01*
X116238095Y-137595238D01*
X115857142Y-137880952D02*
X116000000Y-137690476D01*
X116142857Y-137880952D01*
X116761904Y-137452380D02*
X116761904Y-137690476D01*
X116523809Y-137595238D02*
X116761904Y-137690476D01*
X117000000Y-137595238D01*
X116619047Y-137880952D02*
X116761904Y-137690476D01*
X116904761Y-137880952D01*
X104500000Y-151952380D02*
X104500000Y-150952380D01*
X104880952Y-150952380D01*
X104976190Y-151000000D01*
X105023809Y-151047619D01*
X105071428Y-151142857D01*
X105071428Y-151285714D01*
X105023809Y-151380952D01*
X104976190Y-151428571D01*
X104880952Y-151476190D01*
X104500000Y-151476190D01*
X105928571Y-151952380D02*
X105928571Y-151428571D01*
X105880952Y-151333333D01*
X105785714Y-151285714D01*
X105595238Y-151285714D01*
X105500000Y-151333333D01*
X105928571Y-151904761D02*
X105833333Y-151952380D01*
X105595238Y-151952380D01*
X105500000Y-151904761D01*
X105452380Y-151809523D01*
X105452380Y-151714285D01*
X105500000Y-151619047D01*
X105595238Y-151571428D01*
X105833333Y-151571428D01*
X105928571Y-151523809D01*
X106404761Y-151285714D02*
X106404761Y-151952380D01*
X106404761Y-151380952D02*
X106452380Y-151333333D01*
X106547619Y-151285714D01*
X106690476Y-151285714D01*
X106785714Y-151333333D01*
X106833333Y-151428571D01*
X106833333Y-151952380D01*
X107690476Y-151904761D02*
X107595238Y-151952380D01*
X107404761Y-151952380D01*
X107309523Y-151904761D01*
X107261904Y-151809523D01*
X107261904Y-151428571D01*
X107309523Y-151333333D01*
X107404761Y-151285714D01*
X107595238Y-151285714D01*
X107690476Y-151333333D01*
X107738095Y-151428571D01*
X107738095Y-151523809D01*
X107261904Y-151619047D01*
X108309523Y-151952380D02*
X108214285Y-151904761D01*
X108166666Y-151809523D01*
X108166666Y-150952380D01*
X108690476Y-151952380D02*
X108690476Y-150952380D01*
X108690476Y-151428571D02*
X109261904Y-151428571D01*
X109261904Y-151952380D02*
X109261904Y-150952380D01*
X109880952Y-151952380D02*
X109785714Y-151904761D01*
X109738095Y-151857142D01*
X109690476Y-151761904D01*
X109690476Y-151476190D01*
X109738095Y-151380952D01*
X109785714Y-151333333D01*
X109880952Y-151285714D01*
X110023809Y-151285714D01*
X110119047Y-151333333D01*
X110166666Y-151380952D01*
X110214285Y-151476190D01*
X110214285Y-151761904D01*
X110166666Y-151857142D01*
X110119047Y-151904761D01*
X110023809Y-151952380D01*
X109880952Y-151952380D01*
X110785714Y-151952380D02*
X110690476Y-151904761D01*
X110642857Y-151809523D01*
X110642857Y-150952380D01*
X111547619Y-151904761D02*
X111452380Y-151952380D01*
X111261904Y-151952380D01*
X111166666Y-151904761D01*
X111119047Y-151809523D01*
X111119047Y-151428571D01*
X111166666Y-151333333D01*
X111261904Y-151285714D01*
X111452380Y-151285714D01*
X111547619Y-151333333D01*
X111595238Y-151428571D01*
X111595238Y-151523809D01*
X111119047Y-151619047D01*
X111785714Y-152047619D02*
X112547619Y-152047619D01*
X112738095Y-151666666D02*
X113214285Y-151666666D01*
X112642857Y-151952380D02*
X112976190Y-150952380D01*
X113309523Y-151952380D01*
X114071428Y-151285714D02*
X114071428Y-151952380D01*
X113642857Y-151285714D02*
X113642857Y-151809523D01*
X113690476Y-151904761D01*
X113785714Y-151952380D01*
X113928571Y-151952380D01*
X114023809Y-151904761D01*
X114071428Y-151857142D01*
X114976190Y-151952380D02*
X114976190Y-150952380D01*
X114976190Y-151904761D02*
X114880952Y-151952380D01*
X114690476Y-151952380D01*
X114595238Y-151904761D01*
X114547619Y-151857142D01*
X114500000Y-151761904D01*
X114500000Y-151476190D01*
X114547619Y-151380952D01*
X114595238Y-151333333D01*
X114690476Y-151285714D01*
X114880952Y-151285714D01*
X114976190Y-151333333D01*
X115452380Y-151952380D02*
X115452380Y-151285714D01*
X115452380Y-150952380D02*
X115404761Y-151000000D01*
X115452380Y-151047619D01*
X115500000Y-151000000D01*
X115452380Y-150952380D01*
X115452380Y-151047619D01*
X116071428Y-151952380D02*
X115976190Y-151904761D01*
X115928571Y-151857142D01*
X115880952Y-151761904D01*
X115880952Y-151476190D01*
X115928571Y-151380952D01*
X115976190Y-151333333D01*
X116071428Y-151285714D01*
X116214285Y-151285714D01*
X116309523Y-151333333D01*
X116357142Y-151380952D01*
X116404761Y-151476190D01*
X116404761Y-151761904D01*
X116357142Y-151857142D01*
X116309523Y-151904761D01*
X116214285Y-151952380D01*
X116071428Y-151952380D01*
X117119047Y-150952380D02*
X117119047Y-151666666D01*
X117071428Y-151809523D01*
X116976190Y-151904761D01*
X116833333Y-151952380D01*
X116738095Y-151952380D01*
X118023809Y-151952380D02*
X118023809Y-151428571D01*
X117976190Y-151333333D01*
X117880952Y-151285714D01*
X117690476Y-151285714D01*
X117595238Y-151333333D01*
X118023809Y-151904761D02*
X117928571Y-151952380D01*
X117690476Y-151952380D01*
X117595238Y-151904761D01*
X117547619Y-151809523D01*
X117547619Y-151714285D01*
X117595238Y-151619047D01*
X117690476Y-151571428D01*
X117928571Y-151571428D01*
X118023809Y-151523809D01*
X118928571Y-151904761D02*
X118833333Y-151952380D01*
X118642857Y-151952380D01*
X118547619Y-151904761D01*
X118500000Y-151857142D01*
X118452380Y-151761904D01*
X118452380Y-151476190D01*
X118500000Y-151380952D01*
X118547619Y-151333333D01*
X118642857Y-151285714D01*
X118833333Y-151285714D01*
X118928571Y-151333333D01*
X119357142Y-151952380D02*
X119357142Y-150952380D01*
X119452380Y-151571428D02*
X119738095Y-151952380D01*
X119738095Y-151285714D02*
X119357142Y-151666666D01*
X119928571Y-152047619D02*
X120690476Y-152047619D01*
X120833333Y-150952380D02*
X121452380Y-150952380D01*
X121119047Y-151333333D01*
X121261904Y-151333333D01*
X121357142Y-151380952D01*
X121404761Y-151428571D01*
X121452380Y-151523809D01*
X121452380Y-151761904D01*
X121404761Y-151857142D01*
X121357142Y-151904761D01*
X121261904Y-151952380D01*
X120976190Y-151952380D01*
X120880952Y-151904761D01*
X120833333Y-151857142D01*
X121880952Y-151857142D02*
X121928571Y-151904761D01*
X121880952Y-151952380D01*
X121833333Y-151904761D01*
X121880952Y-151857142D01*
X121880952Y-151952380D01*
X122833333Y-150952380D02*
X122357142Y-150952380D01*
X122309523Y-151428571D01*
X122357142Y-151380952D01*
X122452380Y-151333333D01*
X122690476Y-151333333D01*
X122785714Y-151380952D01*
X122833333Y-151428571D01*
X122880952Y-151523809D01*
X122880952Y-151761904D01*
X122833333Y-151857142D01*
X122785714Y-151904761D01*
X122690476Y-151952380D01*
X122452380Y-151952380D01*
X122357142Y-151904761D01*
X122309523Y-151857142D01*
X123309523Y-151952380D02*
X123309523Y-151285714D01*
X123309523Y-151380952D02*
X123357142Y-151333333D01*
X123452380Y-151285714D01*
X123595238Y-151285714D01*
X123690476Y-151333333D01*
X123738095Y-151428571D01*
X123738095Y-151952380D01*
X123738095Y-151428571D02*
X123785714Y-151333333D01*
X123880952Y-151285714D01*
X124023809Y-151285714D01*
X124119047Y-151333333D01*
X124166666Y-151428571D01*
X124166666Y-151952380D01*
X124642857Y-151952380D02*
X124642857Y-151285714D01*
X124642857Y-151380952D02*
X124690476Y-151333333D01*
X124785714Y-151285714D01*
X124928571Y-151285714D01*
X125023809Y-151333333D01*
X125071428Y-151428571D01*
X125071428Y-151952380D01*
X125071428Y-151428571D02*
X125119047Y-151333333D01*
X125214285Y-151285714D01*
X125357142Y-151285714D01*
X125452380Y-151333333D01*
X125500000Y-151428571D01*
X125500000Y-151952380D01*
X125692380Y-114313333D02*
X125216190Y-114646666D01*
X125692380Y-114884761D02*
X124692380Y-114884761D01*
X124692380Y-114503809D01*
X124740000Y-114408571D01*
X124787619Y-114360952D01*
X124882857Y-114313333D01*
X125025714Y-114313333D01*
X125120952Y-114360952D01*
X125168571Y-114408571D01*
X125216190Y-114503809D01*
X125216190Y-114884761D01*
X125168571Y-113884761D02*
X125168571Y-113551428D01*
X125692380Y-113408571D02*
X125692380Y-113884761D01*
X124692380Y-113884761D01*
X124692380Y-113408571D01*
X125168571Y-112646666D02*
X125168571Y-112980000D01*
X125692380Y-112980000D02*
X124692380Y-112980000D01*
X124692380Y-112503809D01*
X124692380Y-111980000D02*
X124930476Y-111980000D01*
X124835238Y-112218095D02*
X124930476Y-111980000D01*
X124835238Y-111741904D01*
X125120952Y-112122857D02*
X124930476Y-111980000D01*
X125120952Y-111837142D01*
X124692380Y-111218095D02*
X124930476Y-111218095D01*
X124835238Y-111456190D02*
X124930476Y-111218095D01*
X124835238Y-110980000D01*
X125120952Y-111360952D02*
X124930476Y-111218095D01*
X125120952Y-111075238D01*
X125692380Y-61255833D02*
X125216190Y-61589166D01*
X125692380Y-61827261D02*
X124692380Y-61827261D01*
X124692380Y-61446309D01*
X124740000Y-61351071D01*
X124787619Y-61303452D01*
X124882857Y-61255833D01*
X125025714Y-61255833D01*
X125120952Y-61303452D01*
X125168571Y-61351071D01*
X125216190Y-61446309D01*
X125216190Y-61827261D01*
X125168571Y-60827261D02*
X125168571Y-60493928D01*
X125692380Y-60351071D02*
X125692380Y-60827261D01*
X124692380Y-60827261D01*
X124692380Y-60351071D01*
X125168571Y-59589166D02*
X125168571Y-59922500D01*
X125692380Y-59922500D02*
X124692380Y-59922500D01*
X124692380Y-59446309D01*
X124692380Y-58922500D02*
X124930476Y-58922500D01*
X124835238Y-59160595D02*
X124930476Y-58922500D01*
X124835238Y-58684404D01*
X125120952Y-59065357D02*
X124930476Y-58922500D01*
X125120952Y-58779642D01*
X124692380Y-58160595D02*
X124930476Y-58160595D01*
X124835238Y-58398690D02*
X124930476Y-58160595D01*
X124835238Y-57922500D01*
X125120952Y-58303452D02*
X124930476Y-58160595D01*
X125120952Y-58017738D01*
X113366666Y-40352380D02*
X113033333Y-39876190D01*
X112795238Y-40352380D02*
X112795238Y-39352380D01*
X113176190Y-39352380D01*
X113271428Y-39400000D01*
X113319047Y-39447619D01*
X113366666Y-39542857D01*
X113366666Y-39685714D01*
X113319047Y-39780952D01*
X113271428Y-39828571D01*
X113176190Y-39876190D01*
X112795238Y-39876190D01*
X113795238Y-39828571D02*
X114128571Y-39828571D01*
X114271428Y-40352380D02*
X113795238Y-40352380D01*
X113795238Y-39352380D01*
X114271428Y-39352380D01*
X115033333Y-39828571D02*
X114700000Y-39828571D01*
X114700000Y-40352380D02*
X114700000Y-39352380D01*
X115176190Y-39352380D01*
X115700000Y-39352380D02*
X115700000Y-39590476D01*
X115461904Y-39495238D02*
X115700000Y-39590476D01*
X115938095Y-39495238D01*
X115557142Y-39780952D02*
X115700000Y-39590476D01*
X115842857Y-39780952D01*
X116461904Y-39352380D02*
X116461904Y-39590476D01*
X116223809Y-39495238D02*
X116461904Y-39590476D01*
X116700000Y-39495238D01*
X116319047Y-39780952D02*
X116461904Y-39590476D01*
X116604761Y-39780952D01*
X104200000Y-53952380D02*
X104200000Y-52952380D01*
X104580952Y-52952380D01*
X104676190Y-53000000D01*
X104723809Y-53047619D01*
X104771428Y-53142857D01*
X104771428Y-53285714D01*
X104723809Y-53380952D01*
X104676190Y-53428571D01*
X104580952Y-53476190D01*
X104200000Y-53476190D01*
X105628571Y-53952380D02*
X105628571Y-53428571D01*
X105580952Y-53333333D01*
X105485714Y-53285714D01*
X105295238Y-53285714D01*
X105200000Y-53333333D01*
X105628571Y-53904761D02*
X105533333Y-53952380D01*
X105295238Y-53952380D01*
X105200000Y-53904761D01*
X105152380Y-53809523D01*
X105152380Y-53714285D01*
X105200000Y-53619047D01*
X105295238Y-53571428D01*
X105533333Y-53571428D01*
X105628571Y-53523809D01*
X106104761Y-53285714D02*
X106104761Y-53952380D01*
X106104761Y-53380952D02*
X106152380Y-53333333D01*
X106247619Y-53285714D01*
X106390476Y-53285714D01*
X106485714Y-53333333D01*
X106533333Y-53428571D01*
X106533333Y-53952380D01*
X107390476Y-53904761D02*
X107295238Y-53952380D01*
X107104761Y-53952380D01*
X107009523Y-53904761D01*
X106961904Y-53809523D01*
X106961904Y-53428571D01*
X107009523Y-53333333D01*
X107104761Y-53285714D01*
X107295238Y-53285714D01*
X107390476Y-53333333D01*
X107438095Y-53428571D01*
X107438095Y-53523809D01*
X106961904Y-53619047D01*
X108009523Y-53952380D02*
X107914285Y-53904761D01*
X107866666Y-53809523D01*
X107866666Y-52952380D01*
X108390476Y-53952380D02*
X108390476Y-52952380D01*
X108390476Y-53428571D02*
X108961904Y-53428571D01*
X108961904Y-53952380D02*
X108961904Y-52952380D01*
X109580952Y-53952380D02*
X109485714Y-53904761D01*
X109438095Y-53857142D01*
X109390476Y-53761904D01*
X109390476Y-53476190D01*
X109438095Y-53380952D01*
X109485714Y-53333333D01*
X109580952Y-53285714D01*
X109723809Y-53285714D01*
X109819047Y-53333333D01*
X109866666Y-53380952D01*
X109914285Y-53476190D01*
X109914285Y-53761904D01*
X109866666Y-53857142D01*
X109819047Y-53904761D01*
X109723809Y-53952380D01*
X109580952Y-53952380D01*
X110485714Y-53952380D02*
X110390476Y-53904761D01*
X110342857Y-53809523D01*
X110342857Y-52952380D01*
X111247619Y-53904761D02*
X111152380Y-53952380D01*
X110961904Y-53952380D01*
X110866666Y-53904761D01*
X110819047Y-53809523D01*
X110819047Y-53428571D01*
X110866666Y-53333333D01*
X110961904Y-53285714D01*
X111152380Y-53285714D01*
X111247619Y-53333333D01*
X111295238Y-53428571D01*
X111295238Y-53523809D01*
X110819047Y-53619047D01*
X111485714Y-54047619D02*
X112247619Y-54047619D01*
X112438095Y-53666666D02*
X112914285Y-53666666D01*
X112342857Y-53952380D02*
X112676190Y-52952380D01*
X113009523Y-53952380D01*
X113771428Y-53285714D02*
X113771428Y-53952380D01*
X113342857Y-53285714D02*
X113342857Y-53809523D01*
X113390476Y-53904761D01*
X113485714Y-53952380D01*
X113628571Y-53952380D01*
X113723809Y-53904761D01*
X113771428Y-53857142D01*
X114676190Y-53952380D02*
X114676190Y-52952380D01*
X114676190Y-53904761D02*
X114580952Y-53952380D01*
X114390476Y-53952380D01*
X114295238Y-53904761D01*
X114247619Y-53857142D01*
X114200000Y-53761904D01*
X114200000Y-53476190D01*
X114247619Y-53380952D01*
X114295238Y-53333333D01*
X114390476Y-53285714D01*
X114580952Y-53285714D01*
X114676190Y-53333333D01*
X115152380Y-53952380D02*
X115152380Y-53285714D01*
X115152380Y-52952380D02*
X115104761Y-53000000D01*
X115152380Y-53047619D01*
X115200000Y-53000000D01*
X115152380Y-52952380D01*
X115152380Y-53047619D01*
X115771428Y-53952380D02*
X115676190Y-53904761D01*
X115628571Y-53857142D01*
X115580952Y-53761904D01*
X115580952Y-53476190D01*
X115628571Y-53380952D01*
X115676190Y-53333333D01*
X115771428Y-53285714D01*
X115914285Y-53285714D01*
X116009523Y-53333333D01*
X116057142Y-53380952D01*
X116104761Y-53476190D01*
X116104761Y-53761904D01*
X116057142Y-53857142D01*
X116009523Y-53904761D01*
X115914285Y-53952380D01*
X115771428Y-53952380D01*
X116819047Y-52952380D02*
X116819047Y-53666666D01*
X116771428Y-53809523D01*
X116676190Y-53904761D01*
X116533333Y-53952380D01*
X116438095Y-53952380D01*
X117723809Y-53952380D02*
X117723809Y-53428571D01*
X117676190Y-53333333D01*
X117580952Y-53285714D01*
X117390476Y-53285714D01*
X117295238Y-53333333D01*
X117723809Y-53904761D02*
X117628571Y-53952380D01*
X117390476Y-53952380D01*
X117295238Y-53904761D01*
X117247619Y-53809523D01*
X117247619Y-53714285D01*
X117295238Y-53619047D01*
X117390476Y-53571428D01*
X117628571Y-53571428D01*
X117723809Y-53523809D01*
X118628571Y-53904761D02*
X118533333Y-53952380D01*
X118342857Y-53952380D01*
X118247619Y-53904761D01*
X118200000Y-53857142D01*
X118152380Y-53761904D01*
X118152380Y-53476190D01*
X118200000Y-53380952D01*
X118247619Y-53333333D01*
X118342857Y-53285714D01*
X118533333Y-53285714D01*
X118628571Y-53333333D01*
X119057142Y-53952380D02*
X119057142Y-52952380D01*
X119152380Y-53571428D02*
X119438095Y-53952380D01*
X119438095Y-53285714D02*
X119057142Y-53666666D01*
X119628571Y-54047619D02*
X120390476Y-54047619D01*
X120533333Y-52952380D02*
X121152380Y-52952380D01*
X120819047Y-53333333D01*
X120961904Y-53333333D01*
X121057142Y-53380952D01*
X121104761Y-53428571D01*
X121152380Y-53523809D01*
X121152380Y-53761904D01*
X121104761Y-53857142D01*
X121057142Y-53904761D01*
X120961904Y-53952380D01*
X120676190Y-53952380D01*
X120580952Y-53904761D01*
X120533333Y-53857142D01*
X121580952Y-53857142D02*
X121628571Y-53904761D01*
X121580952Y-53952380D01*
X121533333Y-53904761D01*
X121580952Y-53857142D01*
X121580952Y-53952380D01*
X122533333Y-52952380D02*
X122057142Y-52952380D01*
X122009523Y-53428571D01*
X122057142Y-53380952D01*
X122152380Y-53333333D01*
X122390476Y-53333333D01*
X122485714Y-53380952D01*
X122533333Y-53428571D01*
X122580952Y-53523809D01*
X122580952Y-53761904D01*
X122533333Y-53857142D01*
X122485714Y-53904761D01*
X122390476Y-53952380D01*
X122152380Y-53952380D01*
X122057142Y-53904761D01*
X122009523Y-53857142D01*
X123009523Y-53952380D02*
X123009523Y-53285714D01*
X123009523Y-53380952D02*
X123057142Y-53333333D01*
X123152380Y-53285714D01*
X123295238Y-53285714D01*
X123390476Y-53333333D01*
X123438095Y-53428571D01*
X123438095Y-53952380D01*
X123438095Y-53428571D02*
X123485714Y-53333333D01*
X123580952Y-53285714D01*
X123723809Y-53285714D01*
X123819047Y-53333333D01*
X123866666Y-53428571D01*
X123866666Y-53952380D01*
X124342857Y-53952380D02*
X124342857Y-53285714D01*
X124342857Y-53380952D02*
X124390476Y-53333333D01*
X124485714Y-53285714D01*
X124628571Y-53285714D01*
X124723809Y-53333333D01*
X124771428Y-53428571D01*
X124771428Y-53952380D01*
X124771428Y-53428571D02*
X124819047Y-53333333D01*
X124914285Y-53285714D01*
X125057142Y-53285714D01*
X125152380Y-53333333D01*
X125200000Y-53428571D01*
X125200000Y-53952380D01*
X125692380Y-96813333D02*
X125216190Y-97146666D01*
X125692380Y-97384761D02*
X124692380Y-97384761D01*
X124692380Y-97003809D01*
X124740000Y-96908571D01*
X124787619Y-96860952D01*
X124882857Y-96813333D01*
X125025714Y-96813333D01*
X125120952Y-96860952D01*
X125168571Y-96908571D01*
X125216190Y-97003809D01*
X125216190Y-97384761D01*
X125168571Y-96384761D02*
X125168571Y-96051428D01*
X125692380Y-95908571D02*
X125692380Y-96384761D01*
X124692380Y-96384761D01*
X124692380Y-95908571D01*
X125168571Y-95146666D02*
X125168571Y-95480000D01*
X125692380Y-95480000D02*
X124692380Y-95480000D01*
X124692380Y-95003809D01*
X124692380Y-94480000D02*
X124930476Y-94480000D01*
X124835238Y-94718095D02*
X124930476Y-94480000D01*
X124835238Y-94241904D01*
X125120952Y-94622857D02*
X124930476Y-94480000D01*
X125120952Y-94337142D01*
X124692380Y-93718095D02*
X124930476Y-93718095D01*
X124835238Y-93956190D02*
X124930476Y-93718095D01*
X124835238Y-93480000D01*
X125120952Y-93860952D02*
X124930476Y-93718095D01*
X125120952Y-93575238D01*
X110261904Y-29452380D02*
X110261904Y-28452380D01*
X110642857Y-28452380D01*
X110738095Y-28500000D01*
X110785714Y-28547619D01*
X110833333Y-28642857D01*
X110833333Y-28785714D01*
X110785714Y-28880952D01*
X110738095Y-28928571D01*
X110642857Y-28976190D01*
X110261904Y-28976190D01*
X111690476Y-29452380D02*
X111690476Y-28928571D01*
X111642857Y-28833333D01*
X111547619Y-28785714D01*
X111357142Y-28785714D01*
X111261904Y-28833333D01*
X111690476Y-29404761D02*
X111595238Y-29452380D01*
X111357142Y-29452380D01*
X111261904Y-29404761D01*
X111214285Y-29309523D01*
X111214285Y-29214285D01*
X111261904Y-29119047D01*
X111357142Y-29071428D01*
X111595238Y-29071428D01*
X111690476Y-29023809D01*
X112166666Y-28785714D02*
X112166666Y-29452380D01*
X112166666Y-28880952D02*
X112214285Y-28833333D01*
X112309523Y-28785714D01*
X112452380Y-28785714D01*
X112547619Y-28833333D01*
X112595238Y-28928571D01*
X112595238Y-29452380D01*
X113452380Y-29404761D02*
X113357142Y-29452380D01*
X113166666Y-29452380D01*
X113071428Y-29404761D01*
X113023809Y-29309523D01*
X113023809Y-28928571D01*
X113071428Y-28833333D01*
X113166666Y-28785714D01*
X113357142Y-28785714D01*
X113452380Y-28833333D01*
X113500000Y-28928571D01*
X113500000Y-29023809D01*
X113023809Y-29119047D01*
X114071428Y-29452380D02*
X113976190Y-29404761D01*
X113928571Y-29309523D01*
X113928571Y-28452380D01*
X114214285Y-29547619D02*
X114976190Y-29547619D01*
X115642857Y-28785714D02*
X115642857Y-29452380D01*
X115404761Y-28404761D02*
X115166666Y-29119047D01*
X115785714Y-29119047D01*
X116166666Y-29452380D02*
X116166666Y-28452380D01*
X116166666Y-28928571D02*
X116738095Y-28928571D01*
X116738095Y-29452380D02*
X116738095Y-28452380D01*
X117214285Y-29452380D02*
X117214285Y-28452380D01*
X117595238Y-28452380D01*
X117690476Y-28500000D01*
X117738095Y-28547619D01*
X117785714Y-28642857D01*
X117785714Y-28785714D01*
X117738095Y-28880952D01*
X117690476Y-28928571D01*
X117595238Y-28976190D01*
X117214285Y-28976190D01*
X113366666Y-54852380D02*
X113033333Y-54376190D01*
X112795238Y-54852380D02*
X112795238Y-53852380D01*
X113176190Y-53852380D01*
X113271428Y-53900000D01*
X113319047Y-53947619D01*
X113366666Y-54042857D01*
X113366666Y-54185714D01*
X113319047Y-54280952D01*
X113271428Y-54328571D01*
X113176190Y-54376190D01*
X112795238Y-54376190D01*
X113795238Y-54328571D02*
X114128571Y-54328571D01*
X114271428Y-54852380D02*
X113795238Y-54852380D01*
X113795238Y-53852380D01*
X114271428Y-53852380D01*
X115033333Y-54328571D02*
X114700000Y-54328571D01*
X114700000Y-54852380D02*
X114700000Y-53852380D01*
X115176190Y-53852380D01*
X115700000Y-53852380D02*
X115700000Y-54090476D01*
X115461904Y-53995238D02*
X115700000Y-54090476D01*
X115938095Y-53995238D01*
X115557142Y-54280952D02*
X115700000Y-54090476D01*
X115842857Y-54280952D01*
X116461904Y-53852380D02*
X116461904Y-54090476D01*
X116223809Y-53995238D02*
X116461904Y-54090476D01*
X116700000Y-53995238D01*
X116319047Y-54280952D02*
X116461904Y-54090476D01*
X116604761Y-54280952D01*
X104200000Y-68352380D02*
X104200000Y-67352380D01*
X104580952Y-67352380D01*
X104676190Y-67400000D01*
X104723809Y-67447619D01*
X104771428Y-67542857D01*
X104771428Y-67685714D01*
X104723809Y-67780952D01*
X104676190Y-67828571D01*
X104580952Y-67876190D01*
X104200000Y-67876190D01*
X105628571Y-68352380D02*
X105628571Y-67828571D01*
X105580952Y-67733333D01*
X105485714Y-67685714D01*
X105295238Y-67685714D01*
X105200000Y-67733333D01*
X105628571Y-68304761D02*
X105533333Y-68352380D01*
X105295238Y-68352380D01*
X105200000Y-68304761D01*
X105152380Y-68209523D01*
X105152380Y-68114285D01*
X105200000Y-68019047D01*
X105295238Y-67971428D01*
X105533333Y-67971428D01*
X105628571Y-67923809D01*
X106104761Y-67685714D02*
X106104761Y-68352380D01*
X106104761Y-67780952D02*
X106152380Y-67733333D01*
X106247619Y-67685714D01*
X106390476Y-67685714D01*
X106485714Y-67733333D01*
X106533333Y-67828571D01*
X106533333Y-68352380D01*
X107390476Y-68304761D02*
X107295238Y-68352380D01*
X107104761Y-68352380D01*
X107009523Y-68304761D01*
X106961904Y-68209523D01*
X106961904Y-67828571D01*
X107009523Y-67733333D01*
X107104761Y-67685714D01*
X107295238Y-67685714D01*
X107390476Y-67733333D01*
X107438095Y-67828571D01*
X107438095Y-67923809D01*
X106961904Y-68019047D01*
X108009523Y-68352380D02*
X107914285Y-68304761D01*
X107866666Y-68209523D01*
X107866666Y-67352380D01*
X108390476Y-68352380D02*
X108390476Y-67352380D01*
X108390476Y-67828571D02*
X108961904Y-67828571D01*
X108961904Y-68352380D02*
X108961904Y-67352380D01*
X109580952Y-68352380D02*
X109485714Y-68304761D01*
X109438095Y-68257142D01*
X109390476Y-68161904D01*
X109390476Y-67876190D01*
X109438095Y-67780952D01*
X109485714Y-67733333D01*
X109580952Y-67685714D01*
X109723809Y-67685714D01*
X109819047Y-67733333D01*
X109866666Y-67780952D01*
X109914285Y-67876190D01*
X109914285Y-68161904D01*
X109866666Y-68257142D01*
X109819047Y-68304761D01*
X109723809Y-68352380D01*
X109580952Y-68352380D01*
X110485714Y-68352380D02*
X110390476Y-68304761D01*
X110342857Y-68209523D01*
X110342857Y-67352380D01*
X111247619Y-68304761D02*
X111152380Y-68352380D01*
X110961904Y-68352380D01*
X110866666Y-68304761D01*
X110819047Y-68209523D01*
X110819047Y-67828571D01*
X110866666Y-67733333D01*
X110961904Y-67685714D01*
X111152380Y-67685714D01*
X111247619Y-67733333D01*
X111295238Y-67828571D01*
X111295238Y-67923809D01*
X110819047Y-68019047D01*
X111485714Y-68447619D02*
X112247619Y-68447619D01*
X112438095Y-68066666D02*
X112914285Y-68066666D01*
X112342857Y-68352380D02*
X112676190Y-67352380D01*
X113009523Y-68352380D01*
X113771428Y-67685714D02*
X113771428Y-68352380D01*
X113342857Y-67685714D02*
X113342857Y-68209523D01*
X113390476Y-68304761D01*
X113485714Y-68352380D01*
X113628571Y-68352380D01*
X113723809Y-68304761D01*
X113771428Y-68257142D01*
X114676190Y-68352380D02*
X114676190Y-67352380D01*
X114676190Y-68304761D02*
X114580952Y-68352380D01*
X114390476Y-68352380D01*
X114295238Y-68304761D01*
X114247619Y-68257142D01*
X114200000Y-68161904D01*
X114200000Y-67876190D01*
X114247619Y-67780952D01*
X114295238Y-67733333D01*
X114390476Y-67685714D01*
X114580952Y-67685714D01*
X114676190Y-67733333D01*
X115152380Y-68352380D02*
X115152380Y-67685714D01*
X115152380Y-67352380D02*
X115104761Y-67400000D01*
X115152380Y-67447619D01*
X115200000Y-67400000D01*
X115152380Y-67352380D01*
X115152380Y-67447619D01*
X115771428Y-68352380D02*
X115676190Y-68304761D01*
X115628571Y-68257142D01*
X115580952Y-68161904D01*
X115580952Y-67876190D01*
X115628571Y-67780952D01*
X115676190Y-67733333D01*
X115771428Y-67685714D01*
X115914285Y-67685714D01*
X116009523Y-67733333D01*
X116057142Y-67780952D01*
X116104761Y-67876190D01*
X116104761Y-68161904D01*
X116057142Y-68257142D01*
X116009523Y-68304761D01*
X115914285Y-68352380D01*
X115771428Y-68352380D01*
X116819047Y-67352380D02*
X116819047Y-68066666D01*
X116771428Y-68209523D01*
X116676190Y-68304761D01*
X116533333Y-68352380D01*
X116438095Y-68352380D01*
X117723809Y-68352380D02*
X117723809Y-67828571D01*
X117676190Y-67733333D01*
X117580952Y-67685714D01*
X117390476Y-67685714D01*
X117295238Y-67733333D01*
X117723809Y-68304761D02*
X117628571Y-68352380D01*
X117390476Y-68352380D01*
X117295238Y-68304761D01*
X117247619Y-68209523D01*
X117247619Y-68114285D01*
X117295238Y-68019047D01*
X117390476Y-67971428D01*
X117628571Y-67971428D01*
X117723809Y-67923809D01*
X118628571Y-68304761D02*
X118533333Y-68352380D01*
X118342857Y-68352380D01*
X118247619Y-68304761D01*
X118200000Y-68257142D01*
X118152380Y-68161904D01*
X118152380Y-67876190D01*
X118200000Y-67780952D01*
X118247619Y-67733333D01*
X118342857Y-67685714D01*
X118533333Y-67685714D01*
X118628571Y-67733333D01*
X119057142Y-68352380D02*
X119057142Y-67352380D01*
X119152380Y-67971428D02*
X119438095Y-68352380D01*
X119438095Y-67685714D02*
X119057142Y-68066666D01*
X119628571Y-68447619D02*
X120390476Y-68447619D01*
X120533333Y-67352380D02*
X121152380Y-67352380D01*
X120819047Y-67733333D01*
X120961904Y-67733333D01*
X121057142Y-67780952D01*
X121104761Y-67828571D01*
X121152380Y-67923809D01*
X121152380Y-68161904D01*
X121104761Y-68257142D01*
X121057142Y-68304761D01*
X120961904Y-68352380D01*
X120676190Y-68352380D01*
X120580952Y-68304761D01*
X120533333Y-68257142D01*
X121580952Y-68257142D02*
X121628571Y-68304761D01*
X121580952Y-68352380D01*
X121533333Y-68304761D01*
X121580952Y-68257142D01*
X121580952Y-68352380D01*
X122533333Y-67352380D02*
X122057142Y-67352380D01*
X122009523Y-67828571D01*
X122057142Y-67780952D01*
X122152380Y-67733333D01*
X122390476Y-67733333D01*
X122485714Y-67780952D01*
X122533333Y-67828571D01*
X122580952Y-67923809D01*
X122580952Y-68161904D01*
X122533333Y-68257142D01*
X122485714Y-68304761D01*
X122390476Y-68352380D01*
X122152380Y-68352380D01*
X122057142Y-68304761D01*
X122009523Y-68257142D01*
X123009523Y-68352380D02*
X123009523Y-67685714D01*
X123009523Y-67780952D02*
X123057142Y-67733333D01*
X123152380Y-67685714D01*
X123295238Y-67685714D01*
X123390476Y-67733333D01*
X123438095Y-67828571D01*
X123438095Y-68352380D01*
X123438095Y-67828571D02*
X123485714Y-67733333D01*
X123580952Y-67685714D01*
X123723809Y-67685714D01*
X123819047Y-67733333D01*
X123866666Y-67828571D01*
X123866666Y-68352380D01*
X124342857Y-68352380D02*
X124342857Y-67685714D01*
X124342857Y-67780952D02*
X124390476Y-67733333D01*
X124485714Y-67685714D01*
X124628571Y-67685714D01*
X124723809Y-67733333D01*
X124771428Y-67828571D01*
X124771428Y-68352380D01*
X124771428Y-67828571D02*
X124819047Y-67733333D01*
X124914285Y-67685714D01*
X125057142Y-67685714D01*
X125152380Y-67733333D01*
X125200000Y-67828571D01*
X125200000Y-68352380D01*
X123666666Y-138452380D02*
X123333333Y-137976190D01*
X123095238Y-138452380D02*
X123095238Y-137452380D01*
X123476190Y-137452380D01*
X123571428Y-137500000D01*
X123619047Y-137547619D01*
X123666666Y-137642857D01*
X123666666Y-137785714D01*
X123619047Y-137880952D01*
X123571428Y-137928571D01*
X123476190Y-137976190D01*
X123095238Y-137976190D01*
X124095238Y-137928571D02*
X124428571Y-137928571D01*
X124571428Y-138452380D02*
X124095238Y-138452380D01*
X124095238Y-137452380D01*
X124571428Y-137452380D01*
X125333333Y-137928571D02*
X125000000Y-137928571D01*
X125000000Y-138452380D02*
X125000000Y-137452380D01*
X125476190Y-137452380D01*
X126000000Y-137452380D02*
X126000000Y-137690476D01*
X125761904Y-137595238D02*
X126000000Y-137690476D01*
X126238095Y-137595238D01*
X125857142Y-137880952D02*
X126000000Y-137690476D01*
X126142857Y-137880952D01*
X126761904Y-137452380D02*
X126761904Y-137690476D01*
X126523809Y-137595238D02*
X126761904Y-137690476D01*
X127000000Y-137595238D01*
X126619047Y-137880952D02*
X126761904Y-137690476D01*
X126904761Y-137880952D01*
X114500000Y-151952380D02*
X114500000Y-150952380D01*
X114880952Y-150952380D01*
X114976190Y-151000000D01*
X115023809Y-151047619D01*
X115071428Y-151142857D01*
X115071428Y-151285714D01*
X115023809Y-151380952D01*
X114976190Y-151428571D01*
X114880952Y-151476190D01*
X114500000Y-151476190D01*
X115928571Y-151952380D02*
X115928571Y-151428571D01*
X115880952Y-151333333D01*
X115785714Y-151285714D01*
X115595238Y-151285714D01*
X115500000Y-151333333D01*
X115928571Y-151904761D02*
X115833333Y-151952380D01*
X115595238Y-151952380D01*
X115500000Y-151904761D01*
X115452380Y-151809523D01*
X115452380Y-151714285D01*
X115500000Y-151619047D01*
X115595238Y-151571428D01*
X115833333Y-151571428D01*
X115928571Y-151523809D01*
X116404761Y-151285714D02*
X116404761Y-151952380D01*
X116404761Y-151380952D02*
X116452380Y-151333333D01*
X116547619Y-151285714D01*
X116690476Y-151285714D01*
X116785714Y-151333333D01*
X116833333Y-151428571D01*
X116833333Y-151952380D01*
X117690476Y-151904761D02*
X117595238Y-151952380D01*
X117404761Y-151952380D01*
X117309523Y-151904761D01*
X117261904Y-151809523D01*
X117261904Y-151428571D01*
X117309523Y-151333333D01*
X117404761Y-151285714D01*
X117595238Y-151285714D01*
X117690476Y-151333333D01*
X117738095Y-151428571D01*
X117738095Y-151523809D01*
X117261904Y-151619047D01*
X118309523Y-151952380D02*
X118214285Y-151904761D01*
X118166666Y-151809523D01*
X118166666Y-150952380D01*
X118690476Y-151952380D02*
X118690476Y-150952380D01*
X118690476Y-151428571D02*
X119261904Y-151428571D01*
X119261904Y-151952380D02*
X119261904Y-150952380D01*
X119880952Y-151952380D02*
X119785714Y-151904761D01*
X119738095Y-151857142D01*
X119690476Y-151761904D01*
X119690476Y-151476190D01*
X119738095Y-151380952D01*
X119785714Y-151333333D01*
X119880952Y-151285714D01*
X120023809Y-151285714D01*
X120119047Y-151333333D01*
X120166666Y-151380952D01*
X120214285Y-151476190D01*
X120214285Y-151761904D01*
X120166666Y-151857142D01*
X120119047Y-151904761D01*
X120023809Y-151952380D01*
X119880952Y-151952380D01*
X120785714Y-151952380D02*
X120690476Y-151904761D01*
X120642857Y-151809523D01*
X120642857Y-150952380D01*
X121547619Y-151904761D02*
X121452380Y-151952380D01*
X121261904Y-151952380D01*
X121166666Y-151904761D01*
X121119047Y-151809523D01*
X121119047Y-151428571D01*
X121166666Y-151333333D01*
X121261904Y-151285714D01*
X121452380Y-151285714D01*
X121547619Y-151333333D01*
X121595238Y-151428571D01*
X121595238Y-151523809D01*
X121119047Y-151619047D01*
X121785714Y-152047619D02*
X122547619Y-152047619D01*
X122738095Y-151666666D02*
X123214285Y-151666666D01*
X122642857Y-151952380D02*
X122976190Y-150952380D01*
X123309523Y-151952380D01*
X124071428Y-151285714D02*
X124071428Y-151952380D01*
X123642857Y-151285714D02*
X123642857Y-151809523D01*
X123690476Y-151904761D01*
X123785714Y-151952380D01*
X123928571Y-151952380D01*
X124023809Y-151904761D01*
X124071428Y-151857142D01*
X124976190Y-151952380D02*
X124976190Y-150952380D01*
X124976190Y-151904761D02*
X124880952Y-151952380D01*
X124690476Y-151952380D01*
X124595238Y-151904761D01*
X124547619Y-151857142D01*
X124500000Y-151761904D01*
X124500000Y-151476190D01*
X124547619Y-151380952D01*
X124595238Y-151333333D01*
X124690476Y-151285714D01*
X124880952Y-151285714D01*
X124976190Y-151333333D01*
X125452380Y-151952380D02*
X125452380Y-151285714D01*
X125452380Y-150952380D02*
X125404761Y-151000000D01*
X125452380Y-151047619D01*
X125500000Y-151000000D01*
X125452380Y-150952380D01*
X125452380Y-151047619D01*
X126071428Y-151952380D02*
X125976190Y-151904761D01*
X125928571Y-151857142D01*
X125880952Y-151761904D01*
X125880952Y-151476190D01*
X125928571Y-151380952D01*
X125976190Y-151333333D01*
X126071428Y-151285714D01*
X126214285Y-151285714D01*
X126309523Y-151333333D01*
X126357142Y-151380952D01*
X126404761Y-151476190D01*
X126404761Y-151761904D01*
X126357142Y-151857142D01*
X126309523Y-151904761D01*
X126214285Y-151952380D01*
X126071428Y-151952380D01*
X127119047Y-150952380D02*
X127119047Y-151666666D01*
X127071428Y-151809523D01*
X126976190Y-151904761D01*
X126833333Y-151952380D01*
X126738095Y-151952380D01*
X128023809Y-151952380D02*
X128023809Y-151428571D01*
X127976190Y-151333333D01*
X127880952Y-151285714D01*
X127690476Y-151285714D01*
X127595238Y-151333333D01*
X128023809Y-151904761D02*
X127928571Y-151952380D01*
X127690476Y-151952380D01*
X127595238Y-151904761D01*
X127547619Y-151809523D01*
X127547619Y-151714285D01*
X127595238Y-151619047D01*
X127690476Y-151571428D01*
X127928571Y-151571428D01*
X128023809Y-151523809D01*
X128928571Y-151904761D02*
X128833333Y-151952380D01*
X128642857Y-151952380D01*
X128547619Y-151904761D01*
X128500000Y-151857142D01*
X128452380Y-151761904D01*
X128452380Y-151476190D01*
X128500000Y-151380952D01*
X128547619Y-151333333D01*
X128642857Y-151285714D01*
X128833333Y-151285714D01*
X128928571Y-151333333D01*
X129357142Y-151952380D02*
X129357142Y-150952380D01*
X129452380Y-151571428D02*
X129738095Y-151952380D01*
X129738095Y-151285714D02*
X129357142Y-151666666D01*
X129928571Y-152047619D02*
X130690476Y-152047619D01*
X130833333Y-150952380D02*
X131452380Y-150952380D01*
X131119047Y-151333333D01*
X131261904Y-151333333D01*
X131357142Y-151380952D01*
X131404761Y-151428571D01*
X131452380Y-151523809D01*
X131452380Y-151761904D01*
X131404761Y-151857142D01*
X131357142Y-151904761D01*
X131261904Y-151952380D01*
X130976190Y-151952380D01*
X130880952Y-151904761D01*
X130833333Y-151857142D01*
X131880952Y-151857142D02*
X131928571Y-151904761D01*
X131880952Y-151952380D01*
X131833333Y-151904761D01*
X131880952Y-151857142D01*
X131880952Y-151952380D01*
X132833333Y-150952380D02*
X132357142Y-150952380D01*
X132309523Y-151428571D01*
X132357142Y-151380952D01*
X132452380Y-151333333D01*
X132690476Y-151333333D01*
X132785714Y-151380952D01*
X132833333Y-151428571D01*
X132880952Y-151523809D01*
X132880952Y-151761904D01*
X132833333Y-151857142D01*
X132785714Y-151904761D01*
X132690476Y-151952380D01*
X132452380Y-151952380D01*
X132357142Y-151904761D01*
X132309523Y-151857142D01*
X133309523Y-151952380D02*
X133309523Y-151285714D01*
X133309523Y-151380952D02*
X133357142Y-151333333D01*
X133452380Y-151285714D01*
X133595238Y-151285714D01*
X133690476Y-151333333D01*
X133738095Y-151428571D01*
X133738095Y-151952380D01*
X133738095Y-151428571D02*
X133785714Y-151333333D01*
X133880952Y-151285714D01*
X134023809Y-151285714D01*
X134119047Y-151333333D01*
X134166666Y-151428571D01*
X134166666Y-151952380D01*
X134642857Y-151952380D02*
X134642857Y-151285714D01*
X134642857Y-151380952D02*
X134690476Y-151333333D01*
X134785714Y-151285714D01*
X134928571Y-151285714D01*
X135023809Y-151333333D01*
X135071428Y-151428571D01*
X135071428Y-151952380D01*
X135071428Y-151428571D02*
X135119047Y-151333333D01*
X135214285Y-151285714D01*
X135357142Y-151285714D01*
X135452380Y-151333333D01*
X135500000Y-151428571D01*
X135500000Y-151952380D01*
X113366666Y-83652380D02*
X113033333Y-83176190D01*
X112795238Y-83652380D02*
X112795238Y-82652380D01*
X113176190Y-82652380D01*
X113271428Y-82700000D01*
X113319047Y-82747619D01*
X113366666Y-82842857D01*
X113366666Y-82985714D01*
X113319047Y-83080952D01*
X113271428Y-83128571D01*
X113176190Y-83176190D01*
X112795238Y-83176190D01*
X113795238Y-83128571D02*
X114128571Y-83128571D01*
X114271428Y-83652380D02*
X113795238Y-83652380D01*
X113795238Y-82652380D01*
X114271428Y-82652380D01*
X115033333Y-83128571D02*
X114700000Y-83128571D01*
X114700000Y-83652380D02*
X114700000Y-82652380D01*
X115176190Y-82652380D01*
X115700000Y-82652380D02*
X115700000Y-82890476D01*
X115461904Y-82795238D02*
X115700000Y-82890476D01*
X115938095Y-82795238D01*
X115557142Y-83080952D02*
X115700000Y-82890476D01*
X115842857Y-83080952D01*
X116461904Y-82652380D02*
X116461904Y-82890476D01*
X116223809Y-82795238D02*
X116461904Y-82890476D01*
X116700000Y-82795238D01*
X116319047Y-83080952D02*
X116461904Y-82890476D01*
X116604761Y-83080952D01*
X104200000Y-97152380D02*
X104200000Y-96152380D01*
X104580952Y-96152380D01*
X104676190Y-96200000D01*
X104723809Y-96247619D01*
X104771428Y-96342857D01*
X104771428Y-96485714D01*
X104723809Y-96580952D01*
X104676190Y-96628571D01*
X104580952Y-96676190D01*
X104200000Y-96676190D01*
X105628571Y-97152380D02*
X105628571Y-96628571D01*
X105580952Y-96533333D01*
X105485714Y-96485714D01*
X105295238Y-96485714D01*
X105200000Y-96533333D01*
X105628571Y-97104761D02*
X105533333Y-97152380D01*
X105295238Y-97152380D01*
X105200000Y-97104761D01*
X105152380Y-97009523D01*
X105152380Y-96914285D01*
X105200000Y-96819047D01*
X105295238Y-96771428D01*
X105533333Y-96771428D01*
X105628571Y-96723809D01*
X106104761Y-96485714D02*
X106104761Y-97152380D01*
X106104761Y-96580952D02*
X106152380Y-96533333D01*
X106247619Y-96485714D01*
X106390476Y-96485714D01*
X106485714Y-96533333D01*
X106533333Y-96628571D01*
X106533333Y-97152380D01*
X107390476Y-97104761D02*
X107295238Y-97152380D01*
X107104761Y-97152380D01*
X107009523Y-97104761D01*
X106961904Y-97009523D01*
X106961904Y-96628571D01*
X107009523Y-96533333D01*
X107104761Y-96485714D01*
X107295238Y-96485714D01*
X107390476Y-96533333D01*
X107438095Y-96628571D01*
X107438095Y-96723809D01*
X106961904Y-96819047D01*
X108009523Y-97152380D02*
X107914285Y-97104761D01*
X107866666Y-97009523D01*
X107866666Y-96152380D01*
X108390476Y-97152380D02*
X108390476Y-96152380D01*
X108390476Y-96628571D02*
X108961904Y-96628571D01*
X108961904Y-97152380D02*
X108961904Y-96152380D01*
X109580952Y-97152380D02*
X109485714Y-97104761D01*
X109438095Y-97057142D01*
X109390476Y-96961904D01*
X109390476Y-96676190D01*
X109438095Y-96580952D01*
X109485714Y-96533333D01*
X109580952Y-96485714D01*
X109723809Y-96485714D01*
X109819047Y-96533333D01*
X109866666Y-96580952D01*
X109914285Y-96676190D01*
X109914285Y-96961904D01*
X109866666Y-97057142D01*
X109819047Y-97104761D01*
X109723809Y-97152380D01*
X109580952Y-97152380D01*
X110485714Y-97152380D02*
X110390476Y-97104761D01*
X110342857Y-97009523D01*
X110342857Y-96152380D01*
X111247619Y-97104761D02*
X111152380Y-97152380D01*
X110961904Y-97152380D01*
X110866666Y-97104761D01*
X110819047Y-97009523D01*
X110819047Y-96628571D01*
X110866666Y-96533333D01*
X110961904Y-96485714D01*
X111152380Y-96485714D01*
X111247619Y-96533333D01*
X111295238Y-96628571D01*
X111295238Y-96723809D01*
X110819047Y-96819047D01*
X111485714Y-97247619D02*
X112247619Y-97247619D01*
X112438095Y-96866666D02*
X112914285Y-96866666D01*
X112342857Y-97152380D02*
X112676190Y-96152380D01*
X113009523Y-97152380D01*
X113771428Y-96485714D02*
X113771428Y-97152380D01*
X113342857Y-96485714D02*
X113342857Y-97009523D01*
X113390476Y-97104761D01*
X113485714Y-97152380D01*
X113628571Y-97152380D01*
X113723809Y-97104761D01*
X113771428Y-97057142D01*
X114676190Y-97152380D02*
X114676190Y-96152380D01*
X114676190Y-97104761D02*
X114580952Y-97152380D01*
X114390476Y-97152380D01*
X114295238Y-97104761D01*
X114247619Y-97057142D01*
X114200000Y-96961904D01*
X114200000Y-96676190D01*
X114247619Y-96580952D01*
X114295238Y-96533333D01*
X114390476Y-96485714D01*
X114580952Y-96485714D01*
X114676190Y-96533333D01*
X115152380Y-97152380D02*
X115152380Y-96485714D01*
X115152380Y-96152380D02*
X115104761Y-96200000D01*
X115152380Y-96247619D01*
X115200000Y-96200000D01*
X115152380Y-96152380D01*
X115152380Y-96247619D01*
X115771428Y-97152380D02*
X115676190Y-97104761D01*
X115628571Y-97057142D01*
X115580952Y-96961904D01*
X115580952Y-96676190D01*
X115628571Y-96580952D01*
X115676190Y-96533333D01*
X115771428Y-96485714D01*
X115914285Y-96485714D01*
X116009523Y-96533333D01*
X116057142Y-96580952D01*
X116104761Y-96676190D01*
X116104761Y-96961904D01*
X116057142Y-97057142D01*
X116009523Y-97104761D01*
X115914285Y-97152380D01*
X115771428Y-97152380D01*
X116819047Y-96152380D02*
X116819047Y-96866666D01*
X116771428Y-97009523D01*
X116676190Y-97104761D01*
X116533333Y-97152380D01*
X116438095Y-97152380D01*
X117723809Y-97152380D02*
X117723809Y-96628571D01*
X117676190Y-96533333D01*
X117580952Y-96485714D01*
X117390476Y-96485714D01*
X117295238Y-96533333D01*
X117723809Y-97104761D02*
X117628571Y-97152380D01*
X117390476Y-97152380D01*
X117295238Y-97104761D01*
X117247619Y-97009523D01*
X117247619Y-96914285D01*
X117295238Y-96819047D01*
X117390476Y-96771428D01*
X117628571Y-96771428D01*
X117723809Y-96723809D01*
X118628571Y-97104761D02*
X118533333Y-97152380D01*
X118342857Y-97152380D01*
X118247619Y-97104761D01*
X118200000Y-97057142D01*
X118152380Y-96961904D01*
X118152380Y-96676190D01*
X118200000Y-96580952D01*
X118247619Y-96533333D01*
X118342857Y-96485714D01*
X118533333Y-96485714D01*
X118628571Y-96533333D01*
X119057142Y-97152380D02*
X119057142Y-96152380D01*
X119152380Y-96771428D02*
X119438095Y-97152380D01*
X119438095Y-96485714D02*
X119057142Y-96866666D01*
X119628571Y-97247619D02*
X120390476Y-97247619D01*
X120533333Y-96152380D02*
X121152380Y-96152380D01*
X120819047Y-96533333D01*
X120961904Y-96533333D01*
X121057142Y-96580952D01*
X121104761Y-96628571D01*
X121152380Y-96723809D01*
X121152380Y-96961904D01*
X121104761Y-97057142D01*
X121057142Y-97104761D01*
X120961904Y-97152380D01*
X120676190Y-97152380D01*
X120580952Y-97104761D01*
X120533333Y-97057142D01*
X121580952Y-97057142D02*
X121628571Y-97104761D01*
X121580952Y-97152380D01*
X121533333Y-97104761D01*
X121580952Y-97057142D01*
X121580952Y-97152380D01*
X122533333Y-96152380D02*
X122057142Y-96152380D01*
X122009523Y-96628571D01*
X122057142Y-96580952D01*
X122152380Y-96533333D01*
X122390476Y-96533333D01*
X122485714Y-96580952D01*
X122533333Y-96628571D01*
X122580952Y-96723809D01*
X122580952Y-96961904D01*
X122533333Y-97057142D01*
X122485714Y-97104761D01*
X122390476Y-97152380D01*
X122152380Y-97152380D01*
X122057142Y-97104761D01*
X122009523Y-97057142D01*
X123009523Y-97152380D02*
X123009523Y-96485714D01*
X123009523Y-96580952D02*
X123057142Y-96533333D01*
X123152380Y-96485714D01*
X123295238Y-96485714D01*
X123390476Y-96533333D01*
X123438095Y-96628571D01*
X123438095Y-97152380D01*
X123438095Y-96628571D02*
X123485714Y-96533333D01*
X123580952Y-96485714D01*
X123723809Y-96485714D01*
X123819047Y-96533333D01*
X123866666Y-96628571D01*
X123866666Y-97152380D01*
X124342857Y-97152380D02*
X124342857Y-96485714D01*
X124342857Y-96580952D02*
X124390476Y-96533333D01*
X124485714Y-96485714D01*
X124628571Y-96485714D01*
X124723809Y-96533333D01*
X124771428Y-96628571D01*
X124771428Y-97152380D01*
X124771428Y-96628571D02*
X124819047Y-96533333D01*
X124914285Y-96485714D01*
X125057142Y-96485714D01*
X125152380Y-96533333D01*
X125200000Y-96628571D01*
X125200000Y-97152380D01*
X125692380Y-79213333D02*
X125216190Y-79546666D01*
X125692380Y-79784761D02*
X124692380Y-79784761D01*
X124692380Y-79403809D01*
X124740000Y-79308571D01*
X124787619Y-79260952D01*
X124882857Y-79213333D01*
X125025714Y-79213333D01*
X125120952Y-79260952D01*
X125168571Y-79308571D01*
X125216190Y-79403809D01*
X125216190Y-79784761D01*
X125168571Y-78784761D02*
X125168571Y-78451428D01*
X125692380Y-78308571D02*
X125692380Y-78784761D01*
X124692380Y-78784761D01*
X124692380Y-78308571D01*
X125168571Y-77546666D02*
X125168571Y-77880000D01*
X125692380Y-77880000D02*
X124692380Y-77880000D01*
X124692380Y-77403809D01*
X124692380Y-76880000D02*
X124930476Y-76880000D01*
X124835238Y-77118095D02*
X124930476Y-76880000D01*
X124835238Y-76641904D01*
X125120952Y-77022857D02*
X124930476Y-76880000D01*
X125120952Y-76737142D01*
X124692380Y-76118095D02*
X124930476Y-76118095D01*
X124835238Y-76356190D02*
X124930476Y-76118095D01*
X124835238Y-75880000D01*
X125120952Y-76260952D02*
X124930476Y-76118095D01*
X125120952Y-75975238D01*
X125692380Y-44413333D02*
X125216190Y-44746666D01*
X125692380Y-44984761D02*
X124692380Y-44984761D01*
X124692380Y-44603809D01*
X124740000Y-44508571D01*
X124787619Y-44460952D01*
X124882857Y-44413333D01*
X125025714Y-44413333D01*
X125120952Y-44460952D01*
X125168571Y-44508571D01*
X125216190Y-44603809D01*
X125216190Y-44984761D01*
X125168571Y-43984761D02*
X125168571Y-43651428D01*
X125692380Y-43508571D02*
X125692380Y-43984761D01*
X124692380Y-43984761D01*
X124692380Y-43508571D01*
X125168571Y-42746666D02*
X125168571Y-43080000D01*
X125692380Y-43080000D02*
X124692380Y-43080000D01*
X124692380Y-42603809D01*
X124692380Y-42080000D02*
X124930476Y-42080000D01*
X124835238Y-42318095D02*
X124930476Y-42080000D01*
X124835238Y-41841904D01*
X125120952Y-42222857D02*
X124930476Y-42080000D01*
X125120952Y-41937142D01*
X124692380Y-41318095D02*
X124930476Y-41318095D01*
X124835238Y-41556190D02*
X124930476Y-41318095D01*
X124835238Y-41080000D01*
X125120952Y-41460952D02*
X124930476Y-41318095D01*
X125120952Y-41175238D01*
X113366666Y-98052380D02*
X113033333Y-97576190D01*
X112795238Y-98052380D02*
X112795238Y-97052380D01*
X113176190Y-97052380D01*
X113271428Y-97100000D01*
X113319047Y-97147619D01*
X113366666Y-97242857D01*
X113366666Y-97385714D01*
X113319047Y-97480952D01*
X113271428Y-97528571D01*
X113176190Y-97576190D01*
X112795238Y-97576190D01*
X113795238Y-97528571D02*
X114128571Y-97528571D01*
X114271428Y-98052380D02*
X113795238Y-98052380D01*
X113795238Y-97052380D01*
X114271428Y-97052380D01*
X115033333Y-97528571D02*
X114700000Y-97528571D01*
X114700000Y-98052380D02*
X114700000Y-97052380D01*
X115176190Y-97052380D01*
X115700000Y-97052380D02*
X115700000Y-97290476D01*
X115461904Y-97195238D02*
X115700000Y-97290476D01*
X115938095Y-97195238D01*
X115557142Y-97480952D02*
X115700000Y-97290476D01*
X115842857Y-97480952D01*
X116461904Y-97052380D02*
X116461904Y-97290476D01*
X116223809Y-97195238D02*
X116461904Y-97290476D01*
X116700000Y-97195238D01*
X116319047Y-97480952D02*
X116461904Y-97290476D01*
X116604761Y-97480952D01*
X104200000Y-111552380D02*
X104200000Y-110552380D01*
X104580952Y-110552380D01*
X104676190Y-110600000D01*
X104723809Y-110647619D01*
X104771428Y-110742857D01*
X104771428Y-110885714D01*
X104723809Y-110980952D01*
X104676190Y-111028571D01*
X104580952Y-111076190D01*
X104200000Y-111076190D01*
X105628571Y-111552380D02*
X105628571Y-111028571D01*
X105580952Y-110933333D01*
X105485714Y-110885714D01*
X105295238Y-110885714D01*
X105200000Y-110933333D01*
X105628571Y-111504761D02*
X105533333Y-111552380D01*
X105295238Y-111552380D01*
X105200000Y-111504761D01*
X105152380Y-111409523D01*
X105152380Y-111314285D01*
X105200000Y-111219047D01*
X105295238Y-111171428D01*
X105533333Y-111171428D01*
X105628571Y-111123809D01*
X106104761Y-110885714D02*
X106104761Y-111552380D01*
X106104761Y-110980952D02*
X106152380Y-110933333D01*
X106247619Y-110885714D01*
X106390476Y-110885714D01*
X106485714Y-110933333D01*
X106533333Y-111028571D01*
X106533333Y-111552380D01*
X107390476Y-111504761D02*
X107295238Y-111552380D01*
X107104761Y-111552380D01*
X107009523Y-111504761D01*
X106961904Y-111409523D01*
X106961904Y-111028571D01*
X107009523Y-110933333D01*
X107104761Y-110885714D01*
X107295238Y-110885714D01*
X107390476Y-110933333D01*
X107438095Y-111028571D01*
X107438095Y-111123809D01*
X106961904Y-111219047D01*
X108009523Y-111552380D02*
X107914285Y-111504761D01*
X107866666Y-111409523D01*
X107866666Y-110552380D01*
X108390476Y-111552380D02*
X108390476Y-110552380D01*
X108390476Y-111028571D02*
X108961904Y-111028571D01*
X108961904Y-111552380D02*
X108961904Y-110552380D01*
X109580952Y-111552380D02*
X109485714Y-111504761D01*
X109438095Y-111457142D01*
X109390476Y-111361904D01*
X109390476Y-111076190D01*
X109438095Y-110980952D01*
X109485714Y-110933333D01*
X109580952Y-110885714D01*
X109723809Y-110885714D01*
X109819047Y-110933333D01*
X109866666Y-110980952D01*
X109914285Y-111076190D01*
X109914285Y-111361904D01*
X109866666Y-111457142D01*
X109819047Y-111504761D01*
X109723809Y-111552380D01*
X109580952Y-111552380D01*
X110485714Y-111552380D02*
X110390476Y-111504761D01*
X110342857Y-111409523D01*
X110342857Y-110552380D01*
X111247619Y-111504761D02*
X111152380Y-111552380D01*
X110961904Y-111552380D01*
X110866666Y-111504761D01*
X110819047Y-111409523D01*
X110819047Y-111028571D01*
X110866666Y-110933333D01*
X110961904Y-110885714D01*
X111152380Y-110885714D01*
X111247619Y-110933333D01*
X111295238Y-111028571D01*
X111295238Y-111123809D01*
X110819047Y-111219047D01*
X111485714Y-111647619D02*
X112247619Y-111647619D01*
X112438095Y-111266666D02*
X112914285Y-111266666D01*
X112342857Y-111552380D02*
X112676190Y-110552380D01*
X113009523Y-111552380D01*
X113771428Y-110885714D02*
X113771428Y-111552380D01*
X113342857Y-110885714D02*
X113342857Y-111409523D01*
X113390476Y-111504761D01*
X113485714Y-111552380D01*
X113628571Y-111552380D01*
X113723809Y-111504761D01*
X113771428Y-111457142D01*
X114676190Y-111552380D02*
X114676190Y-110552380D01*
X114676190Y-111504761D02*
X114580952Y-111552380D01*
X114390476Y-111552380D01*
X114295238Y-111504761D01*
X114247619Y-111457142D01*
X114200000Y-111361904D01*
X114200000Y-111076190D01*
X114247619Y-110980952D01*
X114295238Y-110933333D01*
X114390476Y-110885714D01*
X114580952Y-110885714D01*
X114676190Y-110933333D01*
X115152380Y-111552380D02*
X115152380Y-110885714D01*
X115152380Y-110552380D02*
X115104761Y-110600000D01*
X115152380Y-110647619D01*
X115200000Y-110600000D01*
X115152380Y-110552380D01*
X115152380Y-110647619D01*
X115771428Y-111552380D02*
X115676190Y-111504761D01*
X115628571Y-111457142D01*
X115580952Y-111361904D01*
X115580952Y-111076190D01*
X115628571Y-110980952D01*
X115676190Y-110933333D01*
X115771428Y-110885714D01*
X115914285Y-110885714D01*
X116009523Y-110933333D01*
X116057142Y-110980952D01*
X116104761Y-111076190D01*
X116104761Y-111361904D01*
X116057142Y-111457142D01*
X116009523Y-111504761D01*
X115914285Y-111552380D01*
X115771428Y-111552380D01*
X116819047Y-110552380D02*
X116819047Y-111266666D01*
X116771428Y-111409523D01*
X116676190Y-111504761D01*
X116533333Y-111552380D01*
X116438095Y-111552380D01*
X117723809Y-111552380D02*
X117723809Y-111028571D01*
X117676190Y-110933333D01*
X117580952Y-110885714D01*
X117390476Y-110885714D01*
X117295238Y-110933333D01*
X117723809Y-111504761D02*
X117628571Y-111552380D01*
X117390476Y-111552380D01*
X117295238Y-111504761D01*
X117247619Y-111409523D01*
X117247619Y-111314285D01*
X117295238Y-111219047D01*
X117390476Y-111171428D01*
X117628571Y-111171428D01*
X117723809Y-111123809D01*
X118628571Y-111504761D02*
X118533333Y-111552380D01*
X118342857Y-111552380D01*
X118247619Y-111504761D01*
X118200000Y-111457142D01*
X118152380Y-111361904D01*
X118152380Y-111076190D01*
X118200000Y-110980952D01*
X118247619Y-110933333D01*
X118342857Y-110885714D01*
X118533333Y-110885714D01*
X118628571Y-110933333D01*
X119057142Y-111552380D02*
X119057142Y-110552380D01*
X119152380Y-111171428D02*
X119438095Y-111552380D01*
X119438095Y-110885714D02*
X119057142Y-111266666D01*
X119628571Y-111647619D02*
X120390476Y-111647619D01*
X120533333Y-110552380D02*
X121152380Y-110552380D01*
X120819047Y-110933333D01*
X120961904Y-110933333D01*
X121057142Y-110980952D01*
X121104761Y-111028571D01*
X121152380Y-111123809D01*
X121152380Y-111361904D01*
X121104761Y-111457142D01*
X121057142Y-111504761D01*
X120961904Y-111552380D01*
X120676190Y-111552380D01*
X120580952Y-111504761D01*
X120533333Y-111457142D01*
X121580952Y-111457142D02*
X121628571Y-111504761D01*
X121580952Y-111552380D01*
X121533333Y-111504761D01*
X121580952Y-111457142D01*
X121580952Y-111552380D01*
X122533333Y-110552380D02*
X122057142Y-110552380D01*
X122009523Y-111028571D01*
X122057142Y-110980952D01*
X122152380Y-110933333D01*
X122390476Y-110933333D01*
X122485714Y-110980952D01*
X122533333Y-111028571D01*
X122580952Y-111123809D01*
X122580952Y-111361904D01*
X122533333Y-111457142D01*
X122485714Y-111504761D01*
X122390476Y-111552380D01*
X122152380Y-111552380D01*
X122057142Y-111504761D01*
X122009523Y-111457142D01*
X123009523Y-111552380D02*
X123009523Y-110885714D01*
X123009523Y-110980952D02*
X123057142Y-110933333D01*
X123152380Y-110885714D01*
X123295238Y-110885714D01*
X123390476Y-110933333D01*
X123438095Y-111028571D01*
X123438095Y-111552380D01*
X123438095Y-111028571D02*
X123485714Y-110933333D01*
X123580952Y-110885714D01*
X123723809Y-110885714D01*
X123819047Y-110933333D01*
X123866666Y-111028571D01*
X123866666Y-111552380D01*
X124342857Y-111552380D02*
X124342857Y-110885714D01*
X124342857Y-110980952D02*
X124390476Y-110933333D01*
X124485714Y-110885714D01*
X124628571Y-110885714D01*
X124723809Y-110933333D01*
X124771428Y-111028571D01*
X124771428Y-111552380D01*
X124771428Y-111028571D02*
X124819047Y-110933333D01*
X124914285Y-110885714D01*
X125057142Y-110885714D01*
X125152380Y-110933333D01*
X125200000Y-111028571D01*
X125200000Y-111552380D01*
D10*
X119200000Y-80780000D02*
X119200000Y-70380000D01*
X114700000Y-68300000D02*
X114700000Y-70330000D01*
X110200000Y-80780000D02*
X110200000Y-70380000D01*
X119200000Y-80780000D02*
X110200000Y-80780000D01*
X119200000Y-70330000D02*
X110200000Y-70330000D01*
D12*
X118700000Y-74800000D02*
G75*
G03*
X118700000Y-74800000I-4000000J0D01*
G01*
D10*
X119500000Y-149980000D02*
X110500000Y-149980000D01*
X110500000Y-149980000D02*
X110500000Y-139580000D01*
X119500000Y-149980000D02*
X119500000Y-139580000D01*
X119500000Y-139530000D02*
X110500000Y-139530000D01*
X115000000Y-137500000D02*
X115000000Y-139530000D01*
D12*
X119000000Y-144000000D02*
G75*
G03*
X119000000Y-144000000I-4000000J0D01*
G01*
D10*
X129950000Y-119600000D02*
X129950000Y-108250000D01*
X120450000Y-119600000D02*
X120450000Y-108250000D01*
X129950000Y-119600000D02*
X120450000Y-119600000D01*
X129950000Y-108250000D02*
X120450000Y-108250000D01*
X128700000Y-113100000D02*
G75*
G03*
X128700000Y-113100000I-3500000J0D01*
G01*
D12*
X132700000Y-113100000D02*
G75*
G03*
X132700000Y-113100000I-7500000J0D01*
G01*
D10*
X129950000Y-66542500D02*
X129950000Y-55192500D01*
X129950000Y-55192500D02*
X120450000Y-55192500D01*
X120450000Y-66542500D02*
X120450000Y-55192500D01*
X129950000Y-66542500D02*
X120450000Y-66542500D01*
D12*
X132700000Y-60042500D02*
G75*
G03*
X132700000Y-60042500I-7500000J0D01*
G01*
D10*
X128700000Y-60042500D02*
G75*
G03*
X128700000Y-60042500I-3500000J0D01*
G01*
X119200000Y-41430000D02*
X110200000Y-41430000D01*
X110200000Y-51880000D02*
X110200000Y-41480000D01*
X119200000Y-51880000D02*
X110200000Y-51880000D01*
X119200000Y-51880000D02*
X119200000Y-41480000D01*
X114700000Y-39400000D02*
X114700000Y-41430000D01*
D12*
X118700000Y-45900000D02*
G75*
G03*
X118700000Y-45900000I-4000000J0D01*
G01*
D10*
X129950000Y-102100000D02*
X120450000Y-102100000D01*
X129950000Y-102100000D02*
X129950000Y-90750000D01*
X129950000Y-90750000D02*
X120450000Y-90750000D01*
X120450000Y-102100000D02*
X120450000Y-90750000D01*
D12*
X132700000Y-95600000D02*
G75*
G03*
X132700000Y-95600000I-7500000J0D01*
G01*
D10*
X128700000Y-95600000D02*
G75*
G03*
X128700000Y-95600000I-3500000J0D01*
G01*
X114700000Y-53900000D02*
X114700000Y-55930000D01*
X110200000Y-66380000D02*
X110200000Y-55980000D01*
X119200000Y-55930000D02*
X110200000Y-55930000D01*
X119200000Y-66380000D02*
X110200000Y-66380000D01*
X119200000Y-66380000D02*
X119200000Y-55980000D01*
D12*
X118700000Y-60400000D02*
G75*
G03*
X118700000Y-60400000I-4000000J0D01*
G01*
D10*
X129500000Y-139530000D02*
X120500000Y-139530000D01*
X129500000Y-149980000D02*
X120500000Y-149980000D01*
X129500000Y-149980000D02*
X129500000Y-139580000D01*
X125000000Y-137500000D02*
X125000000Y-139530000D01*
X120500000Y-149980000D02*
X120500000Y-139580000D01*
D12*
X129000000Y-144000000D02*
G75*
G03*
X129000000Y-144000000I-4000000J0D01*
G01*
D10*
X110200000Y-95180000D02*
X110200000Y-84780000D01*
X119200000Y-95180000D02*
X110200000Y-95180000D01*
X119200000Y-95180000D02*
X119200000Y-84780000D01*
X119200000Y-84730000D02*
X110200000Y-84730000D01*
X114700000Y-82700000D02*
X114700000Y-84730000D01*
D12*
X118700000Y-89200000D02*
G75*
G03*
X118700000Y-89200000I-4000000J0D01*
G01*
D10*
X129950000Y-84500000D02*
X120450000Y-84500000D01*
X129950000Y-73150000D02*
X120450000Y-73150000D01*
X129950000Y-84500000D02*
X129950000Y-73150000D01*
X120450000Y-84500000D02*
X120450000Y-73150000D01*
D12*
X132700000Y-78000000D02*
G75*
G03*
X132700000Y-78000000I-7500000J0D01*
G01*
D10*
X128700000Y-78000000D02*
G75*
G03*
X128700000Y-78000000I-3500000J0D01*
G01*
X129950000Y-49700000D02*
X120450000Y-49700000D01*
X129950000Y-38350000D02*
X120450000Y-38350000D01*
X120450000Y-49700000D02*
X120450000Y-38350000D01*
X129950000Y-49700000D02*
X129950000Y-38350000D01*
D12*
X132700000Y-43200000D02*
G75*
G03*
X132700000Y-43200000I-7500000J0D01*
G01*
D10*
X128700000Y-43200000D02*
G75*
G03*
X128700000Y-43200000I-3500000J0D01*
G01*
X119200000Y-109580000D02*
X119200000Y-99180000D01*
X119200000Y-109580000D02*
X110200000Y-109580000D01*
X114700000Y-97100000D02*
X114700000Y-99130000D01*
X110200000Y-109580000D02*
X110200000Y-99180000D01*
X119200000Y-99130000D02*
X110200000Y-99130000D01*
D12*
X118700000Y-103600000D02*
G75*
G03*
X118700000Y-103600000I-4000000J0D01*
G01*
%TD*%
M02*
