%TF.GenerationSoftware,KiCad,Pcbnew,6.0.11+dfsg-1~bpo11+1*%
%TF.CreationDate,2023-10-10T15:32:57+08:00*%
%TF.ProjectId,MiniAttenuMix - v0.1 - Front,4d696e69-4174-4746-956e-754d6978202d,v0.1*%
%TF.SameCoordinates,Original*%
%TF.FileFunction,Drillmap*%
%TF.FilePolarity,Positive*%
%FSLAX45Y45*%
G04 Gerber Fmt 4.5, Leading zero omitted, Abs format (unit mm)*
G04 Created by KiCad (PCBNEW 6.0.11+dfsg-1~bpo11+1) date 2023-10-10 15:32:57*
%MOMM*%
%LPD*%
G01*
G04 APERTURE LIST*
%ADD10C,0.100000*%
%ADD11C,0.200000*%
%ADD12C,0.300000*%
%ADD13C,0.320000*%
G04 APERTURE END LIST*
D10*
X11000000Y-15850000D02*
X11000000Y-3000000D01*
X13000000Y-15850000D02*
X11000000Y-15850000D01*
X11000000Y-3000000D02*
X13000000Y-3000000D01*
X13000000Y-3000000D02*
X13000000Y-15850000D01*
D11*
D12*
X11320000Y-11110000D02*
X11620000Y-11410000D01*
X11620000Y-11110000D02*
X11320000Y-11410000D01*
D13*
X11910000Y-3300000D02*
G75*
G03*
X11910000Y-3300000I-160000J0D01*
G01*
D11*
X11610000Y-3460000D02*
X11890000Y-3460000D01*
X11610000Y-3140000D02*
X11890000Y-3140000D01*
X11890000Y-3460000D02*
G75*
G03*
X11890000Y-3140000I0J160000D01*
G01*
X11610000Y-3140000D02*
G75*
G03*
X11610000Y-3460000I0J-160000D01*
G01*
D13*
X11910000Y-15550000D02*
G75*
G03*
X11910000Y-15550000I-160000J0D01*
G01*
D11*
X11610000Y-15710000D02*
X11890000Y-15710000D01*
X11610000Y-15390000D02*
X11890000Y-15390000D01*
X11890000Y-15710000D02*
G75*
G03*
X11890000Y-15390000I0J160000D01*
G01*
X11610000Y-15390000D02*
G75*
G03*
X11610000Y-15710000I0J-160000D01*
G01*
X11252619Y-16165476D02*
X11252619Y-15965476D01*
X11300238Y-15965476D01*
X11328809Y-15975000D01*
X11347857Y-15994048D01*
X11357381Y-16013095D01*
X11366905Y-16051190D01*
X11366905Y-16079762D01*
X11357381Y-16117857D01*
X11347857Y-16136905D01*
X11328809Y-16155952D01*
X11300238Y-16165476D01*
X11252619Y-16165476D01*
X11452619Y-16165476D02*
X11452619Y-16032143D01*
X11452619Y-16070238D02*
X11462143Y-16051190D01*
X11471667Y-16041667D01*
X11490714Y-16032143D01*
X11509762Y-16032143D01*
X11576428Y-16165476D02*
X11576428Y-16032143D01*
X11576428Y-15965476D02*
X11566905Y-15975000D01*
X11576428Y-15984524D01*
X11585952Y-15975000D01*
X11576428Y-15965476D01*
X11576428Y-15984524D01*
X11700238Y-16165476D02*
X11681190Y-16155952D01*
X11671667Y-16136905D01*
X11671667Y-15965476D01*
X11805000Y-16165476D02*
X11785952Y-16155952D01*
X11776428Y-16136905D01*
X11776428Y-15965476D01*
X12033571Y-16165476D02*
X12033571Y-15965476D01*
X12100238Y-16108333D01*
X12166905Y-15965476D01*
X12166905Y-16165476D01*
X12347857Y-16165476D02*
X12347857Y-16060714D01*
X12338333Y-16041667D01*
X12319286Y-16032143D01*
X12281190Y-16032143D01*
X12262143Y-16041667D01*
X12347857Y-16155952D02*
X12328809Y-16165476D01*
X12281190Y-16165476D01*
X12262143Y-16155952D01*
X12252619Y-16136905D01*
X12252619Y-16117857D01*
X12262143Y-16098809D01*
X12281190Y-16089286D01*
X12328809Y-16089286D01*
X12347857Y-16079762D01*
X12443095Y-16032143D02*
X12443095Y-16232143D01*
X12443095Y-16041667D02*
X12462143Y-16032143D01*
X12500238Y-16032143D01*
X12519286Y-16041667D01*
X12528809Y-16051190D01*
X12538333Y-16070238D01*
X12538333Y-16127381D01*
X12528809Y-16146428D01*
X12519286Y-16155952D01*
X12500238Y-16165476D01*
X12462143Y-16165476D01*
X12443095Y-16155952D01*
X12624048Y-16146428D02*
X12633571Y-16155952D01*
X12624048Y-16165476D01*
X12614524Y-16155952D01*
X12624048Y-16146428D01*
X12624048Y-16165476D01*
X12624048Y-16041667D02*
X12633571Y-16051190D01*
X12624048Y-16060714D01*
X12614524Y-16051190D01*
X12624048Y-16041667D01*
X12624048Y-16060714D01*
X10795000Y-16395000D02*
X10995000Y-16595000D01*
X10995000Y-16395000D02*
X10795000Y-16595000D01*
X11233571Y-16385476D02*
X11357381Y-16385476D01*
X11290714Y-16461667D01*
X11319286Y-16461667D01*
X11338333Y-16471190D01*
X11347857Y-16480714D01*
X11357381Y-16499762D01*
X11357381Y-16547381D01*
X11347857Y-16566428D01*
X11338333Y-16575952D01*
X11319286Y-16585476D01*
X11262143Y-16585476D01*
X11243095Y-16575952D01*
X11233571Y-16566428D01*
X11443095Y-16566428D02*
X11452619Y-16575952D01*
X11443095Y-16585476D01*
X11433571Y-16575952D01*
X11443095Y-16566428D01*
X11443095Y-16585476D01*
X11576428Y-16385476D02*
X11595476Y-16385476D01*
X11614524Y-16395000D01*
X11624048Y-16404524D01*
X11633571Y-16423571D01*
X11643095Y-16461667D01*
X11643095Y-16509286D01*
X11633571Y-16547381D01*
X11624048Y-16566428D01*
X11614524Y-16575952D01*
X11595476Y-16585476D01*
X11576428Y-16585476D01*
X11557381Y-16575952D01*
X11547857Y-16566428D01*
X11538333Y-16547381D01*
X11528809Y-16509286D01*
X11528809Y-16461667D01*
X11538333Y-16423571D01*
X11547857Y-16404524D01*
X11557381Y-16395000D01*
X11576428Y-16385476D01*
X11766905Y-16385476D02*
X11785952Y-16385476D01*
X11805000Y-16395000D01*
X11814524Y-16404524D01*
X11824048Y-16423571D01*
X11833571Y-16461667D01*
X11833571Y-16509286D01*
X11824048Y-16547381D01*
X11814524Y-16566428D01*
X11805000Y-16575952D01*
X11785952Y-16585476D01*
X11766905Y-16585476D01*
X11747857Y-16575952D01*
X11738333Y-16566428D01*
X11728809Y-16547381D01*
X11719286Y-16509286D01*
X11719286Y-16461667D01*
X11728809Y-16423571D01*
X11738333Y-16404524D01*
X11747857Y-16395000D01*
X11766905Y-16385476D01*
X11957381Y-16385476D02*
X11976428Y-16385476D01*
X11995476Y-16395000D01*
X12005000Y-16404524D01*
X12014524Y-16423571D01*
X12024048Y-16461667D01*
X12024048Y-16509286D01*
X12014524Y-16547381D01*
X12005000Y-16566428D01*
X11995476Y-16575952D01*
X11976428Y-16585476D01*
X11957381Y-16585476D01*
X11938333Y-16575952D01*
X11928809Y-16566428D01*
X11919286Y-16547381D01*
X11909762Y-16509286D01*
X11909762Y-16461667D01*
X11919286Y-16423571D01*
X11928809Y-16404524D01*
X11938333Y-16395000D01*
X11957381Y-16385476D01*
X12109762Y-16585476D02*
X12109762Y-16452143D01*
X12109762Y-16471190D02*
X12119286Y-16461667D01*
X12138333Y-16452143D01*
X12166905Y-16452143D01*
X12185952Y-16461667D01*
X12195476Y-16480714D01*
X12195476Y-16585476D01*
X12195476Y-16480714D02*
X12205000Y-16461667D01*
X12224048Y-16452143D01*
X12252619Y-16452143D01*
X12271667Y-16461667D01*
X12281190Y-16480714D01*
X12281190Y-16585476D01*
X12376428Y-16585476D02*
X12376428Y-16452143D01*
X12376428Y-16471190D02*
X12385952Y-16461667D01*
X12405000Y-16452143D01*
X12433571Y-16452143D01*
X12452619Y-16461667D01*
X12462143Y-16480714D01*
X12462143Y-16585476D01*
X12462143Y-16480714D02*
X12471667Y-16461667D01*
X12490714Y-16452143D01*
X12519286Y-16452143D01*
X12538333Y-16461667D01*
X12547857Y-16480714D01*
X12547857Y-16585476D01*
X12938333Y-16375952D02*
X12766905Y-16633095D01*
X13195476Y-16385476D02*
X13214524Y-16385476D01*
X13233571Y-16395000D01*
X13243095Y-16404524D01*
X13252619Y-16423571D01*
X13262143Y-16461667D01*
X13262143Y-16509286D01*
X13252619Y-16547381D01*
X13243095Y-16566428D01*
X13233571Y-16575952D01*
X13214524Y-16585476D01*
X13195476Y-16585476D01*
X13176428Y-16575952D01*
X13166905Y-16566428D01*
X13157381Y-16547381D01*
X13147857Y-16509286D01*
X13147857Y-16461667D01*
X13157381Y-16423571D01*
X13166905Y-16404524D01*
X13176428Y-16395000D01*
X13195476Y-16385476D01*
X13347857Y-16566428D02*
X13357381Y-16575952D01*
X13347857Y-16585476D01*
X13338333Y-16575952D01*
X13347857Y-16566428D01*
X13347857Y-16585476D01*
X13547857Y-16585476D02*
X13433571Y-16585476D01*
X13490714Y-16585476D02*
X13490714Y-16385476D01*
X13471667Y-16414048D01*
X13452619Y-16433095D01*
X13433571Y-16442619D01*
X13738333Y-16585476D02*
X13624048Y-16585476D01*
X13681190Y-16585476D02*
X13681190Y-16385476D01*
X13662143Y-16414048D01*
X13643095Y-16433095D01*
X13624048Y-16442619D01*
X13852619Y-16471190D02*
X13833571Y-16461667D01*
X13824048Y-16452143D01*
X13814524Y-16433095D01*
X13814524Y-16423571D01*
X13824048Y-16404524D01*
X13833571Y-16395000D01*
X13852619Y-16385476D01*
X13890714Y-16385476D01*
X13909762Y-16395000D01*
X13919286Y-16404524D01*
X13928809Y-16423571D01*
X13928809Y-16433095D01*
X13919286Y-16452143D01*
X13909762Y-16461667D01*
X13890714Y-16471190D01*
X13852619Y-16471190D01*
X13833571Y-16480714D01*
X13824048Y-16490238D01*
X13814524Y-16509286D01*
X13814524Y-16547381D01*
X13824048Y-16566428D01*
X13833571Y-16575952D01*
X13852619Y-16585476D01*
X13890714Y-16585476D01*
X13909762Y-16575952D01*
X13919286Y-16566428D01*
X13928809Y-16547381D01*
X13928809Y-16509286D01*
X13919286Y-16490238D01*
X13909762Y-16480714D01*
X13890714Y-16471190D01*
X14119286Y-16585476D02*
X14005000Y-16585476D01*
X14062143Y-16585476D02*
X14062143Y-16385476D01*
X14043095Y-16414048D01*
X14024048Y-16433095D01*
X14005000Y-16442619D01*
X14195476Y-16385476D02*
X14195476Y-16423571D01*
X14271667Y-16385476D02*
X14271667Y-16423571D01*
X14566905Y-16661667D02*
X14557381Y-16652143D01*
X14538333Y-16623571D01*
X14528809Y-16604524D01*
X14519286Y-16575952D01*
X14509762Y-16528333D01*
X14509762Y-16490238D01*
X14519286Y-16442619D01*
X14528809Y-16414048D01*
X14538333Y-16395000D01*
X14557381Y-16366428D01*
X14566905Y-16356905D01*
X14747857Y-16585476D02*
X14633571Y-16585476D01*
X14690714Y-16585476D02*
X14690714Y-16385476D01*
X14671667Y-16414048D01*
X14652619Y-16433095D01*
X14633571Y-16442619D01*
X14985952Y-16585476D02*
X14985952Y-16385476D01*
X15071667Y-16585476D02*
X15071667Y-16480714D01*
X15062143Y-16461667D01*
X15043095Y-16452143D01*
X15014524Y-16452143D01*
X14995476Y-16461667D01*
X14985952Y-16471190D01*
X15195476Y-16585476D02*
X15176428Y-16575952D01*
X15166905Y-16566428D01*
X15157381Y-16547381D01*
X15157381Y-16490238D01*
X15166905Y-16471190D01*
X15176428Y-16461667D01*
X15195476Y-16452143D01*
X15224048Y-16452143D01*
X15243095Y-16461667D01*
X15252619Y-16471190D01*
X15262143Y-16490238D01*
X15262143Y-16547381D01*
X15252619Y-16566428D01*
X15243095Y-16575952D01*
X15224048Y-16585476D01*
X15195476Y-16585476D01*
X15376428Y-16585476D02*
X15357381Y-16575952D01*
X15347857Y-16556905D01*
X15347857Y-16385476D01*
X15528809Y-16575952D02*
X15509762Y-16585476D01*
X15471667Y-16585476D01*
X15452619Y-16575952D01*
X15443095Y-16556905D01*
X15443095Y-16480714D01*
X15452619Y-16461667D01*
X15471667Y-16452143D01*
X15509762Y-16452143D01*
X15528809Y-16461667D01*
X15538333Y-16480714D01*
X15538333Y-16499762D01*
X15443095Y-16518809D01*
X15605000Y-16661667D02*
X15614524Y-16652143D01*
X15633571Y-16623571D01*
X15643095Y-16604524D01*
X15652619Y-16575952D01*
X15662143Y-16528333D01*
X15662143Y-16490238D01*
X15652619Y-16442619D01*
X15643095Y-16414048D01*
X15633571Y-16395000D01*
X15614524Y-16366428D01*
X15605000Y-16356905D01*
X10995000Y-16815000D02*
G75*
G03*
X10995000Y-16815000I-100000J0D01*
G01*
X11233571Y-16705476D02*
X11357381Y-16705476D01*
X11290714Y-16781667D01*
X11319286Y-16781667D01*
X11338333Y-16791190D01*
X11347857Y-16800714D01*
X11357381Y-16819762D01*
X11357381Y-16867381D01*
X11347857Y-16886429D01*
X11338333Y-16895952D01*
X11319286Y-16905476D01*
X11262143Y-16905476D01*
X11243095Y-16895952D01*
X11233571Y-16886429D01*
X11443095Y-16886429D02*
X11452619Y-16895952D01*
X11443095Y-16905476D01*
X11433571Y-16895952D01*
X11443095Y-16886429D01*
X11443095Y-16905476D01*
X11528809Y-16724524D02*
X11538333Y-16715000D01*
X11557381Y-16705476D01*
X11605000Y-16705476D01*
X11624048Y-16715000D01*
X11633571Y-16724524D01*
X11643095Y-16743571D01*
X11643095Y-16762619D01*
X11633571Y-16791190D01*
X11519286Y-16905476D01*
X11643095Y-16905476D01*
X11766905Y-16705476D02*
X11785952Y-16705476D01*
X11805000Y-16715000D01*
X11814524Y-16724524D01*
X11824048Y-16743571D01*
X11833571Y-16781667D01*
X11833571Y-16829286D01*
X11824048Y-16867381D01*
X11814524Y-16886429D01*
X11805000Y-16895952D01*
X11785952Y-16905476D01*
X11766905Y-16905476D01*
X11747857Y-16895952D01*
X11738333Y-16886429D01*
X11728809Y-16867381D01*
X11719286Y-16829286D01*
X11719286Y-16781667D01*
X11728809Y-16743571D01*
X11738333Y-16724524D01*
X11747857Y-16715000D01*
X11766905Y-16705476D01*
X11957381Y-16705476D02*
X11976428Y-16705476D01*
X11995476Y-16715000D01*
X12005000Y-16724524D01*
X12014524Y-16743571D01*
X12024048Y-16781667D01*
X12024048Y-16829286D01*
X12014524Y-16867381D01*
X12005000Y-16886429D01*
X11995476Y-16895952D01*
X11976428Y-16905476D01*
X11957381Y-16905476D01*
X11938333Y-16895952D01*
X11928809Y-16886429D01*
X11919286Y-16867381D01*
X11909762Y-16829286D01*
X11909762Y-16781667D01*
X11919286Y-16743571D01*
X11928809Y-16724524D01*
X11938333Y-16715000D01*
X11957381Y-16705476D01*
X12109762Y-16905476D02*
X12109762Y-16772143D01*
X12109762Y-16791190D02*
X12119286Y-16781667D01*
X12138333Y-16772143D01*
X12166905Y-16772143D01*
X12185952Y-16781667D01*
X12195476Y-16800714D01*
X12195476Y-16905476D01*
X12195476Y-16800714D02*
X12205000Y-16781667D01*
X12224048Y-16772143D01*
X12252619Y-16772143D01*
X12271667Y-16781667D01*
X12281190Y-16800714D01*
X12281190Y-16905476D01*
X12376428Y-16905476D02*
X12376428Y-16772143D01*
X12376428Y-16791190D02*
X12385952Y-16781667D01*
X12405000Y-16772143D01*
X12433571Y-16772143D01*
X12452619Y-16781667D01*
X12462143Y-16800714D01*
X12462143Y-16905476D01*
X12462143Y-16800714D02*
X12471667Y-16781667D01*
X12490714Y-16772143D01*
X12519286Y-16772143D01*
X12538333Y-16781667D01*
X12547857Y-16800714D01*
X12547857Y-16905476D01*
X12938333Y-16695952D02*
X12766905Y-16953095D01*
X13195476Y-16705476D02*
X13214524Y-16705476D01*
X13233571Y-16715000D01*
X13243095Y-16724524D01*
X13252619Y-16743571D01*
X13262143Y-16781667D01*
X13262143Y-16829286D01*
X13252619Y-16867381D01*
X13243095Y-16886429D01*
X13233571Y-16895952D01*
X13214524Y-16905476D01*
X13195476Y-16905476D01*
X13176428Y-16895952D01*
X13166905Y-16886429D01*
X13157381Y-16867381D01*
X13147857Y-16829286D01*
X13147857Y-16781667D01*
X13157381Y-16743571D01*
X13166905Y-16724524D01*
X13176428Y-16715000D01*
X13195476Y-16705476D01*
X13347857Y-16886429D02*
X13357381Y-16895952D01*
X13347857Y-16905476D01*
X13338333Y-16895952D01*
X13347857Y-16886429D01*
X13347857Y-16905476D01*
X13547857Y-16905476D02*
X13433571Y-16905476D01*
X13490714Y-16905476D02*
X13490714Y-16705476D01*
X13471667Y-16734048D01*
X13452619Y-16753095D01*
X13433571Y-16762619D01*
X13624048Y-16724524D02*
X13633571Y-16715000D01*
X13652619Y-16705476D01*
X13700238Y-16705476D01*
X13719286Y-16715000D01*
X13728809Y-16724524D01*
X13738333Y-16743571D01*
X13738333Y-16762619D01*
X13728809Y-16791190D01*
X13614524Y-16905476D01*
X13738333Y-16905476D01*
X13909762Y-16705476D02*
X13871667Y-16705476D01*
X13852619Y-16715000D01*
X13843095Y-16724524D01*
X13824048Y-16753095D01*
X13814524Y-16791190D01*
X13814524Y-16867381D01*
X13824048Y-16886429D01*
X13833571Y-16895952D01*
X13852619Y-16905476D01*
X13890714Y-16905476D01*
X13909762Y-16895952D01*
X13919286Y-16886429D01*
X13928809Y-16867381D01*
X13928809Y-16819762D01*
X13919286Y-16800714D01*
X13909762Y-16791190D01*
X13890714Y-16781667D01*
X13852619Y-16781667D01*
X13833571Y-16791190D01*
X13824048Y-16800714D01*
X13814524Y-16819762D01*
X14052619Y-16705476D02*
X14071667Y-16705476D01*
X14090714Y-16715000D01*
X14100238Y-16724524D01*
X14109762Y-16743571D01*
X14119286Y-16781667D01*
X14119286Y-16829286D01*
X14109762Y-16867381D01*
X14100238Y-16886429D01*
X14090714Y-16895952D01*
X14071667Y-16905476D01*
X14052619Y-16905476D01*
X14033571Y-16895952D01*
X14024048Y-16886429D01*
X14014524Y-16867381D01*
X14005000Y-16829286D01*
X14005000Y-16781667D01*
X14014524Y-16743571D01*
X14024048Y-16724524D01*
X14033571Y-16715000D01*
X14052619Y-16705476D01*
X14195476Y-16705476D02*
X14195476Y-16743571D01*
X14271667Y-16705476D02*
X14271667Y-16743571D01*
X14566905Y-16981667D02*
X14557381Y-16972143D01*
X14538333Y-16943571D01*
X14528809Y-16924524D01*
X14519286Y-16895952D01*
X14509762Y-16848333D01*
X14509762Y-16810238D01*
X14519286Y-16762619D01*
X14528809Y-16734048D01*
X14538333Y-16715000D01*
X14557381Y-16686428D01*
X14566905Y-16676905D01*
X14681190Y-16705476D02*
X14700238Y-16705476D01*
X14719286Y-16715000D01*
X14728809Y-16724524D01*
X14738333Y-16743571D01*
X14747857Y-16781667D01*
X14747857Y-16829286D01*
X14738333Y-16867381D01*
X14728809Y-16886429D01*
X14719286Y-16895952D01*
X14700238Y-16905476D01*
X14681190Y-16905476D01*
X14662143Y-16895952D01*
X14652619Y-16886429D01*
X14643095Y-16867381D01*
X14633571Y-16829286D01*
X14633571Y-16781667D01*
X14643095Y-16743571D01*
X14652619Y-16724524D01*
X14662143Y-16715000D01*
X14681190Y-16705476D01*
X14985952Y-16905476D02*
X14985952Y-16705476D01*
X15071667Y-16905476D02*
X15071667Y-16800714D01*
X15062143Y-16781667D01*
X15043095Y-16772143D01*
X15014524Y-16772143D01*
X14995476Y-16781667D01*
X14985952Y-16791190D01*
X15195476Y-16905476D02*
X15176428Y-16895952D01*
X15166905Y-16886429D01*
X15157381Y-16867381D01*
X15157381Y-16810238D01*
X15166905Y-16791190D01*
X15176428Y-16781667D01*
X15195476Y-16772143D01*
X15224048Y-16772143D01*
X15243095Y-16781667D01*
X15252619Y-16791190D01*
X15262143Y-16810238D01*
X15262143Y-16867381D01*
X15252619Y-16886429D01*
X15243095Y-16895952D01*
X15224048Y-16905476D01*
X15195476Y-16905476D01*
X15376428Y-16905476D02*
X15357381Y-16895952D01*
X15347857Y-16876905D01*
X15347857Y-16705476D01*
X15528809Y-16895952D02*
X15509762Y-16905476D01*
X15471667Y-16905476D01*
X15452619Y-16895952D01*
X15443095Y-16876905D01*
X15443095Y-16800714D01*
X15452619Y-16781667D01*
X15471667Y-16772143D01*
X15509762Y-16772143D01*
X15528809Y-16781667D01*
X15538333Y-16800714D01*
X15538333Y-16819762D01*
X15443095Y-16838810D01*
X15614524Y-16895952D02*
X15633571Y-16905476D01*
X15671667Y-16905476D01*
X15690714Y-16895952D01*
X15700238Y-16876905D01*
X15700238Y-16867381D01*
X15690714Y-16848333D01*
X15671667Y-16838810D01*
X15643095Y-16838810D01*
X15624048Y-16829286D01*
X15614524Y-16810238D01*
X15614524Y-16800714D01*
X15624048Y-16781667D01*
X15643095Y-16772143D01*
X15671667Y-16772143D01*
X15690714Y-16781667D01*
X15938333Y-16829286D02*
X16090714Y-16829286D01*
X16014524Y-16905476D02*
X16014524Y-16753095D01*
X16328809Y-16724524D02*
X16338333Y-16715000D01*
X16357381Y-16705476D01*
X16405000Y-16705476D01*
X16424048Y-16715000D01*
X16433571Y-16724524D01*
X16443095Y-16743571D01*
X16443095Y-16762619D01*
X16433571Y-16791190D01*
X16319286Y-16905476D01*
X16443095Y-16905476D01*
X16671667Y-16895952D02*
X16690714Y-16905476D01*
X16728809Y-16905476D01*
X16747857Y-16895952D01*
X16757381Y-16876905D01*
X16757381Y-16867381D01*
X16747857Y-16848333D01*
X16728809Y-16838810D01*
X16700238Y-16838810D01*
X16681190Y-16829286D01*
X16671667Y-16810238D01*
X16671667Y-16800714D01*
X16681190Y-16781667D01*
X16700238Y-16772143D01*
X16728809Y-16772143D01*
X16747857Y-16781667D01*
X16871667Y-16905476D02*
X16852619Y-16895952D01*
X16843095Y-16876905D01*
X16843095Y-16705476D01*
X16976429Y-16905476D02*
X16957381Y-16895952D01*
X16947857Y-16886429D01*
X16938333Y-16867381D01*
X16938333Y-16810238D01*
X16947857Y-16791190D01*
X16957381Y-16781667D01*
X16976429Y-16772143D01*
X17005000Y-16772143D01*
X17024048Y-16781667D01*
X17033571Y-16791190D01*
X17043095Y-16810238D01*
X17043095Y-16867381D01*
X17033571Y-16886429D01*
X17024048Y-16895952D01*
X17005000Y-16905476D01*
X16976429Y-16905476D01*
X17100238Y-16772143D02*
X17176429Y-16772143D01*
X17128810Y-16705476D02*
X17128810Y-16876905D01*
X17138333Y-16895952D01*
X17157381Y-16905476D01*
X17176429Y-16905476D01*
X17233571Y-16895952D02*
X17252619Y-16905476D01*
X17290714Y-16905476D01*
X17309762Y-16895952D01*
X17319286Y-16876905D01*
X17319286Y-16867381D01*
X17309762Y-16848333D01*
X17290714Y-16838810D01*
X17262143Y-16838810D01*
X17243095Y-16829286D01*
X17233571Y-16810238D01*
X17233571Y-16800714D01*
X17243095Y-16781667D01*
X17262143Y-16772143D01*
X17290714Y-16772143D01*
X17309762Y-16781667D01*
X17385952Y-16981667D02*
X17395476Y-16972143D01*
X17414524Y-16943571D01*
X17424048Y-16924524D01*
X17433571Y-16895952D01*
X17443095Y-16848333D01*
X17443095Y-16810238D01*
X17433571Y-16762619D01*
X17424048Y-16734048D01*
X17414524Y-16715000D01*
X17395476Y-16686428D01*
X17385952Y-16676905D01*
M02*
