%TF.GenerationSoftware,KiCad,Pcbnew,6.0.11+dfsg-1~bpo11+1*%
%TF.CreationDate,2023-11-22T17:04:06+08:00*%
%TF.ProjectId,MiniAttenuMix - Main,4d696e69-4174-4746-956e-754d6978202d,v0.2*%
%TF.SameCoordinates,Original*%
%TF.FileFunction,Soldermask,Top*%
%TF.FilePolarity,Negative*%
%FSLAX46Y46*%
G04 Gerber Fmt 4.6, Leading zero omitted, Abs format (unit mm)*
G04 Created by KiCad (PCBNEW 6.0.11+dfsg-1~bpo11+1) date 2023-11-22 17:04:06*
%MOMM*%
%LPD*%
G01*
G04 APERTURE LIST*
G04 Aperture macros list*
%AMRoundRect*
0 Rectangle with rounded corners*
0 $1 Rounding radius*
0 $2 $3 $4 $5 $6 $7 $8 $9 X,Y pos of 4 corners*
0 Add a 4 corners polygon primitive as box body*
4,1,4,$2,$3,$4,$5,$6,$7,$8,$9,$2,$3,0*
0 Add four circle primitives for the rounded corners*
1,1,$1+$1,$2,$3*
1,1,$1+$1,$4,$5*
1,1,$1+$1,$6,$7*
1,1,$1+$1,$8,$9*
0 Add four rect primitives between the rounded corners*
20,1,$1+$1,$2,$3,$4,$5,0*
20,1,$1+$1,$4,$5,$6,$7,0*
20,1,$1+$1,$6,$7,$8,$9,0*
20,1,$1+$1,$8,$9,$2,$3,0*%
G04 Aperture macros list end*
%ADD10O,2.720000X3.240000*%
%ADD11R,1.800000X1.800000*%
%ADD12C,1.800000*%
%ADD13R,1.930000X1.830000*%
%ADD14C,2.130000*%
%ADD15RoundRect,0.250000X0.337500X0.475000X-0.337500X0.475000X-0.337500X-0.475000X0.337500X-0.475000X0*%
%ADD16RoundRect,0.250000X-0.475000X0.337500X-0.475000X-0.337500X0.475000X-0.337500X0.475000X0.337500X0*%
%ADD17RoundRect,0.250000X-0.600000X-0.600000X0.600000X-0.600000X0.600000X0.600000X-0.600000X0.600000X0*%
%ADD18C,1.700000*%
G04 APERTURE END LIST*
D10*
%TO.C,RV4*%
X159900000Y-95625000D03*
X150300000Y-95625000D03*
D11*
X152600000Y-103125000D03*
D12*
X155100000Y-103125000D03*
X157600000Y-103125000D03*
%TD*%
D13*
%TO.C,OUT_INV1*%
X155000000Y-137550000D03*
D14*
X155000000Y-148950000D03*
X155000000Y-140650000D03*
%TD*%
D11*
%TO.C,D1*%
X145775000Y-112600000D03*
D12*
X143235000Y-112600000D03*
%TD*%
D13*
%TO.C,IN2*%
X144600000Y-53870000D03*
D14*
X144600000Y-65270000D03*
X144600000Y-56970000D03*
%TD*%
D15*
%TO.C,C1*%
X146287500Y-117550000D03*
X144212500Y-117550000D03*
%TD*%
D10*
%TO.C,RV1*%
X159900000Y-43125000D03*
X150300000Y-43125000D03*
D11*
X152600000Y-50625000D03*
D12*
X155100000Y-50625000D03*
X157600000Y-50625000D03*
%TD*%
D10*
%TO.C,RV3*%
X159900000Y-78025000D03*
X150300000Y-78025000D03*
D11*
X152600000Y-85525000D03*
D12*
X155100000Y-85525000D03*
X157600000Y-85525000D03*
%TD*%
D16*
%TO.C,C2*%
X148900000Y-128262500D03*
X148900000Y-130337500D03*
%TD*%
D10*
%TO.C,RV2*%
X159900000Y-60572800D03*
X150300000Y-60572800D03*
D11*
X152600000Y-68072800D03*
D12*
X155100000Y-68072800D03*
X157600000Y-68072800D03*
%TD*%
D13*
%TO.C,OUT1*%
X145000000Y-137550000D03*
D14*
X145000000Y-148950000D03*
X145000000Y-140650000D03*
%TD*%
D13*
%TO.C,IN3*%
X144600000Y-68300000D03*
D14*
X144600000Y-79700000D03*
X144600000Y-71400000D03*
%TD*%
D13*
%TO.C,IN4*%
X144600000Y-82720000D03*
D14*
X144600000Y-94120000D03*
X144600000Y-85820000D03*
%TD*%
D13*
%TO.C,IN1*%
X144600000Y-39420000D03*
D14*
X144600000Y-50820000D03*
X144600000Y-42520000D03*
%TD*%
D10*
%TO.C,RV5*%
X159900000Y-113025000D03*
X150300000Y-113025000D03*
D11*
X152600000Y-120525000D03*
D12*
X155100000Y-120525000D03*
X157600000Y-120525000D03*
%TD*%
D13*
%TO.C,IN5*%
X144600000Y-97170000D03*
D14*
X144600000Y-108570000D03*
X144600000Y-100270000D03*
%TD*%
D17*
%TO.C,J1*%
X143697500Y-130330000D03*
D18*
X146237500Y-130330000D03*
X143697500Y-127790000D03*
X146237500Y-127790000D03*
X143697500Y-125250000D03*
X146237500Y-125250000D03*
X143697500Y-122710000D03*
X146237500Y-122710000D03*
X143697500Y-120170000D03*
X146237500Y-120170000D03*
%TD*%
M02*
