M48
; DRILL file {KiCad 6.0.11+dfsg-1~bpo11+1} date Wednesday, 22 November, 2023 05:04:00 PM
; FORMAT={-:-/ absolute / inch / decimal}
; #@! TF.CreationDate,2023-11-22T17:04:00+08:00
; #@! TF.GenerationSoftware,Kicad,Pcbnew,6.0.11+dfsg-1~bpo11+1
; #@! TF.FileFunction,Plated,1,2,PTH
FMAT,2
INCH
; #@! TA.AperFunction,Plated,PTH,ViaDrill
T1C0.0157
; #@! TA.AperFunction,Plated,PTH,ViaDrill
T2C0.0315
; #@! TA.AperFunction,Plated,PTH,ComponentDrill
T3C0.0354
; #@! TA.AperFunction,Plated,PTH,ComponentDrill
T4C0.0394
; #@! TA.AperFunction,Plated,PTH,ComponentDrill
T5C0.0433
; #@! TA.AperFunction,Plated,PTH,ComponentDrill
T6C0.0480
; #@! TA.AperFunction,Plated,PTH,ComponentDrill
T7C0.0559
; #@! TA.AperFunction,Plated,PTH,ComponentDrill
T8C0.0563
%
G90
G05
T1
X5.8465Y-5.3228
X5.8691Y-4.6201
X5.9409Y-5.3898
X5.9836Y-5.0672
X6.035Y-5.1496
X6.035Y-5.1811
X6.035Y-5.2126
X6.0354Y-5.0148
X6.0364Y-4.9587
X6.0364Y-4.9852
X6.126Y-4.8829
X6.1457Y-5.0915
X6.1654Y-5.315
X6.1949Y-5.0896
X6.2087Y-5.315
X6.248Y-5.315
T2
X5.6152Y-4.5561
X5.69Y-4.5551
X6.0415Y-3.689
X6.0512Y-2.3287
X6.0862Y-5.2752
X6.1732Y-3.6929
X6.2263Y-2.2342
T3
X5.6392Y-4.4331
X5.7392Y-4.4331
T4
X5.6574Y-4.7311
X5.6574Y-4.8311
X5.6574Y-4.9311
X5.6574Y-5.0311
X5.6574Y-5.1311
X5.7574Y-4.7311
X5.7574Y-4.8311
X5.7574Y-4.9311
X5.7574Y-5.0311
X5.7574Y-5.1311
X6.0079Y-1.9931
X6.0079Y-2.68
X6.0079Y-3.3671
X6.0079Y-4.06
X6.0079Y-4.7451
X6.1063Y-1.9931
X6.1063Y-2.68
X6.1063Y-3.3671
X6.1063Y-4.06
X6.1063Y-4.7451
X6.2047Y-1.9931
X6.2047Y-2.68
X6.2047Y-3.3671
X6.2047Y-4.06
X6.2047Y-4.7451
T6
X5.6929Y-1.552
X5.6929Y-2.1209
X5.6929Y-2.689
X5.6929Y-3.2567
X5.6929Y-3.8256
X5.7087Y-5.4154
X6.1024Y-5.4154
T7
X5.6929Y-1.674
X5.6929Y-2.2429
X5.6929Y-2.811
X5.6929Y-3.3787
X5.6929Y-3.9476
X5.7087Y-5.5374
X6.1024Y-5.5374
T8
X5.6929Y-2.0008
X5.6929Y-2.5697
X5.6929Y-3.1378
X5.6929Y-3.7055
X5.6929Y-4.2744
X5.7087Y-5.8642
X6.1024Y-5.8642
T5
G00X5.9173Y-1.7215
M15
G01X5.9173Y-1.6742
M16
G05
G00X5.9173Y-2.4084
M15
G01X5.9173Y-2.3611
M16
G05
G00X5.9173Y-3.0955
M15
G01X5.9173Y-3.0482
M16
G05
G00X5.9173Y-3.7884
M15
G01X5.9173Y-3.7411
M16
G05
G00X5.9173Y-4.4734
M15
G01X5.9173Y-4.4262
M16
G05
G00X6.2953Y-1.7215
M15
G01X6.2953Y-1.6742
M16
G05
G00X6.2953Y-2.4084
M15
G01X6.2953Y-2.3611
M16
G05
G00X6.2953Y-3.0955
M15
G01X6.2953Y-3.0482
M16
G05
G00X6.2953Y-3.7884
M15
G01X6.2953Y-3.7411
M16
G05
G00X6.2953Y-4.4734
M15
G01X6.2953Y-4.4262
M16
G05
T0
M30
