%TF.GenerationSoftware,KiCad,Pcbnew,6.0.11+dfsg-1~bpo11+1*%
%TF.CreationDate,2023-11-22T17:04:06+08:00*%
%TF.ProjectId,MiniAttenuMix - Main,4d696e69-4174-4746-956e-754d6978202d,v0.2*%
%TF.SameCoordinates,Original*%
%TF.FileFunction,Legend,Bot*%
%TF.FilePolarity,Positive*%
%FSLAX46Y46*%
G04 Gerber Fmt 4.6, Leading zero omitted, Abs format (unit mm)*
G04 Created by KiCad (PCBNEW 6.0.11+dfsg-1~bpo11+1) date 2023-11-22 17:04:06*
%MOMM*%
%LPD*%
G01*
G04 APERTURE LIST*
%ADD10C,0.150000*%
%ADD11C,0.120000*%
G04 APERTURE END LIST*
D10*
X153952380Y-70038095D02*
X152952380Y-70038095D01*
X153666666Y-70371428D01*
X152952380Y-70704761D01*
X153952380Y-70704761D01*
X153952380Y-71180952D02*
X153285714Y-71180952D01*
X152952380Y-71180952D02*
X153000000Y-71133333D01*
X153047619Y-71180952D01*
X153000000Y-71228571D01*
X152952380Y-71180952D01*
X153047619Y-71180952D01*
X153285714Y-71657142D02*
X153952380Y-71657142D01*
X153380952Y-71657142D02*
X153333333Y-71704761D01*
X153285714Y-71800000D01*
X153285714Y-71942857D01*
X153333333Y-72038095D01*
X153428571Y-72085714D01*
X153952380Y-72085714D01*
X153952380Y-72561904D02*
X153285714Y-72561904D01*
X152952380Y-72561904D02*
X153000000Y-72514285D01*
X153047619Y-72561904D01*
X153000000Y-72609523D01*
X152952380Y-72561904D01*
X153047619Y-72561904D01*
X153666666Y-72990476D02*
X153666666Y-73466666D01*
X153952380Y-72895238D02*
X152952380Y-73228571D01*
X153952380Y-73561904D01*
X153285714Y-73752380D02*
X153285714Y-74133333D01*
X152952380Y-73895238D02*
X153809523Y-73895238D01*
X153904761Y-73942857D01*
X153952380Y-74038095D01*
X153952380Y-74133333D01*
X153285714Y-74323809D02*
X153285714Y-74704761D01*
X152952380Y-74466666D02*
X153809523Y-74466666D01*
X153904761Y-74514285D01*
X153952380Y-74609523D01*
X153952380Y-74704761D01*
X153904761Y-75419047D02*
X153952380Y-75323809D01*
X153952380Y-75133333D01*
X153904761Y-75038095D01*
X153809523Y-74990476D01*
X153428571Y-74990476D01*
X153333333Y-75038095D01*
X153285714Y-75133333D01*
X153285714Y-75323809D01*
X153333333Y-75419047D01*
X153428571Y-75466666D01*
X153523809Y-75466666D01*
X153619047Y-74990476D01*
X153285714Y-75895238D02*
X153952380Y-75895238D01*
X153380952Y-75895238D02*
X153333333Y-75942857D01*
X153285714Y-76038095D01*
X153285714Y-76180952D01*
X153333333Y-76276190D01*
X153428571Y-76323809D01*
X153952380Y-76323809D01*
X153285714Y-77228571D02*
X153952380Y-77228571D01*
X153285714Y-76800000D02*
X153809523Y-76800000D01*
X153904761Y-76847619D01*
X153952380Y-76942857D01*
X153952380Y-77085714D01*
X153904761Y-77180952D01*
X153857142Y-77228571D01*
X153952380Y-77704761D02*
X152952380Y-77704761D01*
X153666666Y-78038095D01*
X152952380Y-78371428D01*
X153952380Y-78371428D01*
X153952380Y-78847619D02*
X153285714Y-78847619D01*
X152952380Y-78847619D02*
X153000000Y-78800000D01*
X153047619Y-78847619D01*
X153000000Y-78895238D01*
X152952380Y-78847619D01*
X153047619Y-78847619D01*
X153952380Y-79228571D02*
X153285714Y-79752380D01*
X153285714Y-79228571D02*
X153952380Y-79752380D01*
X153285714Y-80800000D02*
X153952380Y-81038095D01*
X153285714Y-81276190D01*
X152952380Y-81847619D02*
X152952380Y-81942857D01*
X153000000Y-82038095D01*
X153047619Y-82085714D01*
X153142857Y-82133333D01*
X153333333Y-82180952D01*
X153571428Y-82180952D01*
X153761904Y-82133333D01*
X153857142Y-82085714D01*
X153904761Y-82038095D01*
X153952380Y-81942857D01*
X153952380Y-81847619D01*
X153904761Y-81752380D01*
X153857142Y-81704761D01*
X153761904Y-81657142D01*
X153571428Y-81609523D01*
X153333333Y-81609523D01*
X153142857Y-81657142D01*
X153047619Y-81704761D01*
X153000000Y-81752380D01*
X152952380Y-81847619D01*
X153857142Y-82609523D02*
X153904761Y-82657142D01*
X153952380Y-82609523D01*
X153904761Y-82561904D01*
X153857142Y-82609523D01*
X153952380Y-82609523D01*
X153047619Y-83038095D02*
X153000000Y-83085714D01*
X152952380Y-83180952D01*
X152952380Y-83419047D01*
X153000000Y-83514285D01*
X153047619Y-83561904D01*
X153142857Y-83609523D01*
X153238095Y-83609523D01*
X153380952Y-83561904D01*
X153952380Y-82990476D01*
X153952380Y-83609523D01*
X155352380Y-70061904D02*
X154352380Y-70061904D01*
X154733333Y-70061904D02*
X154685714Y-70157142D01*
X154685714Y-70347619D01*
X154733333Y-70442857D01*
X154780952Y-70490476D01*
X154876190Y-70538095D01*
X155161904Y-70538095D01*
X155257142Y-70490476D01*
X155304761Y-70442857D01*
X155352380Y-70347619D01*
X155352380Y-70157142D01*
X155304761Y-70061904D01*
X154685714Y-70871428D02*
X155352380Y-71109523D01*
X154685714Y-71347619D02*
X155352380Y-71109523D01*
X155590476Y-71014285D01*
X155638095Y-70966666D01*
X155685714Y-70871428D01*
X155352380Y-72490476D02*
X154352380Y-72490476D01*
X154733333Y-72490476D02*
X154685714Y-72585714D01*
X154685714Y-72776190D01*
X154733333Y-72871428D01*
X154780952Y-72919047D01*
X154876190Y-72966666D01*
X155161904Y-72966666D01*
X155257142Y-72919047D01*
X155304761Y-72871428D01*
X155352380Y-72776190D01*
X155352380Y-72585714D01*
X155304761Y-72490476D01*
X155304761Y-73776190D02*
X155352380Y-73680952D01*
X155352380Y-73490476D01*
X155304761Y-73395238D01*
X155209523Y-73347619D01*
X154828571Y-73347619D01*
X154733333Y-73395238D01*
X154685714Y-73490476D01*
X154685714Y-73680952D01*
X154733333Y-73776190D01*
X154828571Y-73823809D01*
X154923809Y-73823809D01*
X155019047Y-73347619D01*
X154685714Y-74252380D02*
X155352380Y-74252380D01*
X154780952Y-74252380D02*
X154733333Y-74300000D01*
X154685714Y-74395238D01*
X154685714Y-74538095D01*
X154733333Y-74633333D01*
X154828571Y-74680952D01*
X155352380Y-74680952D01*
X154685714Y-75157142D02*
X155542857Y-75157142D01*
X155638095Y-75109523D01*
X155685714Y-75014285D01*
X155685714Y-74966666D01*
X154352380Y-75157142D02*
X154400000Y-75109523D01*
X154447619Y-75157142D01*
X154400000Y-75204761D01*
X154352380Y-75157142D01*
X154447619Y-75157142D01*
X155352380Y-75633333D02*
X154685714Y-75633333D01*
X154352380Y-75633333D02*
X154400000Y-75585714D01*
X154447619Y-75633333D01*
X154400000Y-75680952D01*
X154352380Y-75633333D01*
X154447619Y-75633333D01*
X155352380Y-76538095D02*
X154828571Y-76538095D01*
X154733333Y-76490476D01*
X154685714Y-76395238D01*
X154685714Y-76204761D01*
X154733333Y-76109523D01*
X155304761Y-76538095D02*
X155352380Y-76442857D01*
X155352380Y-76204761D01*
X155304761Y-76109523D01*
X155209523Y-76061904D01*
X155114285Y-76061904D01*
X155019047Y-76109523D01*
X154971428Y-76204761D01*
X154971428Y-76442857D01*
X154923809Y-76538095D01*
X155352380Y-77157142D02*
X155304761Y-77061904D01*
X155257142Y-77014285D01*
X155161904Y-76966666D01*
X154876190Y-76966666D01*
X154780952Y-77014285D01*
X154733333Y-77061904D01*
X154685714Y-77157142D01*
X154685714Y-77300000D01*
X154733333Y-77395238D01*
X154780952Y-77442857D01*
X154876190Y-77490476D01*
X155161904Y-77490476D01*
X155257142Y-77442857D01*
X155304761Y-77395238D01*
X155352380Y-77300000D01*
X155352380Y-77157142D01*
X155352380Y-77919047D02*
X154685714Y-77919047D01*
X154780952Y-77919047D02*
X154733333Y-77966666D01*
X154685714Y-78061904D01*
X154685714Y-78204761D01*
X154733333Y-78300000D01*
X154828571Y-78347619D01*
X155352380Y-78347619D01*
X154828571Y-78347619D02*
X154733333Y-78395238D01*
X154685714Y-78490476D01*
X154685714Y-78633333D01*
X154733333Y-78728571D01*
X154828571Y-78776190D01*
X155352380Y-78776190D01*
X155352380Y-79395238D02*
X155304761Y-79300000D01*
X155257142Y-79252380D01*
X155161904Y-79204761D01*
X154876190Y-79204761D01*
X154780952Y-79252380D01*
X154733333Y-79300000D01*
X154685714Y-79395238D01*
X154685714Y-79538095D01*
X154733333Y-79633333D01*
X154780952Y-79680952D01*
X154876190Y-79728571D01*
X155161904Y-79728571D01*
X155257142Y-79680952D01*
X155304761Y-79633333D01*
X155352380Y-79538095D01*
X155352380Y-79395238D01*
X155352380Y-80585714D02*
X154352380Y-80585714D01*
X155304761Y-80585714D02*
X155352380Y-80490476D01*
X155352380Y-80300000D01*
X155304761Y-80204761D01*
X155257142Y-80157142D01*
X155161904Y-80109523D01*
X154876190Y-80109523D01*
X154780952Y-80157142D01*
X154733333Y-80204761D01*
X154685714Y-80300000D01*
X154685714Y-80490476D01*
X154733333Y-80585714D01*
X154685714Y-81490476D02*
X155352380Y-81490476D01*
X154685714Y-81061904D02*
X155209523Y-81061904D01*
X155304761Y-81109523D01*
X155352380Y-81204761D01*
X155352380Y-81347619D01*
X155304761Y-81442857D01*
X155257142Y-81490476D01*
X155352380Y-82109523D02*
X155304761Y-82014285D01*
X155209523Y-81966666D01*
X154352380Y-81966666D01*
X155352380Y-82919047D02*
X154828571Y-82919047D01*
X154733333Y-82871428D01*
X154685714Y-82776190D01*
X154685714Y-82585714D01*
X154733333Y-82490476D01*
X155304761Y-82919047D02*
X155352380Y-82823809D01*
X155352380Y-82585714D01*
X155304761Y-82490476D01*
X155209523Y-82442857D01*
X155114285Y-82442857D01*
X155019047Y-82490476D01*
X154971428Y-82585714D01*
X154971428Y-82823809D01*
X154923809Y-82919047D01*
X155352380Y-83395238D02*
X154685714Y-83395238D01*
X154876190Y-83395238D02*
X154780952Y-83442857D01*
X154733333Y-83490476D01*
X154685714Y-83585714D01*
X154685714Y-83680952D01*
%TO.C,R16*%
X151992857Y-123652380D02*
X152326190Y-123176190D01*
X152564285Y-123652380D02*
X152564285Y-122652380D01*
X152183333Y-122652380D01*
X152088095Y-122700000D01*
X152040476Y-122747619D01*
X151992857Y-122842857D01*
X151992857Y-122985714D01*
X152040476Y-123080952D01*
X152088095Y-123128571D01*
X152183333Y-123176190D01*
X152564285Y-123176190D01*
X151040476Y-123652380D02*
X151611904Y-123652380D01*
X151326190Y-123652380D02*
X151326190Y-122652380D01*
X151421428Y-122795238D01*
X151516666Y-122890476D01*
X151611904Y-122938095D01*
X150183333Y-122652380D02*
X150373809Y-122652380D01*
X150469047Y-122700000D01*
X150516666Y-122747619D01*
X150611904Y-122890476D01*
X150659523Y-123080952D01*
X150659523Y-123461904D01*
X150611904Y-123557142D01*
X150564285Y-123604761D01*
X150469047Y-123652380D01*
X150278571Y-123652380D01*
X150183333Y-123604761D01*
X150135714Y-123557142D01*
X150088095Y-123461904D01*
X150088095Y-123223809D01*
X150135714Y-123128571D01*
X150183333Y-123080952D01*
X150278571Y-123033333D01*
X150469047Y-123033333D01*
X150564285Y-123080952D01*
X150611904Y-123128571D01*
X150659523Y-123223809D01*
%TO.C,U1*%
X150847380Y-58487171D02*
X151656904Y-58487171D01*
X151752142Y-58534790D01*
X151799761Y-58582409D01*
X151847380Y-58677647D01*
X151847380Y-58868123D01*
X151799761Y-58963361D01*
X151752142Y-59010980D01*
X151656904Y-59058599D01*
X150847380Y-59058599D01*
X151847380Y-60058599D02*
X151847380Y-59487171D01*
X151847380Y-59772885D02*
X150847380Y-59772885D01*
X150990238Y-59677647D01*
X151085476Y-59582409D01*
X151133095Y-59487171D01*
%TO.C,R18*%
X155317857Y-134052380D02*
X155651190Y-133576190D01*
X155889285Y-134052380D02*
X155889285Y-133052380D01*
X155508333Y-133052380D01*
X155413095Y-133100000D01*
X155365476Y-133147619D01*
X155317857Y-133242857D01*
X155317857Y-133385714D01*
X155365476Y-133480952D01*
X155413095Y-133528571D01*
X155508333Y-133576190D01*
X155889285Y-133576190D01*
X154365476Y-134052380D02*
X154936904Y-134052380D01*
X154651190Y-134052380D02*
X154651190Y-133052380D01*
X154746428Y-133195238D01*
X154841666Y-133290476D01*
X154936904Y-133338095D01*
X153794047Y-133480952D02*
X153889285Y-133433333D01*
X153936904Y-133385714D01*
X153984523Y-133290476D01*
X153984523Y-133242857D01*
X153936904Y-133147619D01*
X153889285Y-133100000D01*
X153794047Y-133052380D01*
X153603571Y-133052380D01*
X153508333Y-133100000D01*
X153460714Y-133147619D01*
X153413095Y-133242857D01*
X153413095Y-133290476D01*
X153460714Y-133385714D01*
X153508333Y-133433333D01*
X153603571Y-133480952D01*
X153794047Y-133480952D01*
X153889285Y-133528571D01*
X153936904Y-133576190D01*
X153984523Y-133671428D01*
X153984523Y-133861904D01*
X153936904Y-133957142D01*
X153889285Y-134004761D01*
X153794047Y-134052380D01*
X153603571Y-134052380D01*
X153508333Y-134004761D01*
X153460714Y-133957142D01*
X153413095Y-133861904D01*
X153413095Y-133671428D01*
X153460714Y-133576190D01*
X153508333Y-133528571D01*
X153603571Y-133480952D01*
%TO.C,R1*%
X156511666Y-53601456D02*
X156845000Y-53125266D01*
X157083095Y-53601456D02*
X157083095Y-52601456D01*
X156702142Y-52601456D01*
X156606904Y-52649076D01*
X156559285Y-52696695D01*
X156511666Y-52791933D01*
X156511666Y-52934790D01*
X156559285Y-53030028D01*
X156606904Y-53077647D01*
X156702142Y-53125266D01*
X157083095Y-53125266D01*
X155559285Y-53601456D02*
X156130714Y-53601456D01*
X155845000Y-53601456D02*
X155845000Y-52601456D01*
X155940238Y-52744314D01*
X156035476Y-52839552D01*
X156130714Y-52887171D01*
%TO.C,R11*%
X149777380Y-104082142D02*
X149301190Y-103748809D01*
X149777380Y-103510714D02*
X148777380Y-103510714D01*
X148777380Y-103891666D01*
X148825000Y-103986904D01*
X148872619Y-104034523D01*
X148967857Y-104082142D01*
X149110714Y-104082142D01*
X149205952Y-104034523D01*
X149253571Y-103986904D01*
X149301190Y-103891666D01*
X149301190Y-103510714D01*
X149777380Y-105034523D02*
X149777380Y-104463095D01*
X149777380Y-104748809D02*
X148777380Y-104748809D01*
X148920238Y-104653571D01*
X149015476Y-104558333D01*
X149063095Y-104463095D01*
X149777380Y-105986904D02*
X149777380Y-105415476D01*
X149777380Y-105701190D02*
X148777380Y-105701190D01*
X148920238Y-105605952D01*
X149015476Y-105510714D01*
X149063095Y-105415476D01*
%TO.C,R9*%
X157114066Y-98779980D02*
X157447400Y-98303790D01*
X157685495Y-98779980D02*
X157685495Y-97779980D01*
X157304542Y-97779980D01*
X157209304Y-97827600D01*
X157161685Y-97875219D01*
X157114066Y-97970457D01*
X157114066Y-98113314D01*
X157161685Y-98208552D01*
X157209304Y-98256171D01*
X157304542Y-98303790D01*
X157685495Y-98303790D01*
X156637876Y-98779980D02*
X156447400Y-98779980D01*
X156352161Y-98732361D01*
X156304542Y-98684742D01*
X156209304Y-98541885D01*
X156161685Y-98351409D01*
X156161685Y-97970457D01*
X156209304Y-97875219D01*
X156256923Y-97827600D01*
X156352161Y-97779980D01*
X156542638Y-97779980D01*
X156637876Y-97827600D01*
X156685495Y-97875219D01*
X156733114Y-97970457D01*
X156733114Y-98208552D01*
X156685495Y-98303790D01*
X156637876Y-98351409D01*
X156542638Y-98399028D01*
X156352161Y-98399028D01*
X156256923Y-98351409D01*
X156209304Y-98303790D01*
X156161685Y-98208552D01*
%TO.C,R4*%
X157126566Y-100354980D02*
X157459900Y-99878790D01*
X157697995Y-100354980D02*
X157697995Y-99354980D01*
X157317042Y-99354980D01*
X157221804Y-99402600D01*
X157174185Y-99450219D01*
X157126566Y-99545457D01*
X157126566Y-99688314D01*
X157174185Y-99783552D01*
X157221804Y-99831171D01*
X157317042Y-99878790D01*
X157697995Y-99878790D01*
X156269423Y-99688314D02*
X156269423Y-100354980D01*
X156507519Y-99307361D02*
X156745614Y-100021647D01*
X156126566Y-100021647D01*
%TO.C,R17*%
X155332857Y-135702380D02*
X155666190Y-135226190D01*
X155904285Y-135702380D02*
X155904285Y-134702380D01*
X155523333Y-134702380D01*
X155428095Y-134750000D01*
X155380476Y-134797619D01*
X155332857Y-134892857D01*
X155332857Y-135035714D01*
X155380476Y-135130952D01*
X155428095Y-135178571D01*
X155523333Y-135226190D01*
X155904285Y-135226190D01*
X154380476Y-135702380D02*
X154951904Y-135702380D01*
X154666190Y-135702380D02*
X154666190Y-134702380D01*
X154761428Y-134845238D01*
X154856666Y-134940476D01*
X154951904Y-134988095D01*
X154047142Y-134702380D02*
X153380476Y-134702380D01*
X153809047Y-135702380D01*
%TO.C,R22*%
X159152857Y-135462380D02*
X159486190Y-134986190D01*
X159724285Y-135462380D02*
X159724285Y-134462380D01*
X159343333Y-134462380D01*
X159248095Y-134510000D01*
X159200476Y-134557619D01*
X159152857Y-134652857D01*
X159152857Y-134795714D01*
X159200476Y-134890952D01*
X159248095Y-134938571D01*
X159343333Y-134986190D01*
X159724285Y-134986190D01*
X158771904Y-134557619D02*
X158724285Y-134510000D01*
X158629047Y-134462380D01*
X158390952Y-134462380D01*
X158295714Y-134510000D01*
X158248095Y-134557619D01*
X158200476Y-134652857D01*
X158200476Y-134748095D01*
X158248095Y-134890952D01*
X158819523Y-135462380D01*
X158200476Y-135462380D01*
X157819523Y-134557619D02*
X157771904Y-134510000D01*
X157676666Y-134462380D01*
X157438571Y-134462380D01*
X157343333Y-134510000D01*
X157295714Y-134557619D01*
X157248095Y-134652857D01*
X157248095Y-134748095D01*
X157295714Y-134890952D01*
X157867142Y-135462380D01*
X157248095Y-135462380D01*
%TO.C,R7*%
X157411666Y-64226456D02*
X157745000Y-63750266D01*
X157983095Y-64226456D02*
X157983095Y-63226456D01*
X157602142Y-63226456D01*
X157506904Y-63274076D01*
X157459285Y-63321695D01*
X157411666Y-63416933D01*
X157411666Y-63559790D01*
X157459285Y-63655028D01*
X157506904Y-63702647D01*
X157602142Y-63750266D01*
X157983095Y-63750266D01*
X157078333Y-63226456D02*
X156411666Y-63226456D01*
X156840238Y-64226456D01*
%TO.C,R13*%
X153052380Y-109857142D02*
X152576190Y-109523809D01*
X153052380Y-109285714D02*
X152052380Y-109285714D01*
X152052380Y-109666666D01*
X152100000Y-109761904D01*
X152147619Y-109809523D01*
X152242857Y-109857142D01*
X152385714Y-109857142D01*
X152480952Y-109809523D01*
X152528571Y-109761904D01*
X152576190Y-109666666D01*
X152576190Y-109285714D01*
X153052380Y-110809523D02*
X153052380Y-110238095D01*
X153052380Y-110523809D02*
X152052380Y-110523809D01*
X152195238Y-110428571D01*
X152290476Y-110333333D01*
X152338095Y-110238095D01*
X152052380Y-111142857D02*
X152052380Y-111761904D01*
X152433333Y-111428571D01*
X152433333Y-111571428D01*
X152480952Y-111666666D01*
X152528571Y-111714285D01*
X152623809Y-111761904D01*
X152861904Y-111761904D01*
X152957142Y-111714285D01*
X153004761Y-111666666D01*
X153052380Y-111571428D01*
X153052380Y-111285714D01*
X153004761Y-111190476D01*
X152957142Y-111142857D01*
%TO.C,R3*%
X156291666Y-88104980D02*
X156625000Y-87628790D01*
X156863095Y-88104980D02*
X156863095Y-87104980D01*
X156482142Y-87104980D01*
X156386904Y-87152600D01*
X156339285Y-87200219D01*
X156291666Y-87295457D01*
X156291666Y-87438314D01*
X156339285Y-87533552D01*
X156386904Y-87581171D01*
X156482142Y-87628790D01*
X156863095Y-87628790D01*
X155958333Y-87104980D02*
X155339285Y-87104980D01*
X155672619Y-87485933D01*
X155529761Y-87485933D01*
X155434523Y-87533552D01*
X155386904Y-87581171D01*
X155339285Y-87676409D01*
X155339285Y-87914504D01*
X155386904Y-88009742D01*
X155434523Y-88057361D01*
X155529761Y-88104980D01*
X155815476Y-88104980D01*
X155910714Y-88057361D01*
X155958333Y-88009742D01*
%TO.C,R10*%
X155542857Y-124752380D02*
X155876190Y-124276190D01*
X156114285Y-124752380D02*
X156114285Y-123752380D01*
X155733333Y-123752380D01*
X155638095Y-123800000D01*
X155590476Y-123847619D01*
X155542857Y-123942857D01*
X155542857Y-124085714D01*
X155590476Y-124180952D01*
X155638095Y-124228571D01*
X155733333Y-124276190D01*
X156114285Y-124276190D01*
X154590476Y-124752380D02*
X155161904Y-124752380D01*
X154876190Y-124752380D02*
X154876190Y-123752380D01*
X154971428Y-123895238D01*
X155066666Y-123990476D01*
X155161904Y-124038095D01*
X153971428Y-123752380D02*
X153876190Y-123752380D01*
X153780952Y-123800000D01*
X153733333Y-123847619D01*
X153685714Y-123942857D01*
X153638095Y-124133333D01*
X153638095Y-124371428D01*
X153685714Y-124561904D01*
X153733333Y-124657142D01*
X153780952Y-124704761D01*
X153876190Y-124752380D01*
X153971428Y-124752380D01*
X154066666Y-124704761D01*
X154114285Y-124657142D01*
X154161904Y-124561904D01*
X154209523Y-124371428D01*
X154209523Y-124133333D01*
X154161904Y-123942857D01*
X154114285Y-123847619D01*
X154066666Y-123800000D01*
X153971428Y-123752380D01*
%TO.C,R21*%
X148402380Y-140557142D02*
X147926190Y-140223809D01*
X148402380Y-139985714D02*
X147402380Y-139985714D01*
X147402380Y-140366666D01*
X147450000Y-140461904D01*
X147497619Y-140509523D01*
X147592857Y-140557142D01*
X147735714Y-140557142D01*
X147830952Y-140509523D01*
X147878571Y-140461904D01*
X147926190Y-140366666D01*
X147926190Y-139985714D01*
X147497619Y-140938095D02*
X147450000Y-140985714D01*
X147402380Y-141080952D01*
X147402380Y-141319047D01*
X147450000Y-141414285D01*
X147497619Y-141461904D01*
X147592857Y-141509523D01*
X147688095Y-141509523D01*
X147830952Y-141461904D01*
X148402380Y-140890476D01*
X148402380Y-141509523D01*
X148402380Y-142461904D02*
X148402380Y-141890476D01*
X148402380Y-142176190D02*
X147402380Y-142176190D01*
X147545238Y-142080952D01*
X147640476Y-141985714D01*
X147688095Y-141890476D01*
%TO.C,R6*%
X156561666Y-55201456D02*
X156895000Y-54725266D01*
X157133095Y-55201456D02*
X157133095Y-54201456D01*
X156752142Y-54201456D01*
X156656904Y-54249076D01*
X156609285Y-54296695D01*
X156561666Y-54391933D01*
X156561666Y-54534790D01*
X156609285Y-54630028D01*
X156656904Y-54677647D01*
X156752142Y-54725266D01*
X157133095Y-54725266D01*
X155704523Y-54201456D02*
X155895000Y-54201456D01*
X155990238Y-54249076D01*
X156037857Y-54296695D01*
X156133095Y-54439552D01*
X156180714Y-54630028D01*
X156180714Y-55010980D01*
X156133095Y-55106218D01*
X156085476Y-55153837D01*
X155990238Y-55201456D01*
X155799761Y-55201456D01*
X155704523Y-55153837D01*
X155656904Y-55106218D01*
X155609285Y-55010980D01*
X155609285Y-54772885D01*
X155656904Y-54677647D01*
X155704523Y-54630028D01*
X155799761Y-54582409D01*
X155990238Y-54582409D01*
X156085476Y-54630028D01*
X156133095Y-54677647D01*
X156180714Y-54772885D01*
%TO.C,R12*%
X151427380Y-104082142D02*
X150951190Y-103748809D01*
X151427380Y-103510714D02*
X150427380Y-103510714D01*
X150427380Y-103891666D01*
X150475000Y-103986904D01*
X150522619Y-104034523D01*
X150617857Y-104082142D01*
X150760714Y-104082142D01*
X150855952Y-104034523D01*
X150903571Y-103986904D01*
X150951190Y-103891666D01*
X150951190Y-103510714D01*
X151427380Y-105034523D02*
X151427380Y-104463095D01*
X151427380Y-104748809D02*
X150427380Y-104748809D01*
X150570238Y-104653571D01*
X150665476Y-104558333D01*
X150713095Y-104463095D01*
X150522619Y-105415476D02*
X150475000Y-105463095D01*
X150427380Y-105558333D01*
X150427380Y-105796428D01*
X150475000Y-105891666D01*
X150522619Y-105939285D01*
X150617857Y-105986904D01*
X150713095Y-105986904D01*
X150855952Y-105939285D01*
X151427380Y-105367857D01*
X151427380Y-105986904D01*
%TO.C,R8*%
X156311566Y-89629980D02*
X156644900Y-89153790D01*
X156882995Y-89629980D02*
X156882995Y-88629980D01*
X156502042Y-88629980D01*
X156406804Y-88677600D01*
X156359185Y-88725219D01*
X156311566Y-88820457D01*
X156311566Y-88963314D01*
X156359185Y-89058552D01*
X156406804Y-89106171D01*
X156502042Y-89153790D01*
X156882995Y-89153790D01*
X155740138Y-89058552D02*
X155835376Y-89010933D01*
X155882995Y-88963314D01*
X155930614Y-88868076D01*
X155930614Y-88820457D01*
X155882995Y-88725219D01*
X155835376Y-88677600D01*
X155740138Y-88629980D01*
X155549661Y-88629980D01*
X155454423Y-88677600D01*
X155406804Y-88725219D01*
X155359185Y-88820457D01*
X155359185Y-88868076D01*
X155406804Y-88963314D01*
X155454423Y-89010933D01*
X155549661Y-89058552D01*
X155740138Y-89058552D01*
X155835376Y-89106171D01*
X155882995Y-89153790D01*
X155930614Y-89249028D01*
X155930614Y-89439504D01*
X155882995Y-89534742D01*
X155835376Y-89582361D01*
X155740138Y-89629980D01*
X155549661Y-89629980D01*
X155454423Y-89582361D01*
X155406804Y-89534742D01*
X155359185Y-89439504D01*
X155359185Y-89249028D01*
X155406804Y-89153790D01*
X155454423Y-89106171D01*
X155549661Y-89058552D01*
%TO.C,R14*%
X154552380Y-109857142D02*
X154076190Y-109523809D01*
X154552380Y-109285714D02*
X153552380Y-109285714D01*
X153552380Y-109666666D01*
X153600000Y-109761904D01*
X153647619Y-109809523D01*
X153742857Y-109857142D01*
X153885714Y-109857142D01*
X153980952Y-109809523D01*
X154028571Y-109761904D01*
X154076190Y-109666666D01*
X154076190Y-109285714D01*
X154552380Y-110809523D02*
X154552380Y-110238095D01*
X154552380Y-110523809D02*
X153552380Y-110523809D01*
X153695238Y-110428571D01*
X153790476Y-110333333D01*
X153838095Y-110238095D01*
X153885714Y-111666666D02*
X154552380Y-111666666D01*
X153504761Y-111428571D02*
X154219047Y-111190476D01*
X154219047Y-111809523D01*
%TO.C,R19*%
X141867857Y-111027380D02*
X142201190Y-110551190D01*
X142439285Y-111027380D02*
X142439285Y-110027380D01*
X142058333Y-110027380D01*
X141963095Y-110075000D01*
X141915476Y-110122619D01*
X141867857Y-110217857D01*
X141867857Y-110360714D01*
X141915476Y-110455952D01*
X141963095Y-110503571D01*
X142058333Y-110551190D01*
X142439285Y-110551190D01*
X140915476Y-111027380D02*
X141486904Y-111027380D01*
X141201190Y-111027380D02*
X141201190Y-110027380D01*
X141296428Y-110170238D01*
X141391666Y-110265476D01*
X141486904Y-110313095D01*
X140439285Y-111027380D02*
X140248809Y-111027380D01*
X140153571Y-110979761D01*
X140105952Y-110932142D01*
X140010714Y-110789285D01*
X139963095Y-110598809D01*
X139963095Y-110217857D01*
X140010714Y-110122619D01*
X140058333Y-110075000D01*
X140153571Y-110027380D01*
X140344047Y-110027380D01*
X140439285Y-110075000D01*
X140486904Y-110122619D01*
X140534523Y-110217857D01*
X140534523Y-110455952D01*
X140486904Y-110551190D01*
X140439285Y-110598809D01*
X140344047Y-110646428D01*
X140153571Y-110646428D01*
X140058333Y-110598809D01*
X140010714Y-110551190D01*
X139963095Y-110455952D01*
%TO.C,U2*%
X150572280Y-92915695D02*
X151381804Y-92915695D01*
X151477042Y-92963314D01*
X151524661Y-93010933D01*
X151572280Y-93106171D01*
X151572280Y-93296647D01*
X151524661Y-93391885D01*
X151477042Y-93439504D01*
X151381804Y-93487123D01*
X150572280Y-93487123D01*
X150667519Y-93915695D02*
X150619900Y-93963314D01*
X150572280Y-94058552D01*
X150572280Y-94296647D01*
X150619900Y-94391885D01*
X150667519Y-94439504D01*
X150762757Y-94487123D01*
X150857995Y-94487123D01*
X151000852Y-94439504D01*
X151572280Y-93868076D01*
X151572280Y-94487123D01*
%TO.C,R20*%
X157277380Y-137282142D02*
X156801190Y-136948809D01*
X157277380Y-136710714D02*
X156277380Y-136710714D01*
X156277380Y-137091666D01*
X156325000Y-137186904D01*
X156372619Y-137234523D01*
X156467857Y-137282142D01*
X156610714Y-137282142D01*
X156705952Y-137234523D01*
X156753571Y-137186904D01*
X156801190Y-137091666D01*
X156801190Y-136710714D01*
X156372619Y-137663095D02*
X156325000Y-137710714D01*
X156277380Y-137805952D01*
X156277380Y-138044047D01*
X156325000Y-138139285D01*
X156372619Y-138186904D01*
X156467857Y-138234523D01*
X156563095Y-138234523D01*
X156705952Y-138186904D01*
X157277380Y-137615476D01*
X157277380Y-138234523D01*
X156277380Y-138853571D02*
X156277380Y-138948809D01*
X156325000Y-139044047D01*
X156372619Y-139091666D01*
X156467857Y-139139285D01*
X156658333Y-139186904D01*
X156896428Y-139186904D01*
X157086904Y-139139285D01*
X157182142Y-139091666D01*
X157229761Y-139044047D01*
X157277380Y-138948809D01*
X157277380Y-138853571D01*
X157229761Y-138758333D01*
X157182142Y-138710714D01*
X157086904Y-138663095D01*
X156896428Y-138615476D01*
X156658333Y-138615476D01*
X156467857Y-138663095D01*
X156372619Y-138710714D01*
X156325000Y-138758333D01*
X156277380Y-138853571D01*
%TO.C,U3*%
X158882380Y-131018095D02*
X159691904Y-131018095D01*
X159787142Y-131065714D01*
X159834761Y-131113333D01*
X159882380Y-131208571D01*
X159882380Y-131399047D01*
X159834761Y-131494285D01*
X159787142Y-131541904D01*
X159691904Y-131589523D01*
X158882380Y-131589523D01*
X158882380Y-131970476D02*
X158882380Y-132589523D01*
X159263333Y-132256190D01*
X159263333Y-132399047D01*
X159310952Y-132494285D01*
X159358571Y-132541904D01*
X159453809Y-132589523D01*
X159691904Y-132589523D01*
X159787142Y-132541904D01*
X159834761Y-132494285D01*
X159882380Y-132399047D01*
X159882380Y-132113333D01*
X159834761Y-132018095D01*
X159787142Y-131970476D01*
%TO.C,R15*%
X148252380Y-103957142D02*
X147776190Y-103623809D01*
X148252380Y-103385714D02*
X147252380Y-103385714D01*
X147252380Y-103766666D01*
X147300000Y-103861904D01*
X147347619Y-103909523D01*
X147442857Y-103957142D01*
X147585714Y-103957142D01*
X147680952Y-103909523D01*
X147728571Y-103861904D01*
X147776190Y-103766666D01*
X147776190Y-103385714D01*
X148252380Y-104909523D02*
X148252380Y-104338095D01*
X148252380Y-104623809D02*
X147252380Y-104623809D01*
X147395238Y-104528571D01*
X147490476Y-104433333D01*
X147538095Y-104338095D01*
X147252380Y-105814285D02*
X147252380Y-105338095D01*
X147728571Y-105290476D01*
X147680952Y-105338095D01*
X147633333Y-105433333D01*
X147633333Y-105671428D01*
X147680952Y-105766666D01*
X147728571Y-105814285D01*
X147823809Y-105861904D01*
X148061904Y-105861904D01*
X148157142Y-105814285D01*
X148204761Y-105766666D01*
X148252380Y-105671428D01*
X148252380Y-105433333D01*
X148204761Y-105338095D01*
X148157142Y-105290476D01*
%TO.C,R2*%
X157411666Y-65801456D02*
X157745000Y-65325266D01*
X157983095Y-65801456D02*
X157983095Y-64801456D01*
X157602142Y-64801456D01*
X157506904Y-64849076D01*
X157459285Y-64896695D01*
X157411666Y-64991933D01*
X157411666Y-65134790D01*
X157459285Y-65230028D01*
X157506904Y-65277647D01*
X157602142Y-65325266D01*
X157983095Y-65325266D01*
X157030714Y-64896695D02*
X156983095Y-64849076D01*
X156887857Y-64801456D01*
X156649761Y-64801456D01*
X156554523Y-64849076D01*
X156506904Y-64896695D01*
X156459285Y-64991933D01*
X156459285Y-65087171D01*
X156506904Y-65230028D01*
X157078333Y-65801456D01*
X156459285Y-65801456D01*
%TO.C,R5*%
X158666666Y-123152380D02*
X159000000Y-122676190D01*
X159238095Y-123152380D02*
X159238095Y-122152380D01*
X158857142Y-122152380D01*
X158761904Y-122200000D01*
X158714285Y-122247619D01*
X158666666Y-122342857D01*
X158666666Y-122485714D01*
X158714285Y-122580952D01*
X158761904Y-122628571D01*
X158857142Y-122676190D01*
X159238095Y-122676190D01*
X157761904Y-122152380D02*
X158238095Y-122152380D01*
X158285714Y-122628571D01*
X158238095Y-122580952D01*
X158142857Y-122533333D01*
X157904761Y-122533333D01*
X157809523Y-122580952D01*
X157761904Y-122628571D01*
X157714285Y-122723809D01*
X157714285Y-122961904D01*
X157761904Y-123057142D01*
X157809523Y-123104761D01*
X157904761Y-123152380D01*
X158142857Y-123152380D01*
X158238095Y-123104761D01*
X158285714Y-123057142D01*
D11*
%TO.C,R16*%
X151944724Y-125022500D02*
X151435276Y-125022500D01*
X151944724Y-123977500D02*
X151435276Y-123977500D01*
%TO.C,U1*%
X152235000Y-59249076D02*
X152235000Y-61199076D01*
X157355000Y-59249076D02*
X157355000Y-61199076D01*
X152235000Y-59249076D02*
X152235000Y-55799076D01*
X157355000Y-59249076D02*
X157355000Y-57299076D01*
%TO.C,R18*%
X151944724Y-133077500D02*
X151435276Y-133077500D01*
X151944724Y-134122500D02*
X151435276Y-134122500D01*
%TO.C,R1*%
X153490276Y-53671576D02*
X153999724Y-53671576D01*
X153490276Y-52626576D02*
X153999724Y-52626576D01*
%TO.C,R11*%
X149922500Y-107245276D02*
X149922500Y-107754724D01*
X148877500Y-107245276D02*
X148877500Y-107754724D01*
%TO.C,R9*%
X154514624Y-97805100D02*
X154005176Y-97805100D01*
X154514624Y-98850100D02*
X154005176Y-98850100D01*
%TO.C,R4*%
X154030176Y-100425100D02*
X154539624Y-100425100D01*
X154030176Y-99380100D02*
X154539624Y-99380100D01*
%TO.C,J1*%
X139017500Y-130830000D02*
X139017500Y-129830000D01*
X141717500Y-116260000D02*
X141717500Y-123200000D01*
X140407500Y-135540000D02*
X149527500Y-135540000D01*
X141717500Y-127300000D02*
X141717500Y-134240000D01*
X141717500Y-123200000D02*
X141717500Y-123200000D01*
X140017500Y-130330000D02*
X139017500Y-130830000D01*
X149527500Y-135540000D02*
X149527500Y-114960000D01*
X148217500Y-134240000D02*
X148217500Y-116260000D01*
X148217500Y-116260000D02*
X141717500Y-116260000D01*
X140407500Y-127300000D02*
X141717500Y-127300000D01*
X139017500Y-129830000D02*
X140017500Y-130330000D01*
X149527500Y-114960000D02*
X140407500Y-114960000D01*
X140407500Y-114960000D02*
X140407500Y-135540000D01*
X141717500Y-123200000D02*
X140407500Y-123200000D01*
X141717500Y-134240000D02*
X148217500Y-134240000D01*
%TO.C,R17*%
X151435276Y-135722500D02*
X151944724Y-135722500D01*
X151435276Y-134677500D02*
X151944724Y-134677500D01*
%TO.C,R22*%
X157754724Y-134122500D02*
X157245276Y-134122500D01*
X157754724Y-133077500D02*
X157245276Y-133077500D01*
%TO.C,R7*%
X154799724Y-63251576D02*
X154290276Y-63251576D01*
X154799724Y-64296576D02*
X154290276Y-64296576D01*
%TO.C,R13*%
X153122500Y-107245276D02*
X153122500Y-107754724D01*
X152077500Y-107245276D02*
X152077500Y-107754724D01*
%TO.C,R3*%
X153245276Y-87130100D02*
X153754724Y-87130100D01*
X153245276Y-88175100D02*
X153754724Y-88175100D01*
%TO.C,R10*%
X157535276Y-123777500D02*
X158044724Y-123777500D01*
X157535276Y-124822500D02*
X158044724Y-124822500D01*
%TO.C,R21*%
X148777500Y-140945276D02*
X148777500Y-141454724D01*
X149822500Y-140945276D02*
X149822500Y-141454724D01*
%TO.C,R6*%
X153999724Y-54226576D02*
X153490276Y-54226576D01*
X153999724Y-55271576D02*
X153490276Y-55271576D01*
%TO.C,R12*%
X150477500Y-107245276D02*
X150477500Y-107754724D01*
X151522500Y-107245276D02*
X151522500Y-107754724D01*
%TO.C,R8*%
X153724624Y-89700100D02*
X153215176Y-89700100D01*
X153724624Y-88655100D02*
X153215176Y-88655100D01*
%TO.C,R14*%
X153677500Y-107245276D02*
X153677500Y-107754724D01*
X154722500Y-107245276D02*
X154722500Y-107754724D01*
%TO.C,R19*%
X141747500Y-112595276D02*
X141747500Y-113104724D01*
X140702500Y-112595276D02*
X140702500Y-113104724D01*
%TO.C,U2*%
X151959900Y-93677600D02*
X151959900Y-90227600D01*
X157079900Y-93677600D02*
X157079900Y-95627600D01*
X157079900Y-93677600D02*
X157079900Y-91727600D01*
X151959900Y-93677600D02*
X151959900Y-95627600D01*
%TO.C,R20*%
X158522500Y-137745276D02*
X158522500Y-138254724D01*
X157477500Y-137745276D02*
X157477500Y-138254724D01*
%TO.C,U3*%
X150155000Y-129025000D02*
X150155000Y-130975000D01*
X159025000Y-129025000D02*
X159025000Y-127075000D01*
X150155000Y-129025000D02*
X150155000Y-125575000D01*
X159025000Y-129025000D02*
X159025000Y-130975000D01*
%TO.C,R15*%
X147277500Y-107245276D02*
X147277500Y-107754724D01*
X148322500Y-107245276D02*
X148322500Y-107754724D01*
%TO.C,R2*%
X154290276Y-65871576D02*
X154799724Y-65871576D01*
X154290276Y-64826576D02*
X154799724Y-64826576D01*
%TO.C,R5*%
X155745276Y-122177500D02*
X156254724Y-122177500D01*
X155745276Y-123222500D02*
X156254724Y-123222500D01*
%TD*%
M02*
